<svg width="106" height="630" viewBox="0 0 106 630" fill="none" xmlns="http://www.w3.org/2000/svg">
<mask id="path-1-outside-1_294_181" maskUnits="userSpaceOnUse" x="-1.5" y="-1.5" width="108" height="633" fill="white">
<rect fill="white" x="-1.5" y="-1.5" width="108" height="633"/>
<path d="M2.5 0.5625L97.25 50.1875C100.625 51.8958 102.875 55.0417 104 59.625C104.333 60.9583 104.5 62.6042 104.5 64.5625C104.5 66.5208 103.938 68.6458 102.812 70.9375C101.729 73.2708 100 75.1042 97.625 76.4375L2.5 129.688V79L12.375 75.0625V48.0625L2.5 44.6875V0.5625ZM32.1875 51.125V71.3125L59.1875 61.75L32.1875 51.125ZM102.312 151.988C103.354 174.613 103.875 190.863 103.875 200.738C103.875 219.113 101.792 232.3 97.625 240.3C93.875 247.467 88.1875 251.05 80.5625 251.05C75.9792 251.05 72.125 249.842 69 247.425C65.9167 245.05 63.25 241.404 61 236.488C58.9167 242.654 55.9583 247.404 52.125 250.738C47.0833 255.113 40.1667 257.3 31.375 257.3C12.4167 257.3 2.39583 242.633 1.3125 213.3C1.14583 209.092 1.0625 205.821 1.0625 203.488C1.0625 201.154 1.08333 199.133 1.125 197.425C1.16667 195.717 1.22917 193.758 1.3125 191.55C1.35417 189.383 1.41667 187.008 1.5 184.425C1.54167 181.883 1.625 179.3 1.75 176.675C1.83333 174.05 1.91667 171.467 2 168.925C2.08333 166.383 2.1875 164.008 2.3125 161.8C2.39583 159.592 2.45833 157.633 2.5 155.925C2.58333 154.217 2.66667 152.904 2.75 151.988H102.312ZM41.3125 215.738C44.8125 215.738 46.5625 213.675 46.5625 209.55C46.6042 206.425 44.7917 201.571 41.125 194.988C40.2917 193.446 39.5833 192.133 39 191.05H23.25C23.4583 191.633 23.6667 192.175 23.875 192.675C24.0833 193.217 24.5417 194.425 25.25 196.3C27.75 202.967 29.8125 207.508 31.4375 209.925C34.0625 213.842 37.3542 215.779 41.3125 215.738ZM56.625 191.05C59.375 198.133 61.5625 202.842 63.1875 205.175C66.4375 210.008 69.9375 212.425 73.6875 212.425C76.3125 212.425 78 211.05 78.75 208.3C78.9583 207.55 79.0625 206.758 79.0625 205.925C79.0625 205.092 78.9167 204.113 78.625 202.988C78.3333 201.904 77.9583 200.821 77.5 199.738C76.875 198.071 75.9583 196.217 74.75 194.175C73.5833 192.175 72.9583 191.133 72.875 191.05H56.625ZM64.375 352.663C71.4167 352.663 74.9375 349.288 74.9375 342.538C74.9375 339.621 73.1042 336.371 69.4375 332.788C63.8958 327.413 57.2917 323.663 49.625 321.538C47.2083 320.871 44.9792 320.538 42.9375 320.538C36.0208 320.538 32.5625 324.038 32.5625 331.038C32.5208 333.829 34.375 337.017 38.125 340.6C43.625 345.808 50.2917 349.496 58.125 351.663C60.5417 352.329 62.625 352.663 64.375 352.663ZM0.0625 335.6C0.0625 320.808 4.85417 307.975 14.4375 297.1C17.4792 293.642 20.9583 290.642 24.875 288.1C33.1667 282.683 42.4375 279.975 52.6875 279.975C62.9792 279.975 72.0833 282.475 80 287.475C87.9167 292.475 94.0833 299.183 98.5 307.6C102.917 316.017 105.125 324.725 105.125 333.725C105.125 342.767 103.917 350.725 101.5 357.6C99.0833 364.475 95.6042 370.454 91.0625 375.538C86.5625 380.663 81.0417 384.683 74.5 387.6C67.9583 390.517 60.5625 391.975 52.3125 391.975C42.0625 391.975 32.9375 389.371 24.9375 384.163C16.9792 378.954 10.8333 372.017 6.5 363.35C2.20833 354.683 0.0625 345.433 0.0625 335.6ZM0.0625 465.837C0.0625 432.712 14.1458 416.15 42.3125 416.15H102.313V455.587H43.4375C37.5208 455.587 33.6667 457.567 31.875 461.525C31.25 462.9 30.9375 464.546 30.9375 466.462C30.9375 471.879 33.5208 475.296 38.6875 476.712C40.2292 477.129 41.8958 477.337 43.6875 477.337H102.313V511.9H42.3125C14.1458 511.9 0.0625 496.546 0.0625 465.837ZM102.313 535.013V629.513H69.9375V601.7H2.5V562.825H69.9375L69.9375 535.013H102.313Z"/>
</mask>
<path d="M2.5 0.5625L2.96396 -0.323354L1.5 -1.0901V0.5625H2.5ZM97.25 50.1875L96.786 51.0734L96.7984 51.0797L97.25 50.1875ZM104 59.625L103.029 59.8634L103.03 59.8675L104 59.625ZM102.812 70.9375L101.915 70.4968L101.91 70.5066L101.905 70.5164L102.812 70.9375ZM97.625 76.4375L98.1135 77.3101L98.1145 77.3095L97.625 76.4375ZM2.5 129.688H1.5V131.393L2.98846 130.56L2.5 129.688ZM2.5 79L2.12962 78.0711L1.5 78.3222V79H2.5ZM12.375 75.0625L12.7454 75.9914L13.375 75.7403V75.0625H12.375ZM12.375 48.0625H13.375V47.3475L12.6984 47.1162L12.375 48.0625ZM2.5 44.6875H1.5V45.4025L2.17659 45.6338L2.5 44.6875ZM32.1875 51.125L32.5537 50.1945L31.1875 49.6568V51.125H32.1875ZM32.1875 71.3125H31.1875V72.7275L32.5213 72.2551L32.1875 71.3125ZM59.1875 61.75L59.5213 62.6926L62.0437 61.7993L59.5537 60.8195L59.1875 61.75ZM2.03604 1.44835L96.786 51.0734L97.714 49.3016L2.96396 -0.323354L2.03604 1.44835ZM96.7984 51.0797C99.8506 52.6246 101.955 55.4873 103.029 59.8634L104.971 59.3866C103.795 54.596 101.399 51.167 97.7016 49.2953L96.7984 51.0797ZM103.03 59.8675C103.337 61.0959 103.5 62.6544 103.5 64.5625H105.5C105.5 62.5539 105.33 60.8208 104.97 59.3825L103.03 59.8675ZM103.5 64.5625C103.5 66.3289 102.992 68.3022 101.915 70.4968L103.71 71.3782C104.883 68.9894 105.5 66.7127 105.5 64.5625H103.5ZM101.905 70.5164C100.916 72.6478 99.3389 74.3285 97.1355 75.5655L98.1145 77.3095C100.661 75.8798 102.542 73.8939 103.72 71.3586L101.905 70.5164ZM97.1365 75.5649L2.01154 128.815L2.98846 130.56L98.1135 77.3101L97.1365 75.5649ZM3.5 129.688V79H1.5V129.688H3.5ZM2.87038 79.9289L12.7454 75.9914L12.0046 74.1336L2.12962 78.0711L2.87038 79.9289ZM13.375 75.0625V48.0625H11.375V75.0625H13.375ZM12.6984 47.1162L2.82341 43.7412L2.17659 45.6338L12.0516 49.0088L12.6984 47.1162ZM3.5 44.6875V0.5625H1.5V44.6875H3.5ZM31.1875 51.125V71.3125H33.1875V51.125H31.1875ZM32.5213 72.2551L59.5213 62.6926L58.8537 60.8074L31.8537 70.3699L32.5213 72.2551ZM59.5537 60.8195L32.5537 50.1945L31.8213 52.0555L58.8213 62.6805L59.5537 60.8195ZM102.312 151.988L103.311 151.942L103.268 150.988H102.312V151.988ZM97.625 240.3L98.511 240.764L98.5119 240.762L97.625 240.3ZM69 247.425L69.6117 246.634L69.6102 246.633L69 247.425ZM61 236.488L61.9093 236.071L60.8598 233.778L60.0526 236.167L61 236.488ZM52.125 250.738L52.7804 251.493L52.7812 251.492L52.125 250.738ZM1.3125 213.3L2.31182 213.263L2.31172 213.26L1.3125 213.3ZM1.3125 191.55L2.31179 191.588L2.31214 191.578L2.31232 191.569L1.3125 191.55ZM1.5 184.425L2.49948 184.457L2.49974 184.449L2.49987 184.441L1.5 184.425ZM1.75 176.675L2.74887 176.723L2.74925 176.715L2.7495 176.707L1.75 176.675ZM2.3125 161.8L3.3109 161.857L3.31143 161.847L3.31179 161.838L2.3125 161.8ZM2.5 155.925L1.50119 155.876L1.50059 155.888L1.5003 155.901L2.5 155.925ZM2.75 151.988V150.988H1.83679L1.75411 151.897L2.75 151.988ZM41.3125 215.738V214.737L41.302 214.738L41.3125 215.738ZM46.5625 209.55L45.5625 209.537V209.55H46.5625ZM41.125 194.988L40.2452 195.463L40.2514 195.474L41.125 194.988ZM39 191.05L39.8805 190.576L39.5973 190.05H39V191.05ZM23.25 191.05V190.05H21.831L22.3083 191.386L23.25 191.05ZM23.875 192.675L24.8083 192.316L24.8034 192.303L24.7981 192.29L23.875 192.675ZM25.25 196.3L26.1863 195.949L26.1855 195.947L25.25 196.3ZM31.4375 209.925L32.2682 209.368L32.2673 209.367L31.4375 209.925ZM56.625 191.05V190.05H55.164L55.6928 191.412L56.625 191.05ZM63.1875 205.175L64.0173 204.617L64.0128 204.61L64.0081 204.604L63.1875 205.175ZM78.75 208.3L77.7865 208.032L77.7852 208.037L78.75 208.3ZM78.625 202.988L79.593 202.737L79.5906 202.728L78.625 202.988ZM77.5 199.738L76.5637 200.089L76.571 200.108L76.579 200.127L77.5 199.738ZM74.75 194.175L73.8862 194.679L73.8894 194.684L74.75 194.175ZM72.875 191.05L73.5821 190.343L73.2892 190.05H72.875V191.05ZM101.314 152.033C102.355 174.658 102.875 190.888 102.875 200.738H104.875C104.875 190.837 104.353 174.567 103.311 151.942L101.314 152.033ZM102.875 200.738C102.875 219.086 100.787 232.065 96.7381 239.838L98.5119 240.762C102.797 232.535 104.875 219.139 104.875 200.738H102.875ZM96.739 239.836C94.9292 243.295 92.6805 245.836 90.0138 247.516C87.3503 249.195 84.2124 250.05 80.5625 250.05V252.05C84.5376 252.05 88.0559 251.114 91.0799 249.209C94.1007 247.305 96.5708 244.472 98.511 240.764L96.739 239.836ZM80.5625 250.05C76.1636 250.05 72.5344 248.894 69.6117 246.634L68.3883 248.216C71.7156 250.789 75.7947 252.05 80.5625 252.05V250.05ZM69.6102 246.633C66.696 244.388 64.1166 240.895 61.9093 236.071L60.0907 236.904C62.3834 241.914 65.1374 245.712 68.3898 248.217L69.6102 246.633ZM60.0526 236.167C58.0104 242.212 55.1356 246.794 51.4688 249.983L52.7812 251.492C56.7811 248.014 59.8229 243.096 61.9474 236.808L60.0526 236.167ZM51.4696 249.982C46.6609 254.155 40.0034 256.3 31.375 256.3V258.3C40.3299 258.3 47.5058 256.07 52.7804 251.493L51.4696 249.982ZM31.375 256.3C22.1998 256.3 15.276 252.775 10.4663 245.736C5.61105 238.63 2.8506 227.852 2.31182 213.263L0.313181 213.337C0.857737 228.082 3.64937 239.304 8.81494 246.864C14.0261 254.491 21.5918 258.3 31.375 258.3V256.3ZM2.31172 213.26C2.14523 209.057 2.0625 205.801 2.0625 203.488H0.0625C0.0625 205.841 0.146437 209.127 0.313283 213.34L2.31172 213.26ZM2.0625 203.488C2.0625 201.16 2.08329 199.147 2.1247 197.449L0.125297 197.401C0.0833759 199.119 0.0625 201.149 0.0625 203.488H2.0625ZM2.1247 197.449C2.16624 195.747 2.22858 193.793 2.31179 191.588L0.313211 191.512C0.229756 193.724 0.167098 195.687 0.125297 197.401L2.1247 197.449ZM2.31232 191.569C2.35388 189.408 2.41626 187.037 2.49948 184.457L0.50052 184.393C0.417072 186.98 0.354449 189.359 0.312685 191.531L2.31232 191.569ZM2.49987 184.441C2.54136 181.91 2.62435 179.338 2.74887 176.723L0.751132 176.627C0.625654 179.262 0.541977 181.856 0.500134 184.409L2.49987 184.441ZM2.7495 176.707C2.83282 174.082 2.91614 171.499 2.99946 168.958L1.00054 168.892C0.917192 171.434 0.833847 174.018 0.750504 176.643L2.7495 176.707ZM2.99946 168.958C3.08257 166.423 3.18641 164.056 3.3109 161.857L1.3141 161.743C1.18859 163.961 1.08409 166.344 1.00054 168.892L2.99946 168.958ZM3.31179 161.838C3.39524 159.626 3.4579 157.663 3.4997 155.949L1.5003 155.901C1.45876 157.603 1.39642 159.557 1.31321 161.762L3.31179 161.838ZM3.49881 155.974C3.58194 154.27 3.66447 152.974 3.74589 152.078L1.75411 151.897C1.66886 152.835 1.58473 154.164 1.50119 155.876L3.49881 155.974ZM2.75 152.988H102.312V150.988H2.75V152.988ZM41.3125 216.738C43.2636 216.738 44.8948 216.155 46.0125 214.838C47.1035 213.552 47.5625 211.73 47.5625 209.55H45.5625C45.5625 211.495 45.1465 212.767 44.4875 213.544C43.8552 214.289 42.8614 214.738 41.3125 214.738V216.738ZM47.5624 209.563C47.5856 207.822 47.0961 205.693 46.1712 203.216C45.2414 200.726 43.8465 197.819 41.9986 194.501L40.2514 195.474C42.0702 198.74 43.4148 201.551 44.2976 203.915C45.1852 206.293 45.581 208.153 45.5626 209.537L47.5624 209.563ZM42.0047 194.512C41.1715 192.971 40.4635 191.659 39.8805 190.576L38.1195 191.524C38.7032 192.608 39.4118 193.921 40.2453 195.463L42.0047 194.512ZM39 190.05H23.25V192.05H39V190.05ZM22.3083 191.386C22.5216 191.984 22.7361 192.542 22.9519 193.06L24.7981 192.29C24.5972 191.808 24.3951 191.283 24.1917 190.714L22.3083 191.386ZM22.9417 193.034C23.1487 193.572 23.6059 194.778 24.3145 196.653L26.1855 195.947C25.4774 194.072 25.018 192.861 24.8083 192.316L22.9417 193.034ZM24.3137 196.651C26.813 203.316 28.9102 207.959 30.6077 210.483L32.2673 209.367C30.7148 207.058 28.687 202.617 26.1863 195.949L24.3137 196.651ZM30.6068 210.482C33.3781 214.617 36.9593 216.783 41.323 216.737L41.302 214.738C37.7491 214.775 34.7469 213.067 32.2682 209.368L30.6068 210.482ZM55.6928 191.412C58.4391 198.486 60.6643 203.302 62.3669 205.746L64.0081 204.604C62.4607 202.382 60.3109 197.781 57.5572 190.688L55.6928 191.412ZM62.3577 205.733C65.6864 210.683 69.4501 213.425 73.6875 213.425V211.425C70.4249 211.425 67.1886 209.333 64.0173 204.617L62.3577 205.733ZM73.6875 213.425C75.181 213.425 76.4967 213.03 77.5535 212.169C78.6025 211.314 79.3018 210.077 79.7148 208.563L77.7852 208.037C77.4482 209.273 76.9287 210.098 76.2902 210.619C75.6596 211.132 74.819 211.425 73.6875 211.425V213.425ZM79.7135 208.568C79.9477 207.725 80.0625 206.842 80.0625 205.925H78.0625C78.0625 206.674 77.969 207.375 77.7865 208.032L79.7135 208.568ZM80.0625 205.925C80.0625 204.981 79.8982 203.914 79.593 202.737L77.657 203.238C77.9351 204.311 78.0625 205.202 78.0625 205.925H80.0625ZM79.5906 202.728C79.2865 201.598 78.8963 200.471 78.421 199.348L76.579 200.127C77.0204 201.17 77.3802 202.21 77.6594 203.247L79.5906 202.728ZM78.4363 199.386C77.7853 197.65 76.8396 195.742 75.6106 193.666L73.8894 194.684C75.0771 196.691 75.9647 198.491 76.5637 200.089L78.4363 199.386ZM75.6138 193.671C75.0299 192.67 74.5795 191.905 74.2637 191.379C74.1063 191.117 73.9796 190.909 73.8853 190.759C73.8386 190.685 73.796 190.619 73.7596 190.565C73.7452 190.544 73.6727 190.433 73.5821 190.343L72.1679 191.757C72.0981 191.687 72.0634 191.627 72.1037 191.687C72.122 191.714 72.151 191.759 72.1928 191.825C72.2756 191.957 72.3937 192.15 72.5488 192.408C72.858 192.924 73.3035 193.68 73.8862 194.679L75.6138 193.671ZM72.875 190.05H56.625V192.05H72.875V190.05ZM69.4375 332.788L70.1364 332.072L70.1337 332.07L69.4375 332.788ZM49.625 321.538L49.8921 320.574L49.8909 320.574L49.625 321.538ZM32.5625 331.038L33.5624 331.052L33.5625 331.045V331.038H32.5625ZM38.125 340.6L37.4341 341.323L37.4374 341.326L38.125 340.6ZM58.125 351.663L57.8584 352.626L57.8591 352.626L58.125 351.663ZM14.4375 297.1L15.1878 297.761L15.1884 297.76L14.4375 297.1ZM24.875 288.1L25.4194 288.939L25.4219 288.937L24.875 288.1ZM91.0625 375.538L90.3168 374.871L90.3111 374.878L91.0625 375.538ZM24.9375 384.163L24.3899 384.999L24.3919 385.001L24.9375 384.163ZM6.5 363.35L5.60385 363.794L5.60557 363.797L6.5 363.35ZM64.375 353.663C68.0396 353.663 70.9736 352.785 72.9889 350.853C75.012 348.914 75.9375 346.078 75.9375 342.538H73.9375C73.9375 345.747 73.1026 347.974 71.6049 349.409C70.0993 350.853 67.752 351.663 64.375 351.663V353.663ZM75.9375 342.538C75.9375 339.208 73.8605 335.712 70.1364 332.072L68.7386 333.503C72.3479 337.03 73.9375 340.034 73.9375 342.538H75.9375ZM70.1337 332.07C64.4681 326.574 57.715 322.742 49.8921 320.574L49.3579 322.501C56.8683 324.583 63.3236 328.251 68.7413 333.505L70.1337 332.07ZM49.8909 320.574C47.4065 319.888 45.0867 319.538 42.9375 319.538V321.538C44.8716 321.538 47.0101 321.854 49.3591 322.501L49.8909 320.574ZM42.9375 319.538C39.322 319.538 36.4273 320.453 34.4449 322.46C32.4647 324.464 31.5625 327.386 31.5625 331.038H33.5625C33.5625 327.689 34.3895 325.361 35.8676 323.865C37.3435 322.372 39.6364 321.538 42.9375 321.538V319.538ZM31.5626 331.023C31.5144 334.253 33.64 337.697 37.4341 341.323L38.8159 339.877C35.11 336.336 33.5273 333.405 33.5624 331.052L31.5626 331.023ZM37.4374 341.326C43.0648 346.655 49.8792 350.419 57.8584 352.626L58.3916 350.699C50.7041 348.572 44.1852 344.962 38.8126 339.874L37.4374 341.326ZM57.8591 352.626C60.3284 353.308 62.5056 353.663 64.375 353.663V351.663C62.7444 351.663 60.755 351.351 58.3909 350.699L57.8591 352.626ZM1.0625 335.6C1.0625 321.046 5.76896 308.449 15.1878 297.761L13.6872 296.439C3.93938 307.501 -0.9375 320.57 -0.9375 335.6H1.0625ZM15.1884 297.76C18.1689 294.372 21.5783 291.431 25.4194 288.939L24.3306 287.261C20.3384 289.852 16.7895 292.912 13.6866 296.44L15.1884 297.76ZM25.4219 288.937C33.5451 283.631 42.6246 280.975 52.6875 280.975V278.975C42.2504 278.975 32.7883 281.736 24.3281 287.263L25.4219 288.937ZM52.6875 280.975C62.8096 280.975 71.7248 283.431 79.466 288.32L80.534 286.63C72.4419 281.519 63.1488 278.975 52.6875 278.975V280.975ZM79.466 288.32C87.2317 293.225 93.2782 299.801 97.6145 308.065L99.3855 307.135C94.8885 298.566 88.6016 291.725 80.534 286.63L79.466 288.32ZM97.6145 308.065C101.96 316.346 104.125 324.896 104.125 333.725H106.125C106.125 324.554 103.873 315.687 99.3855 307.135L97.6145 308.065ZM104.125 333.725C104.125 342.68 102.928 350.522 100.557 357.268L102.443 357.932C104.905 350.928 106.125 342.853 106.125 333.725H104.125ZM100.557 357.268C98.1803 364.029 94.7654 369.892 90.3168 374.871L91.8082 376.204C96.4429 371.016 99.9864 364.921 102.443 357.932L100.557 357.268ZM90.3111 374.878C85.9109 379.889 80.5095 383.826 74.0928 386.687L74.9072 388.513C81.5738 385.541 87.2141 381.436 91.8139 376.197L90.3111 374.878ZM74.0928 386.687C67.6973 389.538 60.4434 390.975 52.3125 390.975V392.975C60.6816 392.975 68.2194 391.495 74.9072 388.513L74.0928 386.687ZM52.3125 390.975C42.2413 390.975 33.3087 388.419 25.4831 383.324L24.3919 385.001C32.5663 390.322 41.8837 392.975 52.3125 392.975V390.975ZM25.4851 383.326C17.6777 378.216 11.6502 371.414 7.39443 362.903L5.60557 363.797C10.0165 372.619 16.2806 379.692 24.3899 384.999L25.4851 383.326ZM7.39614 362.906C3.17397 354.38 1.0625 345.282 1.0625 335.6H-0.9375C-0.9375 345.585 1.2427 354.987 5.60386 363.794L7.39614 362.906ZM102.313 416.15H103.313V415.15H102.313V416.15ZM102.313 455.587V456.587H103.313V455.587H102.313ZM31.875 461.525L32.7854 461.939L32.786 461.937L31.875 461.525ZM38.6875 476.712L38.4231 477.677L38.4266 477.678L38.6875 476.712ZM102.313 477.337H103.313V476.337H102.313V477.337ZM102.313 511.9V512.9H103.313V511.9H102.313ZM1.0625 465.837C1.0625 449.393 4.56166 437.246 11.3868 429.22C18.1856 421.224 28.4296 417.15 42.3125 417.15V415.15C28.0288 415.15 17.1478 419.357 9.86318 427.924C2.60501 436.46 -0.9375 449.157 -0.9375 465.837H1.0625ZM42.3125 417.15H102.313V415.15H42.3125V417.15ZM101.313 416.15V455.587H103.313V416.15H101.313ZM102.313 454.587H43.4375V456.587H102.313V454.587ZM43.4375 454.587C37.296 454.587 32.977 456.665 30.964 461.113L32.786 461.937C34.3563 458.468 37.7456 456.587 43.4375 456.587V454.587ZM30.9646 461.111C30.2669 462.646 29.9375 464.44 29.9375 466.462H31.9375C31.9375 464.651 32.2331 463.154 32.7854 461.939L30.9646 461.111ZM29.9375 466.462C29.9375 469.33 30.6231 471.767 32.0773 473.691C33.5324 475.615 35.6813 476.925 38.4231 477.677L38.9519 475.748C36.527 475.083 34.8009 473.977 33.6727 472.484C32.5436 470.991 31.9375 469.011 31.9375 466.462H29.9375ZM38.4266 477.678C40.0629 478.12 41.8183 478.337 43.6875 478.337V476.337C41.9734 476.337 40.3954 476.138 38.9484 475.747L38.4266 477.678ZM43.6875 478.337H102.313V476.337H43.6875V478.337ZM101.313 477.337V511.9H103.313V477.337H101.313ZM102.313 510.9H42.3125V512.9H102.313V510.9ZM42.3125 510.9C28.4066 510.9 18.1544 507.114 11.3619 499.708C4.55449 492.287 1.0625 481.058 1.0625 465.837H-0.9375C-0.9375 481.325 2.61218 493.128 9.88805 501.06C17.1789 509.009 28.0517 512.9 42.3125 512.9V510.9ZM102.313 535.013H103.313V534.013H102.313V535.013ZM102.313 629.513V630.513H103.313V629.513H102.313ZM69.9375 629.513H68.9375V630.513H69.9375V629.513ZM69.9375 601.7H70.9375V600.7H69.9375V601.7ZM2.5 601.7H1.5V602.7H2.5V601.7ZM2.5 562.825V561.825H1.5V562.825H2.5ZM69.9375 562.825V563.825H70.9375V562.825H69.9375ZM69.9375 535.013V534.013H68.9375V535.013H69.9375ZM101.313 535.013V629.513H103.313V535.013H101.313ZM102.313 628.513H69.9375V630.513H102.313V628.513ZM70.9375 629.513V601.7H68.9375V629.513H70.9375ZM69.9375 600.7H2.5V602.7H69.9375V600.7ZM3.5 601.7V562.825H1.5V601.7H3.5ZM2.5 563.825H69.9375V561.825H2.5V563.825ZM70.9375 562.825L70.9375 535.013H68.9375L68.9375 562.825H70.9375ZM69.9375 536.013H102.313V534.013H69.9375V536.013Z" fill="black" mask="url(#path-1-outside-1_294_181)"/>
</svg>
