<svg width="106" height="811" viewBox="0 0 106 811" fill="none" xmlns="http://www.w3.org/2000/svg">
<mask id="path-1-outside-1_295_183" maskUnits="userSpaceOnUse" x="-1" y="-1" width="108" height="813" fill="white">
<rect fill="white" x="-1" y="-1" width="108" height="813"/>
<path d="M70.3125 83.375C71.3542 80.6667 71.875 77.7708 71.875 74.6875C71.875 68.3542 69.5625 62.8333 64.9375 58.125C60.3542 53.4583 54.8542 51.125 48.4375 51.125C44.1458 51.125 40.7917 51.9583 38.375 53.625C35.9583 55.2917 34.75 57.5625 34.75 60.4375C34.75 63.3125 35.4792 66.4792 36.9375 69.9375C38.4375 73.4375 41.6667 78.5625 46.625 85.3125H5.9375C2.35417 76.4375 0.5625 67 0.5625 57C0.5625 47.0417 2.47917 37.8542 6.3125 29.4375C12.4375 16.0625 22.0208 7.25 35.0625 3C39.5208 1.58333 44.4375 0.854167 49.8125 0.8125C55.1875 0.8125 60.3333 1.47917 65.25 2.8125C70.1667 4.14583 74.7083 6.08333 78.875 8.625C87.25 13.7083 93.8125 20.8333 98.5625 30C103.312 39.2083 105.667 49.75 105.625 61.625C105.625 70.6667 104.604 77.9167 102.562 83.375H70.3125ZM64.875 182.488C71.9167 182.488 75.4375 179.113 75.4375 172.363C75.4375 169.446 73.6042 166.196 69.9375 162.613C64.3958 157.238 57.7917 153.488 50.125 151.363C47.7083 150.696 45.4792 150.363 43.4375 150.363C36.5208 150.363 33.0625 153.863 33.0625 160.863C33.0208 163.654 34.875 166.842 38.625 170.425C44.125 175.633 50.7917 179.321 58.625 181.488C61.0417 182.154 63.125 182.488 64.875 182.488ZM0.5625 165.425C0.5625 150.633 5.35417 137.8 14.9375 126.925C17.9792 123.467 21.4583 120.467 25.375 117.925C33.6667 112.508 42.9375 109.8 53.1875 109.8C63.4792 109.8 72.5833 112.3 80.5 117.3C88.4167 122.3 94.5833 129.008 99 137.425C103.417 145.842 105.625 154.55 105.625 163.55C105.625 172.592 104.417 180.55 102 187.425C99.5833 194.3 96.1042 200.279 91.5625 205.363C87.0625 210.488 81.5417 214.508 75 217.425C68.4583 220.342 61.0625 221.8 52.8125 221.8C42.5625 221.8 33.4375 219.196 25.4375 213.988C17.4792 208.779 11.3333 201.842 7 193.175C2.70833 184.508 0.5625 175.258 0.5625 165.425ZM102.812 247.038V257.163L63.9375 311.663H102.813V346.85H3V333.413L37.3125 282.1H3V247.038H102.812ZM102.813 370.962L102.813 465.462H70.4375V437.65H3V398.775H70.4375V370.962H102.813ZM3 468.888L97.75 518.513C101.125 520.221 103.375 523.367 104.5 527.95C104.833 529.283 105 530.929 105 532.888C105 534.846 104.438 536.971 103.313 539.263C102.229 541.596 100.5 543.429 98.125 544.763L3 598.013V547.325L12.875 543.388V516.388L3 513.013V468.888ZM32.6875 519.45V539.638L59.6875 530.075L32.6875 519.45ZM70.3125 690.25C71.3542 687.542 71.875 684.646 71.875 681.562C71.875 675.229 69.5625 669.708 64.9375 665C60.3542 660.333 54.8542 658 48.4375 658C44.1458 658 40.7917 658.833 38.375 660.5C35.9583 662.167 34.75 664.438 34.75 667.312C34.75 670.188 35.4792 673.354 36.9375 676.812C38.4375 680.312 41.6667 685.438 46.625 692.188H5.9375C2.35417 683.312 0.5625 673.875 0.5625 663.875C0.5625 653.917 2.47917 644.729 6.3125 636.312C12.4375 622.938 22.0208 614.125 35.0625 609.875C39.5208 608.458 44.4375 607.729 49.8125 607.688C55.1875 607.688 60.3333 608.354 65.25 609.688C70.1667 611.021 74.7083 612.958 78.875 615.5C87.25 620.583 93.8125 627.708 98.5625 636.875C103.313 646.083 105.667 656.625 105.625 668.5C105.625 677.542 104.604 684.792 102.563 690.25H70.3125ZM102.813 715.612V810.112H70.4375V782.3H3V743.425H70.4375V715.612H102.813Z"/>
</mask>
<path d="M70.3125 83.375L69.3792 83.016L68.8565 84.375H70.3125V83.375ZM64.9375 58.125L64.2241 58.8257L64.2241 58.8258L64.9375 58.125ZM36.9375 69.9375L36.0161 70.3261L36.0184 70.3314L36.9375 69.9375ZM46.625 85.3125V86.3125H48.6004L47.4309 84.7205L46.625 85.3125ZM5.9375 85.3125L5.01023 85.6869L5.26282 86.3125H5.9375V85.3125ZM6.3125 29.4375L5.4033 29.0211L5.40244 29.023L6.3125 29.4375ZM35.0625 3L34.7597 2.04693L34.7527 2.04921L35.0625 3ZM49.8125 0.8125L49.8125 -0.18753L49.8047 -0.18747L49.8125 0.8125ZM78.875 8.625L78.3542 9.47871L78.3561 9.47985L78.875 8.625ZM98.5625 30L99.4512 29.5416L99.4504 29.5399L98.5625 30ZM105.625 61.625L104.625 61.6215V61.625H105.625ZM102.562 83.375V84.375H103.256L103.499 83.7253L102.562 83.375ZM71.2458 83.734C72.3343 80.9041 72.875 77.8858 72.875 74.6875H70.875C70.875 77.6559 70.3741 80.4293 69.3792 83.016L71.2458 83.734ZM72.875 74.6875C72.875 68.08 70.451 62.3108 65.6509 57.4242L64.2241 58.8258C68.674 63.3559 70.875 68.6283 70.875 74.6875H72.875ZM65.6509 57.4243C60.8837 52.5704 55.1283 50.125 48.4375 50.125V52.125C54.58 52.125 59.8246 54.3463 64.2241 58.8257L65.6509 57.4243ZM48.4375 50.125C44.0321 50.125 40.4516 50.9781 37.8073 52.8018L38.9427 54.4482C41.1317 52.9386 44.2595 52.125 48.4375 52.125V50.125ZM37.8073 52.8018C35.1268 54.6504 33.75 57.2255 33.75 60.4375H35.75C35.75 57.8995 36.7899 55.9329 38.9427 54.4482L37.8073 52.8018ZM33.75 60.4375C33.75 63.48 34.521 66.7805 36.0161 70.3261L37.8589 69.5489C36.4374 66.1778 35.75 63.145 35.75 60.4375H33.75ZM36.0184 70.3314C37.5669 73.9447 40.8561 79.1483 45.8191 85.9045L47.4309 84.7205C42.4772 77.9767 39.3081 72.9303 37.8566 69.5436L36.0184 70.3314ZM46.625 84.3125H5.9375V86.3125H46.625V84.3125ZM6.86477 84.9381C3.33162 76.1874 1.5625 66.8775 1.5625 57H-0.4375C-0.4375 67.1225 1.37672 76.6876 5.01023 85.6869L6.86477 84.9381ZM1.5625 57C1.5625 47.1735 3.45295 38.1287 7.22256 29.852L5.40244 29.023C1.50539 37.5796 -0.4375 46.9098 -0.4375 57H1.5625ZM7.2217 29.8539C13.2398 16.7123 22.6172 8.10742 35.3723 3.95079L34.7527 2.04921C21.4245 6.39258 11.6352 15.4127 5.4033 29.0211L7.2217 29.8539ZM35.3653 3.95304C39.7152 2.57084 44.5308 1.85347 49.8203 1.81247L49.8047 -0.18747C44.3442 -0.14514 39.3265 0.595829 34.7597 2.04696L35.3653 3.95304ZM49.8125 1.8125C55.104 1.8125 60.1615 2.46869 64.9883 3.77764L65.5117 1.84736C60.5052 0.489648 55.271 -0.1875 49.8125 -0.1875V1.8125ZM64.9883 3.77764C69.8178 5.08734 74.2717 6.98835 78.3542 9.4787L79.3958 7.7713C75.145 5.17832 70.5156 3.20433 65.5117 1.84736L64.9883 3.77764ZM78.3561 9.47985C86.5656 14.4627 93.0043 21.4472 97.6746 30.4601L99.4504 29.5399C94.6207 20.2195 87.9344 12.9539 79.3939 7.77015L78.3561 9.47985ZM97.6738 30.4584C102.34 39.5043 104.666 49.8835 104.625 61.6215L106.625 61.6285C106.667 49.6165 104.285 38.9123 99.4512 29.5416L97.6738 30.4584ZM104.625 61.625C104.625 70.6057 103.609 77.7226 101.626 83.0247L103.499 83.7253C105.599 78.1107 106.625 70.7276 106.625 61.625H104.625ZM102.562 82.375H70.3125V84.375H102.562V82.375ZM69.9375 162.613L70.6364 161.897L70.6337 161.895L69.9375 162.613ZM50.125 151.363L50.3921 150.399L50.3909 150.399L50.125 151.363ZM33.0625 160.863L34.0624 160.877L34.0625 160.87V160.863H33.0625ZM38.625 170.425L37.9341 171.148L37.9374 171.151L38.625 170.425ZM58.625 181.488L58.3584 182.451L58.3591 182.451L58.625 181.488ZM14.9375 126.925L15.6878 127.586L15.6884 127.585L14.9375 126.925ZM25.375 117.925L25.9194 118.764L25.9219 118.762L25.375 117.925ZM91.5625 205.363L90.8168 204.696L90.8111 204.703L91.5625 205.363ZM25.4375 213.988L24.8899 214.824L24.8919 214.826L25.4375 213.988ZM7 193.175L6.10385 193.619L6.10557 193.622L7 193.175ZM64.875 183.488C68.5396 183.488 71.4736 182.61 73.4889 180.678C75.512 178.739 76.4375 175.903 76.4375 172.363H74.4375C74.4375 175.572 73.6026 177.799 72.1049 179.234C70.5993 180.678 68.252 181.488 64.875 181.488L64.875 183.488ZM76.4375 172.363C76.4375 169.033 74.3605 165.537 70.6364 161.897L69.2386 163.328C72.8479 166.855 74.4375 169.859 74.4375 172.363H76.4375ZM70.6337 161.895C64.9681 156.399 58.215 152.567 50.3921 150.399L49.8579 152.326C57.3683 154.408 63.8236 158.076 69.2413 163.33L70.6337 161.895ZM50.3909 150.399C47.9065 149.713 45.5867 149.363 43.4375 149.363V151.363C45.3716 151.363 47.5101 151.679 49.8591 152.326L50.3909 150.399ZM43.4375 149.363C39.822 149.363 36.9273 150.278 34.9449 152.285C32.9647 154.289 32.0625 157.211 32.0625 160.863H34.0625C34.0625 157.514 34.8895 155.186 36.3676 153.69C37.8435 152.197 40.1364 151.363 43.4375 151.363V149.363ZM32.0626 160.848C32.0144 164.078 34.14 167.522 37.9341 171.148L39.3159 169.702C35.61 166.161 34.0273 163.23 34.0624 160.877L32.0626 160.848ZM37.9374 171.151C43.5648 176.48 50.3792 180.244 58.3584 182.451L58.8916 180.524C51.2041 178.397 44.6852 174.787 39.3126 169.699L37.9374 171.151ZM58.3591 182.451C60.8284 183.133 63.0056 183.488 64.875 183.488L64.875 181.488C63.2444 181.488 61.255 181.176 58.8909 180.524L58.3591 182.451ZM1.5625 165.425C1.5625 150.871 6.26896 138.274 15.6878 127.586L14.1872 126.264C4.43938 137.326 -0.4375 150.395 -0.4375 165.425H1.5625ZM15.6884 127.585C18.6689 124.197 22.0783 121.256 25.9194 118.764L24.8306 117.086C20.8384 119.677 17.2895 122.737 14.1866 126.265L15.6884 127.585ZM25.9219 118.762C34.0451 113.456 43.1246 110.8 53.1875 110.8V108.8C42.7504 108.8 33.2883 111.561 24.8281 117.088L25.9219 118.762ZM53.1875 110.8C63.3096 110.8 72.2248 113.256 79.966 118.145L81.034 116.455C72.9419 111.344 63.6488 108.8 53.1875 108.8V110.8ZM79.966 118.145C87.7317 123.05 93.7782 129.626 98.1145 137.89L99.8855 136.96C95.3885 128.391 89.1016 121.55 81.034 116.455L79.966 118.145ZM98.1145 137.89C102.46 146.171 104.625 154.721 104.625 163.55H106.625C106.625 154.379 104.373 145.512 99.8855 136.96L98.1145 137.89ZM104.625 163.55C104.625 172.505 103.428 180.347 101.057 187.093L102.943 187.757C105.405 180.753 106.625 172.678 106.625 163.55H104.625ZM101.057 187.093C98.6803 193.854 95.2654 199.717 90.8168 204.696L92.3082 206.029C96.9429 200.841 100.486 194.746 102.943 187.757L101.057 187.093ZM90.8111 204.703C86.4109 209.714 81.0095 213.651 74.5928 216.512L75.4072 218.338C82.0738 215.366 87.7141 211.261 92.3139 206.022L90.8111 204.703ZM74.5928 216.512C68.1973 219.363 60.9434 220.8 52.8125 220.8V222.8C61.1816 222.8 68.7194 221.32 75.4072 218.338L74.5928 216.512ZM52.8125 220.8C42.7413 220.8 33.8087 218.244 25.9831 213.149L24.8919 214.826C33.0663 220.147 42.3837 222.8 52.8125 222.8V220.8ZM25.9851 213.151C18.1777 208.041 12.1502 201.239 7.89443 192.728L6.10557 193.622C10.5165 202.444 16.7806 209.517 24.8899 214.824L25.9851 213.151ZM7.89614 192.731C3.67397 184.205 1.5625 175.107 1.5625 165.425H-0.4375C-0.4375 175.41 1.7427 184.812 6.10386 193.619L7.89614 192.731ZM102.812 247.038H103.812V246.038H102.812V247.038ZM102.812 257.163L103.627 257.743L103.812 257.483V257.163H102.812ZM63.9375 311.663L63.1234 311.082L61.9959 312.663H63.9375V311.663ZM102.813 311.663H103.813V310.663H102.813V311.663ZM102.813 346.85V347.85H103.813V346.85H102.813ZM3 346.85H2V347.85H3V346.85ZM3 333.413L2.16873 332.857L2 333.109V333.413H3ZM37.3125 282.1L38.1438 282.656L39.1842 281.1H37.3125V282.1ZM3 282.1H2V283.1H3V282.1ZM3 247.038V246.038H2V247.038H3ZM101.812 247.038V257.163H103.812V247.038H101.812ZM101.998 256.582L63.1234 311.082L64.7516 312.243L103.627 257.743L101.998 256.582ZM63.9375 312.663H102.813V310.663H63.9375V312.663ZM101.813 311.663V346.85H103.813V311.663H101.813ZM102.813 345.85H3V347.85H102.813V345.85ZM4 346.85V333.413H2V346.85H4ZM3.83127 333.968L38.1438 282.656L36.4812 281.544L2.16873 332.857L3.83127 333.968ZM37.3125 281.1H3V283.1H37.3125V281.1ZM4 282.1V247.038H2V282.1H4ZM3 248.038H102.812V246.038H3V248.038ZM102.813 370.962H103.813V369.962H102.813V370.962ZM102.813 465.462V466.462H103.813V465.462H102.813ZM70.4375 465.462H69.4375V466.462H70.4375V465.462ZM70.4375 437.65H71.4375V436.65H70.4375V437.65ZM3 437.65H2V438.65H3V437.65ZM3 398.775V397.775H2V398.775H3ZM70.4375 398.775V399.775H71.4375V398.775H70.4375ZM70.4375 370.962V369.962H69.4375V370.962H70.4375ZM101.813 370.962L101.813 465.462H103.813L103.813 370.962H101.813ZM102.813 464.462H70.4375V466.462H102.813V464.462ZM71.4375 465.462V437.65H69.4375V465.462H71.4375ZM70.4375 436.65H3V438.65H70.4375V436.65ZM4 437.65V398.775H2V437.65H4ZM3 399.775H70.4375V397.775H3V399.775ZM71.4375 398.775V370.962H69.4375V398.775H71.4375ZM70.4375 371.962H102.813V369.962H70.4375V371.962ZM3 468.888L3.46396 468.002L2 467.235V468.888H3ZM97.75 518.513L97.286 519.398L97.2984 519.405L97.75 518.513ZM104.5 527.95L103.529 528.188L103.53 528.193L104.5 527.95ZM103.313 539.263L102.415 538.822L102.41 538.832L102.405 538.841L103.313 539.263ZM98.125 544.763L98.6135 545.635L98.6145 545.634L98.125 544.763ZM3 598.013H2V599.718L3.48846 598.885L3 598.013ZM3 547.325L2.62962 546.396L2 546.647V547.325H3ZM12.875 543.388L13.2454 544.316L13.875 544.065V543.388H12.875ZM12.875 516.388H13.875V515.672L13.1984 515.441L12.875 516.388ZM3 513.013H2V513.728L2.67659 513.959L3 513.013ZM32.6875 519.45L33.0537 518.519L31.6875 517.982V519.45H32.6875ZM32.6875 539.638H31.6875V541.053L33.0213 540.58L32.6875 539.638ZM59.6875 530.075L60.0213 531.018L62.5437 530.124L60.0537 529.144L59.6875 530.075ZM2.53604 469.773L97.286 519.398L98.214 517.627L3.46396 468.002L2.53604 469.773ZM97.2984 519.405C100.351 520.95 102.455 523.812 103.529 528.188L105.471 527.712C104.295 522.921 101.899 519.492 98.2016 517.62L97.2984 519.405ZM103.53 528.193C103.837 529.421 104 530.979 104 532.888H106C106 530.879 105.83 529.146 105.47 527.707L103.53 528.193ZM104 532.888C104 534.654 103.492 536.627 102.415 538.822L104.21 539.703C105.383 537.314 106 535.038 106 532.888H104ZM102.405 538.841C101.416 540.973 99.8389 542.654 97.6355 543.891L98.6145 545.634C101.161 544.205 103.042 542.219 104.22 539.684L102.405 538.841ZM97.6365 543.89L2.51154 597.14L3.48846 598.885L98.6135 545.635L97.6365 543.89ZM4 598.013V547.325H2V598.013H4ZM3.37038 548.254L13.2454 544.316L12.5046 542.459L2.62962 546.396L3.37038 548.254ZM13.875 543.388V516.388H11.875V543.388H13.875ZM13.1984 515.441L3.32341 512.066L2.67659 513.959L12.5516 517.334L13.1984 515.441ZM4 513.013V468.888H2V513.013H4ZM31.6875 519.45V539.638H33.6875V519.45H31.6875ZM33.0213 540.58L60.0213 531.018L59.3537 529.132L32.3537 538.695L33.0213 540.58ZM60.0537 529.144L33.0537 518.519L32.3213 520.381L59.3213 531.006L60.0537 529.144ZM70.3125 690.25L69.3792 689.891L68.8565 691.25H70.3125V690.25ZM64.9375 665L64.2241 665.701L64.2241 665.701L64.9375 665ZM36.9375 676.812L36.0161 677.201L36.0184 677.206L36.9375 676.812ZM46.625 692.188V693.188H48.6004L47.4309 691.595L46.625 692.188ZM5.9375 692.188L5.01023 692.562L5.26282 693.188H5.9375V692.188ZM6.3125 636.312L5.4033 635.896L5.40244 635.898L6.3125 636.312ZM35.0625 609.875L34.7597 608.922L34.7527 608.924L35.0625 609.875ZM49.8125 607.688L49.8125 606.687L49.8047 606.688L49.8125 607.688ZM78.875 615.5L78.3542 616.354L78.3561 616.355L78.875 615.5ZM98.5625 636.875L99.4512 636.417L99.4504 636.415L98.5625 636.875ZM105.625 668.5L104.625 668.496V668.5H105.625ZM102.563 690.25V691.25H103.256L103.499 690.6L102.563 690.25ZM71.2458 690.609C72.3343 687.779 72.875 684.761 72.875 681.562H70.875C70.875 684.531 70.3741 687.304 69.3792 689.891L71.2458 690.609ZM72.875 681.562C72.875 674.955 70.451 669.186 65.6509 664.299L64.2241 665.701C68.674 670.231 70.875 675.503 70.875 681.562H72.875ZM65.6509 664.299C60.8837 659.445 55.1283 657 48.4375 657V659C54.58 659 59.8246 661.221 64.2241 665.701L65.6509 664.299ZM48.4375 657C44.0321 657 40.4516 657.853 37.8073 659.677L38.9427 661.323C41.1317 659.814 44.2595 659 48.4375 659V657ZM37.8073 659.677C35.1268 661.525 33.75 664.101 33.75 667.312H35.75C35.75 664.774 36.7899 662.808 38.9427 661.323L37.8073 659.677ZM33.75 667.312C33.75 670.355 34.521 673.656 36.0161 677.201L37.8589 676.424C36.4374 673.053 35.75 670.02 35.75 667.312H33.75ZM36.0184 677.206C37.5669 680.82 40.8561 686.023 45.8191 692.78L47.4309 691.595C42.4772 684.852 39.3081 679.805 37.8566 676.419L36.0184 677.206ZM46.625 691.188H5.9375V693.188H46.625V691.188ZM6.86477 691.813C3.33162 683.062 1.5625 673.753 1.5625 663.875H-0.4375C-0.4375 673.997 1.37672 683.563 5.01023 692.562L6.86477 691.813ZM1.5625 663.875C1.5625 654.049 3.45295 645.004 7.22256 636.727L5.40244 635.898C1.50539 644.455 -0.4375 653.785 -0.4375 663.875H1.5625ZM7.2217 636.729C13.2398 623.587 22.6172 614.982 35.3723 610.826L34.7527 608.924C21.4245 613.268 11.6352 622.288 5.4033 635.896L7.2217 636.729ZM35.3653 610.828C39.7152 609.446 44.5308 608.728 49.8203 608.687L49.8047 606.688C44.3442 606.73 39.3265 607.471 34.7597 608.922L35.3653 610.828ZM49.8125 608.688C55.104 608.688 60.1615 609.344 64.9883 610.653L65.5117 608.722C60.5052 607.365 55.271 606.688 49.8125 606.688V608.688ZM64.9883 610.653C69.8178 611.962 74.2717 613.863 78.3542 616.354L79.3958 614.646C75.145 612.053 70.5156 610.079 65.5117 608.722L64.9883 610.653ZM78.3561 616.355C86.5656 621.338 93.0043 628.322 97.6746 637.335L99.4504 636.415C94.6207 627.094 87.9344 619.829 79.3939 614.645L78.3561 616.355ZM97.6738 637.333C102.34 646.379 104.666 656.759 104.625 668.496L106.625 668.504C106.667 656.491 104.285 645.787 99.4512 636.417L97.6738 637.333ZM104.625 668.5C104.625 677.481 103.609 684.598 101.626 689.9L103.499 690.6C105.599 684.986 106.625 677.603 106.625 668.5H104.625ZM102.563 689.25H70.3125V691.25H102.563V689.25ZM102.813 715.612H103.813V714.612H102.813V715.612ZM102.813 810.112V811.112H103.813V810.112H102.813ZM70.4375 810.112H69.4375V811.112H70.4375V810.112ZM70.4375 782.3H71.4375V781.3H70.4375V782.3ZM3 782.3H2V783.3H3V782.3ZM3 743.425V742.425H2V743.425H3ZM70.4375 743.425V744.425H71.4375V743.425H70.4375ZM70.4375 715.612V714.612H69.4375V715.612H70.4375ZM101.813 715.612V810.112H103.813V715.612H101.813ZM102.813 809.112H70.4375V811.112H102.813V809.112ZM71.4375 810.112V782.3H69.4375V810.112H71.4375ZM70.4375 781.3H3V783.3H70.4375V781.3ZM4 782.3V743.425H2V782.3H4ZM3 744.425H70.4375V742.425H3V744.425ZM71.4375 743.425V715.612H69.4375V743.425H71.4375ZM70.4375 716.612H102.813V714.612H70.4375V716.612Z" fill="black" mask="url(#path-1-outside-1_295_183)"/>
</svg>
