<svg width="822" height="106" viewBox="0 0 822 106" fill="none" xmlns="http://www.w3.org/2000/svg">
<mask id="path-1-outside-1_292_180" maskUnits="userSpaceOnUse" x="-1" y="-1" width="824" height="108" fill="white">
<rect fill="white" x="-1" y="-1" width="824" height="108"/>
<path d="M37.5 105.438C18.7917 105.438 6.375 103.125 0.25 98.5L0.25 69.875C0.416667 69.9167 1.02083 70.1042 2.0625 70.4375C3.14583 70.7708 4.5 71.1875 6.125 71.6875C9.91667 72.8542 13.8958 73.9583 18.0625 75C22.2708 76 25.6458 76.5 28.1875 76.5C32.3542 76.5 34.4375 75.2292 34.4375 72.6875C34.4375 70.7292 32.6458 68.6458 29.0625 66.4375C27.4375 65.4375 25.5833 64.3958 23.5 63.3125C21.4583 62.2292 19.375 61.0208 17.25 59.6875C12.0417 56.4792 7.85417 52.7292 4.6875 48.4375C1.5625 44.1458 0 38.7292 0 32.1875C0 17.8958 7.54167 8.29167 22.625 3.375C28.75 1.375 35.8125 0.375 43.8125 0.375C51.8542 0.375 60.25 1.29167 69 3.125C70.7917 3.5 71.9792 3.77083 72.5625 3.9375V32.625C61.2292 30.2083 53.0833 29 48.125 29C46.2083 29 44.7708 29.3333 43.8125 30C42.8542 30.6667 42.375 31.4167 42.375 32.25C42.375 33.0833 42.7917 33.9583 43.625 34.875C44.4583 35.75 45.8958 36.6458 47.9375 37.5625C49.9792 38.4375 52.3542 39.5208 55.0625 40.8125C57.8125 42.0625 60.375 43.4167 62.75 44.875C73.4167 51.4167 78.75 60.3542 78.75 71.6875C78.75 82.4375 75.125 90.75 67.875 96.625C60.5417 102.458 50.4167 105.396 37.5 105.438ZM104.863 3.1875L176.8 3.1875V31.9375H143.738V40.125H176.675V64.625H143.738V74.0625H178.988V103H104.863V3.1875ZM269.913 34.75C269.913 28.875 267.725 25.9375 263.35 25.9375C261.475 25.9375 258.871 26.625 255.538 28L247.225 31.4375V55.875C262.35 50.25 269.913 43.2083 269.913 34.75ZM307.038 35.8125C307.038 49.1458 300.454 59.7292 287.288 67.5625L314.413 103H265.038L247.475 74.0625V103H206.663V3.1875C233.079 1.3125 250.392 0.375 258.6 0.375C266.808 0.375 273.058 0.875 277.35 1.875C289.183 4.58333 297.642 10.375 302.725 19.25C305.558 24.3333 306.996 29.8542 307.038 35.8125ZM378.525 3.1875L394.087 34.5L408.587 3.1875H445.212L396.15 102.875C395.067 104.917 393.171 105.938 390.462 105.938C387.796 105.938 385.942 104.917 384.9 102.875L333.212 3.1875H378.525ZM506.263 103H467.388V3.1875H506.263V103ZM613 35.6875C610.292 34.6458 607.396 34.125 604.312 34.125C597.979 34.125 592.458 36.4375 587.75 41.0625C583.083 45.6458 580.75 51.1458 580.75 57.5625C580.75 61.8542 581.583 65.2083 583.25 67.625C584.917 70.0417 587.188 71.25 590.062 71.25C592.938 71.25 596.104 70.5208 599.562 69.0625C603.062 67.5625 608.188 64.3333 614.938 59.375V100.062C606.062 103.646 596.625 105.438 586.625 105.438C576.667 105.438 567.479 103.521 559.062 99.6875C545.688 93.5625 536.875 83.9792 532.625 70.9375C531.208 66.4792 530.479 61.5625 530.438 56.1875C530.438 50.8125 531.104 45.6667 532.438 40.75C533.771 35.8333 535.708 31.2917 538.25 27.125C543.333 18.75 550.458 12.1875 559.625 7.4375C568.833 2.6875 579.375 0.333333 591.25 0.375C600.292 0.375 607.542 1.39583 613 3.4375V35.6875ZM642.487 3.1875H714.425V31.9375H681.362V40.125H714.3V64.625H681.362V74.0625H716.612V103H642.487V3.1875ZM780.1 105.438C761.392 105.438 748.975 103.125 742.85 98.5V69.875C743.017 69.9167 743.621 70.1042 744.662 70.4375C745.746 70.7708 747.1 71.1875 748.725 71.6875C752.517 72.8542 756.496 73.9583 760.662 75C764.871 76 768.246 76.5 770.787 76.5C774.954 76.5 777.037 75.2292 777.037 72.6875C777.037 70.7292 775.246 68.6458 771.662 66.4375C770.037 65.4375 768.183 64.3958 766.1 63.3125C764.058 62.2292 761.975 61.0208 759.85 59.6875C754.642 56.4792 750.454 52.7292 747.287 48.4375C744.162 44.1458 742.6 38.7292 742.6 32.1875C742.6 17.8958 750.142 8.29167 765.225 3.375C771.35 1.375 778.412 0.375 786.412 0.375C794.454 0.375 802.85 1.29167 811.6 3.125C813.392 3.5 814.579 3.77083 815.162 3.9375V32.625C803.829 30.2083 795.683 29 790.725 29C788.808 29 787.371 29.3333 786.412 30C785.454 30.6667 784.975 31.4167 784.975 32.25C784.975 33.0833 785.392 33.9583 786.225 34.875C787.058 35.75 788.496 36.6458 790.537 37.5625C792.579 38.4375 794.954 39.5208 797.662 40.8125C800.412 42.0625 802.975 43.4167 805.35 44.875C816.017 51.4167 821.35 60.3542 821.35 71.6875C821.35 82.4375 817.725 90.75 810.475 96.625C803.142 102.458 793.017 105.396 780.1 105.438Z"/>
</mask>
<path d="M37.5 105.438L37.5 106.438L37.5032 106.437L37.5 105.438ZM0.25 98.5H-0.75V98.998L-0.352603 99.298L0.25 98.5ZM0.25 69.875L0.492536 68.9049L-0.75 68.5942V69.875H0.25ZM2.0625 70.4375L1.75771 71.39L1.76841 71.3933L2.0625 70.4375ZM18.0625 75L17.8199 75.9702L17.8313 75.9729L18.0625 75ZM29.0625 66.4375L29.5871 65.5862L29.5866 65.5858L29.0625 66.4375ZM23.5 63.3125L23.0313 64.1959L23.0386 64.1997L23.5 63.3125ZM17.25 59.6875L17.7815 58.8404L17.7745 58.8361L17.25 59.6875ZM4.6875 48.4375L3.87909 49.0262L3.88284 49.0312L4.6875 48.4375ZM22.625 3.375L22.9349 4.32576L22.9354 4.32561L22.625 3.375ZM69 3.125L68.7949 4.10375L68.7951 4.10379L69 3.125ZM72.5625 3.9375H73.5625V3.1832L72.8372 2.97598L72.5625 3.9375ZM72.5625 32.625L72.354 33.603L73.5625 33.8607V32.625H72.5625ZM43.625 34.875L42.8851 35.5477L42.8929 35.5563L42.9009 35.5647L43.625 34.875ZM47.9375 37.5625L47.5279 38.4748L47.5357 38.4783L47.5436 38.4816L47.9375 37.5625ZM55.0625 40.8125L54.632 41.7151L54.6403 41.7191L54.6487 41.7229L55.0625 40.8125ZM62.75 44.875L62.2267 45.7272L62.2272 45.7275L62.75 44.875ZM67.875 96.625L68.4975 97.4076L68.5046 97.4019L67.875 96.625ZM37.5 104.438C28.181 104.438 20.466 103.861 14.3393 102.72C8.1966 101.576 3.73641 99.8795 0.852603 97.702L-0.352603 99.298C2.88859 101.745 7.69924 103.518 13.9732 104.686C20.2632 105.858 28.1107 106.438 37.5 106.438L37.5 104.438ZM1.25 98.5L1.25 69.875H-0.75L-0.75 98.5H1.25ZM0.00746437 70.8451C0.133798 70.8767 0.695741 71.0501 1.75772 71.3899L2.36728 69.4851C1.34593 69.1582 0.699535 68.9566 0.492536 68.9049L0.00746437 70.8451ZM1.76841 71.3933C1.78379 71.398 1.85487 71.4199 1.87077 71.4248C1.87507 71.4261 1.89228 71.4314 1.89661 71.4327C1.89876 71.4334 1.90092 71.4341 1.90308 71.4347C1.90524 71.4354 1.9074 71.436 1.90956 71.4367C1.91136 71.4373 1.92074 71.4401 1.92254 71.4407C1.92471 71.4414 1.92688 71.442 1.92904 71.4427C1.93121 71.4434 1.93338 71.444 1.93555 71.4447C1.93772 71.4454 1.93989 71.446 1.94206 71.4467C1.94423 71.4474 1.9464 71.448 1.94858 71.4487C1.96017 71.4523 1.96309 71.4532 1.97471 71.4568C2.05688 71.482 1.99755 71.4638 2.08024 71.4892C2.09932 71.4951 2.16775 71.5162 2.18736 71.5222C2.22585 71.534 2.36575 71.5771 2.40635 71.5896C2.41136 71.5911 2.42913 71.5966 2.43417 71.5981C2.4365 71.5988 2.43882 71.5996 2.44114 71.6003C2.44347 71.601 2.4458 71.6017 2.44812 71.6024C2.45433 71.6043 2.45588 71.6048 2.46209 71.6067C2.47135 71.6096 2.50884 71.6211 2.51823 71.624C2.56205 71.6375 2.58735 71.6453 2.6317 71.6589C2.75724 71.6975 2.96742 71.7622 3.10142 71.8034C3.10393 71.8042 3.10645 71.805 3.10896 71.8058C3.11148 71.8065 3.11399 71.8073 3.11651 71.8081C3.11734 71.8083 3.13078 71.8125 3.13162 71.8127C3.14003 71.8153 3.15349 71.8195 3.16192 71.8221C3.16858 71.8241 3.21603 71.8387 3.22282 71.8408C3.22537 71.8416 3.22791 71.8424 3.23046 71.8431C3.23301 71.8439 3.23556 71.8447 3.23811 71.8455C3.24236 71.8468 3.24916 71.8489 3.25342 71.8502C3.2568 71.8512 3.2807 71.8586 3.28412 71.8596C3.28412 71.8596 3.34567 71.8786 3.34581 71.8786C3.34839 71.8794 3.35097 71.8802 3.35355 71.881C3.35613 71.8818 3.35871 71.8826 3.36129 71.8834C3.36387 71.8842 3.36646 71.885 3.36904 71.8858C3.37163 71.8866 3.37421 71.8874 3.3768 71.8882C3.37853 71.8887 3.3906 71.8924 3.39234 71.8929C3.39493 71.8937 3.39752 71.8945 3.40011 71.8953C3.40271 71.8961 3.4053 71.8969 3.40789 71.8977C3.41136 71.8988 3.43559 71.9063 3.43909 71.9073C3.44343 71.9087 3.45037 71.9108 3.45472 71.9121C3.45754 71.913 3.46755 71.9161 3.47038 71.917C3.47734 71.9191 3.52616 71.9341 3.53326 71.9363C3.57825 71.9502 3.55142 71.9419 3.59654 71.9558C3.61183 71.9605 3.59712 71.956 3.61242 71.9607C3.64774 71.9715 3.593 71.9547 3.62833 71.9656C3.65099 71.9725 3.62158 71.9635 3.64426 71.9705C3.66198 71.9759 3.64248 71.9699 3.66021 71.9754C3.66494 71.9768 3.68744 71.9837 3.6922 71.9852C3.71001 71.9907 3.69041 71.9847 3.70823 71.9901C3.74673 72.002 3.68577 71.9832 3.72429 71.9951C3.7443 72.0012 3.72034 71.9939 3.74037 72C3.75587 72.0048 3.74096 72.0002 3.75647 72.005C3.76124 72.0065 3.78396 72.0134 3.78875 72.0149C3.79829 72.0179 3.84395 72.0319 3.85362 72.0349C3.88498 72.0445 3.8548 72.0352 3.8862 72.0449C3.90192 72.0497 3.8868 72.0451 3.90253 72.0499C3.95336 72.0656 3.86804 72.0393 3.91888 72.055C3.98443 72.0751 3.8697 72.0398 3.93526 72.06C3.95348 72.0656 3.93343 72.0594 3.95166 72.065C3.98817 72.0763 3.948 72.0639 3.98454 72.0752C3.99426 72.0782 4.04074 72.0925 4.05059 72.0955C4.13304 72.1209 4.03447 72.0905 4.11705 72.1159C4.18832 72.1379 4.07912 72.1043 4.15042 72.1262C4.18263 72.1361 4.15165 72.1266 4.1839 72.1365C4.18669 72.1374 4.18948 72.1382 4.19228 72.1391C4.19508 72.1399 4.19787 72.1408 4.20067 72.1417C4.24543 72.1554 4.1727 72.1331 4.21747 72.1468C4.26685 72.162 4.18491 72.1368 4.23429 72.152C4.23678 72.1528 4.24864 72.1564 4.25114 72.1572C4.34702 72.1867 4.22277 72.1485 4.31878 72.178C4.38521 72.1984 4.26933 72.1628 4.33576 72.1832C4.33859 72.1841 4.34142 72.185 4.34425 72.1858C4.34708 72.1867 4.34992 72.1876 4.35275 72.1885C4.39059 72.2001 4.34896 72.1873 4.38682 72.1989C4.46282 72.2223 4.37913 72.1966 4.45526 72.22C4.55287 72.25 4.42635 72.2111 4.52409 72.2412C4.58553 72.2601 4.47991 72.2276 4.54136 72.2465C4.55801 72.2516 4.542 72.2467 4.55866 72.2518C4.59201 72.2621 4.55993 72.2522 4.59332 72.2625C4.67059 72.2863 4.58554 72.2601 4.66295 72.2839C4.70178 72.2959 4.65904 72.2827 4.69791 72.2947C4.76949 72.3167 4.66136 72.2834 4.73297 72.3054C4.78297 72.3208 4.70053 72.2955 4.75054 72.3109C4.77008 72.3169 4.74858 72.3103 4.76813 72.3163C4.77333 72.3179 4.79815 72.3255 4.80339 72.3271C4.87154 72.3481 4.80592 72.3279 4.8742 72.3489C4.9326 72.3669 4.83357 72.3364 4.89197 72.3544C4.93944 72.369 4.86228 72.3452 4.90976 72.3598C4.94774 72.3715 4.9074 72.3591 4.94542 72.3708C5.02495 72.3953 4.90161 72.3573 4.98117 72.3818C4.98647 72.3834 5.0117 72.3912 5.01703 72.3929C5.09694 72.4174 5.00898 72.3904 5.08903 72.415C5.09437 72.4167 5.11981 72.4245 5.12518 72.4261C5.18311 72.444 5.10348 72.4195 5.16143 72.4373C5.23582 72.4602 5.12337 72.4256 5.19779 72.4485C5.27381 72.4719 5.13996 72.4307 5.216 72.4541C5.26952 72.4705 5.18071 72.4432 5.23423 72.4597C5.31552 72.4847 5.22601 72.4572 5.30743 72.4822C5.34495 72.4938 5.28827 72.4763 5.32579 72.4879C5.37649 72.5035 5.29348 72.4779 5.34418 72.4935C5.40959 72.5136 5.31557 72.4847 5.38102 72.5049C5.45005 72.5261 5.34891 72.495 5.41797 72.5162C5.42344 72.5179 5.44951 72.5259 5.45501 72.5276C5.53757 72.553 5.44671 72.5251 5.5294 72.5505C5.53492 72.5522 5.56119 72.5603 5.56674 72.562C5.63986 72.5845 5.53103 72.551 5.60418 72.5735C5.64255 72.5853 5.58457 72.5675 5.62294 72.5793C5.62572 72.5801 5.63894 72.5842 5.64172 72.5851C5.67179 72.5943 5.63045 72.5816 5.66053 72.5909C5.69905 72.6027 5.64084 72.5848 5.67936 72.5966C5.7521 72.619 5.68208 72.5975 5.75494 72.6199C5.78862 72.6303 5.74021 72.6154 5.7739 72.6257C5.80935 72.6366 5.75742 72.6207 5.79288 72.6316C5.79569 72.6324 5.80906 72.6366 5.81188 72.6374C5.83724 72.6452 5.80555 72.6355 5.83091 72.6433L6.41909 70.7317C4.79409 70.2317 3.43992 69.8151 2.35659 69.4817L1.76841 71.3933ZM5.83091 72.6433C9.64096 73.8156 13.6374 74.9245 17.82 75.9701L18.305 74.0299C14.1543 72.9922 10.1924 71.8927 6.41909 70.7317L5.83091 72.6433ZM17.8313 75.9729C22.0705 76.9802 25.5324 77.5 28.1875 77.5V75.5C25.7592 75.5 22.4712 75.0198 18.2937 74.0271L17.8313 75.9729ZM28.1875 77.5C30.3399 77.5 32.122 77.1776 33.3958 76.4006C34.7498 75.5746 35.4375 74.2894 35.4375 72.6875H33.4375C33.4375 73.6273 33.0835 74.2483 32.3542 74.6932C31.5447 75.187 30.2017 75.5 28.1875 75.5V77.5ZM35.4375 72.6875C35.4375 71.3882 34.8414 70.1547 33.8519 69.0042C32.8633 67.8546 31.4251 66.7188 29.5871 65.5862L28.5379 67.2888C30.2833 68.3645 31.5325 69.3745 32.3356 70.3083C33.1378 71.2411 33.4375 72.0285 33.4375 72.6875H35.4375ZM29.5866 65.5858C27.9371 64.5708 26.0614 63.5173 23.9614 62.4253L23.0386 64.1997C25.1053 65.2744 26.9379 66.3042 28.5384 67.2892L29.5866 65.5858ZM23.9687 62.4292C21.9501 61.3581 19.8877 60.162 17.7815 58.8404L16.7185 60.5346C18.8623 61.8797 20.9665 63.1003 23.0313 64.1958L23.9687 62.4292ZM17.7745 58.8361C12.6593 55.6851 8.57246 52.0184 5.49216 47.8438L3.88284 49.0312C7.13587 53.4399 11.424 57.2732 16.7255 60.5389L17.7745 58.8361ZM5.4959 47.8489C2.5219 43.7646 1 38.5675 1 32.1875H-1C-1 38.8908 0.603103 44.5271 3.8791 49.0261L5.4959 47.8489ZM1 32.1875C1 25.2259 2.83294 19.4802 6.44275 14.8832C10.0594 10.2774 15.5259 6.74087 22.9349 4.32576L22.3151 2.42424C14.6408 4.92579 8.79473 8.64965 4.86975 13.648C0.937894 18.6552 -1 24.8575 -1 32.1875H1ZM22.9354 4.32561C28.9394 2.36513 35.8935 1.375 43.8125 1.375V-0.625C35.7315 -0.625 28.5606 0.384871 22.3146 2.42439L22.9354 4.32561ZM43.8125 1.375C51.7781 1.375 60.105 2.283 68.7949 4.10375L69.2051 2.14625C60.395 0.300336 51.9302 -0.625 43.8125 -0.625V1.375ZM68.7951 4.10379C70.5928 4.48006 71.7449 4.74391 72.2878 4.89902L72.8372 2.97598C72.2134 2.79776 70.9905 2.51994 69.2049 2.14621L68.7951 4.10379ZM71.5625 3.9375V32.625H73.5625V3.9375H71.5625ZM72.771 31.647C61.4356 29.2299 53.1987 28 48.125 28V30C52.968 30 61.0227 31.1868 72.354 33.603L72.771 31.647ZM48.125 28C46.1232 28 44.444 28.3426 43.2414 29.1791L44.3836 30.8209C45.0977 30.3241 46.2935 30 48.125 30V28ZM43.2414 29.1791C42.1307 29.9518 41.375 30.9695 41.375 32.25H43.375C43.375 31.8639 43.5777 31.3815 44.3836 30.8209L43.2414 29.1791ZM41.375 32.25C41.375 33.4294 41.964 34.5345 42.8851 35.5477L44.3649 34.2023C43.6193 33.3821 43.375 32.7373 43.375 32.25H41.375ZM42.9009 35.5647C43.8703 36.5826 45.4514 37.5425 47.5279 38.4748L48.3471 36.6502C46.3403 35.7492 45.0464 34.9174 44.3491 34.1853L42.9009 35.5647ZM47.5436 38.4816C49.5696 39.3499 51.9319 40.4273 54.632 41.7151L55.493 39.9099C52.7764 38.6143 50.3888 37.5251 48.3314 36.6434L47.5436 38.4816ZM54.6487 41.7229C57.3641 42.9572 59.8898 44.2922 62.2267 45.7272L63.2733 44.0228C60.8602 42.5411 58.2609 41.1678 55.4763 39.9021L54.6487 41.7229ZM62.2272 45.7275C72.6343 52.11 77.75 60.7432 77.75 71.6875H79.75C79.75 59.9651 74.199 50.7234 63.2728 44.0225L62.2272 45.7275ZM77.75 71.6875C77.75 82.1874 74.2238 90.1931 67.2454 95.8481L68.5046 97.4019C76.0262 91.3069 79.75 82.6876 79.75 71.6875H77.75ZM67.2525 95.8424C60.1514 101.491 50.2725 104.396 37.4968 104.438L37.5032 106.437C50.5608 106.395 60.932 103.426 68.4975 97.4076L67.2525 95.8424ZM104.863 3.1875V2.1875H103.863V3.1875H104.863ZM176.8 3.1875H177.8V2.1875H176.8V3.1875ZM176.8 31.9375V32.9375H177.8V31.9375H176.8ZM143.738 31.9375V30.9375H142.738V31.9375H143.738ZM143.738 40.125H142.738V41.125H143.738V40.125ZM176.675 40.125H177.675V39.125H176.675V40.125ZM176.675 64.625V65.625H177.675V64.625H176.675ZM143.738 64.625V63.625H142.738V64.625H143.738ZM143.738 74.0625H142.738V75.0625H143.738V74.0625ZM178.988 74.0625H179.988V73.0625H178.988V74.0625ZM178.988 103V104H179.988V103H178.988ZM104.863 103H103.863V104H104.863V103ZM104.863 4.1875L176.8 4.1875V2.1875L104.863 2.1875V4.1875ZM175.8 3.1875V31.9375H177.8V3.1875H175.8ZM176.8 30.9375H143.738V32.9375H176.8V30.9375ZM142.738 31.9375V40.125H144.738V31.9375H142.738ZM143.738 41.125H176.675V39.125H143.738V41.125ZM175.675 40.125V64.625H177.675V40.125H175.675ZM176.675 63.625H143.738V65.625H176.675V63.625ZM142.738 64.625V74.0625H144.738V64.625H142.738ZM143.738 75.0625H178.988V73.0625H143.738V75.0625ZM177.988 74.0625V103H179.988V74.0625H177.988ZM178.988 102H104.863V104H178.988V102ZM105.863 103V3.1875H103.863V103H105.863ZM255.538 28L255.156 27.0756L255.155 27.0759L255.538 28ZM247.225 31.4375L246.843 30.5134L246.225 30.7689V31.4375H247.225ZM247.225 55.875H246.225V57.3138L247.574 56.8123L247.225 55.875ZM307.038 35.8125H308.038L308.037 35.8055L307.038 35.8125ZM287.288 67.5625L286.776 66.7031L285.81 67.2778L286.493 68.1703L287.288 67.5625ZM314.413 103V104H316.437L315.207 102.392L314.413 103ZM265.038 103L264.183 103.519L264.475 104H265.038V103ZM247.475 74.0625L248.33 73.5437L246.475 70.4874V74.0625H247.475ZM247.475 103V104H248.475V103H247.475ZM206.663 103H205.663V104H206.663V103ZM206.663 3.1875L206.592 2.19001L205.663 2.25596V3.1875H206.663ZM277.35 1.875L277.123 2.84892L277.127 2.84979L277.35 1.875ZM302.725 19.25L303.599 18.7631L303.593 18.753L302.725 19.25ZM270.913 34.75C270.913 31.7174 270.353 29.2611 269.074 27.5434C267.754 25.7703 265.784 24.9375 263.35 24.9375V26.9375C265.291 26.9375 266.603 27.5734 267.47 28.7379C268.378 29.9577 268.913 31.9076 268.913 34.75H270.913ZM263.35 24.9375C261.273 24.9375 258.52 25.6881 255.156 27.0756L255.919 28.9244C259.222 27.5619 261.677 26.9375 263.35 26.9375V24.9375ZM255.155 27.0759L246.843 30.5134L247.607 32.3616L255.92 28.9241L255.155 27.0759ZM246.225 31.4375V55.875H248.225V31.4375H246.225ZM247.574 56.8123C255.198 53.9769 261.006 50.7535 264.922 47.1069C268.858 43.442 270.913 39.3167 270.913 34.75H268.913C268.913 38.6416 267.186 42.2663 263.559 45.6431C259.913 49.0382 254.377 52.1481 246.876 54.9377L247.574 56.8123ZM306.038 35.8125C306.038 48.7349 299.694 59.0181 286.776 66.7031L287.799 68.4219C301.215 60.4403 308.038 49.5568 308.038 35.8125H306.038ZM286.493 68.1703L313.618 103.608L315.207 102.392L288.082 66.9547L286.493 68.1703ZM314.413 102H265.038V104H314.413V102ZM265.892 102.481L248.33 73.5437L246.62 74.5813L264.183 103.519L265.892 102.481ZM246.475 74.0625V103H248.475V74.0625H246.475ZM247.475 102H206.663V104H247.475V102ZM207.663 103V3.1875H205.663V103H207.663ZM206.733 4.18499C233.158 2.30944 250.434 1.375 258.6 1.375V-0.625C250.35 -0.625 233.001 0.315565 206.592 2.19001L206.733 4.18499ZM258.6 1.375C266.785 1.375 272.944 1.8752 277.123 2.84891L277.577 0.901089C273.172 -0.125204 266.831 -0.625 258.6 -0.625V1.375ZM277.127 2.84979C288.743 5.50851 296.939 11.1595 301.857 19.747L303.593 18.753C298.345 9.59049 289.623 3.65816 277.573 0.900205L277.127 2.84979ZM301.852 19.7369C304.601 24.6698 305.997 30.025 306.038 35.8195L308.037 35.8055C307.995 29.6833 306.516 23.9969 303.598 18.7631L301.852 19.7369ZM378.525 3.1875L379.42 2.74243L379.145 2.1875H378.525V3.1875ZM394.087 34.5L393.192 34.9451L394.119 36.811L394.995 34.9202L394.087 34.5ZM408.587 3.1875V2.1875H407.949L407.68 2.76729L408.587 3.1875ZM445.212 3.1875L446.11 3.62908L446.819 2.1875H445.212V3.1875ZM396.15 102.875L397.033 103.344L397.04 103.33L397.047 103.317L396.15 102.875ZM384.9 102.875L385.791 102.421L385.788 102.415L384.9 102.875ZM333.212 3.1875V2.1875H331.568L332.325 3.6478L333.212 3.1875ZM377.629 3.63257L393.192 34.9451L394.983 34.0549L379.42 2.74243L377.629 3.63257ZM394.995 34.9202L409.495 3.60771L407.68 2.76729L393.18 34.0798L394.995 34.9202ZM408.587 4.1875H445.212V2.1875H408.587V4.1875ZM444.315 2.74592L395.253 102.433L397.047 103.317L446.11 3.62908L444.315 2.74592ZM395.267 102.406C394.39 104.058 392.878 104.938 390.462 104.938V106.938C393.464 106.938 395.743 105.775 397.033 103.344L395.267 102.406ZM390.462 104.938C389.255 104.938 388.3 104.706 387.554 104.296C386.817 103.89 386.229 103.279 385.791 102.421L384.009 103.329C384.613 104.513 385.473 105.433 386.59 106.048C387.698 106.658 389.004 106.938 390.462 106.938V104.938ZM385.788 102.415L334.1 2.7272L332.325 3.6478L384.012 103.335L385.788 102.415ZM333.212 4.1875H378.525V2.1875H333.212V4.1875ZM506.263 103V104H507.263V103H506.263ZM467.388 103H466.388V104H467.388V103ZM467.388 3.1875V2.1875H466.388V3.1875H467.388ZM506.263 3.1875H507.263V2.1875H506.263V3.1875ZM506.263 102H467.388V104H506.263V102ZM468.388 103V3.1875H466.388V103H468.388ZM467.388 4.1875H506.263V2.1875H467.388V4.1875ZM505.263 3.1875V103H507.263V3.1875H505.263ZM613 35.6875L612.641 36.6208L614 37.1435V35.6875H613ZM587.75 41.0625L588.451 41.7759L588.451 41.7759L587.75 41.0625ZM599.562 69.0625L599.951 69.9839L599.956 69.9816L599.562 69.0625ZM614.938 59.375H615.938V57.3996L614.345 58.5691L614.938 59.375ZM614.938 100.062L615.312 100.99L615.938 100.737V100.063L614.938 100.062ZM559.062 99.6875L558.646 100.597L558.648 100.598L559.062 99.6875ZM532.625 70.9375L531.672 71.2403L531.674 71.2473L532.625 70.9375ZM530.438 56.1875L529.437 56.1875L529.438 56.1953L530.438 56.1875ZM538.25 27.125L539.104 27.6458L539.105 27.6439L538.25 27.125ZM559.625 7.4375L559.167 6.54877L559.165 6.54962L559.625 7.4375ZM591.25 0.375L591.246 1.375H591.25V0.375ZM613 3.4375H614V2.74388L613.35 2.50088L613 3.4375ZM613.359 34.7542C610.529 33.6657 607.511 33.125 604.312 33.125V35.125C607.281 35.125 610.054 35.6259 612.641 36.6208L613.359 34.7542ZM604.312 33.125C597.705 33.125 591.936 35.549 587.049 40.3491L588.451 41.7759C592.981 37.326 598.253 35.125 604.312 35.125V33.125ZM587.049 40.3491C582.195 45.1163 579.75 50.8717 579.75 57.5625H581.75C581.75 51.42 583.971 46.1754 588.451 41.7759L587.049 40.3491ZM579.75 57.5625C579.75 61.9679 580.603 65.5484 582.427 68.1927L584.073 67.0573C582.564 64.8683 581.75 61.7405 581.75 57.5625H579.75ZM582.427 68.1927C584.275 70.8732 586.851 72.25 590.062 72.25V70.25C587.524 70.25 585.558 69.2101 584.073 67.0573L582.427 68.1927ZM590.062 72.25C593.105 72.25 596.406 71.479 599.951 69.9839L599.174 68.1411C595.803 69.5626 592.77 70.25 590.062 70.25V72.25ZM599.956 69.9816C603.57 68.4331 608.773 65.1439 615.53 60.1809L614.345 58.5691C607.602 63.5228 602.555 66.6919 599.169 68.1434L599.956 69.9816ZM613.938 59.375V100.062L615.938 100.063V59.375H613.938ZM614.563 99.1352C605.812 102.668 596.503 104.438 586.625 104.438V106.438C596.747 106.438 606.313 104.623 615.312 100.99L614.563 99.1352ZM586.625 104.438C576.799 104.438 567.754 102.547 559.477 98.7774L558.648 100.598C567.205 104.495 576.535 106.438 586.625 106.438V104.438ZM559.479 98.7783C546.337 92.7602 537.732 83.3828 533.576 70.6277L531.674 71.2473C536.018 84.5755 545.038 94.3648 558.646 100.597L559.479 98.7783ZM533.578 70.6347C532.196 66.2848 531.478 61.4692 531.437 56.1797L529.438 56.1953C529.48 61.6558 530.221 66.6735 531.672 71.2403L533.578 70.6347ZM531.438 56.1875C531.438 50.896 532.094 45.8385 533.403 41.0117L531.472 40.4883C530.115 45.4948 529.438 50.729 529.438 56.1875H531.438ZM533.403 41.0117C534.712 36.1822 536.613 31.7283 539.104 27.6458L537.396 26.6042C534.803 30.855 532.829 35.4844 531.472 40.4883L533.403 41.0117ZM539.105 27.6439C544.088 19.4344 551.072 12.9957 560.085 8.32538L559.165 6.54962C549.844 11.3793 542.579 18.0656 537.395 26.6061L539.105 27.6439ZM560.083 8.32623C569.129 3.66001 579.509 1.33381 591.246 1.37499L591.254 -0.624994C579.241 -0.667141 568.537 1.71499 559.167 6.54877L560.083 8.32623ZM591.25 1.375C600.231 1.375 607.348 2.39091 612.65 4.37412L613.35 2.50088C607.736 0.400755 600.353 -0.625 591.25 -0.625V1.375ZM612 3.4375V35.6875H614V3.4375H612ZM642.487 3.1875V2.1875H641.487V3.1875H642.487ZM714.425 3.1875H715.425V2.1875H714.425V3.1875ZM714.425 31.9375V32.9375H715.425V31.9375H714.425ZM681.362 31.9375V30.9375H680.362V31.9375H681.362ZM681.362 40.125H680.362V41.125H681.362V40.125ZM714.3 40.125H715.3V39.125H714.3V40.125ZM714.3 64.625V65.625H715.3V64.625H714.3ZM681.362 64.625V63.625H680.362V64.625H681.362ZM681.362 74.0625H680.362V75.0625H681.362V74.0625ZM716.612 74.0625H717.612V73.0625H716.612V74.0625ZM716.612 103V104H717.612V103H716.612ZM642.487 103H641.487V104H642.487V103ZM642.487 4.1875H714.425V2.1875H642.487V4.1875ZM713.425 3.1875V31.9375H715.425V3.1875H713.425ZM714.425 30.9375H681.362V32.9375H714.425V30.9375ZM680.362 31.9375V40.125H682.362V31.9375H680.362ZM681.362 41.125H714.3V39.125H681.362V41.125ZM713.3 40.125V64.625H715.3V40.125H713.3ZM714.3 63.625H681.362V65.625H714.3V63.625ZM680.362 64.625V74.0625H682.362V64.625H680.362ZM681.362 75.0625H716.612V73.0625H681.362V75.0625ZM715.612 74.0625V103H717.612V74.0625H715.612ZM716.612 102H642.487V104H716.612V102ZM643.487 103V3.1875H641.487V103H643.487ZM780.1 105.438V106.438L780.103 106.437L780.1 105.438ZM742.85 98.5H741.85V98.998L742.247 99.298L742.85 98.5ZM742.85 69.875L743.093 68.9049L741.85 68.5942V69.875H742.85ZM744.662 70.4375L744.358 71.39L744.368 71.3933L744.662 70.4375ZM760.662 75L760.42 75.9702L760.431 75.9729L760.662 75ZM771.662 66.4375L772.187 65.5862L772.187 65.5858L771.662 66.4375ZM766.1 63.3125L765.631 64.1959L765.639 64.1997L766.1 63.3125ZM759.85 59.6875L760.381 58.8404L760.374 58.8361L759.85 59.6875ZM747.287 48.4375L746.479 49.0262L746.483 49.0312L747.287 48.4375ZM765.225 3.375L765.535 4.32576L765.535 4.32561L765.225 3.375ZM811.6 3.125L811.395 4.10375L811.395 4.10379L811.6 3.125ZM815.162 3.9375H816.162V3.1832L815.437 2.97598L815.162 3.9375ZM815.162 32.625L814.954 33.603L816.162 33.8607V32.625H815.162ZM786.225 34.875L785.485 35.5477L785.493 35.5563L785.501 35.5647L786.225 34.875ZM790.537 37.5625L790.128 38.4748L790.136 38.4783L790.144 38.4816L790.537 37.5625ZM797.662 40.8125L797.232 41.7151L797.24 41.7191L797.249 41.7229L797.662 40.8125ZM805.35 44.875L804.827 45.7272L804.827 45.7275L805.35 44.875ZM810.475 96.625L811.098 97.4076L811.105 97.4019L810.475 96.625ZM780.1 104.438C770.781 104.438 763.066 103.861 756.939 102.72C750.797 101.576 746.336 99.8795 743.453 97.702L742.247 99.298C745.489 101.745 750.299 103.518 756.573 104.686C762.863 105.858 770.711 106.438 780.1 106.438V104.438ZM743.85 98.5V69.875H741.85V98.5H743.85ZM742.607 70.8451C742.734 70.8767 743.296 71.0501 744.358 71.3899L744.967 69.4851C743.946 69.1582 743.3 68.9566 743.093 68.9049L742.607 70.8451ZM744.368 71.3933C744.384 71.398 744.455 71.4199 744.471 71.4248C744.475 71.4261 744.492 71.4314 744.497 71.4327C744.499 71.4334 744.501 71.4341 744.503 71.4347C744.505 71.4354 744.507 71.436 744.51 71.4367C744.511 71.4373 744.521 71.4401 744.523 71.4407C744.525 71.4414 744.527 71.442 744.529 71.4427C744.531 71.4434 744.533 71.444 744.536 71.4447C744.538 71.4454 744.54 71.446 744.542 71.4467C744.544 71.4474 744.546 71.448 744.549 71.4487C744.56 71.4523 744.563 71.4532 744.575 71.4568C744.657 71.482 744.598 71.4638 744.68 71.4892C744.699 71.4951 744.768 71.5162 744.787 71.5222C744.826 71.534 744.966 71.5771 745.006 71.5896C745.011 71.5911 745.029 71.5966 745.034 71.5981C745.036 71.5988 745.039 71.5996 745.041 71.6003C745.043 71.601 745.046 71.6017 745.048 71.6024C745.054 71.6043 745.056 71.6048 745.062 71.6067C745.071 71.6096 745.109 71.6211 745.118 71.624C745.162 71.6375 745.187 71.6453 745.232 71.6589C745.357 71.6975 745.567 71.7622 745.701 71.8034C745.704 71.8042 745.706 71.805 745.709 71.8058C745.711 71.8065 745.714 71.8073 745.716 71.8081C745.717 71.8083 745.731 71.8125 745.732 71.8127C745.74 71.8153 745.753 71.8195 745.762 71.8221C745.769 71.8241 745.816 71.8387 745.823 71.8408C745.825 71.8416 745.828 71.8424 745.83 71.8431C745.833 71.8439 745.836 71.8447 745.838 71.8455C745.842 71.8468 745.849 71.8489 745.853 71.8502C745.857 71.8512 745.881 71.8586 745.884 71.8596C745.884 71.8596 745.946 71.8786 745.946 71.8786C745.948 71.8794 745.951 71.8802 745.954 71.881C745.956 71.8818 745.959 71.8826 745.961 71.8834C745.964 71.8842 745.966 71.885 745.969 71.8858C745.972 71.8866 745.974 71.8874 745.977 71.8882C745.979 71.8887 745.991 71.8924 745.992 71.8929C745.995 71.8937 745.997 71.8945 746 71.8953C746.003 71.8961 746.005 71.8969 746.008 71.8977C746.011 71.8988 746.036 71.9063 746.039 71.9073C746.043 71.9087 746.05 71.9108 746.055 71.9121C746.058 71.913 746.068 71.9161 746.07 71.917C746.077 71.9191 746.126 71.9341 746.133 71.9363C746.178 71.9502 746.151 71.9419 746.197 71.9558C746.212 71.9605 746.197 71.956 746.212 71.9607C746.248 71.9715 746.193 71.9547 746.228 71.9656C746.251 71.9725 746.222 71.9635 746.244 71.9705C746.262 71.9759 746.242 71.9699 746.26 71.9754C746.265 71.9768 746.287 71.9837 746.292 71.9852C746.31 71.9907 746.29 71.9847 746.308 71.9901C746.347 72.002 746.286 71.9832 746.324 71.9951C746.344 72.0012 746.32 71.9939 746.34 72C746.356 72.0048 746.341 72.0002 746.356 72.005C746.361 72.0065 746.384 72.0134 746.389 72.0149C746.398 72.0179 746.444 72.0319 746.454 72.0349C746.485 72.0445 746.455 72.0352 746.486 72.0449C746.502 72.0497 746.487 72.0451 746.503 72.0499C746.553 72.0656 746.468 72.0393 746.519 72.055C746.584 72.0751 746.47 72.0398 746.535 72.06C746.553 72.0656 746.533 72.0594 746.552 72.065C746.588 72.0763 746.548 72.0639 746.585 72.0752C746.594 72.0782 746.641 72.0925 746.651 72.0955C746.733 72.1209 746.634 72.0905 746.717 72.1159C746.788 72.1379 746.679 72.1043 746.75 72.1262C746.783 72.1361 746.752 72.1266 746.784 72.1365C746.787 72.1374 746.789 72.1382 746.792 72.1391C746.795 72.1399 746.798 72.1408 746.801 72.1417C746.845 72.1554 746.773 72.1331 746.817 72.1468C746.867 72.162 746.785 72.1368 746.834 72.152C746.837 72.1528 746.849 72.1564 746.851 72.1572C746.947 72.1867 746.823 72.1485 746.919 72.178C746.985 72.1984 746.869 72.1628 746.936 72.1832C746.939 72.1841 746.941 72.185 746.944 72.1858C746.947 72.1867 746.95 72.1876 746.953 72.1885C746.991 72.2001 746.949 72.1873 746.987 72.1989C747.063 72.2223 746.979 72.1966 747.055 72.22C747.153 72.25 747.026 72.2111 747.124 72.2412C747.186 72.2601 747.08 72.2276 747.141 72.2465C747.158 72.2516 747.142 72.2467 747.159 72.2518C747.192 72.2621 747.16 72.2522 747.193 72.2625C747.271 72.2863 747.186 72.2601 747.263 72.2839C747.302 72.2959 747.259 72.2827 747.298 72.2947C747.369 72.3167 747.261 72.2834 747.333 72.3054C747.383 72.3208 747.301 72.2955 747.351 72.3109C747.37 72.3169 747.349 72.3103 747.368 72.3163C747.373 72.3179 747.398 72.3255 747.403 72.3271C747.472 72.3481 747.406 72.3279 747.474 72.3489C747.533 72.3669 747.434 72.3364 747.492 72.3544C747.539 72.369 747.462 72.3452 747.51 72.3598C747.548 72.3715 747.507 72.3591 747.545 72.3708C747.625 72.3953 747.502 72.3573 747.581 72.3818C747.586 72.3834 747.612 72.3912 747.617 72.3929C747.697 72.4174 747.609 72.3904 747.689 72.415C747.694 72.4167 747.72 72.4245 747.725 72.4261C747.783 72.444 747.703 72.4195 747.761 72.4373C747.836 72.4602 747.723 72.4256 747.798 72.4485C747.874 72.4719 747.74 72.4307 747.816 72.4541C747.869 72.4705 747.781 72.4432 747.834 72.4597C747.915 72.4847 747.826 72.4572 747.907 72.4822C747.945 72.4938 747.888 72.4763 747.926 72.4879C747.976 72.5035 747.893 72.4779 747.944 72.4935C748.01 72.5136 747.916 72.4847 747.981 72.5049C748.05 72.5261 747.949 72.495 748.018 72.5162C748.023 72.5179 748.049 72.5259 748.055 72.5276C748.138 72.553 748.047 72.5251 748.129 72.5505C748.135 72.5522 748.161 72.5603 748.167 72.562C748.24 72.5845 748.131 72.551 748.204 72.5735C748.243 72.5853 748.185 72.5675 748.223 72.5793C748.226 72.5801 748.239 72.5842 748.242 72.5851C748.272 72.5943 748.23 72.5816 748.261 72.5909C748.299 72.6027 748.241 72.5848 748.279 72.5966C748.352 72.619 748.282 72.5975 748.355 72.6199C748.389 72.6303 748.34 72.6154 748.374 72.6257C748.409 72.6366 748.357 72.6207 748.393 72.6316C748.396 72.6324 748.409 72.6366 748.412 72.6374C748.437 72.6452 748.406 72.6355 748.431 72.6433L749.019 70.7317C747.394 70.2317 746.04 69.8151 744.957 69.4817L744.368 71.3933ZM748.431 72.6433C752.241 73.8156 756.237 74.9245 760.42 75.9701L760.905 74.0299C756.754 72.9922 752.792 71.8927 749.019 70.7317L748.431 72.6433ZM760.431 75.9729C764.67 76.9802 768.132 77.5 770.787 77.5V75.5C768.359 75.5 765.071 75.0198 760.894 74.0271L760.431 75.9729ZM770.787 77.5C772.94 77.5 774.722 77.1776 775.996 76.4006C777.35 75.5746 778.037 74.2894 778.037 72.6875H776.037C776.037 73.6273 775.683 74.2483 774.954 74.6932C774.145 75.187 772.802 75.5 770.787 75.5V77.5ZM778.037 72.6875C778.037 71.3882 777.441 70.1547 776.452 69.0042C775.463 67.8546 774.025 66.7188 772.187 65.5862L771.138 67.2888C772.883 68.3645 774.133 69.3745 774.936 70.3083C775.738 71.2411 776.037 72.0285 776.037 72.6875H778.037ZM772.187 65.5858C770.537 64.5708 768.661 63.5173 766.561 62.4253L765.639 64.1997C767.705 65.2744 769.538 66.3042 771.138 67.2892L772.187 65.5858ZM766.569 62.4292C764.55 61.3581 762.488 60.162 760.381 58.8404L759.318 60.5346C761.462 61.8797 763.567 63.1003 765.631 64.1958L766.569 62.4292ZM760.374 58.8361C755.259 55.6851 751.172 52.0184 748.092 47.8438L746.483 49.0312C749.736 53.4399 754.024 57.2732 759.325 60.5389L760.374 58.8361ZM748.096 47.8489C745.122 43.7646 743.6 38.5675 743.6 32.1875H741.6C741.6 38.8908 743.203 44.5271 746.479 49.0261L748.096 47.8489ZM743.6 32.1875C743.6 25.2259 745.433 19.4802 749.043 14.8832C752.659 10.2774 758.126 6.74087 765.535 4.32576L764.915 2.42424C757.241 4.92579 751.395 8.64965 747.47 13.648C743.538 18.6552 741.6 24.8575 741.6 32.1875H743.6ZM765.535 4.32561C771.539 2.36513 778.493 1.375 786.412 1.375V-0.625C778.331 -0.625 771.161 0.384871 764.915 2.42439L765.535 4.32561ZM786.412 1.375C794.378 1.375 802.705 2.283 811.395 4.10375L811.805 2.14625C802.995 0.300336 794.53 -0.625 786.412 -0.625V1.375ZM811.395 4.10379C813.193 4.48006 814.345 4.74391 814.888 4.89902L815.437 2.97598C814.813 2.79776 813.59 2.51994 811.805 2.14621L811.395 4.10379ZM814.162 3.9375V32.625H816.162V3.9375H814.162ZM815.371 31.647C804.036 29.2299 795.799 28 790.725 28V30C795.568 30 803.623 31.1868 814.954 33.603L815.371 31.647ZM790.725 28C788.723 28 787.044 28.3426 785.841 29.1791L786.984 30.8209C787.698 30.3241 788.893 30 790.725 30V28ZM785.841 29.1791C784.731 29.9518 783.975 30.9695 783.975 32.25H785.975C785.975 31.8639 786.178 31.3815 786.984 30.8209L785.841 29.1791ZM783.975 32.25C783.975 33.4294 784.564 34.5345 785.485 35.5477L786.965 34.2023C786.219 33.3821 785.975 32.7373 785.975 32.25H783.975ZM785.501 35.5647C786.47 36.5826 788.051 37.5425 790.128 38.4748L790.947 36.6502C788.94 35.7492 787.646 34.9174 786.949 34.1853L785.501 35.5647ZM790.144 38.4816C792.17 39.3499 794.532 40.4273 797.232 41.7151L798.093 39.9099C795.376 38.6143 792.989 37.5251 790.931 36.6434L790.144 38.4816ZM797.249 41.7229C799.964 42.9572 802.49 44.2922 804.827 45.7272L805.873 44.0228C803.46 42.5411 800.861 41.1678 798.076 39.9021L797.249 41.7229ZM804.827 45.7275C815.234 52.11 820.35 60.7432 820.35 71.6875H822.35C822.35 59.9651 816.799 50.7234 805.873 44.0225L804.827 45.7275ZM820.35 71.6875C820.35 82.1874 816.824 90.1931 809.845 95.8481L811.105 97.4019C818.626 91.3069 822.35 82.6876 822.35 71.6875H820.35ZM809.852 95.8424C802.751 101.491 792.873 104.396 780.097 104.438L780.103 106.437C793.161 106.395 803.532 103.426 811.097 97.4076L809.852 95.8424Z" fill="black" mask="url(#path-1-outside-1_292_180)"/>
</svg>
