<svg width="106" height="822" viewBox="0 0 106 822" fill="none" xmlns="http://www.w3.org/2000/svg">
<mask id="path-1-outside-1_289_178" maskUnits="userSpaceOnUse" x="-1" y="-1" width="108" height="824" fill="white">
<rect fill="white" x="-1" y="-1" width="108" height="824"/>
<path d="M105.438 784.5C105.438 803.208 103.125 815.625 98.5 821.75H69.875C69.9167 821.583 70.1042 820.979 70.4375 819.938C70.7708 818.854 71.1875 817.5 71.6875 815.875C72.8542 812.083 73.9583 808.104 75 803.938C76 799.729 76.5 796.354 76.5 793.812C76.5 789.646 75.2292 787.562 72.6875 787.562C70.7292 787.562 68.6458 789.354 66.4375 792.938C65.4375 794.562 64.3958 796.417 63.3125 798.5C62.2292 800.542 61.0208 802.625 59.6875 804.75C56.4792 809.958 52.7292 814.146 48.4375 817.312C44.1458 820.438 38.7292 822 32.1875 822C17.8958 822 8.29167 814.458 3.375 799.375C1.375 793.25 0.375 786.188 0.375 778.188C0.375 770.146 1.29167 761.75 3.125 753C3.5 751.208 3.77083 750.021 3.9375 749.438H32.625C30.2083 760.771 29 768.917 29 773.875C29 775.792 29.3333 777.229 30 778.188C30.6667 779.146 31.4167 779.625 32.25 779.625C33.0833 779.625 33.9583 779.208 34.875 778.375C35.75 777.542 36.6458 776.104 37.5625 774.062C38.4375 772.021 39.5208 769.646 40.8125 766.938C42.0625 764.188 43.4167 761.625 44.875 759.25C51.4167 748.583 60.3542 743.25 71.6875 743.25C82.4375 743.25 90.75 746.875 96.625 754.125C102.458 761.458 105.396 771.583 105.438 784.5ZM3.1875 717.137L3.1875 645.2H31.9375L31.9375 678.262H40.125L40.125 645.325H64.625L64.625 678.262H74.0625L74.0625 643.012H103V717.137H3.1875ZM34.75 552.087C28.875 552.087 25.9375 554.275 25.9375 558.65C25.9375 560.525 26.625 563.129 28 566.462L31.4375 574.775H55.875C50.25 559.65 43.2083 552.087 34.75 552.087ZM35.8125 514.962C49.1458 514.962 59.7292 521.546 67.5625 534.712L103 507.587L103 556.962L74.0625 574.525H103V615.337H3.1875C1.3125 588.921 0.375 571.608 0.375 563.4C0.375 555.192 0.875 548.942 1.875 544.65C4.58333 532.817 10.375 524.358 19.25 519.275C24.3333 516.442 29.8542 515.004 35.8125 514.962ZM3.1875 443.475L34.5 427.913L3.1875 413.413L3.1875 376.788L102.875 425.85C104.917 426.933 105.937 428.829 105.937 431.538C105.937 434.204 104.917 436.058 102.875 437.1L3.1875 488.788V443.475ZM103 315.737V354.612H3.1875L3.1875 315.737H103ZM35.6875 209C34.6458 211.708 34.125 214.604 34.125 217.688C34.125 224.021 36.4375 229.542 41.0625 234.25C45.6458 238.917 51.1458 241.25 57.5625 241.25C61.8542 241.25 65.2083 240.417 67.625 238.75C70.0417 237.083 71.25 234.812 71.25 231.938C71.25 229.062 70.5208 225.896 69.0625 222.438C67.5625 218.938 64.3333 213.812 59.375 207.062H100.062C103.646 215.938 105.437 225.375 105.437 235.375C105.437 245.333 103.521 254.521 99.6875 262.938C93.5625 276.312 83.9792 285.125 70.9375 289.375C66.4792 290.792 61.5625 291.521 56.1875 291.562C50.8125 291.562 45.6667 290.896 40.75 289.562C35.8333 288.229 31.2917 286.292 27.125 283.75C18.75 278.667 12.1875 271.542 7.4375 262.375C2.6875 253.167 0.333333 242.625 0.375 230.75C0.375 221.708 1.39583 214.458 3.4375 209H35.6875ZM3.1875 179.513L3.1875 107.575H31.9375V140.638H40.125V107.7H64.625V140.638H74.0625V105.388H103L103 179.513H3.1875ZM105.437 41.9C105.437 60.6084 103.125 73.025 98.5 79.15H69.875C69.9167 78.9834 70.1042 78.3792 70.4375 77.3375C70.7708 76.2542 71.1875 74.9 71.6875 73.275C72.8542 69.4834 73.9583 65.5042 75 61.3375C76 57.1292 76.5 53.7542 76.5 51.2125C76.5 47.0459 75.2292 44.9625 72.6875 44.9625C70.7292 44.9625 68.6458 46.7542 66.4375 50.3375C65.4375 51.9625 64.3958 53.8167 63.3125 55.9C62.2292 57.9417 61.0208 60.025 59.6875 62.15C56.4792 67.3584 52.7292 71.5459 48.4375 74.7125C44.1458 77.8375 38.7292 79.4 32.1875 79.4C17.8958 79.4 8.29167 71.8584 3.375 56.775C1.375 50.65 0.375 43.5875 0.375 35.5875C0.375 27.5459 1.29167 19.15 3.125 10.4C3.5 8.60836 3.77083 7.42086 3.9375 6.83752H32.625C30.2083 18.1709 29 26.3167 29 31.275C29 33.1917 29.3333 34.6292 30 35.5875C30.6667 36.5459 31.4167 37.025 32.25 37.025C33.0833 37.025 33.9583 36.6084 34.875 35.775C35.75 34.9417 36.6458 33.5042 37.5625 31.4625C38.4375 29.4209 39.5208 27.0459 40.8125 24.3375C42.0625 21.5875 43.4167 19.025 44.875 16.65C51.4167 5.98336 60.3542 0.650024 71.6875 0.650024C82.4375 0.650024 90.75 4.27502 96.625 11.525C102.458 18.8584 105.396 28.9834 105.437 41.9Z"/>
</mask>
<path d="M105.438 784.5H106.438L106.437 784.497L105.438 784.5ZM98.5 821.75V822.75H98.998L99.298 822.353L98.5 821.75ZM69.875 821.75L68.9049 821.507L68.5942 822.75H69.875V821.75ZM70.4375 819.938L71.39 820.242L71.3933 820.232L70.4375 819.938ZM75 803.938L75.9702 804.18L75.9729 804.169L75 803.938ZM66.4375 792.938L65.5862 792.413L65.5858 792.413L66.4375 792.938ZM63.3125 798.5L64.1959 798.969L64.1997 798.961L63.3125 798.5ZM59.6875 804.75L58.8404 804.218L58.8361 804.226L59.6875 804.75ZM48.4375 817.312L49.0262 818.121L49.0312 818.117L48.4375 817.312ZM3.375 799.375L4.32576 799.065L4.32561 799.065L3.375 799.375ZM3.125 753L4.10375 753.205L4.10379 753.205L3.125 753ZM3.9375 749.438V748.438H3.1832L2.97598 749.163L3.9375 749.438ZM32.625 749.438L33.603 749.646L33.8607 748.438H32.625V749.438ZM34.875 778.375L35.5477 779.115L35.5563 779.107L35.5647 779.099L34.875 778.375ZM37.5625 774.062L38.4748 774.472L38.4783 774.464L38.4816 774.456L37.5625 774.062ZM40.8125 766.938L41.7151 767.368L41.7191 767.36L41.7229 767.351L40.8125 766.938ZM44.875 759.25L45.7272 759.773L45.7275 759.773L44.875 759.25ZM96.625 754.125L97.4076 753.502L97.4019 753.495L96.625 754.125ZM104.438 784.5C104.438 793.819 103.861 801.534 102.72 807.661C101.576 813.803 99.8795 818.264 97.702 821.147L99.298 822.353C101.745 819.111 103.518 814.301 104.686 808.027C105.858 801.737 106.438 793.889 106.438 784.5H104.438ZM98.5 820.75H69.875V822.75H98.5V820.75ZM70.8451 821.993C70.8767 821.866 71.0501 821.304 71.3899 820.242L69.4851 819.633C69.1582 820.654 68.9566 821.3 68.9049 821.507L70.8451 821.993ZM71.3933 820.232C71.398 820.216 71.4199 820.145 71.4248 820.129C71.4261 820.125 71.4314 820.108 71.4327 820.103C71.4334 820.101 71.4341 820.099 71.4347 820.097C71.4354 820.095 71.436 820.093 71.4367 820.09C71.4373 820.089 71.4401 820.079 71.4407 820.077C71.4414 820.075 71.442 820.073 71.4427 820.071C71.4434 820.069 71.444 820.067 71.4447 820.064C71.4454 820.062 71.446 820.06 71.4467 820.058C71.4474 820.056 71.448 820.054 71.4487 820.051C71.4523 820.04 71.4532 820.037 71.4568 820.025C71.482 819.943 71.4638 820.002 71.4892 819.92C71.4951 819.901 71.5162 819.832 71.5222 819.813C71.534 819.774 71.5771 819.634 71.5896 819.594C71.5911 819.589 71.5966 819.571 71.5981 819.566C71.5988 819.564 71.5996 819.561 71.6003 819.559C71.601 819.557 71.6017 819.554 71.6024 819.552C71.6043 819.546 71.6048 819.544 71.6067 819.538C71.6096 819.529 71.6211 819.491 71.624 819.482C71.6375 819.438 71.6453 819.413 71.6589 819.368C71.6975 819.243 71.7622 819.033 71.8034 818.899C71.8042 818.896 71.805 818.894 71.8058 818.891C71.8065 818.889 71.8073 818.886 71.8081 818.883C71.8083 818.883 71.8125 818.869 71.8127 818.868C71.8153 818.86 71.8195 818.847 71.8221 818.838C71.8241 818.831 71.8387 818.784 71.8408 818.777C71.8416 818.775 71.8424 818.772 71.8431 818.77C71.8439 818.767 71.8447 818.764 71.8455 818.762C71.8468 818.758 71.8489 818.751 71.8502 818.747C71.8512 818.743 71.8586 818.719 71.8596 818.716C71.8596 818.716 71.8786 818.654 71.8786 818.654C71.8794 818.652 71.8802 818.649 71.881 818.646C71.8818 818.644 71.8826 818.641 71.8834 818.639C71.8842 818.636 71.885 818.634 71.8858 818.631C71.8866 818.628 71.8874 818.626 71.8882 818.623C71.8887 818.621 71.8924 818.609 71.8929 818.608C71.8937 818.605 71.8945 818.602 71.8953 818.6C71.8961 818.597 71.8969 818.595 71.8977 818.592C71.8988 818.589 71.9063 818.564 71.9073 818.561C71.9087 818.557 71.9108 818.55 71.9121 818.545C71.913 818.542 71.9161 818.532 71.917 818.53C71.9191 818.523 71.9341 818.474 71.9363 818.467C71.9502 818.422 71.9419 818.449 71.9558 818.403C71.9605 818.388 71.956 818.403 71.9607 818.388C71.9715 818.352 71.9547 818.407 71.9656 818.372C71.9725 818.349 71.9635 818.378 71.9705 818.356C71.9759 818.338 71.9699 818.358 71.9754 818.34C71.9768 818.335 71.9837 818.313 71.9852 818.308C71.9907 818.29 71.9847 818.31 71.9901 818.292C72.002 818.253 71.9832 818.314 71.9951 818.276C72.0012 818.256 71.9939 818.28 72 818.26C72.0048 818.244 72.0002 818.259 72.005 818.244C72.0065 818.239 72.0134 818.216 72.0149 818.211C72.0179 818.202 72.0319 818.156 72.0349 818.146C72.0445 818.115 72.0352 818.145 72.0449 818.114C72.0497 818.098 72.0451 818.113 72.0499 818.097C72.0656 818.047 72.0393 818.132 72.055 818.081C72.0751 818.016 72.0398 818.13 72.06 818.065C72.0656 818.047 72.0594 818.067 72.065 818.048C72.0763 818.012 72.0639 818.052 72.0752 818.015C72.0782 818.006 72.0925 817.959 72.0955 817.949C72.1209 817.867 72.0905 817.966 72.1159 817.883C72.1379 817.812 72.1043 817.921 72.1262 817.85C72.1361 817.817 72.1266 817.848 72.1365 817.816C72.1374 817.813 72.1382 817.811 72.1391 817.808C72.1399 817.805 72.1408 817.802 72.1417 817.799C72.1554 817.755 72.1331 817.827 72.1468 817.783C72.162 817.733 72.1368 817.815 72.152 817.766C72.1528 817.763 72.1564 817.751 72.1572 817.749C72.1867 817.653 72.1485 817.777 72.178 817.681C72.1984 817.615 72.1628 817.731 72.1832 817.664C72.1841 817.661 72.185 817.659 72.1858 817.656C72.1867 817.653 72.1876 817.65 72.1885 817.647C72.2001 817.609 72.1873 817.651 72.1989 817.613C72.2223 817.537 72.1966 817.621 72.22 817.545C72.25 817.447 72.2111 817.574 72.2412 817.476C72.2601 817.414 72.2276 817.52 72.2465 817.459C72.2516 817.442 72.2467 817.458 72.2518 817.441C72.2621 817.408 72.2522 817.44 72.2625 817.407C72.2863 817.329 72.2601 817.414 72.2839 817.337C72.2959 817.298 72.2827 817.341 72.2947 817.302C72.3167 817.231 72.2834 817.339 72.3054 817.267C72.3208 817.217 72.2955 817.299 72.3109 817.249C72.3169 817.23 72.3103 817.251 72.3163 817.232C72.3179 817.227 72.3255 817.202 72.3271 817.197C72.3481 817.128 72.3279 817.194 72.3489 817.126C72.3669 817.067 72.3364 817.166 72.3544 817.108C72.369 817.061 72.3452 817.138 72.3598 817.09C72.3715 817.052 72.3591 817.093 72.3708 817.055C72.3953 816.975 72.3573 817.098 72.3818 817.019C72.3834 817.014 72.3912 816.988 72.3929 816.983C72.4174 816.903 72.3904 816.991 72.415 816.911C72.4167 816.906 72.4245 816.88 72.4261 816.875C72.444 816.817 72.4195 816.897 72.4373 816.839C72.4602 816.764 72.4256 816.877 72.4485 816.802C72.4719 816.726 72.4307 816.86 72.4541 816.784C72.4705 816.73 72.4432 816.819 72.4597 816.766C72.4847 816.684 72.4572 816.774 72.4822 816.693C72.4938 816.655 72.4763 816.712 72.4879 816.674C72.5035 816.624 72.4779 816.707 72.4935 816.656C72.5136 816.59 72.4847 816.684 72.5049 816.619C72.5261 816.55 72.495 816.651 72.5162 816.582C72.5179 816.577 72.5259 816.55 72.5276 816.545C72.553 816.462 72.5251 816.553 72.5505 816.471C72.5522 816.465 72.5603 816.439 72.562 816.433C72.5845 816.36 72.551 816.469 72.5735 816.396C72.5853 816.357 72.5675 816.415 72.5793 816.377C72.5801 816.374 72.5842 816.361 72.5851 816.358C72.5943 816.328 72.5816 816.37 72.5909 816.339C72.6027 816.301 72.5848 816.359 72.5966 816.321C72.619 816.248 72.5975 816.318 72.6199 816.245C72.6303 816.211 72.6154 816.26 72.6257 816.226C72.6366 816.191 72.6207 816.243 72.6316 816.207C72.6324 816.204 72.6366 816.191 72.6374 816.188C72.6452 816.163 72.6355 816.194 72.6433 816.169L70.7317 815.581C70.2317 817.206 69.8151 818.56 69.4817 819.643L71.3933 820.232ZM72.6433 816.169C73.8156 812.359 74.9245 808.363 75.9701 804.18L74.0299 803.695C72.9922 807.846 71.8927 811.808 70.7317 815.581L72.6433 816.169ZM75.9729 804.169C76.9802 799.93 77.5 796.468 77.5 793.812H75.5C75.5 796.241 75.0198 799.529 74.0271 803.706L75.9729 804.169ZM77.5 793.812C77.5 791.66 77.1776 789.878 76.4006 788.604C75.5746 787.25 74.2894 786.562 72.6875 786.562V788.562C73.6273 788.562 74.2483 788.916 74.6932 789.646C75.187 790.455 75.5 791.798 75.5 793.812H77.5ZM72.6875 786.562C71.3882 786.562 70.1547 787.159 69.0042 788.148C67.8546 789.137 66.7188 790.575 65.5862 792.413L67.2888 793.462C68.3645 791.717 69.3745 790.467 70.3083 789.664C71.2411 788.862 72.0285 788.562 72.6875 788.562V786.562ZM65.5858 792.413C64.5708 794.063 63.5173 795.939 62.4253 798.039L64.1997 798.961C65.2744 796.895 66.3042 795.062 67.2892 793.462L65.5858 792.413ZM62.4292 798.031C61.3581 800.05 60.162 802.112 58.8404 804.219L60.5346 805.281C61.8797 803.138 63.1003 801.033 64.1958 798.969L62.4292 798.031ZM58.8361 804.226C55.6851 809.341 52.0184 813.428 47.8438 816.508L49.0312 818.117C53.4399 814.864 57.2732 810.576 60.5389 805.274L58.8361 804.226ZM47.8489 816.504C43.7646 819.478 38.5675 821 32.1875 821V823C38.8908 823 44.5271 821.397 49.0261 818.121L47.8489 816.504ZM32.1875 821C25.2259 821 19.4802 819.167 14.8832 815.557C10.2774 811.941 6.74087 806.474 4.32576 799.065L2.42424 799.685C4.92579 807.359 8.64965 813.205 13.648 817.13C18.6552 821.062 24.8575 823 32.1875 823V821ZM4.32561 799.065C2.36513 793.061 1.375 786.106 1.375 778.188H-0.625C-0.625 786.269 0.384871 793.439 2.42439 799.685L4.32561 799.065ZM1.375 778.188C1.375 770.222 2.283 761.895 4.10375 753.205L2.14625 752.795C0.300336 761.605 -0.625 770.07 -0.625 778.188H1.375ZM4.10379 753.205C4.48006 751.407 4.74391 750.255 4.89902 749.712L2.97598 749.163C2.79776 749.787 2.51994 751.01 2.14621 752.795L4.10379 753.205ZM3.9375 750.438H32.625V748.438H3.9375V750.438ZM31.647 749.229C29.2299 760.564 28 768.801 28 773.875H30C30 769.032 31.1868 760.977 33.603 749.646L31.647 749.229ZM28 773.875C28 775.877 28.3426 777.556 29.1791 778.759L30.8209 777.616C30.3241 776.902 30 775.707 30 773.875H28ZM29.1791 778.759C29.9518 779.869 30.9695 780.625 32.25 780.625V778.625C31.8639 778.625 31.3815 778.422 30.8209 777.616L29.1791 778.759ZM32.25 780.625C33.4294 780.625 34.5345 780.036 35.5477 779.115L34.2023 777.635C33.3821 778.381 32.7373 778.625 32.25 778.625V780.625ZM35.5647 779.099C36.5826 778.13 37.5425 776.549 38.4748 774.472L36.6502 773.653C35.7492 775.66 34.9174 776.954 34.1853 777.651L35.5647 779.099ZM38.4816 774.456C39.3499 772.43 40.4273 770.068 41.7151 767.368L39.9099 766.507C38.6143 769.224 37.5251 771.611 36.6434 773.669L38.4816 774.456ZM41.7229 767.351C42.9572 764.636 44.2922 762.11 45.7272 759.773L44.0228 758.727C42.5411 761.14 41.1678 763.739 39.9021 766.524L41.7229 767.351ZM45.7275 759.773C52.11 749.366 60.7432 744.25 71.6875 744.25V742.25C59.9651 742.25 50.7234 747.801 44.0225 758.727L45.7275 759.773ZM71.6875 744.25C82.1874 744.25 90.1931 747.776 95.8481 754.755L97.4019 753.495C91.3069 745.974 82.6876 742.25 71.6875 742.25V744.25ZM95.8424 754.748C101.491 761.849 104.396 771.727 104.438 784.503L106.437 784.497C106.395 771.439 103.426 761.068 97.4076 753.502L95.8424 754.748ZM3.1875 717.137H2.1875V718.137H3.1875V717.137ZM3.1875 645.2V644.2H2.1875V645.2H3.1875ZM31.9375 645.2H32.9375V644.2H31.9375V645.2ZM31.9375 678.262H30.9375V679.262H31.9375V678.262ZM40.125 678.262V679.262H41.125V678.262H40.125ZM40.125 645.325V644.325H39.125V645.325H40.125ZM64.625 645.325H65.625V644.325H64.625V645.325ZM64.625 678.262H63.625V679.262H64.625V678.262ZM74.0625 678.262V679.262H75.0625V678.262H74.0625ZM74.0625 643.012V642.012H73.0625V643.012H74.0625ZM103 643.012H104V642.012H103V643.012ZM103 717.137V718.137H104V717.137H103ZM4.1875 717.137L4.1875 645.2H2.1875L2.1875 717.137H4.1875ZM3.1875 646.2H31.9375V644.2H3.1875V646.2ZM30.9375 645.2L30.9375 678.262H32.9375L32.9375 645.2H30.9375ZM31.9375 679.262H40.125V677.262H31.9375V679.262ZM41.125 678.262L41.125 645.325H39.125L39.125 678.262H41.125ZM40.125 646.325H64.625V644.325H40.125V646.325ZM63.625 645.325L63.625 678.262H65.625L65.625 645.325H63.625ZM64.625 679.262H74.0625V677.262H64.625V679.262ZM75.0625 678.262L75.0625 643.012H73.0625L73.0625 678.262H75.0625ZM74.0625 644.012H103V642.012H74.0625V644.012ZM102 643.012V717.137H104V643.012H102ZM103 716.137H3.1875V718.137H103V716.137ZM28 566.462L27.0756 566.844L27.0759 566.845L28 566.462ZM31.4375 574.775L30.5134 575.157L30.7689 575.775H31.4375V574.775ZM55.875 574.775V575.775H57.3138L56.8123 574.426L55.875 574.775ZM35.8125 514.962V513.962L35.8055 513.963L35.8125 514.962ZM67.5625 534.712L66.7031 535.224L67.2778 536.19L68.1703 535.507L67.5625 534.712ZM103 507.587H104V505.563L102.392 506.793L103 507.587ZM103 556.962L103.519 557.817L104 557.525V556.962H103ZM74.0625 574.525L73.5437 573.67L70.4874 575.525H74.0625V574.525ZM103 574.525H104V573.525H103V574.525ZM103 615.337V616.337H104V615.337H103ZM3.1875 615.337L2.19001 615.408L2.25596 616.337H3.1875V615.337ZM1.875 544.65L2.84892 544.877L2.84979 544.873L1.875 544.65ZM19.25 519.275L18.7631 518.401L18.753 518.407L19.25 519.275ZM34.75 551.087C31.7174 551.087 29.2611 551.647 27.5434 552.926C25.7703 554.246 24.9375 556.216 24.9375 558.65H26.9375C26.9375 556.709 27.5734 555.397 28.7379 554.53C29.9577 553.622 31.9076 553.087 34.75 553.087V551.087ZM24.9375 558.65C24.9375 560.727 25.6881 563.48 27.0756 566.844L28.9244 566.081C27.5619 562.778 26.9375 560.323 26.9375 558.65H24.9375ZM27.0759 566.845L30.5134 575.157L32.3616 574.393L28.9241 566.08L27.0759 566.845ZM31.4375 575.775H55.875V573.775H31.4375V575.775ZM56.8123 574.426C53.9769 566.802 50.7535 560.994 47.1069 557.078C43.442 553.142 39.3167 551.087 34.75 551.087V553.087C38.6416 553.087 42.2663 554.814 45.6431 558.441C49.0382 562.087 52.1481 567.623 54.9377 575.124L56.8123 574.426ZM35.8125 515.962C48.7349 515.962 59.0181 522.306 66.7031 535.224L68.4219 534.201C60.4403 520.785 49.5568 513.962 35.8125 513.962V515.962ZM68.1703 535.507L103.608 508.382L102.392 506.793L66.9547 533.918L68.1703 535.507ZM102 507.587L102 556.962H104L104 507.587H102ZM102.481 556.108L73.5437 573.67L74.5813 575.38L103.519 557.817L102.481 556.108ZM74.0625 575.525H103V573.525H74.0625V575.525ZM102 574.525V615.337H104V574.525H102ZM103 614.337H3.1875V616.337H103V614.337ZM4.18499 615.267C2.30944 588.842 1.375 571.566 1.375 563.4H-0.625C-0.625 571.65 0.315565 588.999 2.19001 615.408L4.18499 615.267ZM1.375 563.4C1.375 555.215 1.8752 549.056 2.84891 544.877L0.901089 544.423C-0.125204 548.828 -0.625 555.169 -0.625 563.4H1.375ZM2.84979 544.873C5.50851 533.257 11.1595 525.061 19.747 520.143L18.753 518.407C9.59049 523.655 3.65816 532.377 0.900205 544.427L2.84979 544.873ZM19.7369 520.148C24.6698 517.399 30.025 516.003 35.8195 515.962L35.8055 513.963C29.6833 514.005 23.9969 515.484 18.7631 518.402L19.7369 520.148ZM3.1875 443.475L2.74243 442.58L2.1875 442.855V443.475H3.1875ZM34.5 427.913L34.9451 428.808L36.811 427.881L34.9202 427.005L34.5 427.913ZM3.1875 413.413H2.1875V414.051L2.76729 414.32L3.1875 413.413ZM3.1875 376.788L3.62908 375.89L2.1875 375.181V376.788H3.1875ZM102.875 425.85L103.344 424.967L103.33 424.96L103.317 424.953L102.875 425.85ZM102.875 437.1L102.421 436.209L102.415 436.212L102.875 437.1ZM3.1875 488.788H2.1875V490.432L3.6478 489.675L3.1875 488.788ZM3.63257 444.371L34.9451 428.808L34.0549 427.017L2.74243 442.58L3.63257 444.371ZM34.9202 427.005L3.60771 412.505L2.76729 414.32L34.0798 428.82L34.9202 427.005ZM4.1875 413.413L4.1875 376.788H2.1875L2.1875 413.413H4.1875ZM2.74592 377.685L102.433 426.747L103.317 424.953L3.62908 375.89L2.74592 377.685ZM102.406 426.733C104.058 427.61 104.937 429.122 104.937 431.538H106.937C106.937 428.536 105.775 426.257 103.344 424.967L102.406 426.733ZM104.937 431.538C104.937 432.745 104.706 433.7 104.296 434.446C103.89 435.183 103.279 435.771 102.421 436.209L103.329 437.991C104.513 437.387 105.433 436.527 106.048 435.41C106.658 434.302 106.937 432.996 106.937 431.538H104.937ZM102.415 436.212L2.7272 487.9L3.6478 489.675L103.335 437.988L102.415 436.212ZM4.1875 488.788V443.475H2.1875V488.788H4.1875ZM103 315.737H104V314.737H103V315.737ZM103 354.612V355.612H104V354.612H103ZM3.1875 354.612H2.1875V355.612H3.1875V354.612ZM3.1875 315.737V314.737H2.1875V315.737H3.1875ZM102 315.737V354.612H104V315.737H102ZM103 353.612H3.1875V355.612H103V353.612ZM4.1875 354.612L4.1875 315.737H2.1875L2.1875 354.612H4.1875ZM3.1875 316.737H103V314.737H3.1875V316.737ZM35.6875 209L36.6208 209.359L37.1435 208H35.6875V209ZM41.0625 234.25L41.7759 233.549L41.7759 233.549L41.0625 234.25ZM69.0625 222.438L69.9839 222.049L69.9816 222.044L69.0625 222.438ZM59.375 207.062V206.062H57.3996L58.5691 207.655L59.375 207.062ZM100.062 207.062L100.99 206.688L100.737 206.062H100.062V207.062ZM99.6875 262.938L100.597 263.354L100.598 263.352L99.6875 262.938ZM70.9375 289.375L71.2403 290.328L71.2473 290.326L70.9375 289.375ZM56.1875 291.562L56.1875 292.563L56.1953 292.562L56.1875 291.562ZM27.125 283.75L27.6458 282.896L27.6439 282.895L27.125 283.75ZM7.4375 262.375L6.54877 262.833L6.54962 262.835L7.4375 262.375ZM0.375 230.75L1.375 230.754V230.75H0.375ZM3.4375 209V208H2.74388L2.50088 208.65L3.4375 209ZM34.7542 208.641C33.6657 211.471 33.125 214.489 33.125 217.688H35.125C35.125 214.719 35.6259 211.946 36.6208 209.359L34.7542 208.641ZM33.125 217.688C33.125 224.295 35.549 230.064 40.3491 234.951L41.7759 233.549C37.326 229.019 35.125 223.747 35.125 217.688H33.125ZM40.3491 234.951C45.1163 239.805 50.8717 242.25 57.5625 242.25V240.25C51.42 240.25 46.1754 238.029 41.7759 233.549L40.3491 234.951ZM57.5625 242.25C61.9679 242.25 65.5484 241.397 68.1927 239.573L67.0573 237.927C64.8683 239.436 61.7405 240.25 57.5625 240.25V242.25ZM68.1927 239.573C70.8732 237.725 72.25 235.149 72.25 231.938H70.25C70.25 234.476 69.2101 236.442 67.0573 237.927L68.1927 239.573ZM72.25 231.938C72.25 228.895 71.479 225.594 69.9839 222.049L68.1411 222.826C69.5626 226.197 70.25 229.23 70.25 231.938H72.25ZM69.9816 222.044C68.4331 218.43 65.1439 213.227 60.1809 206.47L58.5691 207.655C63.5228 214.398 66.6919 219.445 68.1434 222.831L69.9816 222.044ZM59.375 208.062H100.062V206.062H59.375V208.062ZM99.1352 207.437C102.668 216.188 104.437 225.497 104.437 235.375H106.437C106.437 225.253 104.623 215.687 100.99 206.688L99.1352 207.437ZM104.437 235.375C104.437 245.201 102.547 254.246 98.7774 262.523L100.598 263.352C104.495 254.795 106.437 245.465 106.437 235.375H104.437ZM98.7783 262.521C92.7602 275.663 83.3828 284.268 70.6277 288.424L71.2473 290.326C84.5755 285.982 94.3648 276.962 100.597 263.354L98.7783 262.521ZM70.6347 288.422C66.2848 289.804 61.4692 290.522 56.1797 290.563L56.1953 292.562C61.6558 292.52 66.6735 291.779 71.2403 290.328L70.6347 288.422ZM56.1875 290.562C50.896 290.562 45.8385 289.906 41.0117 288.597L40.4883 290.528C45.4948 291.885 50.729 292.562 56.1875 292.562V290.562ZM41.0117 288.597C36.1822 287.288 31.7283 285.387 27.6458 282.896L26.6042 284.604C30.855 287.197 35.4844 289.171 40.4883 290.528L41.0117 288.597ZM27.6439 282.895C19.4344 277.912 12.9957 270.928 8.32538 261.915L6.54962 262.835C11.3793 272.156 18.0656 279.421 26.6061 284.605L27.6439 282.895ZM8.32623 261.917C3.66001 252.871 1.33381 242.491 1.37499 230.754L-0.624994 230.746C-0.667141 242.759 1.71499 253.463 6.54877 262.833L8.32623 261.917ZM1.375 230.75C1.375 221.769 2.39091 214.652 4.37412 209.35L2.50088 208.65C0.400755 214.264 -0.625 221.647 -0.625 230.75H1.375ZM3.4375 210H35.6875V208H3.4375V210ZM3.1875 179.513H2.1875V180.513H3.1875V179.513ZM3.1875 107.575V106.575H2.1875V107.575H3.1875ZM31.9375 107.575H32.9375V106.575H31.9375V107.575ZM31.9375 140.638H30.9375V141.638H31.9375V140.638ZM40.125 140.638V141.638H41.125V140.638H40.125ZM40.125 107.7V106.7H39.125V107.7H40.125ZM64.625 107.7H65.625V106.7H64.625V107.7ZM64.625 140.638H63.625V141.638H64.625V140.638ZM74.0625 140.638V141.638H75.0625V140.638H74.0625ZM74.0625 105.388V104.388H73.0625V105.388H74.0625ZM103 105.388H104V104.388H103V105.388ZM103 179.513V180.513H104V179.513H103ZM4.1875 179.513L4.1875 107.575H2.1875L2.1875 179.513H4.1875ZM3.1875 108.575H31.9375V106.575H3.1875V108.575ZM30.9375 107.575V140.638H32.9375V107.575H30.9375ZM31.9375 141.638H40.125V139.638H31.9375V141.638ZM41.125 140.638V107.7H39.125V140.638H41.125ZM40.125 108.7H64.625V106.7H40.125V108.7ZM63.625 107.7V140.638H65.625V107.7H63.625ZM64.625 141.638H74.0625V139.638H64.625V141.638ZM75.0625 140.638V105.388H73.0625V140.638H75.0625ZM74.0625 106.388H103V104.388H74.0625V106.388ZM102 105.388L102 179.513H104L104 105.388H102ZM103 178.513H3.1875V180.513H103V178.513ZM105.437 41.9H106.438L106.437 41.8968L105.437 41.9ZM98.5 79.15V80.15H98.998L99.298 79.7526L98.5 79.15ZM69.875 79.15L68.9049 78.9075L68.5942 80.15H69.875V79.15ZM70.4375 77.3375L71.39 77.6423L71.3933 77.6316L70.4375 77.3375ZM75 61.3375L75.9702 61.5801L75.9729 61.5687L75 61.3375ZM66.4375 50.3375L65.5862 49.8129L65.5858 49.8134L66.4375 50.3375ZM63.3125 55.9L64.1959 56.3688L64.1997 56.3614L63.3125 55.9ZM59.6875 62.15L58.8404 61.6185L58.8361 61.6255L59.6875 62.15ZM48.4375 74.7125L49.0262 75.5209L49.0312 75.5172L48.4375 74.7125ZM3.375 56.775L4.32576 56.4651L4.32561 56.4646L3.375 56.775ZM3.125 10.4L4.10375 10.6051L4.10379 10.6049L3.125 10.4ZM3.9375 6.83752V5.83752H3.1832L2.97598 6.5628L3.9375 6.83752ZM32.625 6.83752L33.603 7.04607L33.8607 5.83752H32.625V6.83752ZM34.875 35.775L35.5477 36.515L35.5563 36.5072L35.5647 36.4992L34.875 35.775ZM37.5625 31.4625L38.4748 31.8721L38.4783 31.8643L38.4816 31.8564L37.5625 31.4625ZM40.8125 24.3375L41.7151 24.768L41.7191 24.7597L41.7229 24.7513L40.8125 24.3375ZM44.875 16.65L45.7272 17.1733L45.7275 17.1728L44.875 16.65ZM96.625 11.525L97.4076 10.9025L97.4019 10.8954L96.625 11.525ZM104.437 41.9C104.437 51.2191 103.861 58.934 102.72 65.0607C101.576 71.2034 99.8795 75.6636 97.702 78.5474L99.298 79.7526C101.745 76.5114 103.518 71.7008 104.686 65.4269C105.858 59.1369 106.437 51.2893 106.437 41.9H104.437ZM98.5 78.15H69.875V80.15H98.5V78.15ZM70.8451 79.3926C70.8767 79.2662 71.0501 78.7043 71.3899 77.6423L69.4851 77.0327C69.1582 78.0541 68.9566 78.7005 68.9049 78.9075L70.8451 79.3926ZM71.3933 77.6316C71.398 77.6162 71.4199 77.5452 71.4248 77.5293C71.4261 77.525 71.4314 77.5077 71.4327 77.5034C71.4334 77.5013 71.4341 77.4991 71.4347 77.4969C71.4354 77.4948 71.436 77.4926 71.4367 77.4905C71.4373 77.4887 71.4401 77.4793 71.4407 77.4775C71.4414 77.4753 71.442 77.4731 71.4427 77.471C71.4434 77.4688 71.444 77.4666 71.4447 77.4645C71.4454 77.4623 71.446 77.4601 71.4467 77.458C71.4474 77.4558 71.448 77.4536 71.4487 77.4514C71.4523 77.4399 71.4532 77.4369 71.4568 77.4253C71.482 77.3431 71.4638 77.4025 71.4892 77.3198C71.4951 77.3007 71.5162 77.2323 71.5222 77.2127C71.534 77.1742 71.5771 77.0343 71.5896 76.9937C71.5911 76.9887 71.5966 76.9709 71.5981 76.9659C71.5988 76.9635 71.5996 76.9612 71.6003 76.9589C71.601 76.9566 71.6017 76.9542 71.6024 76.9519C71.6043 76.9457 71.6048 76.9441 71.6067 76.9379C71.6096 76.9287 71.6211 76.8912 71.624 76.8818C71.6375 76.838 71.6453 76.8127 71.6589 76.7683C71.6975 76.6428 71.7622 76.4326 71.8034 76.2986C71.8042 76.2961 71.805 76.2936 71.8058 76.2911C71.8065 76.2885 71.8073 76.286 71.8081 76.2835C71.8083 76.2827 71.8125 76.2692 71.8127 76.2684C71.8153 76.26 71.8195 76.2465 71.8221 76.2381C71.8241 76.2314 71.8387 76.184 71.8408 76.1772C71.8416 76.1747 71.8424 76.1721 71.8431 76.1696C71.8439 76.167 71.8447 76.1645 71.8455 76.1619C71.8468 76.1577 71.8489 76.1509 71.8502 76.1466C71.8512 76.1432 71.8586 76.1193 71.8596 76.1159C71.8596 76.1159 71.8786 76.0543 71.8786 76.0542C71.8794 76.0516 71.8802 76.0491 71.881 76.0465C71.8818 76.0439 71.8826 76.0413 71.8834 76.0387C71.8842 76.0362 71.885 76.0336 71.8858 76.031C71.8866 76.0284 71.8874 76.0258 71.8882 76.0232C71.8887 76.0215 71.8924 76.0094 71.8929 76.0077C71.8937 76.0051 71.8945 76.0025 71.8953 75.9999C71.8961 75.9973 71.8969 75.9947 71.8977 75.9921C71.8988 75.9887 71.9063 75.9644 71.9073 75.9609C71.9087 75.9566 71.9108 75.9496 71.9121 75.9453C71.913 75.9425 71.9161 75.9325 71.917 75.9296C71.9191 75.9227 71.9341 75.8739 71.9363 75.8668C71.9502 75.8218 71.9419 75.8486 71.9558 75.8035C71.9605 75.7882 71.956 75.8029 71.9607 75.7876C71.9715 75.7523 71.9547 75.807 71.9656 75.7717C71.9725 75.749 71.9635 75.7784 71.9705 75.7558C71.9759 75.738 71.9699 75.7575 71.9754 75.7398C71.9768 75.7351 71.9837 75.7126 71.9852 75.7078C71.9907 75.69 71.9847 75.7096 71.9901 75.6918C72.002 75.6533 71.9832 75.7142 71.9951 75.6757C72.0012 75.6557 71.9939 75.6797 72 75.6597C72.0048 75.6442 72.0002 75.6591 72.005 75.6436C72.0065 75.6388 72.0134 75.6161 72.0149 75.6113C72.0179 75.6017 72.0319 75.5561 72.0349 75.5464C72.0445 75.515 72.0352 75.5452 72.0449 75.5138C72.0497 75.4981 72.0451 75.5132 72.0499 75.4975C72.0656 75.4467 72.0393 75.532 72.055 75.4811C72.0751 75.4156 72.0398 75.5303 72.06 75.4648C72.0656 75.4465 72.0594 75.4666 72.065 75.4484C72.0763 75.4119 72.0639 75.452 72.0752 75.4155C72.0782 75.4058 72.0925 75.3593 72.0955 75.3494C72.1209 75.267 72.0905 75.3656 72.1159 75.283C72.1379 75.2117 72.1043 75.3209 72.1262 75.2496C72.1361 75.2174 72.1266 75.2484 72.1365 75.2161C72.1374 75.2133 72.1382 75.2105 72.1391 75.2077C72.1399 75.2049 72.1408 75.2022 72.1417 75.1994C72.1554 75.1546 72.1331 75.2273 72.1468 75.1826C72.162 75.1332 72.1368 75.2151 72.152 75.1657C72.1528 75.1632 72.1564 75.1514 72.1572 75.1489C72.1867 75.053 72.1485 75.1773 72.178 75.0812C72.1984 75.0148 72.1628 75.1307 72.1832 75.0643C72.1841 75.0614 72.185 75.0586 72.1858 75.0558C72.1867 75.0529 72.1876 75.0501 72.1885 75.0473C72.2001 75.0094 72.1873 75.0511 72.1989 75.0132C72.2223 74.9372 72.1966 75.0209 72.22 74.9448C72.25 74.8472 72.2111 74.9737 72.2412 74.8759C72.2601 74.8145 72.2276 74.9201 72.2465 74.8587C72.2516 74.842 72.2467 74.858 72.2518 74.8414C72.2621 74.808 72.2522 74.8401 72.2625 74.8067C72.2863 74.7294 72.2601 74.8145 72.2839 74.7371C72.2959 74.6982 72.2827 74.741 72.2947 74.7021C72.3167 74.6305 72.2834 74.7387 72.3054 74.6671C72.3208 74.6171 72.2955 74.6995 72.3109 74.6495C72.3169 74.6299 72.3103 74.6514 72.3163 74.6319C72.3179 74.6267 72.3255 74.6019 72.3271 74.5966C72.3481 74.5285 72.3279 74.5941 72.3489 74.5258C72.3669 74.4674 72.3364 74.5665 72.3544 74.5081C72.369 74.4606 72.3452 74.5377 72.3598 74.4903C72.3715 74.4523 72.3591 74.4926 72.3708 74.4546C72.3953 74.3751 72.3573 74.4984 72.3818 74.4189C72.3834 74.4136 72.3912 74.3883 72.3929 74.383C72.4174 74.3031 72.3904 74.391 72.415 74.311C72.4167 74.3057 72.4245 74.2802 72.4261 74.2748C72.444 74.2169 72.4195 74.2965 72.4373 74.2386C72.4602 74.1642 72.4256 74.2767 72.4485 74.2022C72.4719 74.1262 72.4307 74.2601 72.4541 74.184C72.4705 74.1305 72.4432 74.2193 72.4597 74.1658C72.4847 74.0845 72.4572 74.174 72.4822 74.0926C72.4938 74.0551 72.4763 74.1118 72.4879 74.0742C72.5035 74.0235 72.4779 74.1065 72.4935 74.0558C72.5136 73.9904 72.4847 74.0844 72.5049 74.019C72.5261 73.95 72.495 74.0511 72.5162 73.9821C72.5179 73.9766 72.5259 73.9505 72.5276 73.945C72.553 73.8624 72.5251 73.9533 72.5505 73.8706C72.5522 73.8651 72.5603 73.8388 72.562 73.8333C72.5845 73.7602 72.551 73.869 72.5735 73.7958C72.5853 73.7575 72.5675 73.8155 72.5793 73.7771C72.5801 73.7743 72.5842 73.7611 72.5851 73.7583C72.5943 73.7282 72.5816 73.7696 72.5909 73.7395C72.6027 73.701 72.5848 73.7592 72.5966 73.7207C72.619 73.6479 72.5975 73.7179 72.6199 73.6451C72.6303 73.6114 72.6154 73.6598 72.6257 73.6261C72.6366 73.5907 72.6207 73.6426 72.6316 73.6071C72.6324 73.6043 72.6366 73.591 72.6374 73.5881C72.6452 73.5628 72.6355 73.5945 72.6433 73.5691L70.7317 72.9809C70.2317 74.6059 69.8151 75.9601 69.4817 77.0434L71.3933 77.6316ZM72.6433 73.5691C73.8156 69.7591 74.9245 65.7626 75.9701 61.5801L74.0299 61.095C72.9922 65.2457 71.8927 69.2077 70.7317 72.9809L72.6433 73.5691ZM75.9729 61.5687C76.9802 57.3295 77.5 53.8676 77.5 51.2125H75.5C75.5 53.6408 75.0198 56.9289 74.0271 61.1063L75.9729 61.5687ZM77.5 51.2125C77.5 49.0601 77.1776 47.278 76.4006 46.0043C75.5746 44.6502 74.2894 43.9625 72.6875 43.9625V45.9625C73.6273 45.9625 74.2483 46.3165 74.6932 47.0458C75.187 47.8553 75.5 49.1983 75.5 51.2125H77.5ZM72.6875 43.9625C71.3882 43.9625 70.1547 44.5586 69.0042 45.5481C67.8546 46.5367 66.7188 47.975 65.5862 49.8129L67.2888 50.8622C68.3645 49.1167 69.3745 47.8675 70.3083 47.0645C71.2411 46.2622 72.0285 45.9625 72.6875 45.9625V43.9625ZM65.5858 49.8134C64.5708 51.4629 63.5173 53.3386 62.4253 55.4387L64.1997 56.3614C65.2744 54.2947 66.3042 52.4621 67.2892 50.8616L65.5858 49.8134ZM62.4292 55.4313C61.3581 57.4499 60.162 59.5123 58.8404 61.6185L60.5346 62.6815C61.8797 60.5377 63.1003 58.4335 64.1958 56.3687L62.4292 55.4313ZM58.8361 61.6255C55.6851 66.7407 52.0184 70.8276 47.8438 73.9079L49.0312 75.5172C53.4399 72.2642 57.2732 67.976 60.5389 62.6745L58.8361 61.6255ZM47.8489 73.9041C43.7646 76.8781 38.5675 78.4 32.1875 78.4V80.4C38.8908 80.4 44.5271 78.7969 49.0261 75.5209L47.8489 73.9041ZM32.1875 78.4C25.2259 78.4 19.4802 76.5671 14.8832 72.9573C10.2774 69.3406 6.74087 63.8742 4.32576 56.4651L2.42424 57.0849C4.92579 64.7592 8.64965 70.6053 13.648 74.5303C18.6552 78.4621 24.8575 80.4 32.1875 80.4V78.4ZM4.32561 56.4646C2.36513 50.4607 1.375 43.5065 1.375 35.5875H-0.625C-0.625 43.6685 0.384871 50.8394 2.42439 57.0854L4.32561 56.4646ZM1.375 35.5875C1.375 27.6219 2.283 19.295 4.10375 10.6051L2.14625 10.195C0.300336 19.005 -0.625 27.4698 -0.625 35.5875H1.375ZM4.10379 10.6049C4.48006 8.80717 4.74391 7.65514 4.89902 7.11225L2.97598 6.5628C2.79776 7.18658 2.51994 8.40954 2.14621 10.1952L4.10379 10.6049ZM3.9375 7.83752H32.625V5.83752H3.9375V7.83752ZM31.647 6.62898C29.2299 17.9644 28 26.2013 28 31.275H30C30 26.432 31.1868 18.3773 33.603 7.04607L31.647 6.62898ZM28 31.275C28 33.2768 28.3426 34.9561 29.1791 36.1586L30.8209 35.0165C30.3241 34.3023 30 33.1066 30 31.275H28ZM29.1791 36.1586C29.9518 37.2694 30.9695 38.025 32.25 38.025V36.025C31.8639 36.025 31.3815 35.8224 30.8209 35.0165L29.1791 36.1586ZM32.25 38.025C33.4294 38.025 34.5345 37.436 35.5477 36.515L34.2023 35.0351C33.3821 35.7807 32.7373 36.025 32.25 36.025V38.025ZM35.5647 36.4992C36.5826 35.5297 37.5425 33.9486 38.4748 31.8721L36.6502 31.0529C35.7492 33.0597 34.9174 34.3537 34.1853 35.0509L35.5647 36.4992ZM38.4816 31.8564C39.3499 29.8305 40.4273 27.4681 41.7151 24.768L39.9099 23.9071C38.6143 26.6236 37.5251 29.0112 36.6434 31.0686L38.4816 31.8564ZM41.7229 24.7513C42.9572 22.0359 44.2922 19.5103 45.7272 17.1733L44.0228 16.1268C42.5411 18.5398 41.1678 21.1392 39.9021 23.9237L41.7229 24.7513ZM45.7275 17.1728C52.11 6.7657 60.7432 1.65002 71.6875 1.65002V-0.349976C59.9651 -0.349976 50.7234 5.20102 44.0225 16.1272L45.7275 17.1728ZM71.6875 1.65002C82.1874 1.65002 90.1931 5.17618 95.8481 12.1546L97.4019 10.8954C91.3069 3.37387 82.6876 -0.349976 71.6875 -0.349976V1.65002ZM95.8424 12.1475C101.491 19.2487 104.396 29.1275 104.438 41.9033L106.437 41.8968C106.395 28.8392 103.426 18.4681 97.4076 10.9025L95.8424 12.1475Z" fill="transparent" mask="url(#path-1-outside-1_289_178)"/>
</svg>
