<svg width="106" height="822" viewBox="0 0 106 822" fill="none" xmlns="http://www.w3.org/2000/svg">
<mask id="path-1-outside-1_290_179" maskUnits="userSpaceOnUse" x="-1" y="-1" width="108" height="824" fill="white">
<rect fill="white" x="-1" y="-1" width="108" height="824"/>
<path d="M0.5625 37.5C0.5625 18.7917 2.875 6.375 7.5 0.25L36.125 0.25C36.0833 0.416667 35.8958 1.02083 35.5625 2.0625C35.2292 3.14583 34.8125 4.5 34.3125 6.125C33.1458 9.91667 32.0417 13.8958 31 18.0625C30 22.2708 29.5 25.6458 29.5 28.1875C29.5 32.3542 30.7708 34.4375 33.3125 34.4375C35.2708 34.4375 37.3542 32.6458 39.5625 29.0625C40.5625 27.4375 41.6042 25.5833 42.6875 23.5C43.7708 21.4583 44.9792 19.375 46.3125 17.25C49.5208 12.0417 53.2708 7.85417 57.5625 4.6875C61.8542 1.5625 67.2708 0 73.8125 0C88.1042 0 97.7083 7.54167 102.625 22.625C104.625 28.75 105.625 35.8125 105.625 43.8125C105.625 51.8542 104.708 60.25 102.875 69C102.5 70.7917 102.229 71.9792 102.063 72.5625H73.375C75.7917 61.2292 77 53.0833 77 48.125C77 46.2083 76.6667 44.7708 76 43.8125C75.3333 42.8542 74.5833 42.375 73.75 42.375C72.9167 42.375 72.0417 42.7917 71.125 43.625C70.25 44.4583 69.3542 45.8958 68.4375 47.9375C67.5625 49.9792 66.4792 52.3542 65.1875 55.0625C63.9375 57.8125 62.5833 60.375 61.125 62.75C54.5833 73.4167 45.6458 78.75 34.3125 78.75C23.5625 78.75 15.25 75.125 9.375 67.875C3.54167 60.5417 0.604167 50.4167 0.5625 37.5ZM102.813 104.863L102.813 176.8L74.0625 176.8V143.738H65.875V176.675H41.375V143.738H31.9375V178.988H3L3 104.863L102.813 104.863ZM71.25 269.913C77.125 269.913 80.0625 267.725 80.0625 263.35C80.0625 261.475 79.375 258.871 78 255.538L74.5625 247.225H50.125C55.75 262.35 62.7917 269.913 71.25 269.913ZM70.1875 307.038C56.8542 307.038 46.2708 300.454 38.4375 287.288L3 314.413L3 265.038L31.9375 247.475H3V206.663L102.813 206.663C104.688 233.079 105.625 250.392 105.625 258.6C105.625 266.808 105.125 273.058 104.125 277.35C101.417 289.183 95.625 297.642 86.75 302.725C81.6667 305.558 76.1458 306.996 70.1875 307.038ZM102.813 378.525L71.5 394.087L102.813 408.587V445.212L3.125 396.15C1.08333 395.067 0.0625 393.171 0.0625 390.462C0.0625 387.796 1.08333 385.942 3.125 384.9L102.813 333.212L102.813 378.525ZM3 506.263L3 467.388L102.813 467.388L102.813 506.263H3ZM70.3125 613C71.3542 610.292 71.875 607.396 71.875 604.312C71.875 597.979 69.5625 592.458 64.9375 587.75C60.3542 583.083 54.8542 580.75 48.4375 580.75C44.1458 580.75 40.7917 581.583 38.375 583.25C35.9583 584.917 34.75 587.188 34.75 590.062C34.75 592.938 35.4792 596.104 36.9375 599.562C38.4375 603.062 41.6667 608.188 46.625 614.938H5.9375C2.35417 606.062 0.5625 596.625 0.5625 586.625C0.5625 576.667 2.47917 567.479 6.3125 559.062C12.4375 545.688 22.0208 536.875 35.0625 532.625C39.5208 531.208 44.4375 530.479 49.8125 530.438C55.1875 530.438 60.3333 531.104 65.25 532.438C70.1667 533.771 74.7083 535.708 78.875 538.25C87.25 543.333 93.8125 550.458 98.5625 559.625C103.313 568.833 105.667 579.375 105.625 591.25C105.625 600.292 104.604 607.542 102.563 613H70.3125ZM102.813 642.487L102.813 714.425H74.0625V681.362H65.875V714.3H41.375V681.362H31.9375V716.612H3L3 642.487H102.813ZM0.5625 780.1C0.5625 761.392 2.875 748.975 7.5 742.85H36.125C36.0833 743.017 35.8958 743.621 35.5625 744.662C35.2292 745.746 34.8125 747.1 34.3125 748.725C33.1458 752.517 32.0417 756.496 31 760.662C30 764.871 29.5 768.246 29.5 770.787C29.5 774.954 30.7708 777.037 33.3125 777.037C35.2708 777.037 37.3542 775.246 39.5625 771.662C40.5625 770.037 41.6042 768.183 42.6875 766.1C43.7708 764.058 44.9792 761.975 46.3125 759.85C49.5208 754.642 53.2708 750.454 57.5625 747.287C61.8542 744.162 67.2708 742.6 73.8125 742.6C88.1042 742.6 97.7083 750.142 102.625 765.225C104.625 771.35 105.625 778.412 105.625 786.412C105.625 794.454 104.708 802.85 102.875 811.6C102.5 813.392 102.229 814.579 102.063 815.162H73.375C75.7917 803.829 77 795.683 77 790.725C77 788.808 76.6667 787.371 76 786.412C75.3333 785.454 74.5833 784.975 73.75 784.975C72.9167 784.975 72.0417 785.392 71.125 786.225C70.25 787.058 69.3542 788.496 68.4375 790.537C67.5625 792.579 66.4792 794.954 65.1875 797.662C63.9375 800.412 62.5833 802.975 61.125 805.35C54.5833 816.017 45.6458 821.35 34.3125 821.35C23.5625 821.35 15.25 817.725 9.375 810.475C3.54167 803.142 0.604167 793.017 0.5625 780.1Z"/>
</mask>
<path d="M0.5625 37.5L-0.437505 37.5L-0.437495 37.5032L0.5625 37.5ZM7.5 0.25V-0.75H7.00203L6.70196 -0.352603L7.5 0.25ZM36.125 0.25L37.0951 0.492536L37.4058 -0.75L36.125 -0.75V0.25ZM35.5625 2.0625L34.61 1.75771L34.6067 1.76841L35.5625 2.0625ZM31 18.0625L30.0298 17.8199L30.0271 17.8313L31 18.0625ZM39.5625 29.0625L40.4138 29.5871L40.4142 29.5866L39.5625 29.0625ZM42.6875 23.5L41.8041 23.0313L41.8003 23.0386L42.6875 23.5ZM46.3125 17.25L47.1596 17.7815L47.1639 17.7745L46.3125 17.25ZM57.5625 4.6875L56.9738 3.87909L56.9688 3.88284L57.5625 4.6875ZM102.625 22.625L101.674 22.9349L101.674 22.9354L102.625 22.625ZM102.875 69L101.896 68.7949L101.896 68.7951L102.875 69ZM102.063 72.5625V73.5625H102.817L103.024 72.8372L102.063 72.5625ZM73.375 72.5625L72.397 72.354L72.1393 73.5625L73.375 73.5625V72.5625ZM71.125 43.625L70.4523 42.8851L70.4437 42.8929L70.4353 42.9009L71.125 43.625ZM68.4375 47.9375L67.5252 47.5279L67.5217 47.5357L67.5184 47.5436L68.4375 47.9375ZM65.1875 55.0625L64.2849 54.632L64.2809 54.6403L64.2771 54.6487L65.1875 55.0625ZM61.125 62.75L60.2728 62.2267L60.2725 62.2272L61.125 62.75ZM9.375 67.875L8.59237 68.4975L8.59807 68.5046L9.375 67.875ZM1.5625 37.5C1.5625 28.181 2.13893 20.466 3.27997 14.3393C4.42401 8.1966 6.12048 3.73641 8.29804 0.852603L6.70196 -0.352603C4.25452 2.88859 2.48224 7.69924 1.31378 13.9732C0.14232 20.2632 -0.4375 28.1107 -0.4375 37.5H1.5625ZM7.5 1.25L36.125 1.25V-0.75L7.5 -0.75V1.25ZM35.1549 0.00746437C35.1233 0.133798 34.9499 0.695741 34.6101 1.75772L36.5149 2.36728C36.8418 1.34593 37.0434 0.699535 37.0951 0.492536L35.1549 0.00746437ZM34.6067 1.76841C34.602 1.78379 34.5801 1.85487 34.5752 1.87077C34.5739 1.87507 34.5686 1.89228 34.5673 1.89661C34.5666 1.89876 34.5659 1.90092 34.5653 1.90308C34.5646 1.90524 34.564 1.9074 34.5633 1.90956C34.5627 1.91136 34.5599 1.92074 34.5593 1.92254C34.5586 1.92471 34.558 1.92688 34.5573 1.92904C34.5566 1.93121 34.556 1.93338 34.5553 1.93555C34.5546 1.93772 34.554 1.93989 34.5533 1.94206C34.5526 1.94423 34.552 1.9464 34.5513 1.94858C34.5477 1.96017 34.5468 1.96309 34.5432 1.97471C34.518 2.05688 34.5362 1.99755 34.5108 2.08024C34.5049 2.09932 34.4838 2.16775 34.4778 2.18736C34.466 2.22585 34.4229 2.36575 34.4104 2.40635C34.4089 2.41136 34.4034 2.42913 34.4019 2.43417C34.4012 2.4365 34.4004 2.43882 34.3997 2.44114C34.399 2.44347 34.3983 2.4458 34.3976 2.44812C34.3957 2.45433 34.3952 2.45588 34.3933 2.46209C34.3904 2.47135 34.3789 2.50884 34.376 2.51823C34.3625 2.56205 34.3547 2.58735 34.3411 2.6317C34.3025 2.75724 34.2378 2.96742 34.1966 3.10142C34.1958 3.10393 34.195 3.10645 34.1942 3.10896C34.1935 3.11148 34.1927 3.11399 34.1919 3.11651C34.1917 3.11734 34.1875 3.13078 34.1873 3.13162C34.1847 3.14003 34.1805 3.15349 34.1779 3.16192C34.1759 3.16858 34.1613 3.21603 34.1592 3.22282C34.1584 3.22537 34.1576 3.22791 34.1569 3.23046C34.1561 3.23301 34.1553 3.23556 34.1545 3.23811C34.1532 3.24236 34.1511 3.24916 34.1498 3.25342C34.1488 3.2568 34.1414 3.2807 34.1404 3.28412C34.1404 3.28412 34.1214 3.34567 34.1214 3.34581C34.1206 3.34839 34.1198 3.35097 34.119 3.35355C34.1182 3.35613 34.1174 3.35871 34.1166 3.36129C34.1158 3.36387 34.115 3.36646 34.1142 3.36904C34.1134 3.37163 34.1126 3.37421 34.1118 3.3768C34.1113 3.37853 34.1076 3.3906 34.1071 3.39234C34.1063 3.39493 34.1055 3.39752 34.1047 3.40011C34.1039 3.40271 34.1031 3.4053 34.1023 3.40789C34.1012 3.41136 34.0937 3.43559 34.0927 3.43909C34.0913 3.44343 34.0892 3.45037 34.0879 3.45472C34.087 3.45754 34.0839 3.46755 34.083 3.47038C34.0809 3.47734 34.0659 3.52616 34.0637 3.53326C34.0498 3.57825 34.0581 3.55142 34.0442 3.59654C34.0395 3.61183 34.044 3.59712 34.0393 3.61242C34.0285 3.64774 34.0453 3.593 34.0344 3.62833C34.0275 3.65099 34.0365 3.62158 34.0295 3.64426C34.0241 3.66198 34.0301 3.64248 34.0246 3.66021C34.0232 3.66494 34.0163 3.68744 34.0148 3.6922C34.0093 3.71001 34.0153 3.69041 34.0099 3.70823C33.998 3.74673 34.0168 3.68577 34.0049 3.72429C33.9988 3.7443 34.0061 3.72034 34 3.74037C33.9952 3.75587 33.9998 3.74096 33.995 3.75647C33.9935 3.76124 33.9866 3.78396 33.9851 3.78875C33.9821 3.79829 33.9681 3.84395 33.9651 3.85362C33.9555 3.88498 33.9648 3.8548 33.9551 3.8862C33.9503 3.90192 33.9549 3.8868 33.9501 3.90253C33.9344 3.95336 33.9607 3.86804 33.945 3.91888C33.9249 3.98443 33.9602 3.8697 33.94 3.93526C33.9344 3.95348 33.9406 3.93343 33.935 3.95166C33.9237 3.98817 33.9361 3.948 33.9248 3.98454C33.9218 3.99426 33.9075 4.04074 33.9045 4.05059C33.8791 4.13304 33.9095 4.03447 33.8841 4.11705C33.8621 4.18832 33.8957 4.07912 33.8738 4.15042C33.8639 4.18263 33.8734 4.15165 33.8635 4.1839C33.8626 4.18669 33.8618 4.18948 33.8609 4.19228C33.8601 4.19508 33.8592 4.19787 33.8583 4.20067C33.8446 4.24543 33.8669 4.1727 33.8532 4.21747C33.838 4.26685 33.8632 4.18491 33.848 4.23429C33.8472 4.23678 33.8436 4.24864 33.8428 4.25114C33.8133 4.34702 33.8515 4.22277 33.822 4.31878C33.8016 4.38521 33.8372 4.26933 33.8168 4.33576C33.8159 4.33859 33.815 4.34142 33.8142 4.34425C33.8133 4.34708 33.8124 4.34992 33.8115 4.35275C33.7999 4.39059 33.8127 4.34896 33.8011 4.38682C33.7777 4.46282 33.8034 4.37913 33.78 4.45526C33.75 4.55287 33.7889 4.42635 33.7588 4.52409C33.7399 4.58553 33.7724 4.47991 33.7535 4.54136C33.7484 4.55801 33.7533 4.542 33.7482 4.55866C33.7379 4.59201 33.7478 4.55993 33.7375 4.59332C33.7137 4.67059 33.7399 4.58554 33.7161 4.66295C33.7041 4.70178 33.7173 4.65904 33.7053 4.69791C33.6833 4.76949 33.7166 4.66136 33.6946 4.73297C33.6792 4.78297 33.7045 4.70053 33.6891 4.75054C33.6831 4.77008 33.6897 4.74858 33.6837 4.76813C33.6821 4.77333 33.6745 4.79815 33.6729 4.80339C33.6519 4.87154 33.6721 4.80592 33.6511 4.8742C33.6331 4.9326 33.6636 4.83357 33.6456 4.89197C33.631 4.93944 33.6548 4.86228 33.6402 4.90976C33.6285 4.94774 33.6409 4.9074 33.6292 4.94542C33.6047 5.02495 33.6427 4.90161 33.6182 4.98117C33.6166 4.98647 33.6088 5.0117 33.6071 5.01703C33.5826 5.09694 33.6096 5.00898 33.585 5.08903C33.5833 5.09437 33.5755 5.11981 33.5739 5.12518C33.556 5.18311 33.5805 5.10348 33.5627 5.16143C33.5398 5.23582 33.5744 5.12337 33.5515 5.19779C33.5281 5.27381 33.5693 5.13996 33.5459 5.216C33.5295 5.26952 33.5568 5.18071 33.5403 5.23423C33.5153 5.31552 33.5428 5.22601 33.5178 5.30743C33.5062 5.34495 33.5237 5.28827 33.5121 5.32579C33.4965 5.37649 33.5221 5.29348 33.5065 5.34418C33.4864 5.40959 33.5153 5.31557 33.4951 5.38102C33.4739 5.45005 33.505 5.34891 33.4838 5.41797C33.4821 5.42344 33.4741 5.44951 33.4724 5.45501C33.447 5.53757 33.4749 5.44671 33.4495 5.5294C33.4478 5.53492 33.4397 5.56119 33.438 5.56674C33.4155 5.63986 33.449 5.53103 33.4265 5.60418C33.4147 5.64255 33.4325 5.58457 33.4207 5.62294C33.4199 5.62572 33.4158 5.63894 33.4149 5.64172C33.4057 5.67179 33.4184 5.63045 33.4091 5.66053C33.3973 5.69905 33.4152 5.64084 33.4034 5.67936C33.381 5.7521 33.4025 5.68208 33.3801 5.75494C33.3697 5.78862 33.3846 5.74021 33.3743 5.7739C33.3634 5.80935 33.3793 5.75742 33.3684 5.79288C33.3676 5.79569 33.3634 5.80906 33.3626 5.81188C33.3548 5.83724 33.3645 5.80555 33.3567 5.83091L35.2683 6.41909C35.7683 4.79409 36.1849 3.43992 36.5183 2.35659L34.6067 1.76841ZM33.3567 5.83091C32.1844 9.64096 31.0755 13.6374 30.0299 17.82L31.9701 18.305C33.0078 14.1543 34.1073 10.1924 35.2683 6.41909L33.3567 5.83091ZM30.0271 17.8313C29.0198 22.0705 28.5 25.5324 28.5 28.1875H30.5C30.5 25.7592 30.9802 22.4712 31.9729 18.2937L30.0271 17.8313ZM28.5 28.1875C28.5 30.3399 28.8224 32.122 29.5994 33.3958C30.4254 34.7498 31.7106 35.4375 33.3125 35.4375V33.4375C32.3727 33.4375 31.7517 33.0835 31.3068 32.3542C30.813 31.5447 30.5 30.2017 30.5 28.1875H28.5ZM33.3125 35.4375C34.6118 35.4375 35.8453 34.8414 36.9958 33.8519C38.1454 32.8633 39.2812 31.4251 40.4138 29.5871L38.7112 28.5379C37.6355 30.2833 36.6255 31.5325 35.6917 32.3356C34.7589 33.1378 33.9715 33.4375 33.3125 33.4375V35.4375ZM40.4142 29.5866C41.4292 27.9371 42.4827 26.0614 43.5747 23.9614L41.8003 23.0386C40.7256 25.1053 39.6958 26.9379 38.7108 28.5384L40.4142 29.5866ZM43.5708 23.9687C44.6419 21.9501 45.838 19.8877 47.1596 17.7815L45.4654 16.7185C44.1203 18.8623 42.8997 20.9665 41.8042 23.0313L43.5708 23.9687ZM47.1639 17.7745C50.3149 12.6593 53.9816 8.57246 58.1562 5.49216L56.9688 3.88284C52.5601 7.13587 48.7268 11.424 45.4611 16.7255L47.1639 17.7745ZM58.1511 5.4959C62.2354 2.5219 67.4325 1 73.8125 1V-1C67.1092 -1 61.4729 0.603103 56.9739 3.8791L58.1511 5.4959ZM73.8125 1C80.7741 1 86.5198 2.83294 91.1168 6.44275C95.7226 10.0594 99.2591 15.5259 101.674 22.9349L103.576 22.3151C101.074 14.6408 97.3503 8.79473 92.352 4.86975C87.3448 0.937894 81.1425 -1 73.8125 -1V1ZM101.674 22.9354C103.635 28.9394 104.625 35.8935 104.625 43.8125H106.625C106.625 35.7315 105.615 28.5606 103.576 22.3146L101.674 22.9354ZM104.625 43.8125C104.625 51.7781 103.717 60.105 101.896 68.7949L103.854 69.2051C105.7 60.395 106.625 51.9302 106.625 43.8125H104.625ZM101.896 68.7951C101.52 70.5928 101.256 71.7449 101.101 72.2878L103.024 72.8372C103.202 72.2134 103.48 70.9905 103.854 69.2049L101.896 68.7951ZM102.063 71.5625H73.375V73.5625H102.063V71.5625ZM74.353 72.771C76.7701 61.4356 78 53.1987 78 48.125H76C76 52.968 74.8132 61.0227 72.397 72.354L74.353 72.771ZM78 48.125C78 46.1232 77.6574 44.444 76.8209 43.2414L75.1791 44.3836C75.6759 45.0977 76 46.2935 76 48.125H78ZM76.8209 43.2414C76.0482 42.1307 75.0305 41.375 73.75 41.375V43.375C74.1361 43.375 74.6185 43.5777 75.1791 44.3836L76.8209 43.2414ZM73.75 41.375C72.5706 41.375 71.4655 41.964 70.4523 42.8851L71.7977 44.3649C72.6179 43.6193 73.2627 43.375 73.75 43.375V41.375ZM70.4353 42.9009C69.4174 43.8703 68.4575 45.4514 67.5252 47.5279L69.3498 48.3471C70.2508 46.3403 71.0826 45.0464 71.8147 44.3491L70.4353 42.9009ZM67.5184 47.5436C66.6501 49.5696 65.5727 51.9319 64.2849 54.632L66.0901 55.493C67.3857 52.7764 68.4749 50.3888 69.3566 48.3314L67.5184 47.5436ZM64.2771 54.6487C63.0428 57.3641 61.7078 59.8898 60.2728 62.2267L61.9772 63.2733C63.4589 60.8602 64.8322 58.2609 66.0979 55.4763L64.2771 54.6487ZM60.2725 62.2272C53.89 72.6343 45.2568 77.75 34.3125 77.75V79.75C46.0349 79.75 55.2766 74.199 61.9775 63.2728L60.2725 62.2272ZM34.3125 77.75C23.8126 77.75 15.8069 74.2238 10.1519 67.2454L8.59807 68.5046C14.6931 76.0262 23.3124 79.75 34.3125 79.75V77.75ZM10.1576 67.2525C4.50899 60.1514 1.60371 50.2725 1.56249 37.4968L-0.437495 37.5032C-0.395374 50.5608 2.57435 60.932 8.5924 68.4975L10.1576 67.2525ZM102.813 104.863H103.813V103.863H102.813V104.863ZM102.813 176.8V177.8H103.813V176.8H102.813ZM74.0625 176.8H73.0625V177.8H74.0625V176.8ZM74.0625 143.738H75.0625V142.738H74.0625V143.738ZM65.875 143.738V142.738H64.875V143.738H65.875ZM65.875 176.675V177.675H66.875V176.675H65.875ZM41.375 176.675H40.375V177.675H41.375V176.675ZM41.375 143.738H42.375V142.738H41.375V143.738ZM31.9375 143.738V142.738H30.9375V143.738H31.9375ZM31.9375 178.988V179.988H32.9375V178.988H31.9375ZM3 178.988H2V179.988H3V178.988ZM3 104.863V103.863H2V104.863H3ZM101.813 104.863L101.813 176.8H103.813L103.813 104.863H101.813ZM102.813 175.8L74.0625 175.8V177.8L102.813 177.8V175.8ZM75.0625 176.8V143.738H73.0625V176.8H75.0625ZM74.0625 142.738H65.875V144.738H74.0625V142.738ZM64.875 143.738V176.675H66.875V143.738H64.875ZM65.875 175.675H41.375V177.675H65.875V175.675ZM42.375 176.675V143.738H40.375V176.675H42.375ZM41.375 142.738H31.9375V144.738H41.375V142.738ZM30.9375 143.738V178.988H32.9375V143.738H30.9375ZM31.9375 177.988H3V179.988H31.9375V177.988ZM4 178.988L4 104.863H2L2 178.988H4ZM3 105.863L102.813 105.863V103.863L3 103.863V105.863ZM78 255.538L78.9244 255.156L78.9241 255.155L78 255.538ZM74.5625 247.225L75.4866 246.843L75.2311 246.225H74.5625V247.225ZM50.125 247.225V246.225H48.6862L49.1877 247.574L50.125 247.225ZM70.1875 307.038V308.038L70.1945 308.037L70.1875 307.038ZM38.4375 287.288L39.2969 286.776L38.7222 285.81L37.8297 286.493L38.4375 287.288ZM3 314.413H2V316.437L3.60781 315.207L3 314.413ZM3 265.038L2.48117 264.183L2 264.475V265.038H3ZM31.9375 247.475L32.4563 248.33L35.5126 246.475H31.9375V247.475ZM3 247.475H2V248.475H3V247.475ZM3 206.663V205.663H2V206.663H3ZM102.813 206.663L103.81 206.592L103.744 205.663H102.813V206.663ZM104.125 277.35L103.151 277.123L103.15 277.127L104.125 277.35ZM86.75 302.725L87.2369 303.599L87.247 303.593L86.75 302.725ZM71.25 270.913C74.2826 270.913 76.7389 270.353 78.4566 269.074C80.2297 267.754 81.0625 265.784 81.0625 263.35H79.0625C79.0625 265.291 78.4266 266.603 77.2621 267.47C76.0423 268.378 74.0924 268.913 71.25 268.913V270.913ZM81.0625 263.35C81.0625 261.273 80.3119 258.52 78.9244 255.156L77.0756 255.919C78.4381 259.222 79.0625 261.677 79.0625 263.35H81.0625ZM78.9241 255.155L75.4866 246.843L73.6384 247.607L77.0759 255.92L78.9241 255.155ZM74.5625 246.225H50.125V248.225H74.5625V246.225ZM49.1877 247.574C52.0231 255.198 55.2465 261.006 58.8931 264.922C62.558 268.858 66.6833 270.913 71.25 270.913V268.913C67.3584 268.913 63.7337 267.186 60.3569 263.559C56.9618 259.913 53.8519 254.377 51.0623 246.876L49.1877 247.574ZM70.1875 306.038C57.2651 306.038 46.9819 299.694 39.2969 286.776L37.5781 287.799C45.5597 301.215 56.4432 308.038 70.1875 308.038V306.038ZM37.8297 286.493L2.39219 313.618L3.60781 315.207L39.0453 288.082L37.8297 286.493ZM4 314.413L4 265.038H2L2 314.413H4ZM3.51883 265.892L32.4563 248.33L31.4187 246.62L2.48117 264.183L3.51883 265.892ZM31.9375 246.475H3V248.475H31.9375V246.475ZM4 247.475V206.663H2V247.475H4ZM3 207.663L102.813 207.663V205.663L3 205.663V207.663ZM101.815 206.733C103.691 233.158 104.625 250.434 104.625 258.6H106.625C106.625 250.35 105.684 233.001 103.81 206.592L101.815 206.733ZM104.625 258.6C104.625 266.785 104.125 272.944 103.151 277.123L105.099 277.577C106.125 273.172 106.625 266.831 106.625 258.6H104.625ZM103.15 277.127C100.491 288.743 94.8405 296.939 86.253 301.857L87.247 303.593C96.4095 298.345 102.342 289.623 105.1 277.573L103.15 277.127ZM86.2631 301.852C81.3302 304.601 75.975 305.997 70.1805 306.038L70.1945 308.037C76.3167 307.995 82.0031 306.516 87.2369 303.598L86.2631 301.852ZM102.813 378.525L103.258 379.42L103.813 379.145V378.525H102.813ZM71.5 394.087L71.0549 393.192L69.189 394.119L71.0798 394.995L71.5 394.087ZM102.813 408.587H103.813V407.949L103.233 407.68L102.813 408.587ZM102.813 445.212L102.371 446.11L103.813 446.819V445.212H102.813ZM3.125 396.15L2.65628 397.033L2.66975 397.04L2.68342 397.047L3.125 396.15ZM3.125 384.9L3.57948 385.791L3.5853 385.788L3.125 384.9ZM102.813 333.212H103.813V331.568L102.352 332.325L102.813 333.212ZM102.367 377.629L71.0549 393.192L71.9451 394.983L103.258 379.42L102.367 377.629ZM71.0798 394.995L102.392 409.495L103.233 407.68L71.9202 393.18L71.0798 394.995ZM101.813 408.587V445.212H103.813V408.587H101.813ZM103.254 444.315L3.56658 395.253L2.68342 397.047L102.371 446.11L103.254 444.315ZM3.59372 395.267C1.94168 394.39 1.0625 392.878 1.0625 390.462H-0.9375C-0.9375 393.464 0.224982 395.743 2.65628 397.033L3.59372 395.267ZM1.0625 390.462C1.0625 389.255 1.29355 388.3 1.70413 387.554C2.11001 386.817 2.72137 386.229 3.57947 385.791L2.67053 384.009C1.48697 384.613 0.567077 385.473 -0.047883 386.59C-0.658132 387.698 -0.9375 389.004 -0.9375 390.462H1.0625ZM3.5853 385.788L103.273 334.1L102.352 332.325L2.6647 384.012L3.5853 385.788ZM101.813 333.212L101.813 378.525H103.813L103.813 333.212H101.813ZM3 506.263H2V507.263H3V506.263ZM3 467.388V466.388H2V467.388H3ZM102.813 467.388H103.813V466.388H102.813V467.388ZM102.813 506.263V507.263H103.813V506.263H102.813ZM4 506.263L4 467.388H2L2 506.263H4ZM3 468.388L102.813 468.388V466.388L3 466.388V468.388ZM101.813 467.388L101.813 506.263H103.813L103.813 467.388H101.813ZM102.813 505.263L3 505.263V507.263H102.813V505.263ZM70.3125 613L69.3792 612.641L68.8565 614H70.3125V613ZM64.9375 587.75L64.2241 588.451L64.2241 588.451L64.9375 587.75ZM36.9375 599.562L36.0161 599.951L36.0184 599.956L36.9375 599.562ZM46.625 614.938V615.938H48.6004L47.4309 614.345L46.625 614.938ZM5.9375 614.938L5.01023 615.312L5.26282 615.938H5.9375V614.938ZM6.3125 559.062L5.4033 558.646L5.40244 558.648L6.3125 559.062ZM35.0625 532.625L34.7597 531.672L34.7527 531.674L35.0625 532.625ZM49.8125 530.438L49.8125 529.437L49.8047 529.438L49.8125 530.438ZM78.875 538.25L78.3542 539.104L78.3561 539.105L78.875 538.25ZM98.5625 559.625L99.4512 559.167L99.4504 559.165L98.5625 559.625ZM105.625 591.25L104.625 591.246V591.25H105.625ZM102.563 613V614H103.256L103.499 613.35L102.563 613ZM71.2458 613.359C72.3343 610.529 72.875 607.511 72.875 604.312H70.875C70.875 607.281 70.3741 610.054 69.3792 612.641L71.2458 613.359ZM72.875 604.312C72.875 597.705 70.451 591.936 65.6509 587.049L64.2241 588.451C68.674 592.981 70.875 598.253 70.875 604.312H72.875ZM65.6509 587.049C60.8837 582.195 55.1283 579.75 48.4375 579.75V581.75C54.58 581.75 59.8246 583.971 64.2241 588.451L65.6509 587.049ZM48.4375 579.75C44.0321 579.75 40.4516 580.603 37.8073 582.427L38.9427 584.073C41.1317 582.564 44.2595 581.75 48.4375 581.75V579.75ZM37.8073 582.427C35.1268 584.275 33.75 586.851 33.75 590.062H35.75C35.75 587.524 36.7899 585.558 38.9427 584.073L37.8073 582.427ZM33.75 590.062C33.75 593.105 34.521 596.406 36.0161 599.951L37.8589 599.174C36.4374 595.803 35.75 592.77 35.75 590.062H33.75ZM36.0184 599.956C37.5669 603.57 40.8561 608.773 45.8191 615.53L47.4309 614.345C42.4772 607.602 39.3081 602.555 37.8566 599.169L36.0184 599.956ZM46.625 613.938H5.9375V615.938H46.625V613.938ZM6.86477 614.563C3.33162 605.812 1.5625 596.503 1.5625 586.625H-0.4375C-0.4375 596.747 1.37672 606.313 5.01023 615.312L6.86477 614.563ZM1.5625 586.625C1.5625 576.799 3.45295 567.754 7.22256 559.477L5.40244 558.648C1.50539 567.205 -0.4375 576.535 -0.4375 586.625H1.5625ZM7.2217 559.479C13.2398 546.337 22.6172 537.732 35.3723 533.576L34.7527 531.674C21.4245 536.018 11.6352 545.038 5.4033 558.646L7.2217 559.479ZM35.3653 533.578C39.7152 532.196 44.5308 531.478 49.8203 531.437L49.8047 529.438C44.3442 529.48 39.3265 530.221 34.7597 531.672L35.3653 533.578ZM49.8125 531.438C55.104 531.438 60.1615 532.094 64.9883 533.403L65.5117 531.472C60.5052 530.115 55.271 529.438 49.8125 529.438V531.438ZM64.9883 533.403C69.8178 534.712 74.2717 536.613 78.3542 539.104L79.3958 537.396C75.145 534.803 70.5156 532.829 65.5117 531.472L64.9883 533.403ZM78.3561 539.105C86.5656 544.088 93.0043 551.072 97.6746 560.085L99.4504 559.165C94.6207 549.844 87.9344 542.579 79.3939 537.395L78.3561 539.105ZM97.6738 560.083C102.34 569.129 104.666 579.509 104.625 591.246L106.625 591.254C106.667 579.241 104.285 568.537 99.4512 559.167L97.6738 560.083ZM104.625 591.25C104.625 600.231 103.609 607.348 101.626 612.65L103.499 613.35C105.599 607.736 106.625 600.353 106.625 591.25H104.625ZM102.563 612H70.3125V614H102.563V612ZM102.813 642.487H103.813V641.487H102.813V642.487ZM102.813 714.425V715.425H103.813V714.425H102.813ZM74.0625 714.425H73.0625V715.425H74.0625V714.425ZM74.0625 681.362H75.0625V680.362H74.0625V681.362ZM65.875 681.362V680.362H64.875V681.362H65.875ZM65.875 714.3V715.3H66.875V714.3H65.875ZM41.375 714.3H40.375V715.3H41.375V714.3ZM41.375 681.362H42.375V680.362H41.375V681.362ZM31.9375 681.362V680.362H30.9375V681.362H31.9375ZM31.9375 716.612V717.612H32.9375V716.612H31.9375ZM3 716.612H2V717.612H3V716.612ZM3 642.487V641.487H2V642.487H3ZM101.813 642.487L101.813 714.425H103.813L103.813 642.487H101.813ZM102.813 713.425H74.0625V715.425H102.813V713.425ZM75.0625 714.425V681.362H73.0625V714.425H75.0625ZM74.0625 680.362H65.875V682.362H74.0625V680.362ZM64.875 681.362V714.3H66.875V681.362H64.875ZM65.875 713.3H41.375V715.3H65.875V713.3ZM42.375 714.3V681.362H40.375V714.3H42.375ZM41.375 680.362H31.9375V682.362H41.375V680.362ZM30.9375 681.362V716.612H32.9375V681.362H30.9375ZM31.9375 715.612H3V717.612H31.9375V715.612ZM4 716.612L4 642.487H2L2 716.612H4ZM3 643.487H102.813V641.487H3V643.487ZM0.5625 780.1H-0.437505L-0.437495 780.103L0.5625 780.1ZM7.5 742.85V741.85H7.00203L6.70196 742.247L7.5 742.85ZM36.125 742.85L37.0951 743.093L37.4058 741.85H36.125V742.85ZM35.5625 744.662L34.61 744.358L34.6067 744.368L35.5625 744.662ZM31 760.662L30.0298 760.42L30.0271 760.431L31 760.662ZM39.5625 771.662L40.4138 772.187L40.4142 772.187L39.5625 771.662ZM42.6875 766.1L41.8041 765.631L41.8003 765.639L42.6875 766.1ZM46.3125 759.85L47.1596 760.381L47.1639 760.374L46.3125 759.85ZM57.5625 747.287L56.9738 746.479L56.9688 746.483L57.5625 747.287ZM102.625 765.225L101.674 765.535L101.674 765.535L102.625 765.225ZM102.875 811.6L101.896 811.395L101.896 811.395L102.875 811.6ZM102.063 815.162V816.162H102.817L103.024 815.437L102.063 815.162ZM73.375 815.162L72.397 814.954L72.1393 816.162H73.375V815.162ZM71.125 786.225L70.4523 785.485L70.4437 785.493L70.4353 785.501L71.125 786.225ZM68.4375 790.537L67.5252 790.128L67.5217 790.136L67.5184 790.144L68.4375 790.537ZM65.1875 797.662L64.2849 797.232L64.2809 797.24L64.2771 797.249L65.1875 797.662ZM61.125 805.35L60.2728 804.827L60.2725 804.827L61.125 805.35ZM9.375 810.475L8.59237 811.098L8.59807 811.105L9.375 810.475ZM1.5625 780.1C1.5625 770.781 2.13893 763.066 3.27997 756.939C4.42401 750.797 6.12048 746.336 8.29804 743.453L6.70196 742.247C4.25452 745.489 2.48224 750.299 1.31378 756.573C0.14232 762.863 -0.4375 770.711 -0.4375 780.1H1.5625ZM7.5 743.85H36.125V741.85H7.5V743.85ZM35.1549 742.607C35.1233 742.734 34.9499 743.296 34.6101 744.358L36.5149 744.967C36.8418 743.946 37.0434 743.3 37.0951 743.093L35.1549 742.607ZM34.6067 744.368C34.602 744.384 34.5801 744.455 34.5752 744.471C34.5739 744.475 34.5686 744.492 34.5673 744.497C34.5666 744.499 34.5659 744.501 34.5653 744.503C34.5646 744.505 34.564 744.507 34.5633 744.51C34.5627 744.511 34.5599 744.521 34.5593 744.523C34.5586 744.525 34.558 744.527 34.5573 744.529C34.5566 744.531 34.556 744.533 34.5553 744.536C34.5546 744.538 34.554 744.54 34.5533 744.542C34.5526 744.544 34.552 744.546 34.5513 744.549C34.5477 744.56 34.5468 744.563 34.5432 744.575C34.518 744.657 34.5362 744.598 34.5108 744.68C34.5049 744.699 34.4838 744.768 34.4778 744.787C34.466 744.826 34.4229 744.966 34.4104 745.006C34.4089 745.011 34.4034 745.029 34.4019 745.034C34.4012 745.036 34.4004 745.039 34.3997 745.041C34.399 745.043 34.3983 745.046 34.3976 745.048C34.3957 745.054 34.3952 745.056 34.3933 745.062C34.3904 745.071 34.3789 745.109 34.376 745.118C34.3625 745.162 34.3547 745.187 34.3411 745.232C34.3025 745.357 34.2378 745.567 34.1966 745.701C34.1958 745.704 34.195 745.706 34.1942 745.709C34.1935 745.711 34.1927 745.714 34.1919 745.716C34.1917 745.717 34.1875 745.731 34.1873 745.732C34.1847 745.74 34.1805 745.753 34.1779 745.762C34.1759 745.769 34.1613 745.816 34.1592 745.823C34.1584 745.825 34.1576 745.828 34.1569 745.83C34.1561 745.833 34.1553 745.836 34.1545 745.838C34.1532 745.842 34.1511 745.849 34.1498 745.853C34.1488 745.857 34.1414 745.881 34.1404 745.884C34.1404 745.884 34.1214 745.946 34.1214 745.946C34.1206 745.948 34.1198 745.951 34.119 745.954C34.1182 745.956 34.1174 745.959 34.1166 745.961C34.1158 745.964 34.115 745.966 34.1142 745.969C34.1134 745.972 34.1126 745.974 34.1118 745.977C34.1113 745.979 34.1076 745.991 34.1071 745.992C34.1063 745.995 34.1055 745.997 34.1047 746C34.1039 746.003 34.1031 746.005 34.1023 746.008C34.1012 746.011 34.0937 746.036 34.0927 746.039C34.0913 746.043 34.0892 746.05 34.0879 746.055C34.087 746.058 34.0839 746.068 34.083 746.07C34.0809 746.077 34.0659 746.126 34.0637 746.133C34.0498 746.178 34.0581 746.151 34.0442 746.197C34.0395 746.212 34.044 746.197 34.0393 746.212C34.0285 746.248 34.0453 746.193 34.0344 746.228C34.0275 746.251 34.0365 746.222 34.0295 746.244C34.0241 746.262 34.0301 746.242 34.0246 746.26C34.0232 746.265 34.0163 746.287 34.0148 746.292C34.0093 746.31 34.0153 746.29 34.0099 746.308C33.998 746.347 34.0168 746.286 34.0049 746.324C33.9988 746.344 34.0061 746.32 34 746.34C33.9952 746.356 33.9998 746.341 33.995 746.356C33.9935 746.361 33.9866 746.384 33.9851 746.389C33.9821 746.398 33.9681 746.444 33.9651 746.454C33.9555 746.485 33.9648 746.455 33.9551 746.486C33.9503 746.502 33.9549 746.487 33.9501 746.503C33.9344 746.553 33.9607 746.468 33.945 746.519C33.9249 746.584 33.9602 746.47 33.94 746.535C33.9344 746.553 33.9406 746.533 33.935 746.552C33.9237 746.588 33.9361 746.548 33.9248 746.585C33.9218 746.594 33.9075 746.641 33.9045 746.651C33.8791 746.733 33.9095 746.634 33.8841 746.717C33.8621 746.788 33.8957 746.679 33.8738 746.75C33.8639 746.783 33.8734 746.752 33.8635 746.784C33.8626 746.787 33.8618 746.789 33.8609 746.792C33.8601 746.795 33.8592 746.798 33.8583 746.801C33.8446 746.845 33.8669 746.773 33.8532 746.817C33.838 746.867 33.8632 746.785 33.848 746.834C33.8472 746.837 33.8436 746.849 33.8428 746.851C33.8133 746.947 33.8515 746.823 33.822 746.919C33.8016 746.985 33.8372 746.869 33.8168 746.936C33.8159 746.939 33.815 746.941 33.8142 746.944C33.8133 746.947 33.8124 746.95 33.8115 746.953C33.7999 746.991 33.8127 746.949 33.8011 746.987C33.7777 747.063 33.8034 746.979 33.78 747.055C33.75 747.153 33.7889 747.026 33.7588 747.124C33.7399 747.186 33.7724 747.08 33.7535 747.141C33.7484 747.158 33.7533 747.142 33.7482 747.159C33.7379 747.192 33.7478 747.16 33.7375 747.193C33.7137 747.271 33.7399 747.186 33.7161 747.263C33.7041 747.302 33.7173 747.259 33.7053 747.298C33.6833 747.369 33.7166 747.261 33.6946 747.333C33.6792 747.383 33.7045 747.301 33.6891 747.351C33.6831 747.37 33.6897 747.349 33.6837 747.368C33.6821 747.373 33.6745 747.398 33.6729 747.403C33.6519 747.472 33.6721 747.406 33.6511 747.474C33.6331 747.533 33.6636 747.434 33.6456 747.492C33.631 747.539 33.6548 747.462 33.6402 747.51C33.6285 747.548 33.6409 747.507 33.6292 747.545C33.6047 747.625 33.6427 747.502 33.6182 747.581C33.6166 747.586 33.6088 747.612 33.6071 747.617C33.5826 747.697 33.6096 747.609 33.585 747.689C33.5833 747.694 33.5755 747.72 33.5739 747.725C33.556 747.783 33.5805 747.703 33.5627 747.761C33.5398 747.836 33.5744 747.723 33.5515 747.798C33.5281 747.874 33.5693 747.74 33.5459 747.816C33.5295 747.869 33.5568 747.781 33.5403 747.834C33.5153 747.915 33.5428 747.826 33.5178 747.907C33.5062 747.945 33.5237 747.888 33.5121 747.926C33.4965 747.976 33.5221 747.893 33.5065 747.944C33.4864 748.01 33.5153 747.916 33.4951 747.981C33.4739 748.05 33.505 747.949 33.4838 748.018C33.4821 748.023 33.4741 748.049 33.4724 748.055C33.447 748.138 33.4749 748.047 33.4495 748.129C33.4478 748.135 33.4397 748.161 33.438 748.167C33.4155 748.24 33.449 748.131 33.4265 748.204C33.4147 748.243 33.4325 748.185 33.4207 748.223C33.4199 748.226 33.4158 748.239 33.4149 748.242C33.4057 748.272 33.4184 748.23 33.4091 748.261C33.3973 748.299 33.4152 748.241 33.4034 748.279C33.381 748.352 33.4025 748.282 33.3801 748.355C33.3697 748.389 33.3846 748.34 33.3743 748.374C33.3634 748.409 33.3793 748.357 33.3684 748.393C33.3676 748.396 33.3634 748.409 33.3626 748.412C33.3548 748.437 33.3645 748.406 33.3567 748.431L35.2683 749.019C35.7683 747.394 36.1849 746.04 36.5183 744.957L34.6067 744.368ZM33.3567 748.431C32.1844 752.241 31.0755 756.237 30.0299 760.42L31.9701 760.905C33.0078 756.754 34.1073 752.792 35.2683 749.019L33.3567 748.431ZM30.0271 760.431C29.0198 764.67 28.5 768.132 28.5 770.787H30.5C30.5 768.359 30.9802 765.071 31.9729 760.894L30.0271 760.431ZM28.5 770.787C28.5 772.94 28.8224 774.722 29.5994 775.996C30.4254 777.35 31.7106 778.037 33.3125 778.037V776.037C32.3727 776.037 31.7517 775.683 31.3068 774.954C30.813 774.145 30.5 772.802 30.5 770.787H28.5ZM33.3125 778.037C34.6118 778.037 35.8453 777.441 36.9958 776.452C38.1454 775.463 39.2812 774.025 40.4138 772.187L38.7112 771.138C37.6355 772.883 36.6255 774.133 35.6917 774.936C34.7589 775.738 33.9715 776.037 33.3125 776.037V778.037ZM40.4142 772.187C41.4292 770.537 42.4827 768.661 43.5747 766.561L41.8003 765.639C40.7256 767.705 39.6958 769.538 38.7108 771.138L40.4142 772.187ZM43.5708 766.569C44.6419 764.55 45.838 762.488 47.1596 760.381L45.4654 759.318C44.1203 761.462 42.8997 763.567 41.8042 765.631L43.5708 766.569ZM47.1639 760.374C50.3149 755.259 53.9816 751.172 58.1562 748.092L56.9688 746.483C52.5601 749.736 48.7268 754.024 45.4611 759.325L47.1639 760.374ZM58.1511 748.096C62.2354 745.122 67.4325 743.6 73.8125 743.6V741.6C67.1092 741.6 61.4729 743.203 56.9739 746.479L58.1511 748.096ZM73.8125 743.6C80.7741 743.6 86.5198 745.433 91.1168 749.043C95.7226 752.659 99.2591 758.126 101.674 765.535L103.576 764.915C101.074 757.241 97.3503 751.395 92.352 747.47C87.3448 743.538 81.1425 741.6 73.8125 741.6V743.6ZM101.674 765.535C103.635 771.539 104.625 778.493 104.625 786.412H106.625C106.625 778.331 105.615 771.161 103.576 764.915L101.674 765.535ZM104.625 786.412C104.625 794.378 103.717 802.705 101.896 811.395L103.854 811.805C105.7 802.995 106.625 794.53 106.625 786.412H104.625ZM101.896 811.395C101.52 813.193 101.256 814.345 101.101 814.888L103.024 815.437C103.202 814.813 103.48 813.59 103.854 811.805L101.896 811.395ZM102.063 814.162H73.375V816.162H102.063V814.162ZM74.353 815.371C76.7701 804.036 78 795.799 78 790.725H76C76 795.568 74.8132 803.623 72.397 814.954L74.353 815.371ZM78 790.725C78 788.723 77.6574 787.044 76.8209 785.841L75.1791 786.984C75.6759 787.698 76 788.893 76 790.725H78ZM76.8209 785.841C76.0482 784.731 75.0305 783.975 73.75 783.975L73.75 785.975C74.1361 785.975 74.6185 786.178 75.1791 786.984L76.8209 785.841ZM73.75 783.975C72.5706 783.975 71.4655 784.564 70.4523 785.485L71.7977 786.965C72.6179 786.219 73.2627 785.975 73.75 785.975L73.75 783.975ZM70.4353 785.501C69.4174 786.47 68.4575 788.051 67.5252 790.128L69.3498 790.947C70.2508 788.94 71.0826 787.646 71.8147 786.949L70.4353 785.501ZM67.5184 790.144C66.6501 792.17 65.5727 794.532 64.2849 797.232L66.0901 798.093C67.3857 795.376 68.4749 792.989 69.3566 790.931L67.5184 790.144ZM64.2771 797.249C63.0428 799.964 61.7078 802.49 60.2728 804.827L61.9772 805.873C63.4589 803.46 64.8322 800.861 66.0979 798.076L64.2771 797.249ZM60.2725 804.827C53.89 815.234 45.2568 820.35 34.3125 820.35V822.35C46.0349 822.35 55.2766 816.799 61.9775 805.873L60.2725 804.827ZM34.3125 820.35C23.8126 820.35 15.8069 816.824 10.1519 809.845L8.59807 811.105C14.6931 818.626 23.3124 822.35 34.3125 822.35V820.35ZM10.1576 809.852C4.50899 802.751 1.60371 792.873 1.56249 780.097L-0.437495 780.103C-0.395374 793.161 2.57435 803.532 8.5924 811.097L10.1576 809.852Z" fill="black" mask="url(#path-1-outside-1_290_179)"/>
</svg>
