<svg width="1312" height="4397" viewBox="0 0 1312 4397" fill="none" xmlns="http://www.w3.org/2000/svg">
<path d="M1084.24 3C1049.41 198.756 965.405 242.872 692.741 207C457.752 180.142 294.019 310.229 293.741 456.5C293.464 602.771 189.137 621.526 66.9995 676.5C-74.4219 728.966 88.3578 935.493 372.241 940.5C830.616 939.831 867.704 965.084 849.241 1161.5C867.687 1341.3 957.765 1378.18 1170.24 1382.5C1341.96 1389.32 1316.13 1494.29 1227.24 1717C1121.62 1997.32 896.057 2142.43 771.241 1945C608.037 1684.53 604.571 1779.87 372.241 2052C268.284 2159.96 217.714 2155.01 130.242 2123C37.5814 2055.91 39.9815 2020.55 23.2417 1945C20.5424 1842.72 39.4199 1791.44 130.242 1717C329.145 1576.11 353.888 1616.6 372.241 1717C384.509 1838.11 414.774 1878.01 507.741 1902.5C763.867 1969.01 830.345 2083.25 849.241 2386.5C855.188 2572.28 930.498 2613.68 1127.24 2714.5C1327.06 2841.23 1215.65 2944.46 1070.24 3035C924.766 3119.29 832.909 3151.46 650.241 3170C255.476 3169.88 140.3 3163.71 187.242 3334C283.237 3536.86 474.372 3422.62 650.241 3306.5V3522.5M650.241 3522.5H77.2417C77.2417 3858.16 77.2417 4046.34 77.2417 4382H1227.24V3522.5H650.241Z" stroke="url(#paint0_linear_1538_474)" stroke-width="30"/>
<defs>
<linearGradient id="paint0_linear_1538_474" x1="517.816" y1="3.00003" x2="794.088" y2="4382" gradientUnits="userSpaceOnUse">
<stop stop-color="#F473FF"/>
<stop offset="0.0663258" stop-color="#A77DF9"/>
<stop offset="0.372516" stop-color="#7CFC30"/>
<stop offset="0.469156" stop-color="#A6FF71"/>
<stop offset="0.588988" stop-color="#B9C8B8"/>
<stop offset="0.630644" stop-color="#B869FF"/>
<stop offset="0.9375" stop-color="#9FB39C"/>
<stop offset="0.96875" stop-color="#89C46A"/>
<stop offset="0.984375" stop-color="#AECF9C"/>
</linearGradient>
</defs>
</svg>
