<?xml version="1.0" encoding="UTF-8"?>
<!DOCTYPE svg PUBLIC "-//W3C//DTD SVG 1.1//EN" "http://www.w3.org/Graphics/SVG/1.1/DTD/svg11.dtd">
<svg xmlns="http://www.w3.org/2000/svg" version="1.1" width="392px" height="351px" style="shape-rendering:geometricPrecision; text-rendering:geometricPrecision; image-rendering:optimizeQuality; fill-rule:evenodd; clip-rule:evenodd" xmlns:xlink="http://www.w3.org/1999/xlink">
<g><path style="opacity:0.931" fill="#ddfc4b" d="M 119.5,13.5 C 122.103,16.3289 124.936,18.9956 128,21.5C 130.214,24.3891 132.381,27.3891 134.5,30.5C 127.808,30.9473 121.141,31.614 114.5,32.5C 115.961,26.1171 117.627,19.7838 119.5,13.5 Z"/></g>
<g><path style="opacity:0.657" fill="#dcfa4c" d="M 116.5,16.5 C 115.979,21.727 114.646,26.727 112.5,31.5C 112.167,31.5 111.833,31.5 111.5,31.5C 110.677,29.5454 110.51,27.5454 111,25.5C 112.872,22.4036 114.705,19.4036 116.5,16.5 Z"/></g>
<g><path style="opacity:0.98" fill="#b0c0a0" d="M 119.5,13.5 C 117.627,19.7838 115.961,26.1171 114.5,32.5C 113.833,32.1667 113.167,31.8333 112.5,31.5C 114.646,26.727 115.979,21.727 116.5,16.5C 116.5,14.5 117.5,13.5 119.5,13.5 Z"/></g>
<g><path style="opacity:0.294" fill="#a4a4f4" d="M 134.5,30.5 C 142.976,32.2298 150.976,35.3965 158.5,40C 159.687,41.0195 160.687,42.1861 161.5,43.5C 156.965,49.0973 151.632,53.764 145.5,57.5C 144.167,57.5 142.833,57.5 141.5,57.5C 148.339,54.0038 154.339,49.3371 159.5,43.5C 152.588,37.8341 144.921,35.5007 136.5,36.5C 133.272,35.5863 129.939,35.2529 126.5,35.5C 130.982,34.6745 135.649,34.1745 140.5,34C 122.684,30.328 107.684,35.1614 95.5,48.5C 96.7598,49.3816 97.9264,50.3816 99,51.5C 104.645,47.7434 104.812,48.0767 99.5,52.5C 99.1667,52.5 98.8333,52.5 98.5,52.5C 97.8333,52.5 97.1667,52.5 96.5,52.5C 95.6851,51.1634 94.5185,50.1634 93,49.5C 92.3333,48.8333 92.3333,48.1667 93,47.5C 98.2034,41.8133 104.37,37.48 111.5,34.5C 112.562,33.5754 112.562,32.5754 111.5,31.5C 111.833,31.5 112.167,31.5 112.5,31.5C 113.167,31.8333 113.833,32.1667 114.5,32.5C 121.141,31.614 127.808,30.9473 134.5,30.5 Z"/></g>
<g><path style="opacity:1" fill="#878af6" d="M 126.5,35.5 C 129.939,35.2529 133.272,35.5863 136.5,36.5C 141.189,39.988 142.689,44.6547 141,50.5C 139.311,53.6667 137.478,56.6667 135.5,59.5C 133.236,60.2186 130.903,60.552 128.5,60.5C 121.506,59.9989 118.173,56.1655 118.5,49C 118.297,44.5214 119.963,40.8547 123.5,38C 122.833,37.6667 122.167,37.3333 121.5,37C 123.025,35.9914 124.692,35.4914 126.5,35.5 Z"/></g>
<g><path style="opacity:1" fill="#f7f7fd" d="M 136.5,36.5 C 144.921,35.5007 152.588,37.8341 159.5,43.5C 154.339,49.3371 148.339,54.0038 141.5,57.5C 139.898,59.0739 137.898,59.7406 135.5,59.5C 137.478,56.6667 139.311,53.6667 141,50.5C 142.689,44.6547 141.189,39.988 136.5,36.5 Z"/></g>
<g><path style="opacity:1" fill="#f2f3fa" d="M 126.5,35.5 C 124.692,35.4914 123.025,35.9914 121.5,37C 122.167,37.3333 122.833,37.6667 123.5,38C 119.963,40.8547 118.297,44.5214 118.5,49C 118.173,56.1655 121.506,59.9989 128.5,60.5C 117.839,61.9536 108.173,59.2869 99.5,52.5C 104.812,48.0767 104.645,47.7434 99,51.5C 97.9264,50.3816 96.7598,49.3816 95.5,48.5C 107.684,35.1614 122.684,30.328 140.5,34C 135.649,34.1745 130.982,34.6745 126.5,35.5 Z"/></g>
<g><path style="opacity:0.957" fill="#7f83f0" d="M 341.5,51.5 C 339.787,52.6354 339.12,54.302 339.5,56.5C 329.494,56.6665 319.494,56.4998 309.5,56C 308.62,54.6439 308.286,53.1439 308.5,51.5C 307.5,51.5 306.5,51.5 305.5,51.5C 305.36,53.1238 306.027,54.2904 307.5,55C 289.509,54.8338 271.509,54.6671 253.5,54.5C 249.5,54.5 245.5,54.5 241.5,54.5C 241.5,53.8333 241.5,53.1667 241.5,52.5C 243.685,50.8045 245.352,48.6378 246.5,46C 275.32,46.8762 304.153,48.0428 333,49.5C 336.252,49.5191 339.085,50.1858 341.5,51.5 Z"/></g>
<g><path style="opacity:0.961" fill="#ddfc4a" d="M 96.5,53.5 C 98.7617,57.835 100.428,62.5017 101.5,67.5C 100.037,72.8176 98.7039,78.1509 97.5,83.5C 94.1869,84.0448 90.8536,84.5448 87.5,85C 86.565,87.3806 86.2317,89.8806 86.5,92.5C 88.8056,92.0074 91.139,91.6741 93.5,91.5C 93.0087,95.622 92.0087,99.622 90.5,103.5C 89.1349,104.456 87.6349,105.122 86,105.5C 84.8643,104.217 83.531,103.217 82,102.5C 80.5349,103.33 79.0349,103.496 77.5,103C 76.9644,99.3946 75.6311,96.228 73.5,93.5C 80.237,81.6972 86.737,69.6972 93,57.5C 93.9487,55.9069 95.1154,54.5736 96.5,53.5 Z"/></g>
<g><path style="opacity:1" fill="#4b5494" d="M 339.5,56.5 C 339.167,57.1667 338.833,57.8333 338.5,58.5C 310.009,57.2389 281.676,55.9055 253.5,54.5C 271.509,54.6671 289.509,54.8338 307.5,55C 306.027,54.2904 305.36,53.1238 305.5,51.5C 306.5,51.5 307.5,51.5 308.5,51.5C 308.286,53.1439 308.62,54.6439 309.5,56C 319.494,56.4998 329.494,56.6665 339.5,56.5 Z"/></g>
<g><path style="opacity:0.949" fill="#aebba9" d="M 154.5,58.5 C 156.099,58.2322 157.432,58.5655 158.5,59.5C 149.395,61.6382 140.062,62.8048 130.5,63C 138.67,61.6539 146.67,60.1539 154.5,58.5 Z"/></g>
<g><path style="opacity:0.992" fill="#ddfd49" d="M 98.5,52.5 C 98.8333,52.5 99.1667,52.5 99.5,52.5C 108.173,59.2869 117.839,61.9536 128.5,60.5C 130.903,60.552 133.236,60.2186 135.5,59.5C 137.898,59.7406 139.898,59.0739 141.5,57.5C 142.833,57.5 144.167,57.5 145.5,57.5C 148.609,57.2641 151.609,57.5975 154.5,58.5C 146.67,60.1539 138.67,61.6539 130.5,63C 140.062,62.8048 149.395,61.6382 158.5,59.5C 161.666,61.8337 164.333,64.6671 166.5,68C 169.482,68.498 172.482,68.6646 175.5,68.5C 175.5,70.5 175.5,72.5 175.5,74.5C 174.448,74.3505 173.448,74.5172 172.5,75C 173.645,76.8594 175.312,77.6927 177.5,77.5C 181.513,76.8312 185.513,76.1645 189.5,75.5C 189.13,81.6116 188.63,87.6116 188,93.5C 191.859,97.9646 195.692,102.298 199.5,106.5C 199.389,107.117 199.056,107.617 198.5,108C 166.478,113.84 134.478,119.674 102.5,125.5C 96.5038,126.499 90.5038,127.499 84.5,128.5C 85.4608,125.574 86.1274,122.574 86.5,119.5C 87.6701,117.35 88.6701,115.016 89.5,112.5C 87.2573,111.526 84.924,111.192 82.5,111.5C 82.5,110.167 82.5,108.833 82.5,107.5C 78.8212,107.724 75.1545,108.058 71.5,108.5C 71.5,107.5 71.5,106.5 71.5,105.5C 72.5,105.5 73.5,105.5 74.5,105.5C 79.8245,105.494 85.1578,105.494 90.5,105.5C 93.3688,100.559 95.0354,95.2261 95.5,89.5C 92.8333,89.8333 90.1667,90.1667 87.5,90.5C 87.238,89.0222 87.5713,87.6888 88.5,86.5C 91.9611,86.2325 94.9611,85.2325 97.5,83.5C 98.9663,82.653 99.7996,81.3197 100,79.5C 100.837,75.486 101.671,71.486 102.5,67.5C 111.581,66.9918 120.581,65.8251 129.5,64C 120.915,63.8084 112.415,64.6418 104,66.5C 103.055,66.0946 102.388,65.428 102,64.5C 100.924,60.4413 99.757,56.4413 98.5,52.5 Z"/></g>
<g><path style="opacity:0.733" fill="#ddfe47" d="M 185.5,64.5 C 187.833,64.5 190.167,64.5 192.5,64.5C 192.5,67.1667 192.5,69.8333 192.5,72.5C 188.802,72.5524 185.135,72.8857 181.5,73.5C 181.5,70.8333 181.5,68.1667 181.5,65.5C 183.099,65.7678 184.432,65.4345 185.5,64.5 Z"/></g>
<g><path style="opacity:0.98" fill="#b7c994" d="M 96.5,53.5 C 96.5,53.1667 96.5,52.8333 96.5,52.5C 97.1667,52.5 97.8333,52.5 98.5,52.5C 99.757,56.4413 100.924,60.4413 102,64.5C 102.388,65.428 103.055,66.0946 104,66.5C 112.415,64.6418 120.915,63.8084 129.5,64C 120.581,65.8251 111.581,66.9918 102.5,67.5C 101.671,71.486 100.837,75.486 100,79.5C 99.7996,81.3197 98.9663,82.653 97.5,83.5C 98.7039,78.1509 100.037,72.8176 101.5,67.5C 100.428,62.5017 98.7617,57.835 96.5,53.5 Z"/></g>
<g><path style="opacity:1" fill="#b3c39f" d="M 97.5,83.5 C 94.9611,85.2325 91.9611,86.2325 88.5,86.5C 87.5713,87.6888 87.238,89.0222 87.5,90.5C 90.1667,90.1667 92.8333,89.8333 95.5,89.5C 95.0354,95.2261 93.3688,100.559 90.5,105.5C 85.1578,105.494 79.8245,105.494 74.5,105.5C 74.1583,104.662 73.4916,104.328 72.5,104.5C 72.5,103.833 72.8333,103.5 73.5,103.5C 75.8507,102.084 75.8507,100.417 73.5,98.5C 72.506,96.6656 72.506,94.9989 73.5,93.5C 75.6311,96.228 76.9644,99.3946 77.5,103C 79.0349,103.496 80.5349,103.33 82,102.5C 83.531,103.217 84.8643,104.217 86,105.5C 87.6349,105.122 89.1349,104.456 90.5,103.5C 92.0087,99.622 93.0087,95.622 93.5,91.5C 91.139,91.6741 88.8056,92.0074 86.5,92.5C 86.2317,89.8806 86.565,87.3806 87.5,85C 90.8536,84.5448 94.1869,84.0448 97.5,83.5 Z"/></g>
<g><path style="opacity:0.102" fill="#d9f550" d="M 73.5,98.5 C 75.8507,100.417 75.8507,102.084 73.5,103.5C 73.5,101.833 73.5,100.167 73.5,98.5 Z"/></g>
<g><path style="opacity:0.373" fill="#9092eb" d="M 72.5,104.5 C 73.4916,104.328 74.1583,104.662 74.5,105.5C 73.5,105.5 72.5,105.5 71.5,105.5C 70.5655,106.568 70.2322,107.901 70.5,109.5C 72.099,109.232 73.4324,109.566 74.5,110.5C 72.9582,111.301 71.2915,111.634 69.5,111.5C 69.5,109.167 69.5,106.833 69.5,104.5C 70.5,104.5 71.5,104.5 72.5,104.5 Z"/></g>
<g><path style="opacity:0.988" fill="#ddfc49" d="M 103.5,126.5 C 135.82,120.669 168.154,115.002 200.5,109.5C 191.221,122.62 181.721,135.62 172,148.5C 171.345,150.628 170.511,152.628 169.5,154.5C 150.918,158.349 132.585,162.349 114.5,166.5C 112.615,168.795 112.115,171.462 113,174.5C 116.393,179.72 119.56,185.053 122.5,190.5C 117.695,191.487 112.695,191.821 107.5,191.5C 98.3458,188.837 89.3458,185.67 80.5,182C 79.8097,176.835 79.1431,171.669 78.5,166.5C 77.1667,147.833 75.8333,129.167 74.5,110.5C 76.1294,108.94 77.296,109.273 78,111.5C 79.4909,117.13 80.8243,122.797 82,128.5C 82.3879,129.428 83.0546,130.095 84,130.5C 90.6729,129.345 97.1729,128.012 103.5,126.5 Z"/></g>
<g><path style="opacity:1" fill="#b6c797" d="M 71.5,105.5 C 71.5,106.5 71.5,107.5 71.5,108.5C 75.1545,108.058 78.8212,107.724 82.5,107.5C 82.5,108.833 82.5,110.167 82.5,111.5C 84.924,111.192 87.2573,111.526 89.5,112.5C 88.6701,115.016 87.6701,117.35 86.5,119.5C 86.1274,122.574 85.4608,125.574 84.5,128.5C 90.5038,127.499 96.5038,126.499 102.5,125.5C 102.5,126.167 102.833,126.5 103.5,126.5C 97.1729,128.012 90.6729,129.345 84,130.5C 83.0546,130.095 82.3879,129.428 82,128.5C 80.8243,122.797 79.4909,117.13 78,111.5C 77.296,109.273 76.1294,108.94 74.5,110.5C 73.4324,109.566 72.099,109.232 70.5,109.5C 70.2322,107.901 70.5655,106.568 71.5,105.5 Z"/></g>
<g><path style="opacity:1" fill="#dbfa4d" d="M 86.5,119.5 C 85.6963,121.189 84.6963,122.855 83.5,124.5C 81.7324,119.697 80.0657,114.864 78.5,110C 78.8333,109.833 79.1667,109.667 79.5,109.5C 80.4287,110.689 80.762,112.022 80.5,113.5C 82.5914,113.682 84.5914,113.348 86.5,112.5C 86.838,114.655 86.838,116.989 86.5,119.5 Z"/></g>
<g><path style="opacity:1" fill="#adbbaa" d="M 199.5,106.5 C 201.382,107.221 201.715,108.221 200.5,109.5C 168.154,115.002 135.82,120.669 103.5,126.5C 102.833,126.5 102.5,126.167 102.5,125.5C 134.478,119.674 166.478,113.84 198.5,108C 199.056,107.617 199.389,107.117 199.5,106.5 Z"/></g>
<g><path style="opacity:0.983" fill="#0e1b4e" d="M 341.5,51.5 C 342.477,94.8098 342.977,138.143 343,181.5C 342.703,184.864 340.869,186.197 337.5,185.5C 326.821,183.921 316.154,183.254 305.5,183.5C 315.486,196.328 325.319,209.328 335,222.5C 335.692,223.437 335.525,224.103 334.5,224.5C 283.373,239.699 232.373,255.366 181.5,271.5C 179.912,270.99 178.745,269.99 178,268.5C 156.582,234.598 135.415,200.598 114.5,166.5C 132.585,162.349 150.918,158.349 169.5,154.5C 190.374,149.699 211.374,145.366 232.5,141.5C 235.462,112.209 237.962,82.8752 240,53.5C 240.383,52.944 240.883,52.6107 241.5,52.5C 241.5,53.1667 241.5,53.8333 241.5,54.5C 239.665,78.5148 237.665,102.515 235.5,126.5C 234.623,130.322 233.956,134.322 233.5,138.5C 233.52,139.726 233.853,140.726 234.5,141.5C 240.245,139.979 245.911,138.645 251.5,137.5C 256.754,136.985 261.92,135.985 267,134.5C 269.272,135.742 271.106,137.408 272.5,139.5C 280.107,151.047 288.441,162.047 297.5,172.5C 297.5,172.833 297.5,173.167 297.5,173.5C 296.205,174.488 294.872,175.488 293.5,176.5C 285.856,166.008 278.356,155.341 271,144.5C 269.257,142.415 267.257,140.748 265,139.5C 218.145,149.758 171.312,159.758 124.5,169.5C 124.998,172.326 126.331,174.66 128.5,176.5C 146.101,206.051 164.434,235.051 183.5,263.5C 222.407,252.194 261.073,240.527 299.5,228.5C 308.554,226.32 317.554,223.987 326.5,221.5C 326.649,220.448 326.483,219.448 326,218.5C 318.09,208.345 310.423,198.012 303,187.5C 301.871,185.859 300.371,184.859 298.5,184.5C 299.5,182.833 300.833,181.5 302.5,180.5C 303.167,180.5 303.833,180.5 304.5,180.5C 316.292,182.16 328.292,182.827 340.5,182.5C 340.5,167.167 340.5,151.833 340.5,136.5C 340.724,110.317 340.057,84.317 338.5,58.5C 338.833,57.8333 339.167,57.1667 339.5,56.5C 339.12,54.302 339.787,52.6354 341.5,51.5 Z"/></g>
<g><path style="opacity:0.973" fill="#6c7593" d="M 235.5,126.5 C 235.497,131.527 235.164,136.527 234.5,141.5C 233.853,140.726 233.52,139.726 233.5,138.5C 233.956,134.322 234.623,130.322 235.5,126.5 Z"/></g>
<g><path style="opacity:1" fill="#6b7492" d="M 338.5,58.5 C 340.057,84.317 340.724,110.317 340.5,136.5C 339.046,110.68 338.38,84.6803 338.5,58.5 Z"/></g>
<g><path style="opacity:1" fill="#fbfbfc" d="M 241.5,54.5 C 245.5,54.5 249.5,54.5 253.5,54.5C 281.676,55.9055 310.009,57.2389 338.5,58.5C 338.38,84.6803 339.046,110.68 340.5,136.5C 340.5,151.833 340.5,167.167 340.5,182.5C 328.292,182.827 316.292,182.16 304.5,180.5C 311.798,172.702 319.298,165.035 327,157.5C 326.865,155.575 326.698,153.575 326.5,151.5C 324.488,150.986 322.488,150.82 320.5,151C 317.296,154.036 314.296,157.203 311.5,160.5C 306.514,164.155 301.847,168.155 297.5,172.5C 288.441,162.047 280.107,151.047 272.5,139.5C 289.138,140.942 305.804,141.942 322.5,142.5C 317.504,131.008 311.837,119.841 305.5,109C 293.828,108.318 282.162,107.985 270.5,108C 263.943,117.717 257.61,127.55 251.5,137.5C 245.911,138.645 240.245,139.979 234.5,141.5C 235.164,136.527 235.497,131.527 235.5,126.5C 237.665,102.515 239.665,78.5148 241.5,54.5 Z"/></g>
<g><path style="opacity:1" fill="#8588f5" d="M 272.5,139.5 C 271.106,137.408 269.272,135.742 267,134.5C 261.92,135.985 256.754,136.985 251.5,137.5C 257.61,127.55 263.943,117.717 270.5,108C 282.162,107.985 293.828,108.318 305.5,109C 311.837,119.841 317.504,131.008 322.5,142.5C 305.804,141.942 289.138,140.942 272.5,139.5 Z"/></g>
<g><path style="opacity:1" fill="#dcf955" d="M 290.5,92.5 C 296.009,93.2531 301.009,95.7531 305.5,100C 301.357,103.932 296.69,105.766 291.5,105.5C 297.087,100.756 296.754,96.4229 290.5,92.5 Z"/></g>
<g><path style="opacity:1" fill="#0e1a47" d="M 286.5,92.5 C 287.833,92.5 289.167,92.5 290.5,92.5C 296.754,96.4229 297.087,100.756 291.5,105.5C 289.208,106.686 286.874,106.686 284.5,105.5C 282.657,102.436 282.157,99.1029 283,95.5C 284.039,94.2899 285.206,93.2899 286.5,92.5 Z"/></g>
<g><path style="opacity:1" fill="#d7f359" d="M 286.5,92.5 C 285.206,93.2899 284.039,94.2899 283,95.5C 282.157,99.1029 282.657,102.436 284.5,105.5C 279.332,104.755 275.332,102.255 272.5,98C 273.272,96.779 274.272,95.779 275.5,95C 278.744,94.03 281.91,92.8634 285,91.5C 285.765,91.5699 286.265,91.9033 286.5,92.5 Z"/></g>
<g><path style="opacity:1" fill="#7f82e6" d="M 291.5,82.5 C 291.833,83.5 292.5,84.1667 293.5,84.5C 293.877,86.258 294.544,87.9246 295.5,89.5C 290.833,90.8333 286.167,90.8333 281.5,89.5C 283.11,87.2746 284.443,84.9413 285.5,82.5C 286.167,82.5 286.5,82.1667 286.5,81.5C 288.632,77.5568 290.298,77.8901 291.5,82.5 Z"/></g>
<g><path style="opacity:1" fill="#5d678a" d="M 293.5,84.5 C 292.5,84.1667 291.833,83.5 291.5,82.5C 296.698,82.1425 300.198,79.4759 302,74.5C 303.332,55.8333 303.998,55.8333 304,74.5C 301.894,79.4427 298.394,82.776 293.5,84.5 Z"/></g>
<g><path style="opacity:1" fill="#687193" d="M 286.5,81.5 C 286.5,82.1667 286.167,82.5 285.5,82.5C 279.141,78.7888 276.141,73.1221 276.5,65.5C 276.833,63.5 277.167,61.5 277.5,59.5C 277.745,66.1653 279.245,72.4986 282,78.5C 283.129,80.1412 284.629,81.1412 286.5,81.5 Z"/></g>
<g><path style="opacity:1" fill="#8184ed" d="M 293.5,176.5 C 291.687,179.647 289.02,181.647 285.5,182.5C 281.568,180.676 278.234,181.343 275.5,184.5C 276.425,185.562 277.425,185.562 278.5,184.5C 280.527,184.338 282.527,184.505 284.5,185C 281.616,188.586 278.283,191.252 274.5,193C 264.694,178.867 254.527,165.033 244,151.5C 205.657,160.523 167.157,168.856 128.5,176.5C 126.331,174.66 124.998,172.326 124.5,169.5C 171.312,159.758 218.145,149.758 265,139.5C 267.257,140.748 269.257,142.415 271,144.5C 278.356,155.341 285.856,166.008 293.5,176.5 Z"/></g>
<g><path style="opacity:1" fill="#fafafc" d="M 278.5,184.5 C 280.833,183.833 283.167,183.167 285.5,182.5C 289.02,181.647 291.687,179.647 293.5,176.5C 294.872,175.488 296.205,174.488 297.5,173.5C 299.907,172.206 302.074,170.539 304,168.5C 306.295,170.08 307.628,172.08 308,174.5C 305.96,176.37 304.127,178.37 302.5,180.5C 300.833,181.5 299.5,182.833 298.5,184.5C 295.333,187.498 292,190.331 288.5,193C 285.568,195.423 283.235,198.257 281.5,201.5C 287.516,210.511 293.516,219.511 299.5,228.5C 261.073,240.527 222.407,252.194 183.5,263.5C 164.434,235.051 146.101,206.051 128.5,176.5C 167.157,168.856 205.657,160.523 244,151.5C 254.527,165.033 264.694,178.867 274.5,193C 278.283,191.252 281.616,188.586 284.5,185C 282.527,184.505 280.527,184.338 278.5,184.5 Z"/></g>
<g><path style="opacity:1" fill="#d3ee61" d="M 260.5,152.5 C 269.926,152.096 276.759,156.096 281,164.5C 281.518,170.486 278.684,173.486 272.5,173.5C 262.291,172.128 256.791,166.462 256,156.5C 257.397,154.93 258.897,153.596 260.5,152.5 Z"/></g>
<g><path style="opacity:1" fill="#8286e1" d="M 274.5,160.5 C 276.326,162.455 276.826,164.788 276,167.5C 268.304,171.072 263.137,168.739 260.5,160.5C 260.786,157.516 262.452,156.183 265.5,156.5C 269.116,156.696 272.116,158.029 274.5,160.5 Z"/></g>
<g><path style="opacity:1" fill="#0e1d55" d="M 274.5,160.5 C 273.86,163.774 272.193,166.441 269.5,168.5C 267.289,165.244 264.955,162.078 262.5,159C 266.555,158.844 270.555,159.344 274.5,160.5 Z"/></g>
<g><path style="opacity:1" fill="#d4f05e" d="M 151.5,165.5 C 153.857,165.337 156.19,165.503 158.5,166C 159.815,167.395 159.481,168.395 157.5,169C 155.5,169.667 153.5,169.667 151.5,169C 150.316,167.855 150.316,166.688 151.5,165.5 Z"/></g>
<g><path style="opacity:0.955" fill="#7f82ed" d="M 114.5,166.5 C 135.415,200.598 156.582,234.598 178,268.5C 178.745,269.99 179.912,270.99 181.5,271.5C 232.373,255.366 283.373,239.699 334.5,224.5C 333.809,227.365 332.142,229.532 329.5,231C 308.889,237.082 288.555,243.582 268.5,250.5C 265.71,250.222 263.21,250.889 261,252.5C 259.333,250.993 258.166,251.327 257.5,253.5C 231.32,261.393 205.153,269.393 179,277.5C 177.833,277.333 176.667,277.167 175.5,277C 167.944,272.544 160.277,268.378 152.5,264.5C 152.672,263.508 152.338,262.842 151.5,262.5C 145.059,258.728 138.392,255.394 131.5,252.5C 128.437,250.975 125.77,248.975 123.5,246.5C 123.248,234.136 123.582,221.803 124.5,209.5C 125.43,205.6 125.763,201.6 125.5,197.5C 125.818,194.519 124.818,192.185 122.5,190.5C 119.56,185.053 116.393,179.72 113,174.5C 112.115,171.462 112.615,168.795 114.5,166.5 Z"/></g>
<g><path style="opacity:1" fill="#d4ef61" d="M 142.5,167.5 C 146.241,166.599 148.241,167.932 148.5,171.5C 145.813,171.664 143.146,171.497 140.5,171C 140.043,170.586 139.709,170.086 139.5,169.5C 140.602,168.824 141.602,168.158 142.5,167.5 Z"/></g>
<g><path style="opacity:1" fill="#7a819d" d="M 304.5,180.5 C 303.833,180.5 303.167,180.5 302.5,180.5C 304.127,178.37 305.96,176.37 308,174.5C 307.628,172.08 306.295,170.08 304,168.5C 302.074,170.539 299.907,172.206 297.5,173.5C 297.5,173.167 297.5,172.833 297.5,172.5C 301.847,168.155 306.514,164.155 311.5,160.5C 314.296,157.203 317.296,154.036 320.5,151C 322.488,150.82 324.488,150.986 326.5,151.5C 326.698,153.575 326.865,155.575 327,157.5C 319.298,165.035 311.798,172.702 304.5,180.5 Z"/></g>
<g><path style="opacity:1" fill="#f8f8fa" d="M 311.5,160.5 C 315.067,158.443 318.234,155.777 321,152.5C 323.449,153.906 324.449,155.906 324,158.5C 319.833,162.667 315.667,166.833 311.5,171C 308.716,171.417 306.716,170.25 305.5,167.5C 307.575,165.103 309.575,162.769 311.5,160.5 Z"/></g>
<g><path style="opacity:1" fill="#d2ec65" d="M 131.5,169.5 C 134.288,169.077 136.288,170.077 137.5,172.5C 134.979,173.966 132.312,174.466 129.5,174C 128.663,172.989 128.33,171.822 128.5,170.5C 129.791,170.737 130.791,170.404 131.5,169.5 Z"/></g>
<g><path style="opacity:1" fill="#8b8df6" d="M 202.5,171.5 C 208.111,174.978 213.777,178.478 219.5,182C 213.812,183.516 208.145,185.016 202.5,186.5C 202.5,181.5 202.5,176.5 202.5,171.5 Z"/></g>
<g><path style="opacity:1" fill="#7c80e8" d="M 78.5,166.5 C 79.1431,171.669 79.8097,176.835 80.5,182C 89.3458,185.67 98.3458,188.837 107.5,191.5C 107.008,193.819 106.008,195.819 104.5,197.5C 103.735,197.923 102.902,198.257 102,198.5C 88.0498,193.906 74.2165,189.239 60.5,184.5C 64.4903,179.196 67.9903,173.53 71,167.5C 73.2686,167.274 75.7686,166.941 78.5,166.5 Z"/></g>
<g><path style="opacity:1" fill="#c3d781" d="M 285.5,182.5 C 283.167,183.167 280.833,183.833 278.5,184.5C 277.425,185.562 276.425,185.562 275.5,184.5C 278.234,181.343 281.568,180.676 285.5,182.5 Z"/></g>
<g><path style="opacity:0.957" fill="#061649" d="M 60.5,184.5 C 74.2165,189.239 88.0498,193.906 102,198.5C 102.902,198.257 103.735,197.923 104.5,197.5C 111.332,198.361 118.332,198.361 125.5,197.5C 125.763,201.6 125.43,205.6 124.5,209.5C 116.483,209.735 108.483,209.902 100.5,210C 87.1781,205.669 73.8448,201.335 60.5,197C 60.0979,192.942 60.0979,188.775 60.5,184.5 Z"/></g>
<g><path style="opacity:1" fill="#081747" d="M 213.5,185.5 C 221.26,185.926 225.26,189.926 225.5,197.5C 223.18,199.226 220.513,199.893 217.5,199.5C 211.924,197.925 208.924,194.258 208.5,188.5C 209.922,187.075 211.589,186.075 213.5,185.5 Z"/></g>
<g><path style="opacity:1" fill="#d5f255" d="M 213.5,185.5 C 217.311,184.355 221.311,184.188 225.5,185C 228.768,186.15 232.101,186.984 235.5,187.5C 235.392,189.783 234.559,191.783 233,193.5C 230.667,195.167 228.333,196.833 226,198.5C 225.601,198.272 225.435,197.938 225.5,197.5C 225.26,189.926 221.26,185.926 213.5,185.5 Z"/></g>
<g><path style="opacity:1" fill="#dbf75a" d="M 208.5,188.5 C 208.924,194.258 211.924,197.925 217.5,199.5C 210.622,201.201 203.955,200.367 197.5,197C 200.024,192.976 203.358,189.809 207.5,187.5C 208.107,187.624 208.44,187.957 208.5,188.5 Z"/></g>
<g><path style="opacity:1" fill="#6c71c2" d="M 289.5,184.5 C 291.028,184.517 291.528,185.184 291,186.5C 287.61,190.393 283.777,193.727 279.5,196.5C 278.479,195.998 278.312,195.332 279,194.5C 282.396,190.935 285.896,187.602 289.5,184.5 Z"/></g>
<g><path style="opacity:1" fill="#f8f8fb" d="M 122.5,190.5 C 124.818,192.185 125.818,194.519 125.5,197.5C 118.332,198.361 111.332,198.361 104.5,197.5C 106.008,195.819 107.008,193.819 107.5,191.5C 112.695,191.821 117.695,191.487 122.5,190.5 Z"/></g>
<g><path style="opacity:1" fill="#7d80ea" d="M 298.5,184.5 C 300.371,184.859 301.871,185.859 303,187.5C 310.423,198.012 318.09,208.345 326,218.5C 326.483,219.448 326.649,220.448 326.5,221.5C 317.554,223.987 308.554,226.32 299.5,228.5C 293.516,219.511 287.516,210.511 281.5,201.5C 283.235,198.257 285.568,195.423 288.5,193C 292,190.331 295.333,187.498 298.5,184.5 Z"/></g>
<g><path style="opacity:1" fill="#8588f5" d="M 262.5,208.5 C 263.048,210.532 264.381,211.532 266.5,211.5C 270.314,213.913 273.981,216.579 277.5,219.5C 252.879,226.958 228.212,234.292 203.5,241.5C 203.5,229.5 203.5,217.5 203.5,205.5C 215.69,202.036 228.023,199.036 240.5,196.5C 248.067,200.066 255.4,204.066 262.5,208.5 Z"/></g>
<g><path style="opacity:1" fill="#979eb3" d="M 266.5,211.5 C 264.381,211.532 263.048,210.532 262.5,208.5C 263.67,205.149 265.17,201.815 267,198.5C 267.718,197.549 268.551,197.383 269.5,198C 265.303,203.896 266.97,207.563 274.5,209C 271.92,210.144 269.253,210.978 266.5,211.5 Z"/></g>
<g><path style="opacity:1" fill="#5961b9" d="M 307.5,201.5 C 310.121,202.121 311.788,203.788 312.5,206.5C 306.749,209.084 300.749,211.084 294.5,212.5C 290.102,211.387 289.102,209.22 291.5,206C 297.163,205.236 302.497,203.736 307.5,201.5 Z"/></g>
<g><path style="opacity:1" fill="#041549" d="M 130.5,202.5 C 137.198,213.52 143.865,224.52 150.5,235.5C 144.086,239.194 137.086,241.527 129.5,242.5C 129.171,228.99 129.504,215.656 130.5,202.5 Z"/></g>
<g><path style="opacity:1" fill="#c5dd6c" d="M 291.5,207.5 C 293.681,207.284 295.347,208.117 296.5,210C 293.783,211.839 292.116,211.006 291.5,207.5 Z"/></g>
<g><path style="opacity:1" fill="#5d64bd" d="M 312.5,210.5 C 315.509,210.423 317.676,211.756 319,214.5C 319.456,215.744 318.956,216.577 317.5,217C 312.306,219.009 306.973,220.509 301.5,221.5C 299.015,221.204 297.348,219.871 296.5,217.5C 301.816,215.168 307.149,212.835 312.5,210.5 Z"/></g>
<g><path style="opacity:1" fill="#cce56c" d="M 299.5,216.5 C 301.912,216.694 302.912,218.027 302.5,220.5C 299.45,220.354 298.45,219.02 299.5,216.5 Z"/></g>
<g><path style="opacity:1" fill="#7074d5" d="M 142.5,179.5 C 143.552,179.351 144.552,179.517 145.5,180C 162.336,204.521 178.003,229.688 192.5,255.5C 189.557,255.647 186.724,256.313 184,257.5C 182.739,257.241 181.739,256.574 181,255.5C 168.167,233.83 154.834,212.497 141,191.5C 139.191,188.222 137.691,184.889 136.5,181.5C 138.898,181.741 140.898,181.074 142.5,179.5 Z"/></g>
<g><path style="opacity:1" fill="#1a2663" d="M 170.5,228.5 C 175.229,228.961 176.562,231.294 174.5,235.5C 169.59,235.424 168.257,233.09 170.5,228.5 Z"/></g>
<g><path style="opacity:1" fill="#08184e" d="M 152.5,238.5 C 158.473,246.425 163.973,254.759 169,263.5C 169.688,264.332 169.521,264.998 168.5,265.5C 155.98,259.075 143.647,252.408 131.5,245.5C 131.62,244.414 132.287,243.747 133.5,243.5C 139.801,241.62 146.135,239.954 152.5,238.5 Z"/></g>
<g><path style="opacity:0.995" fill="#3b4592" d="M 130.5,202.5 C 129.504,215.656 129.171,228.99 129.5,242.5C 137.086,241.527 144.086,239.194 150.5,235.5C 151.401,236.29 152.068,237.29 152.5,238.5C 146.135,239.954 139.801,241.62 133.5,243.5C 132.287,243.747 131.62,244.414 131.5,245.5C 130.542,245.047 129.708,244.381 129,243.5C 128.167,229.488 128.334,215.488 129.5,201.5C 130.107,201.624 130.44,201.957 130.5,202.5 Z"/></g>
<g><path style="opacity:0.968" fill="#0c194b" d="M 123.5,246.5 C 125.77,248.975 128.437,250.975 131.5,252.5C 131.167,252.5 130.833,252.5 130.5,252.5C 124.202,253.726 118.035,255.392 112,257.5C 111.802,255.618 111.302,253.952 110.5,252.5C 111.244,249.05 109.91,247.384 106.5,247.5C 106.336,250.187 106.503,252.854 107,255.5C 107.417,256.756 108.25,257.423 109.5,257.5C 109.5,257.833 109.5,258.167 109.5,258.5C 109.167,258.5 108.833,258.5 108.5,258.5C 101.68,260.292 95.0135,262.292 88.5,264.5C 87.391,264.557 86.391,264.89 85.5,265.5C 78.1294,266.551 71.1294,268.551 64.5,271.5C 61.2932,272.179 58.2932,273.346 55.5,275C 60.1667,278.333 64.8333,281.667 69.5,285C 73.2577,285.313 76.9243,284.813 80.5,283.5C 84.6973,281.768 89.0307,280.435 93.5,279.5C 92.5,280.833 91.5,282.167 90.5,283.5C 88.264,284.389 86.264,285.722 84.5,287.5C 93.1942,290.924 102.194,293.257 111.5,294.5C 114.716,293.6 117.382,291.933 119.5,289.5C 123.817,286.514 127.817,283.18 131.5,279.5C 132.71,279.068 133.71,278.401 134.5,277.5C 138.909,274.633 142.909,271.299 146.5,267.5C 147.492,267.672 148.158,267.338 148.5,266.5C 150.262,265.738 151.262,264.404 151.5,262.5C 152.338,262.842 152.672,263.508 152.5,264.5C 152.489,266.017 151.823,267.184 150.5,268C 144.493,272.349 138.826,277.015 133.5,282C 127.653,286.091 121.987,290.424 116.5,295C 115,295.5 113.5,296 112,296.5C 101.646,294.549 91.4794,291.882 81.5,288.5C 82.3128,287.186 83.3128,286.019 84.5,285C 80.374,285.569 76.2074,286.402 72,287.5C 68.3974,286.068 64.8974,284.401 61.5,282.5C 59.0827,279.917 56.2493,277.917 53,276.5C 52.2195,275.056 52.3861,273.723 53.5,272.5C 64.4493,269.179 75.4493,266.012 86.5,263C 73.5,262.667 60.5,262.333 47.5,262C 47.0426,261.586 46.7093,261.086 46.5,260.5C 47.0303,255.869 48.0303,251.369 49.5,247C 74.1644,246.5 98.8311,246.333 123.5,246.5 Z"/></g>
<g><path style="opacity:1" fill="#dedfe6" d="M 81.5,248.5 C 82.8333,248.5 84.1667,248.5 85.5,248.5C 85.5,252.5 85.5,256.5 85.5,260.5C 84.1667,260.5 82.8333,260.5 81.5,260.5C 81.5,256.5 81.5,252.5 81.5,248.5 Z"/></g>
<g><path style="opacity:1" fill="#dadce4" d="M 110.5,252.5 C 110.634,254.292 110.301,255.958 109.5,257.5C 108.25,257.423 107.417,256.756 107,255.5C 106.503,252.854 106.336,250.187 106.5,247.5C 109.91,247.384 111.244,249.05 110.5,252.5 Z"/></g>
<g><path style="opacity:1" fill="#e5e7ec" d="M 49.5,248.5 C 52.8333,248.5 56.1667,248.5 59.5,248.5C 59.5,252.833 59.5,257.167 59.5,261.5C 55.8333,261.5 52.1667,261.5 48.5,261.5C 48.9272,257.176 49.2605,252.842 49.5,248.5 Z"/></g>
<g><path style="opacity:1" fill="#daf853" d="M 130.5,252.5 C 130.833,252.5 131.167,252.5 131.5,252.5C 138.392,255.394 145.059,258.728 151.5,262.5C 151.262,264.404 150.262,265.738 148.5,266.5C 139.936,263.859 131.269,261.525 122.5,259.5C 124.792,256.695 127.459,254.362 130.5,252.5 Z"/></g>
<g><path style="opacity:1" fill="#6f74c9" d="M 110.5,252.5 C 111.302,253.952 111.802,255.618 112,257.5C 118.035,255.392 124.202,253.726 130.5,252.5C 127.459,254.362 124.792,256.695 122.5,259.5C 121.29,259.932 120.29,260.599 119.5,261.5C 119.167,261.5 118.833,261.5 118.5,261.5C 115.817,259.664 112.817,258.664 109.5,258.5C 109.5,258.167 109.5,257.833 109.5,257.5C 110.301,255.958 110.634,254.292 110.5,252.5 Z"/></g>
<g><path style="opacity:0.592" fill="#031346" d="M 268.5,250.5 C 271.524,253.881 273.357,257.881 274,262.5C 274.689,263.357 275.522,264.023 276.5,264.5C 282.391,256.156 290.057,254.323 299.5,259C 302.22,262.878 301.886,266.544 298.5,270C 295.246,271.842 291.746,272.675 288,272.5C 282.58,271.339 277.08,270.173 271.5,269C 268.288,266.269 266.788,262.769 267,258.5C 265.662,255.918 263.829,255.251 261.5,256.5C 259.938,256.733 258.605,257.4 257.5,258.5C 257.5,257.5 257.5,256.5 257.5,255.5C 257.5,254.833 257.5,254.167 257.5,253.5C 258.166,251.327 259.333,250.993 261,252.5C 263.21,250.889 265.71,250.222 268.5,250.5 Z M 288.5,258.5 C 292.656,258.578 295.989,260.245 298.5,263.5C 295.164,269.834 290.164,271.667 283.5,269C 281.352,266.925 281.018,264.592 282.5,262C 284.727,261.059 286.727,259.892 288.5,258.5 Z"/></g>
<g><path style="opacity:1" fill="#d8dbe4" d="M 108.5,258.5 C 108.833,258.5 109.167,258.5 109.5,258.5C 112.817,258.664 115.817,259.664 118.5,261.5C 118.027,262.906 117.027,263.573 115.5,263.5C 112.991,262.079 110.657,260.412 108.5,258.5 Z"/></g>
<g><path style="opacity:0.889" fill="#7c7fed" d="M 261.5,256.5 C 262.259,260.477 262.925,264.477 263.5,268.5C 261.129,266.132 258.462,264.132 255.5,262.5C 256.63,261.378 257.297,260.044 257.5,258.5C 258.605,257.4 259.938,256.733 261.5,256.5 Z"/></g>
<g><path style="opacity:1" fill="#7f82e8" d="M 108.5,258.5 C 110.657,260.412 112.991,262.079 115.5,263.5C 114.013,264.804 112.346,265.97 110.5,267C 108.859,268.129 107.859,269.629 107.5,271.5C 106.508,271.328 105.842,271.662 105.5,272.5C 104.391,272.557 103.391,272.89 102.5,273.5C 97.7969,270.486 93.1302,267.486 88.5,264.5C 95.0135,262.292 101.68,260.292 108.5,258.5 Z"/></g>
<g><path style="opacity:1" fill="#f7fcdd" d="M 122.5,259.5 C 131.269,261.525 139.936,263.859 148.5,266.5C 148.158,267.338 147.492,267.672 146.5,267.5C 137.6,265.09 128.6,263.09 119.5,261.5C 120.29,260.599 121.29,259.932 122.5,259.5 Z"/></g>
<g><path style="opacity:1" fill="#daf94e" d="M 118.5,261.5 C 118.833,261.5 119.167,261.5 119.5,261.5C 128.6,263.09 137.6,265.09 146.5,267.5C 142.909,271.299 138.909,274.633 134.5,277.5C 125.5,275.5 116.5,273.5 107.5,271.5C 107.859,269.629 108.859,268.129 110.5,267C 112.346,265.97 114.013,264.804 115.5,263.5C 117.027,263.573 118.027,262.906 118.5,261.5 Z"/></g>
<g><path style="opacity:0.898" fill="#7c7fef" d="M 257.5,255.5 C 257.5,256.5 257.5,257.5 257.5,258.5C 254.608,261.271 251.942,264.271 249.5,267.5C 245.183,269.94 240.517,271.607 235.5,272.5C 242.879,266.774 250.213,261.108 257.5,255.5 Z"/></g>
<g><path style="opacity:1" fill="#8386f0" d="M 85.5,265.5 C 90.4451,268.445 95.1117,271.779 99.5,275.5C 97.7952,277.192 95.7952,278.525 93.5,279.5C 89.0307,280.435 84.6973,281.768 80.5,283.5C 75.4495,279.115 70.1162,275.115 64.5,271.5C 71.1294,268.551 78.1294,266.551 85.5,265.5 Z"/></g>
<g><path style="opacity:0.966" fill="#7b7feb" d="M 264.5,270.5 C 265.755,275.106 266.755,279.772 267.5,284.5C 260.779,279.779 255.112,274.112 250.5,267.5C 251.482,266.859 252.482,266.193 253.5,265.5C 255.676,267.177 257.676,269.011 259.5,271C 261.197,271.384 262.863,271.218 264.5,270.5 Z"/></g>
<g><path style="opacity:1" fill="#e8eaf4" d="M 88.5,264.5 C 93.1302,267.486 97.7969,270.486 102.5,273.5C 102.027,274.906 101.027,275.573 99.5,275.5C 95.1117,271.779 90.4451,268.445 85.5,265.5C 86.391,264.89 87.391,264.557 88.5,264.5 Z"/></g>
<g><path style="opacity:1" fill="#424881" d="M 257.5,258.5 C 257.297,260.044 256.63,261.378 255.5,262.5C 258.462,264.132 261.129,266.132 263.5,268.5C 264.338,268.842 264.672,269.508 264.5,270.5C 262.863,271.218 261.197,271.384 259.5,271C 257.676,269.011 255.676,267.177 253.5,265.5C 252.482,266.193 251.482,266.859 250.5,267.5C 250.167,267.5 249.833,267.5 249.5,267.5C 251.942,264.271 254.608,261.271 257.5,258.5 Z"/></g>
<g><path style="opacity:0.915" fill="#07174c" d="M 249.5,267.5 C 249.833,267.5 250.167,267.5 250.5,267.5C 255.112,274.112 260.779,279.779 267.5,284.5C 266.399,285.598 265.066,285.765 263.5,285C 254.604,281.721 245.604,278.721 236.5,276C 233.358,274.982 233.024,273.815 235.5,272.5C 240.517,271.607 245.183,269.94 249.5,267.5 Z"/></g>
<g><path style="opacity:1" fill="#f3f3f7" d="M 64.5,271.5 C 70.1162,275.115 75.4495,279.115 80.5,283.5C 76.9243,284.813 73.2577,285.313 69.5,285C 64.8333,281.667 60.1667,278.333 55.5,275C 58.2932,273.346 61.2932,272.179 64.5,271.5 Z"/></g>
<g><path style="opacity:1" fill="#dbfa4e" d="M 105.5,272.5 C 114.24,274.85 122.907,277.184 131.5,279.5C 127.817,283.18 123.817,286.514 119.5,289.5C 109.763,287.822 100.096,285.822 90.5,283.5C 91.5,282.167 92.5,280.833 93.5,279.5C 95.7952,278.525 97.7952,277.192 99.5,275.5C 101.027,275.573 102.027,274.906 102.5,273.5C 103.391,272.89 104.391,272.557 105.5,272.5 Z"/></g>
<g><path style="opacity:1" fill="#f9fde6" d="M 105.5,272.5 C 105.842,271.662 106.508,271.328 107.5,271.5C 116.5,273.5 125.5,275.5 134.5,277.5C 133.71,278.401 132.71,279.068 131.5,279.5C 122.907,277.184 114.24,274.85 105.5,272.5 Z"/></g>
<g><path style="opacity:1" fill="#f2f3f2" d="M 90.5,283.5 C 100.096,285.822 109.763,287.822 119.5,289.5C 117.382,291.933 114.716,293.6 111.5,294.5C 102.194,293.257 93.1942,290.924 84.5,287.5C 86.264,285.722 88.264,284.389 90.5,283.5 Z"/></g>
</svg>
