<?xml version="1.0" encoding="UTF-8"?>
<!DOCTYPE svg PUBLIC "-//W3C//DTD SVG 1.1//EN" "http://www.w3.org/Graphics/SVG/1.1/DTD/svg11.dtd">
<svg xmlns="http://www.w3.org/2000/svg" version="1.1" width="392px" height="345px" style="shape-rendering:geometricPrecision; text-rendering:geometricPrecision; image-rendering:optimizeQuality; fill-rule:evenodd; clip-rule:evenodd" xmlns:xlink="http://www.w3.org/1999/xlink">
<g><path style="opacity:0.495" fill="#71cf91" d="M 185.5,-0.5 C 188.833,-0.5 192.167,-0.5 195.5,-0.5C 198.55,1.54906 200.883,4.21573 202.5,7.5C 209.321,8.32854 216.321,8.82854 223.5,9C 221.942,9.21003 220.609,9.71003 219.5,10.5C 213.463,10.1707 207.463,10.5041 201.5,11.5C 200.147,15.5848 197.481,18.2514 193.5,19.5C 192.505,24.7921 192.172,30.1254 192.5,35.5C 192.167,35.5 191.833,35.5 191.5,35.5C 190.833,35.5 190.167,35.5 189.5,35.5C 189.5,30.1667 189.5,24.8333 189.5,19.5C 181.859,17.9011 179.026,13.2344 181,5.5C 181.639,2.78794 183.139,0.78794 185.5,-0.5 Z M 187.5,1.5 C 196.16,1.31538 199.327,5.31538 197,13.5C 191.513,19.1327 186.846,18.4661 183,11.5C 182.333,10.1667 182.333,8.83333 183,7.5C 184.332,5.34004 185.832,3.34004 187.5,1.5 Z"/></g>
<g><path style="opacity:0.542" fill="#85d26d" d="M 202.5,7.5 C 221.17,7.33339 239.836,7.50005 258.5,8C 265.368,9.19696 268.201,13.3636 267,20.5C 271.167,24.6667 275.333,28.8333 279.5,33C 288.827,33.4998 298.161,33.6665 307.5,33.5C 298.713,35.156 289.713,36.156 280.5,36.5C 275.86,40.1384 271.527,44.1384 267.5,48.5C 266.337,53.8023 266.171,59.1357 267,64.5C 268.03,66.3464 269.196,68.0131 270.5,69.5C 270.5,70.8333 269.833,71.5 268.5,71.5C 267.115,70.4264 265.949,69.0931 265,67.5C 264.667,60.8333 264.333,54.1667 264,47.5C 259.382,43.5926 255.215,39.2593 251.5,34.5C 254.814,30.0187 258.648,26.0187 263,22.5C 265.535,17.8587 264.701,14.0254 260.5,11C 246.837,10.5001 233.171,10.3334 219.5,10.5C 220.609,9.71003 221.942,9.21003 223.5,9C 216.321,8.82854 209.321,8.32854 202.5,7.5 Z M 265.5,23.5 C 269.3,27.1348 272.966,30.9681 276.5,35C 273,38.5 269.5,42 266,45.5C 262.478,41.9782 258.978,38.4782 255.5,35C 258.656,31.0107 261.989,27.1774 265.5,23.5 Z"/></g>
<g><path style="opacity:0.499" fill="#181a1f" d="M 234.5,33.5 C 230.167,34.1667 225.833,34.8333 221.5,35.5C 211.319,35.905 201.319,35.905 191.5,35.5C 191.833,35.5 192.167,35.5 192.5,35.5C 206.441,33.9556 220.441,33.2889 234.5,33.5 Z"/></g>
<g><path style="opacity:0.216" fill="#737374" d="M 234.5,33.5 C 235.833,33.5 237.167,33.5 238.5,33.5C 238.5,61.1667 238.5,88.8333 238.5,116.5C 238.167,116.5 237.833,116.5 237.5,116.5C 237.831,89.3282 237.498,62.3282 236.5,35.5C 231.5,35.5 226.5,35.5 221.5,35.5C 225.833,34.8333 230.167,34.1667 234.5,33.5 Z"/></g>
<g><path style="opacity:1" fill="#fcfcfc" d="M 221.5,35.5 C 226.5,35.5 231.5,35.5 236.5,35.5C 236.5,101.833 236.5,168.167 236.5,234.5C 235.5,234.5 234.5,234.5 233.5,234.5C 213.827,232.928 194.161,231.261 174.5,229.5C 169.731,228.111 164.731,227.444 159.5,227.5C 138.783,225.969 118.116,223.969 97.5,221.5C 97.5,161.833 97.5,102.167 97.5,42.5C 100.385,42.8064 103.052,42.4731 105.5,41.5C 132.784,39.5033 160.118,38.17 187.5,37.5C 199.02,37.4161 210.354,36.7494 221.5,35.5 Z"/></g>
<g><path style="opacity:0.996" fill="#acaeaf" d="M 189.5,35.5 C 190.167,35.5 190.833,35.5 191.5,35.5C 201.319,35.905 211.319,35.905 221.5,35.5C 210.354,36.7494 199.02,37.4161 187.5,37.5C 188.167,36.8333 188.833,36.1667 189.5,35.5 Z"/></g>
<g><path style="opacity:0.782" fill="#36373c" d="M 189.5,35.5 C 188.833,36.1667 188.167,36.8333 187.5,37.5C 160.118,38.17 132.784,39.5033 105.5,41.5C 102.5,41.5 99.5,41.5 96.5,41.5C 96.8324,100.669 96.499,159.669 95.5,218.5C 95.5,215.167 95.5,211.833 95.5,208.5C 95.5,188.5 95.5,168.5 95.5,148.5C 95.5,147.5 95.5,146.5 95.5,145.5C 95.5,126.167 95.5,106.833 95.5,87.5C 95.5,86.8333 95.5,86.1667 95.5,85.5C 95.5,70.1667 95.5,54.8333 95.5,39.5C 126.843,38.3883 158.176,37.0549 189.5,35.5 Z"/></g>
<g><path style="opacity:0.582" fill="#4bc7d5" d="M 95.5,85.5 C 95.5,86.1667 95.5,86.8333 95.5,87.5C 89.5,87.5 83.5,87.5 77.5,87.5C 77.7839,90.7766 77.4505,93.9433 76.5,97C 69.8417,97.4996 63.175,97.6663 56.5,97.5C 56.5,90.1667 56.5,82.8333 56.5,75.5C 59.5,75.5 62.5,75.5 65.5,75.5C 65.6665,64.495 65.4998,53.495 65,42.5C 64.7266,40.8988 64.2266,39.3988 63.5,38C 45.9274,36.5274 28.2607,36.0274 10.5,36.5C 10.5,35.5 10.5,34.5 10.5,33.5C 28.5937,33.0269 46.5937,33.5269 64.5,35C 65.3333,35.8333 66.1667,36.6667 67,37.5C 67.4999,50.1623 67.6666,62.8289 67.5,75.5C 70.5184,75.3354 73.5184,75.502 76.5,76C 77.4505,79.0567 77.7839,82.2234 77.5,85.5C 83.5,85.5 89.5,85.5 95.5,85.5 Z M 58.5,77.5 C 63.8333,77.5 69.1667,77.5 74.5,77.5C 74.5,82.8333 74.5,88.1667 74.5,93.5C 69.1667,93.5 63.8333,93.5 58.5,93.5C 58.5,88.1667 58.5,82.8333 58.5,77.5 Z"/></g>
<g><path style="opacity:0.989" fill="#cfcfd1" d="M 105.5,41.5 C 103.052,42.4731 100.385,42.8064 97.5,42.5C 97.5,102.167 97.5,161.833 97.5,221.5C 89.3944,219.294 81.0611,218.128 72.5,218C 71.944,217.617 71.6107,217.117 71.5,216.5C 72.1667,216.5 72.8333,216.5 73.5,216.5C 80.8111,217.386 88.1445,218.053 95.5,218.5C 96.499,159.669 96.8324,100.669 96.5,41.5C 99.5,41.5 102.5,41.5 105.5,41.5 Z"/></g>
<g><path style="opacity:0.519" fill="#9edd40" d="M 280.5,36.5 C 289.713,36.156 298.713,35.156 307.5,33.5C 321.833,33.5 336.167,33.5 350.5,33.5C 351.835,25.653 356.501,22.4863 364.5,24C 371.943,28.6591 373.276,34.6591 368.5,42C 360.852,46.4732 354.852,44.9732 350.5,37.5C 327.176,36.5003 303.843,36.1669 280.5,36.5 Z M 357.5,26.5 C 365.113,25.6141 368.613,28.9474 368,36.5C 363.681,44.1047 358.848,44.438 353.5,37.5C 356.086,36.52 358.753,36.1866 361.5,36.5C 361.5,35.5 361.5,34.5 361.5,33.5C 358.833,33.5 356.167,33.5 353.5,33.5C 353.343,32.1266 353.51,30.7932 354,29.5C 355.518,28.8366 356.685,27.8366 357.5,26.5 Z"/></g>
<g><path style="opacity:1" fill="#a0a1a4" d="M 112.5,53.5 C 122.128,54.2573 124.462,58.7573 119.5,67C 110.722,69.8931 107.222,66.7265 109,57.5C 110.102,56.051 111.269,54.7177 112.5,53.5 Z"/></g>
<g><path style="opacity:1" fill="#616367" d="M 124.5,56.5 C 126.833,56.5 129.167,56.5 131.5,56.5C 130.375,58.8205 130.208,61.1538 131,63.5C 128.959,64.4231 126.792,64.7564 124.5,64.5C 124.5,61.8333 124.5,59.1667 124.5,56.5 Z"/></g>
<g><path style="opacity:1" fill="#f0f1f1" d="M 113.5,57.5 C 118.493,57.997 119.493,60.1637 116.5,64C 115.216,64.6838 114.049,64.5171 113,63.5C 112.322,61.4024 112.489,59.4024 113.5,57.5 Z"/></g>
<g><path style="opacity:1" fill="#525358" d="M 134.5,57.5 C 136.017,57.5106 137.184,58.1772 138,59.5C 139.555,57.4848 141.389,57.1515 143.5,58.5C 142.948,60.0026 142.948,61.6693 143.5,63.5C 139.107,63.5432 138.774,63.0432 142.5,62C 139.944,60.5621 137.278,60.5621 134.5,62C 138.186,63.1993 137.853,63.5326 133.5,63C 132.243,60.9235 132.576,59.0902 134.5,57.5 Z"/></g>
<g><path style="opacity:1" fill="#424449" d="M 145.5,56.5 C 147.042,57.3007 148.708,57.634 150.5,57.5C 150.351,58.552 150.517,59.552 151,60.5C 151.72,58.7448 152.887,57.9115 154.5,58C 153.63,60.911 152.13,63.411 150,65.5C 149.5,65.3333 149,65.1667 148.5,65C 150.459,63.3158 150.459,61.3158 148.5,59C 147.4,58.5683 146.733,59.0683 146.5,60.5C 147.137,61.782 147.137,62.782 146.5,63.5C 144.989,61.1842 144.656,58.8509 145.5,56.5 Z"/></g>
<g><path style="opacity:0.437" fill="#8fd258" d="M 270.5,69.5 C 281.838,69.3335 293.172,69.5001 304.5,70C 308.02,70.504 310.52,72.3374 312,75.5C 312.499,80.8229 312.666,86.1563 312.5,91.5C 315.5,91.5 318.5,91.5 321.5,91.5C 321.5,98.1667 321.5,104.833 321.5,111.5C 314.5,111.5 307.5,111.5 300.5,111.5C 300.5,104.833 300.5,98.1667 300.5,91.5C 303.5,91.5 306.5,91.5 309.5,91.5C 309.828,86.1254 309.495,80.7921 308.5,75.5C 307.354,74.8551 306.354,74.0217 305.5,73C 292.993,72.8308 280.66,72.3308 268.5,71.5C 269.833,71.5 270.5,70.8333 270.5,69.5 Z M 303.5,93.5 C 308.833,93.5 314.167,93.5 319.5,93.5C 319.5,98.8333 319.5,104.167 319.5,109.5C 314.167,109.5 308.833,109.5 303.5,109.5C 303.5,104.167 303.5,98.8333 303.5,93.5 Z"/></g>
<g><path style="opacity:1" fill="#5c6264" d="M 135.5,175.5 C 137.199,175.473 138.533,174.806 139.5,173.5C 166.973,175.856 194.64,177.523 222.5,178.5C 222.833,163.152 222.499,147.819 221.5,132.5C 220.264,133.246 218.93,133.579 217.5,133.5C 218.78,132.069 220.447,131.402 222.5,131.5C 222.5,111.833 222.5,92.1667 222.5,72.5C 219.167,72.5 215.833,72.5 212.5,72.5C 202.828,72.7087 193.161,73.042 183.5,73.5C 177.31,73.1771 171.31,73.5104 165.5,74.5C 162.5,74.5 159.5,74.5 156.5,74.5C 154.5,74.5 152.5,74.5 150.5,74.5C 147.833,74.5 145.167,74.5 142.5,74.5C 142.5,78.1667 142.5,81.8333 142.5,85.5C 138.556,83.8092 136.556,85.1425 136.5,89.5C 135.5,89.5 134.5,89.5 133.5,89.5C 133.174,83.3198 130.174,78.8198 124.5,76C 119.177,75.5006 113.844,75.334 108.5,75.5C 108.187,78.2469 108.52,80.9135 109.5,83.5C 111.419,84.6125 113.086,85.9458 114.5,87.5C 112.321,87.16 110.488,86.16 109,84.5C 108.5,114.165 108.333,143.831 108.5,173.5C 112.702,173.817 116.702,173.483 120.5,172.5C 122.848,172.408 124.514,171.408 125.5,169.5C 126.492,171.456 127.492,173.456 128.5,175.5C 121.504,175.106 114.504,174.773 107.5,174.5C 107.5,141.167 107.5,107.833 107.5,74.5C 146.144,72.8852 184.811,71.8852 223.5,71.5C 223.5,107.5 223.5,143.5 223.5,179.5C 193.99,178.622 164.656,177.288 135.5,175.5 Z"/></g>
<g><path style="opacity:1" fill="#6ccd98" d="M 156.5,74.5 C 159.5,74.5 162.5,74.5 165.5,74.5C 166.5,74.5 167.5,74.5 168.5,74.5C 168.5,87.8333 168.5,101.167 168.5,114.5C 164.501,115.5 160.501,116.5 156.5,117.5C 156.5,103.167 156.5,88.8333 156.5,74.5 Z"/></g>
<g><path style="opacity:1" fill="#64cca7" d="M 150.5,74.5 C 152.5,74.5 154.5,74.5 156.5,74.5C 156.5,88.8333 156.5,103.167 156.5,117.5C 154.337,119.083 152.004,120.416 149.5,121.5C 148.834,114.007 148.5,106.341 148.5,98.5C 148.532,90.2671 149.199,82.2671 150.5,74.5 Z"/></g>
<g><path style="opacity:1" fill="#5bc6b3" d="M 150.5,74.5 C 149.199,82.2671 148.532,90.2671 148.5,98.5C 148.5,106.341 148.834,114.007 149.5,121.5C 145.436,124.054 141.769,127.221 138.5,131C 136.465,131.599 134.799,131.099 133.5,129.5C 133.174,121.316 133.508,113.316 134.5,105.5C 134.833,105.5 135.167,105.5 135.5,105.5C 138.5,106.833 141.5,106.833 144.5,105.5C 146.101,104.481 147.101,102.981 147.5,101C 146.878,97.5464 145.211,94.713 142.5,92.5C 143.304,91.0589 143.971,89.5589 144.5,88C 144.361,86.699 143.695,85.8656 142.5,85.5C 142.5,81.8333 142.5,78.1667 142.5,74.5C 145.167,74.5 147.833,74.5 150.5,74.5 Z"/></g>
<g><path style="opacity:1" fill="#f6f6f6" d="M 134.5,74.5 C 136.833,74.5 139.167,74.5 141.5,74.5C 141.5,77.5 141.5,80.5 141.5,83.5C 138.453,82.8554 136.287,83.8554 135,86.5C 133.298,82.6702 131.465,79.0036 129.5,75.5C 131.415,75.7845 133.081,75.4511 134.5,74.5 Z"/></g>
<g><path style="opacity:1" fill="#f8f8f8" d="M 133.5,89.5 C 131.878,91.6088 129.712,92.6088 127,92.5C 123.688,91.9257 120.522,90.9257 117.5,89.5C 117.027,88.0937 116.027,87.427 114.5,87.5C 113.086,85.9458 111.419,84.6125 109.5,83.5C 108.52,80.9135 108.187,78.2469 108.5,75.5C 113.844,75.334 119.177,75.5006 124.5,76C 130.174,78.8198 133.174,83.3198 133.5,89.5 Z"/></g>
<g><path style="opacity:1" fill="#74cc86" d="M 165.5,74.5 C 171.31,73.5104 177.31,73.1771 183.5,73.5C 182.432,74.4345 181.099,74.7678 179.5,74.5C 179.198,82.9183 179.531,91.2517 180.5,99.5C 179.5,99.5 178.5,99.5 177.5,99.5C 176.352,104.095 175.519,108.762 175,113.5C 172.959,114.423 170.792,114.756 168.5,114.5C 168.5,101.167 168.5,87.8333 168.5,74.5C 167.5,74.5 166.5,74.5 165.5,74.5 Z"/></g>
<g><path style="opacity:1" fill="#95d045" d="M 212.5,72.5 C 215.833,72.5 219.167,72.5 222.5,72.5C 222.5,92.1667 222.5,111.833 222.5,131.5C 220.447,131.402 218.78,132.069 217.5,133.5C 216.391,133.557 215.391,133.89 214.5,134.5C 212.769,132.77 210.769,131.437 208.5,130.5C 206.532,111.735 205.866,92.7348 206.5,73.5C 208.735,73.7947 210.735,73.4614 212.5,72.5 Z"/></g>
<g><path style="opacity:1" fill="#8fd356" d="M 206.5,73.5 C 205.866,92.7348 206.532,111.735 208.5,130.5C 205.246,130.207 202.246,130.874 199.5,132.5C 198.503,113.007 198.17,93.3404 198.5,73.5C 201.167,73.5 203.833,73.5 206.5,73.5 Z"/></g>
<g><path style="opacity:1" fill="#84cf69" d="M 212.5,72.5 C 210.735,73.4614 208.735,73.7947 206.5,73.5C 203.833,73.5 201.167,73.5 198.5,73.5C 198.17,93.3404 198.503,113.007 199.5,132.5C 198.535,136.066 197.201,139.399 195.5,142.5C 194.624,142.631 193.957,142.298 193.5,141.5C 196.909,135.826 197.409,129.826 195,123.5C 189.904,115.638 185.071,107.638 180.5,99.5C 179.531,91.2517 179.198,82.9183 179.5,74.5C 181.099,74.7678 182.432,74.4345 183.5,73.5C 193.161,73.042 202.828,72.7087 212.5,72.5 Z"/></g>
<g><path style="opacity:1" fill="#f8f8f8" d="M 142.5,85.5 C 142.838,88.1569 142.171,90.4902 140.5,92.5C 141.815,94.3159 143.315,95.9825 145,97.5C 145.602,100.221 145.435,102.887 144.5,105.5C 141.5,106.833 138.5,106.833 135.5,105.5C 134.656,101.901 134.323,98.2343 134.5,94.5C 132.801,94.6602 131.134,94.4935 129.5,94C 131.751,93.2525 133.084,91.7525 133.5,89.5C 134.5,89.5 135.5,89.5 136.5,89.5C 136.556,85.1425 138.556,83.8092 142.5,85.5 Z"/></g>
<g><path style="opacity:1" fill="#42c5e4" d="M 114.5,87.5 C 116.027,87.427 117.027,88.0937 117.5,89.5C 117.833,90.1667 118.167,90.8333 118.5,91.5C 117.502,118.328 117.169,145.328 117.5,172.5C 118.5,172.5 119.5,172.5 120.5,172.5C 116.702,173.483 112.702,173.817 108.5,173.5C 108.333,143.831 108.5,114.165 109,84.5C 110.488,86.16 112.321,87.16 114.5,87.5 Z"/></g>
<g><path style="opacity:1" fill="#4ac6d4" d="M 118.5,91.5 C 123.435,92.6742 128.102,94.3408 132.5,96.5C 132.405,99.6967 133.072,102.697 134.5,105.5C 133.508,113.316 133.174,121.316 133.5,129.5C 130.357,128.963 127.357,127.963 124.5,126.5C 124.167,127 123.833,127.5 123.5,128C 126.563,137.198 130.397,146.031 135,154.5C 138.264,159.305 142.764,161.972 148.5,162.5C 146.574,163.486 144.574,164.486 142.5,165.5C 138.187,157.576 132.687,156.576 126,162.5C 125.503,164.81 125.337,167.143 125.5,169.5C 124.514,171.408 122.848,172.408 120.5,172.5C 119.5,172.5 118.5,172.5 117.5,172.5C 117.169,145.328 117.502,118.328 118.5,91.5 Z"/></g>
<g><path style="opacity:1" fill="#516a68" d="M 142.5,85.5 C 143.695,85.8656 144.361,86.699 144.5,88C 143.971,89.5589 143.304,91.0589 142.5,92.5C 145.211,94.713 146.878,97.5464 147.5,101C 147.101,102.981 146.101,104.481 144.5,105.5C 145.435,102.887 145.602,100.221 145,97.5C 143.315,95.9825 141.815,94.3159 140.5,92.5C 142.171,90.4902 142.838,88.1569 142.5,85.5 Z"/></g>
<g><path style="opacity:1" fill="#5d6d71" d="M 117.5,89.5 C 120.522,90.9257 123.688,91.9257 127,92.5C 129.712,92.6088 131.878,91.6088 133.5,89.5C 133.084,91.7525 131.751,93.2525 129.5,94C 131.134,94.4935 132.801,94.6602 134.5,94.5C 134.323,98.2343 134.656,101.901 135.5,105.5C 135.167,105.5 134.833,105.5 134.5,105.5C 133.072,102.697 132.405,99.6967 132.5,96.5C 128.102,94.3408 123.435,92.6742 118.5,91.5C 118.167,90.8333 117.833,90.1667 117.5,89.5 Z"/></g>
<g><path style="opacity:1" fill="#1b1e23" d="M 180.5,99.5 C 185.071,107.638 189.904,115.638 195,123.5C 197.409,129.826 196.909,135.826 193.5,141.5C 193.957,142.298 194.624,142.631 195.5,142.5C 179.982,149.423 164.316,156.09 148.5,162.5C 142.764,161.972 138.264,159.305 135,154.5C 130.397,146.031 126.563,137.198 123.5,128C 123.833,127.5 124.167,127 124.5,126.5C 127.357,127.963 130.357,128.963 133.5,129.5C 134.799,131.099 136.465,131.599 138.5,131C 141.769,127.221 145.436,124.054 149.5,121.5C 152.004,120.416 154.337,119.083 156.5,117.5C 160.501,116.5 164.501,115.5 168.5,114.5C 170.792,114.756 172.959,114.423 175,113.5C 175.519,108.762 176.352,104.095 177.5,99.5C 178.5,99.5 179.5,99.5 180.5,99.5 Z"/></g>
<g><path style="opacity:1" fill="#e9e9ea" d="M 178.5,105.5 C 179.675,105.281 180.675,105.614 181.5,106.5C 183.268,110.109 185.268,113.609 187.5,117C 179.221,117.539 176.221,113.705 178.5,105.5 Z"/></g>
<g><path style="opacity:1" fill="#fcfcfc" d="M 237.5,118.5 C 259.5,118.5 281.5,118.5 303.5,118.5C 303.5,145.5 303.5,172.5 303.5,199.5C 281.445,198.361 259.445,196.694 237.5,194.5C 237.194,184.75 237.527,175.084 238.5,165.5C 244.917,162.422 251.251,159.255 257.5,156C 250.964,152.232 244.298,148.732 237.5,145.5C 237.5,136.5 237.5,127.5 237.5,118.5 Z"/></g>
<g><path style="opacity:1" fill="#e1e2e2" d="M 173.5,119.5 C 178.123,118.408 179.956,120.075 179,124.5C 175.941,128.117 172.108,129.617 167.5,129C 166.24,127.186 166.24,125.353 167.5,123.5C 173.71,129.31 175.71,127.977 173.5,119.5 Z"/></g>
<g><path style="opacity:1" fill="#e6e6e7" d="M 181.5,124.5 C 187.488,124.664 188.821,127.164 185.5,132C 179.403,132.147 178.07,129.647 181.5,124.5 Z"/></g>
<g><path style="opacity:1" fill="#1b1e21" d="M 208.5,130.5 C 210.769,131.437 212.769,132.77 214.5,134.5C 216.007,144.158 212.007,148.325 202.5,147C 201.313,145.981 200.313,144.814 199.5,143.5C 198.311,142.571 196.978,142.238 195.5,142.5C 197.201,139.399 198.535,136.066 199.5,132.5C 202.246,130.874 205.246,130.207 208.5,130.5 Z"/></g>
<g><path style="opacity:1" fill="#e8e9e9" d="M 127.5,131.5 C 130.5,132.167 133.5,132.833 136.5,133.5C 135.685,137.144 134.852,140.811 134,144.5C 131.572,140.256 129.406,135.922 127.5,131.5 Z"/></g>
<g><path style="opacity:1" fill="#f9f9fa" d="M 139.5,173.5 C 141.982,171.497 142.982,168.831 142.5,165.5C 144.574,164.486 146.574,163.486 148.5,162.5C 164.316,156.09 179.982,149.423 195.5,142.5C 196.978,142.238 198.311,142.571 199.5,143.5C 200.313,144.814 201.313,145.981 202.5,147C 212.007,148.325 216.007,144.158 214.5,134.5C 215.391,133.89 216.391,133.557 217.5,133.5C 218.93,133.579 220.264,133.246 221.5,132.5C 222.499,147.819 222.833,163.152 222.5,178.5C 194.64,177.523 166.973,175.856 139.5,173.5 Z"/></g>
<g><path style="opacity:1" fill="#dadadb" d="M 148.5,131.5 C 153.756,132.186 154.756,134.686 151.5,139C 148.119,141.245 144.452,141.912 140.5,141C 139.23,138.374 139.896,136.207 142.5,134.5C 143.875,137.547 146.208,138.88 149.5,138.5C 149.552,136.097 149.219,133.764 148.5,131.5 Z"/></g>
<g><path style="opacity:1" fill="#8f9093" d="M 160.5,132.5 C 161.976,133.733 163.643,134.733 165.5,135.5C 167.425,135.41 168.592,134.41 169,132.5C 169.684,133.784 169.517,134.951 168.5,136C 165.096,136.014 162.43,137.347 160.5,140C 158.597,140.774 156.93,140.44 155.5,139C 157.134,138.506 158.801,138.34 160.5,138.5C 160.5,136.5 160.5,134.5 160.5,132.5 Z"/></g>
<g><path style="opacity:0.769" fill="#99d447" d="M 304.5,150.5 C 304.5,149.5 304.5,148.5 304.5,147.5C 315.167,147.5 325.833,147.5 336.5,147.5C 336.5,144.5 336.5,141.5 336.5,138.5C 343.167,138.5 349.833,138.5 356.5,138.5C 356.5,145.5 356.5,152.5 356.5,159.5C 349.833,159.5 343.167,159.5 336.5,159.5C 336.5,156.5 336.5,153.5 336.5,150.5C 325.833,150.5 315.167,150.5 304.5,150.5 Z M 338.5,140.5 C 343.833,140.5 349.167,140.5 354.5,140.5C 354.5,145.833 354.5,151.167 354.5,156.5C 349.167,156.5 343.833,156.5 338.5,156.5C 338.5,151.167 338.5,145.833 338.5,140.5 Z"/></g>
<g><path style="opacity:0.245" fill="#4ecacf" d="M 95.5,145.5 C 95.5,146.5 95.5,147.5 95.5,148.5C 78.4967,148.333 61.4967,148.5 44.5,149C 43.2949,150.376 41.9616,151.542 40.5,152.5C 40.1667,151.833 39.8333,151.167 39.5,150.5C 40.6728,148.496 42.3395,146.996 44.5,146C 61.4967,145.5 78.4967,145.333 95.5,145.5 Z"/></g>
<g><path style="opacity:1" fill="#e1e1e2" d="M 141.5,144.5 C 148.004,144.138 149.671,146.638 146.5,152C 140.785,152.401 139.119,149.901 141.5,144.5 Z"/></g>
<g><path style="opacity:1" fill="#1d1e24" d="M 237.5,145.5 C 244.298,148.732 250.964,152.232 257.5,156C 251.251,159.255 244.917,162.422 238.5,165.5C 237.509,159.021 237.176,152.354 237.5,145.5 Z"/></g>
<g><path style="opacity:1" fill="#1a1e23" d="M 142.5,165.5 C 142.982,168.831 141.982,171.497 139.5,173.5C 138.533,174.806 137.199,175.473 135.5,175.5C 133.167,175.5 130.833,175.5 128.5,175.5C 127.492,173.456 126.492,171.456 125.5,169.5C 125.337,167.143 125.503,164.81 126,162.5C 132.687,156.576 138.187,157.576 142.5,165.5 Z"/></g>
<g><path style="opacity:0.998" fill="#2c2e33" d="M 237.5,116.5 C 237.833,116.5 238.167,116.5 238.5,116.5C 260.5,116.5 282.5,116.5 304.5,116.5C 304.5,126.833 304.5,137.167 304.5,147.5C 304.5,148.5 304.5,149.5 304.5,150.5C 304.5,156.5 304.5,162.5 304.5,168.5C 304.5,173.833 304.5,179.167 304.5,184.5C 307.385,184.194 310.052,184.527 312.5,185.5C 309.615,185.194 306.948,185.527 304.5,186.5C 304.5,191.167 304.5,195.833 304.5,200.5C 299.637,200.181 294.97,200.514 290.5,201.5C 272.852,200.199 255.185,199.199 237.5,198.5C 237.5,197.167 237.5,195.833 237.5,194.5C 259.445,196.694 281.445,198.361 303.5,199.5C 303.5,172.5 303.5,145.5 303.5,118.5C 281.5,118.5 259.5,118.5 237.5,118.5C 237.5,117.833 237.5,117.167 237.5,116.5 Z"/></g>
<g><path style="opacity:0.981" fill="#17191f" d="M 304.5,168.5 C 329.138,170.019 353.805,170.685 378.5,170.5C 378.5,171.5 378.5,172.5 378.5,173.5C 369.168,178.498 359.835,183.498 350.5,188.5C 338.026,186.941 325.359,185.941 312.5,185.5C 310.052,184.527 307.385,184.194 304.5,184.5C 304.5,179.167 304.5,173.833 304.5,168.5 Z"/></g>
<g><path style="opacity:0.532" fill="#46c5e2" d="M 39.5,150.5 C 39.8333,151.167 40.1667,151.833 40.5,152.5C 40.5,157.5 40.5,162.5 40.5,167.5C 46.5941,167.932 49.5941,171.265 49.5,177.5C 47.5797,187.129 41.913,189.962 32.5,186C 31.2986,185.097 30.4652,183.931 30,182.5C 29.3333,179.167 29.3333,175.833 30,172.5C 31.4103,169.211 33.9103,167.544 37.5,167.5C 37.3342,162.821 37.5008,158.155 38,153.5C 38.2321,152.263 38.7321,151.263 39.5,150.5 Z M 37.5,169.5 C 46.8417,170.849 49.175,175.516 44.5,183.5C 37.5634,186.698 33.2301,184.532 31.5,177C 32.2741,173.405 34.2741,170.905 37.5,169.5 Z"/></g>
<g><path style="opacity:1" fill="#6ccfbd" d="M 115.5,183.5 C 114.586,186.728 114.253,190.061 114.5,193.5C 112.247,191.409 110.58,188.909 109.5,186C 110.236,182.472 112.236,181.638 115.5,183.5 Z"/></g>
<g><path style="opacity:1" fill="#86d280" d="M 114.5,193.5 C 114.253,190.061 114.586,186.728 115.5,183.5C 118.79,181.712 120.456,182.712 120.5,186.5C 119.936,190.064 117.936,192.398 114.5,193.5 Z"/></g>
<g><path style="opacity:0.988" fill="#181a20" d="M 304.5,186.5 C 319.324,187.421 333.991,188.421 348.5,189.5C 340.368,194.737 332.035,199.737 323.5,204.5C 312.539,203.304 301.539,202.304 290.5,201.5C 294.97,200.514 299.637,200.181 304.5,200.5C 304.5,195.833 304.5,191.167 304.5,186.5 Z"/></g>
<g><path style="opacity:1" fill="#9a9b9e" d="M 304.5,186.5 C 306.948,185.527 309.615,185.194 312.5,185.5C 325.359,185.941 338.026,186.941 350.5,188.5C 350.158,189.338 349.492,189.672 348.5,189.5C 333.991,188.421 319.324,187.421 304.5,186.5 Z"/></g>
<g><path style="opacity:1" fill="#838487" d="M 129.5,183.5 C 137.261,183.631 140.261,187.631 138.5,195.5C 135.482,195.665 132.482,195.498 129.5,195C 126.915,191.163 127.249,190.829 130.5,194C 134.197,195.154 136.197,193.821 136.5,190C 136.441,188.564 136.108,187.231 135.5,186C 133.167,185.667 130.833,185.333 128.5,185C 129.056,184.617 129.389,184.117 129.5,183.5 Z"/></g>
<g><path style="opacity:1" fill="#909194" d="M 148.5,184.5 C 151.167,184.5 153.833,184.5 156.5,184.5C 155.141,188.882 152.974,192.882 150,196.5C 148.837,194.715 148.17,192.715 148,190.5C 141.956,187.509 142.122,185.509 148.5,184.5 Z"/></g>
<g><path style="opacity:1" fill="#969699" d="M 236.5,35.5 C 237.498,62.3282 237.831,89.3282 237.5,116.5C 237.5,117.167 237.5,117.833 237.5,118.5C 237.5,127.5 237.5,136.5 237.5,145.5C 237.176,152.354 237.509,159.021 238.5,165.5C 237.527,175.084 237.194,184.75 237.5,194.5C 237.5,195.833 237.5,197.167 237.5,198.5C 255.185,199.199 272.852,200.199 290.5,201.5C 301.539,202.304 312.539,203.304 323.5,204.5C 322.791,205.404 321.791,205.737 320.5,205.5C 292.851,203.422 265.184,201.422 237.5,199.5C 237.5,204.833 237.5,210.167 237.5,215.5C 256.776,216.468 275.776,218.468 294.5,221.5C 294.158,222.338 293.492,222.672 292.5,222.5C 274.621,220.585 256.621,218.585 238.5,216.5C 237.504,222.463 237.171,228.463 237.5,234.5C 247.181,234.978 256.848,235.645 266.5,236.5C 265.71,237.401 264.71,238.068 263.5,238.5C 253.474,237.385 243.474,236.051 233.5,234.5C 234.5,234.5 235.5,234.5 236.5,234.5C 236.5,168.167 236.5,101.833 236.5,35.5 Z"/></g>
<g><path style="opacity:1" fill="#818286" d="M 110.5,198.5 C 114.319,198.751 117.986,198.918 121.5,199C 124.439,201.973 124.105,204.473 120.5,206.5C 117.223,205.746 113.89,205.246 110.5,205C 109.232,202.837 109.232,200.67 110.5,198.5 Z"/></g>
<g><path style="opacity:1" fill="#e7e8e8" d="M 111.5,199.5 C 114.956,200.536 115.29,202.203 112.5,204.5C 110.296,203.218 109.962,201.551 111.5,199.5 Z"/></g>
<g><path style="opacity:0.996" fill="#181a20" d="M 320.5,205.5 C 312.171,211.334 303.504,216.667 294.5,221.5C 275.776,218.468 256.776,216.468 237.5,215.5C 237.5,210.167 237.5,204.833 237.5,199.5C 265.184,201.422 292.851,203.422 320.5,205.5 Z"/></g>
<g><path style="opacity:1" fill="#aeaeae" d="M 127.5,201.5 C 128.943,202.335 129.943,203.668 130.5,205.5C 131.333,204.5 132.167,203.5 133,202.5C 135.333,203.167 137.667,203.833 140,204.5C 143.164,201.855 144.331,202.855 143.5,207.5C 138.327,207.49 132.993,207.157 127.5,206.5C 127.5,204.833 127.5,203.167 127.5,201.5 Z"/></g>
<g><path style="opacity:1" fill="#adadad" d="M 155.5,204.5 C 158.238,203.965 160.072,204.965 161,207.5C 162.525,206.28 164.359,205.613 166.5,205.5C 169.89,205.931 173.057,206.264 176,206.5C 176.333,205.833 176.667,205.167 177,204.5C 179.575,206.061 181.742,207.395 183.5,208.5C 182.917,210.002 182.084,211.335 181,212.5C 179.246,210.75 177.079,210.083 174.5,210.5C 174.649,209.448 174.483,208.448 174,207.5C 172.246,209.25 170.079,209.917 167.5,209.5C 167.5,208.5 167.5,207.5 167.5,206.5C 164.342,207.876 161.009,208.542 157.5,208.5C 157.307,204.551 156.807,204.551 156,208.5C 155.51,207.207 155.343,205.873 155.5,204.5 Z"/></g>
<g><path style="opacity:0.965" fill="#191b20" d="M 95.5,208.5 C 95.5,211.833 95.5,215.167 95.5,218.5C 88.1445,218.053 80.8111,217.386 73.5,216.5C 80.3873,212.868 87.7206,210.202 95.5,208.5 Z"/></g>
<g><path style="opacity:0.998" fill="#191b21" d="M 71.5,216.5 C 71.6107,217.117 71.944,217.617 72.5,218C 81.0611,218.128 89.3944,219.294 97.5,221.5C 118.116,223.969 138.783,225.969 159.5,227.5C 164.269,228.889 169.269,229.556 174.5,229.5C 194.161,231.261 213.827,232.928 233.5,234.5C 243.474,236.051 253.474,237.385 263.5,238.5C 255.671,242.58 248.004,246.913 240.5,251.5C 235.584,252.611 230.584,252.778 225.5,252C 162.787,244.161 100.121,236.328 37.5,228.5C 48.7624,224.547 60.0957,220.547 71.5,216.5 Z"/></g>
<g><path style="opacity:1" fill="#898a8d" d="M 159.5,227.5 C 164.731,227.444 169.731,228.111 174.5,229.5C 169.269,229.556 164.269,228.889 159.5,227.5 Z"/></g>
<g><path style="opacity:1" fill="#17191f" d="M 35.5,229.5 C 101.03,238.308 166.696,246.475 232.5,254C 232.833,254.333 233.167,254.667 233.5,255C 225.658,261.191 221.991,269.358 222.5,279.5C 156.107,271.909 89.7733,263.909 23.5,255.5C 21.5606,244.102 25.5606,235.436 35.5,229.5 Z"/></g>
<g><path style="opacity:1" fill="#fbfbfb" d="M 247.5,253.5 C 245.167,252.833 242.833,252.167 240.5,251.5C 248.004,246.913 255.671,242.58 263.5,238.5C 264.71,238.068 265.71,237.401 266.5,236.5C 270.247,233.96 274.247,231.96 278.5,230.5C 295.135,232.33 311.802,233.83 328.5,235C 304.333,252.5 280.167,270 256,287.5C 256.015,284.43 256.682,281.43 258,278.5C 259.549,270.881 258.216,263.881 254,257.5C 252.362,255.266 250.195,253.933 247.5,253.5 Z"/></g>
<g><path style="opacity:0.997" fill="#1b1d23" d="M 292.5,222.5 C 288.829,224.669 285.162,226.835 281.5,229C 297.828,230.407 314.161,231.74 330.5,233C 331.451,233.718 331.617,234.551 331,235.5C 304.567,254.3 278.4,273.467 252.5,293C 248.357,296.241 243.69,298.074 238.5,298.5C 236.647,296.554 234.314,295.054 231.5,294C 229.266,291.937 227.266,289.771 225.5,287.5C 222.881,277.155 224.547,267.655 230.5,259C 235.217,254.312 240.884,252.478 247.5,253.5C 250.195,253.933 252.362,255.266 254,257.5C 258.216,263.881 259.549,270.881 258,278.5C 256.682,281.43 256.015,284.43 256,287.5C 280.167,270 304.333,252.5 328.5,235C 311.802,233.83 295.135,232.33 278.5,230.5C 274.247,231.96 270.247,233.96 266.5,236.5C 256.848,235.645 247.181,234.978 237.5,234.5C 237.171,228.463 237.504,222.463 238.5,216.5C 256.621,218.585 274.621,220.585 292.5,222.5 Z"/></g>
<g><path style="opacity:0.993" fill="#18191f" d="M 23.5,257.5 C 90.2083,265.108 156.875,273.108 223.5,281.5C 223.054,284.01 223.72,286.01 225.5,287.5C 227.064,291.729 229.731,295.063 233.5,297.5C 167.151,289.553 100.817,281.387 34.5,273C 27.7403,269.966 24.0737,264.799 23.5,257.5 Z"/></g>
<g><path style="opacity:1" fill="#f3f3f4" d="M 238.5,266.5 C 247.463,266.762 249.963,271.095 246,279.5C 239.719,285.666 235.552,284.333 233.5,275.5C 233.921,271.76 235.588,268.76 238.5,266.5 Z"/></g>
<g><path style="opacity:1" fill="#959699" d="M 35.5,229.5 C 35.8417,228.662 36.5084,228.328 37.5,228.5C 100.121,236.328 162.787,244.161 225.5,252C 230.584,252.778 235.584,252.611 240.5,251.5C 242.833,252.167 245.167,252.833 247.5,253.5C 240.884,252.478 235.217,254.312 230.5,259C 224.547,267.655 222.881,277.155 225.5,287.5C 223.72,286.01 223.054,284.01 223.5,281.5C 156.875,273.108 90.2083,265.108 23.5,257.5C 23.5,256.833 23.5,256.167 23.5,255.5C 89.7733,263.909 156.107,271.909 222.5,279.5C 221.991,269.358 225.658,261.191 233.5,255C 233.167,254.667 232.833,254.333 232.5,254C 166.696,246.475 101.03,238.308 35.5,229.5 Z"/></g>
<g><path style="opacity:1" fill="#9d9ea0" d="M 225.5,287.5 C 227.266,289.771 229.266,291.937 231.5,294C 234.314,295.054 236.647,296.554 238.5,298.5C 236.585,298.784 234.919,298.451 233.5,297.5C 229.731,295.063 227.064,291.729 225.5,287.5 Z"/></g>
</svg>
