<svg width="382" height="392" viewBox="0 0 382 392" fill="none" xmlns="http://www.w3.org/2000/svg">
<path d="M261.603 370.186C261.084 370.706 256.932 370.576 252.262 369.926L243.829 368.888L253.17 369.018C258.36 369.147 262.122 369.667 261.603 370.186Z" fill="#FDC69F" fill-opacity="0.3"/>
<path d="M207.502 365.512C200.756 365.382 199.718 364.992 199.329 362.785C198.81 360.448 198.94 360.318 200.626 362.395C201.664 363.824 204.648 364.863 208.8 365.122C214.508 365.512 214.249 365.642 207.502 365.512Z" fill="#FDC69F" fill-opacity="0.3"/>
<path d="M332.051 333.181C331.272 333.44 327.899 332.531 324.267 331.103C320.764 329.675 318.299 328.506 319.077 328.376C319.855 328.376 323.229 329.285 326.861 330.584C330.364 331.752 332.829 332.921 332.051 333.181Z" fill="#FDC69F" fill-opacity="0.3"/>
<path d="M275.615 335.907C277.042 332.661 279.247 329.675 280.545 329.285C281.712 328.896 283.269 328.636 284.048 328.636C284.696 328.636 283.788 329.285 281.842 329.934C279.377 330.843 277.691 332.921 276.393 336.946C275.226 340.062 274.058 342.529 273.669 342.399C273.279 342.14 274.188 339.283 275.615 335.907Z" fill="#FDC69F" fill-opacity="0.3"/>
<path d="M290.535 326.169L293.129 324.091C294.557 322.923 296.892 321.884 298.319 321.884C299.746 321.884 302.989 322.793 305.455 323.832C309.606 325.779 309.736 325.779 306.103 325C304.027 324.481 300.784 323.962 298.968 323.962C297.151 323.962 294.557 324.481 290.535 326.169Z" fill="#FDC69F" fill-opacity="0.3"/>
<path d="M178.311 316.041C176.106 315.652 174.16 314.872 173.77 314.093C173.381 313.314 174.808 313.444 177.273 314.353C179.609 315.132 183.89 317.34 186.744 319.287C191.545 322.533 192.063 323.572 193.62 331.752C194.658 336.686 195.047 340.971 194.658 341.361C194.399 341.75 193.231 337.725 192.323 332.531C191.026 325.13 189.988 322.533 187.782 321.105C186.096 320.066 184.798 319.677 184.798 320.326C184.798 320.845 184.149 320.196 183.501 319.027C182.722 317.729 180.517 316.431 178.311 316.041Z" fill="#FDC69F" fill-opacity="0.3"/>
<path d="M178.96 313.964C178.181 313.964 174.808 313.185 171.176 312.276C167.673 311.237 165.856 310.458 167.283 310.458C168.711 310.458 172.214 311.107 175.068 312.146C177.922 313.055 179.738 313.834 178.96 313.964Z" fill="#A6C3E9" fill-opacity="0.9"/>
<path d="M343.727 328.376C342.43 329.415 345.025 325.26 349.436 319.027V318.898C353.977 312.665 357.739 307.601 357.998 307.601C358.388 307.601 358.128 308.38 357.739 309.159C357.22 310.068 354.366 314.353 351.382 318.638C348.398 322.923 344.895 327.338 343.727 328.376Z" fill="#FDC69F" fill-opacity="0.3"/>
<path d="M84.8998 304.874C87.1054 303.836 88.9217 302.667 88.7919 302.148V302.018C88.7919 301.499 89.8299 301.109 90.9975 301.109C93.0733 301.109 93.0733 301.369 91.3867 302.537C90.3488 303.186 87.1054 305.004 84.3809 306.433C81.5266 307.861 79.7103 308.51 80.0995 307.861C80.6184 307.212 82.6943 305.783 84.8998 304.874Z" fill="#FDC69F" fill-opacity="0.3"/>
<path d="M361.112 304.355C358.907 306.303 359.166 305.524 362.41 300.849V300.719C364.615 297.343 366.821 294.617 367.08 294.617C367.34 294.617 366.821 296.175 365.783 298.123C364.875 300.2 362.799 302.927 361.112 304.355Z" fill="#FDC69F" fill-opacity="0.3"/>
<path d="M97.2249 293.188C95.7978 293.188 92.5543 292.28 90.0893 291.241L85.5485 289.423L90.0893 290.202C92.5543 290.721 95.7978 291.5 99.8197 293.188H97.2249Z" fill="#FDC69F" fill-opacity="0.3"/>
<path d="M75.5586 311.756C75.5586 311.107 88.1432 304.225 103.842 296.305C119.41 288.254 132.643 282.152 133.162 282.671C133.681 283.19 136.406 290.592 139.39 299.161C142.374 307.731 146.785 320.715 149.25 327.987C151.715 335.388 153.401 341.62 153.012 342.01C152.623 342.399 149.25 341.491 145.617 339.932C141.855 338.504 137.444 336.686 135.887 336.037C133.292 334.998 132.643 335.388 131.476 338.374C130.827 340.452 125.638 353.306 120.189 367.07C114.74 380.833 109.68 392 108.901 392C108.123 392 100.858 389.403 92.6841 386.157C84.5106 383.041 76.856 379.665 75.6884 378.756C73.7423 377.198 74.5207 374.341 95.9275 320.586L90.738 318.119C87.8837 316.82 83.3429 315.132 80.7482 314.353C78.0237 313.444 75.6884 312.276 75.5586 311.756Z" fill="#FEE258"/>
<path d="M70.6286 285.398C69.5907 285.398 65.1796 284.359 60.8982 283.061C56.6169 281.632 53.7626 280.464 54.4113 280.464C55.06 280.334 59.4711 281.503 64.1417 282.801C68.8122 284.229 71.6665 285.398 70.6286 285.398Z" fill="#FDC69F" fill-opacity="0.3"/>
<path d="M250.316 279.295C246.683 279.944 240.975 279.944 237.342 279.295C231.634 278.386 232.412 278.256 243.829 278.256C255.246 278.256 256.024 278.386 250.316 279.295Z" fill="#FDC69F" fill-opacity="0.3"/>
<path d="M39.4915 276.958C37.0264 276.439 32.8748 275.27 30.4098 274.361L25.869 272.543L30.4098 273.322C32.8748 273.842 37.0264 275.01 44.0323 277.737L39.4915 276.958Z" fill="#FDC69F" fill-opacity="0.3"/>
<path d="M7.31653 268.129C3.68386 266.96 0.31067 265.661 0.0511937 265.142V265.012C-0.208282 264.493 3.29465 265.272 7.83548 266.7C12.506 268.129 15.7495 269.427 15.2305 269.687C14.5819 269.946 11.0789 269.297 7.31653 268.129Z" fill="#FDC69F" fill-opacity="0.3"/>
<path d="M1.47824 264.623C0.310595 263.973 -0.338095 262.805 0.180857 262.026C0.829548 260.987 1.3485 260.987 1.86745 262.026C2.25667 262.805 9.522 265.402 18.0847 267.869C26.6474 270.206 47.665 276.179 64.7904 280.983C81.9158 285.657 99.171 290.721 103.063 292.02C106.955 293.318 109.161 294.487 107.863 294.487C106.696 294.617 101.766 293.448 96.8357 292.02C92.0354 290.721 74.391 285.657 57.6548 280.983L56.8036 280.745C40.2771 276.13 21.7396 270.952 15.4899 269.037C9.00305 267.22 2.77562 265.142 1.47824 264.623Z" fill="#A6C3E9" fill-opacity="0.9"/>
<path d="M266.793 273.192C270.295 271.375 275.744 267.09 279.247 263.454H279.118L285.605 256.962C285.864 256.962 284.956 258.52 283.529 260.598C282.231 262.545 278.858 265.921 276.134 268.129C273.409 270.336 269.128 273.192 266.793 274.361C264.587 275.53 262.252 276.439 261.603 276.439C261.084 276.309 263.419 274.88 266.793 273.192Z" fill="#FDC69F" fill-opacity="0.3"/>
<path d="M366.431 273.192C366.042 273.582 362.28 269.297 357.998 263.844C353.717 258.26 350.993 254.105 351.901 254.625C352.679 255.274 355.923 259.039 358.907 263.065C361.891 267.22 364.875 270.985 365.653 271.505C366.431 272.024 366.821 272.673 366.431 273.192Z" fill="#FDC69F" fill-opacity="0.3"/>
<path d="M213.989 269.946C213.73 269.557 214.378 265.921 215.676 261.766C216.843 257.741 217.881 254.625 218.011 254.884C218.141 255.274 217.362 258.91 216.324 263.065C215.416 267.22 214.249 270.336 213.989 269.946Z" fill="#A6C3E9" fill-opacity="0.9"/>
<path d="M286.642 255.663C286.253 255.274 287.291 252.028 288.718 248.262C290.275 244.627 291.702 242.16 291.962 242.809C292.221 243.458 291.313 246.704 289.886 250.08C288.459 253.586 287.032 256.053 286.642 255.663Z" fill="#FDC69F" fill-opacity="0.3"/>
<path d="M218.79 256.572C218.66 256.443 219.438 252.677 220.736 248.262C222.033 243.848 223.201 240.472 223.201 240.861C223.33 241.121 222.422 244.886 221.255 249.171C220.087 253.456 219.049 256.702 218.79 256.572Z" fill="#FDC69F" fill-opacity="0.3"/>
<path d="M349.306 252.028C348.787 251.508 348.787 247.743 349.176 243.718V243.588C349.565 239.563 350.084 236.187 350.474 236.187C350.733 236.187 350.733 239.952 350.603 244.497C350.344 249.171 349.825 252.547 349.306 252.028Z" fill="#FDC69F" fill-opacity="0.3"/>
<path d="M218.79 252.677C218.66 252.547 220.087 246.704 222.033 239.822C224.109 232.941 225.795 227.487 225.795 227.747C225.925 228.007 224.498 233.72 222.552 240.602C220.736 247.483 219.049 252.937 218.79 252.677Z" fill="#A6C3E9" fill-opacity="0.9"/>
<path d="M202.442 230.344L204.259 227.487V227.357C205.297 225.799 206.724 224.501 207.373 224.501C208.151 224.501 209.967 225.28 211.394 226.448C213.73 228.136 213.73 228.266 211.654 228.396C210.486 228.396 209.448 227.747 209.448 227.098C209.448 226.319 207.891 226.838 202.442 230.344Z" fill="#A6C3E9" fill-opacity="0.9"/>
<path d="M209.059 221.904C208.929 222.553 207.243 222.164 205.297 220.865L201.924 218.658L206.594 218.268C209.708 218.009 212.043 218.658 213.341 219.956C214.768 221.514 214.897 222.423 213.859 223.592C212.692 224.761 212.043 224.761 211.265 223.202C210.357 221.774 210.616 221.514 211.654 222.293C212.562 222.813 213.341 222.683 213.341 221.904C213.341 221.125 212.432 220.606 211.394 220.606C210.357 220.606 209.319 221.125 209.059 221.904Z" fill="#A6C3E9" fill-opacity="0.9"/>
<path d="M351.122 229.045C350.993 228.656 353.977 225.54 357.739 221.904H357.609C361.372 218.398 365.004 215.542 365.653 215.412C366.302 215.412 363.318 218.658 359.166 222.553C354.885 226.448 351.382 229.305 351.122 229.045Z" fill="#FDC69F" fill-opacity="0.3"/>
<path d="M8.61379 235.797C8.48405 235.667 9.65169 230.733 11.2086 224.89C12.8951 219.047 14.3223 214.373 14.3223 214.633C14.452 214.892 13.2844 219.956 11.7275 225.669C10.3004 231.383 8.87327 236.057 8.61379 235.797Z" fill="#A6C3E9" fill-opacity="0.9"/>
<path d="M226.574 229.305C226.444 229.175 227.352 225.41 228.52 220.995C229.817 216.58 230.985 213.204 230.985 213.464C231.115 213.854 230.206 217.619 229.039 221.904C227.871 226.189 226.833 229.435 226.574 229.305Z" fill="#FDC69F" fill-opacity="0.3"/>
<path d="M289.627 212.815C288.199 209.569 286.772 206.193 286.643 205.414V205.284C286.383 204.505 286.513 203.726 286.772 203.726C287.032 203.726 288.459 206.193 289.886 209.179C291.313 212.295 292.481 215.671 292.481 216.71C292.481 217.749 291.183 216.061 289.627 212.815Z" fill="#FDC69F" fill-opacity="0.3"/>
<path d="M367.08 214.503L373.567 207.881C377.07 204.115 380.443 201.129 380.962 201.129C381.481 201.129 382 201.259 382 201.518C382 201.648 378.627 204.635 367.08 214.503Z" fill="#FDC69F" fill-opacity="0.3"/>
<path d="M229.169 216.321C229.039 216.191 229.947 212.425 231.115 208.011C232.412 203.596 233.58 200.09 233.58 200.35C233.709 200.739 232.801 204.505 231.634 208.79C230.466 213.074 229.428 216.58 229.169 216.321Z" fill="#A6C3E9" fill-opacity="0.9"/>
<path d="M200.496 207.751C200.626 207.102 201.145 205.024 201.794 203.206C202.442 201.389 203.091 199.83 203.351 199.83C203.61 199.83 203.74 201.648 203.48 203.726C203.091 206.582 203.48 207.621 204.907 207.621C205.945 207.621 207.243 208.4 207.891 209.309C208.41 210.088 209.578 210.867 210.486 210.867C211.265 210.867 212.951 210.997 213.989 211.257C215.027 211.387 215.935 212.295 215.935 213.204C216.065 213.983 215.287 215.412 214.378 216.321C213.47 217.23 210.227 218.138 207.243 218.268C202.572 218.658 201.405 219.307 199.458 222.943C198.161 225.15 196.734 227.098 196.215 227.098C195.566 227.098 195.177 227.617 195.177 228.396C195.177 229.175 196.475 229.954 198.161 230.214C199.718 230.474 202.702 229.695 204.907 228.396C207.762 226.838 209.189 226.578 210.227 227.617C211.265 228.656 211.265 230.474 209.967 234.239C209.059 237.096 207.243 243.458 205.945 248.392C204.648 253.326 203.221 257.481 202.702 257.741C202.053 258.001 200.237 255.014 198.421 251.119C196.604 247.224 194.788 240.602 194.399 236.576C193.88 232.421 193.88 225.669 194.399 221.644C194.918 216.71 196.085 213.204 197.772 211.516C199.199 210.088 200.367 208.4 200.496 207.751Z" fill="#23C3F2"/>
<path d="M203.48 203.985C203.74 202.038 204.129 200.09 204.129 199.571V199.441C204.259 198.922 204.518 198.532 204.908 198.532C205.167 198.532 205.167 199.571 204.778 200.739C204.259 202.427 204.518 202.817 205.686 202.168C206.724 201.648 208.281 202.427 209.448 204.115C210.486 205.544 212.692 208.011 214.249 209.439C215.806 210.997 217.103 212.685 217.103 213.464C217.233 214.243 216.714 213.983 216.195 213.075C215.676 212.166 213.73 211.257 211.784 211.127C209.838 210.997 207.892 210.088 207.502 209.179C207.113 208.4 205.945 207.621 204.908 207.621C203.48 207.621 203.091 206.582 203.48 203.985Z" fill="#A6C3E9" fill-opacity="0.9"/>
<path d="M128.622 201.908C130.438 202.557 130.697 202.168 130.049 200.739H129.919C129.27 199.181 129.53 198.792 130.957 199.311C131.995 199.571 132.643 200.35 132.254 201.129C131.865 201.908 133.033 202.947 134.849 203.726C136.665 204.505 138.352 205.544 138.741 206.323C139.13 207.102 139.26 207.621 139.001 207.621C138.871 207.621 136.406 206.452 133.552 205.024C128.622 202.557 128.362 202.557 127.454 204.635C126.805 206.582 126.546 206.452 126.546 204.115C126.416 201.778 126.935 201.259 128.622 201.908Z" fill="#A6C3E9" fill-opacity="0.9"/>
<path d="M283.529 200.48C281.842 199.051 279.247 196.195 277.82 193.987L275.096 190.092L278.08 192.689C279.766 194.117 282.361 196.974 286.513 203.077L283.529 200.48Z" fill="#FDC69F" fill-opacity="0.3"/>
<path d="M101.766 190.741C101.766 190.092 99.8197 189.183 97.6142 189.053C93.4625 188.534 93.4625 188.534 98.2629 188.404C100.858 188.274 103.063 188.534 103.063 189.183C103.063 189.703 104.361 190.092 106.047 190.092C107.95 190.092 108.728 190.741 108.382 192.04C108.123 193.598 108.382 193.728 110.069 192.429C111.756 191.131 112.275 191.131 112.794 192.429C113.139 193.468 114.091 192.992 115.648 191.001C116.945 189.313 118.372 188.015 119.021 188.144C119.54 188.144 119.67 188.534 119.41 189.183C119.151 189.703 119.929 190.092 121.356 190.092C122.654 190.092 123.821 189.703 123.821 189.183C123.821 188.534 124.6 188.923 125.638 189.832C127.324 191.131 127.324 191.65 125.378 193.078C124.21 193.987 123.692 194.637 124.47 194.637C125.248 194.637 124.859 195.286 123.821 195.935C122.783 196.584 121.356 197.234 120.578 197.234C119.799 197.234 119.929 196.714 120.837 196.195C121.875 195.589 121.313 194.766 119.151 193.728C117.464 192.819 116.037 192.429 116.037 193.078C116.037 193.598 114.221 194.507 111.885 195.026C108.512 195.805 107.993 196.325 109.55 197.234C110.588 197.883 111.107 198.662 110.588 199.051C109.939 199.441 109.031 199.571 108.253 199.181C107.474 198.792 106.955 197.363 106.955 195.935C106.955 194.377 106.047 193.338 104.75 193.338C102.804 193.208 102.674 193.598 104.101 195.286C105.398 196.844 105.269 197.363 103.712 197.883C102.544 198.272 102.155 199.181 102.804 200.09C103.409 201.215 103.193 201.432 102.155 200.739C101.117 200.22 100.728 198.402 101.117 196.584C101.506 194.766 101.377 193.338 100.858 193.338C100.209 193.208 98.9115 194.117 97.8736 195.286C96.3168 196.844 95.5384 196.974 94.241 195.675C93.3328 194.766 92.5544 193.468 92.6841 192.689C92.6841 191.91 93.3328 192.429 93.9815 193.728C94.7599 194.896 96.0573 195.546 96.9655 195.156C98.1331 194.507 98.0034 193.987 96.5763 193.208C95.1491 192.429 95.5384 192.04 98.2629 192.04C100.209 192.04 101.766 191.52 101.766 190.741Z" fill="#A6C3E9" fill-opacity="0.9"/>
<path d="M233.32 206.323C233.061 205.933 234.099 201.389 235.785 196.195C237.342 191.001 238.639 187.106 238.769 187.365C238.769 187.755 237.731 192.299 236.434 197.493C235.007 202.687 233.709 206.712 233.32 206.323Z" fill="#FDC69F" fill-opacity="0.3"/>
<path d="M157.553 190.092C157.553 189.703 158.332 188.534 159.24 187.495H159.11C160.018 186.456 160.926 185.677 161.056 185.548C161.316 185.548 161.056 186.456 160.797 187.495C160.407 188.534 161.056 189.832 162.094 190.482C163.262 191.001 164.818 190.741 165.727 189.832C166.894 188.664 167.673 188.794 168.84 190.222C169.749 191.261 171.046 192.04 171.824 192.04C172.603 192.04 172.862 191.52 172.603 190.741C172.214 189.962 172.862 189.443 173.9 189.443C174.938 189.443 175.976 190.352 176.365 191.391C176.754 192.429 178.441 193.338 180.257 193.338C182.074 193.338 183.76 194.117 184.02 195.026C184.279 195.805 185.058 195.156 185.577 193.468C186.614 190.611 186.874 190.482 188.95 192.559C190.247 193.728 191.804 194.637 192.582 194.637C193.361 194.637 194.399 195.675 195.047 196.974C195.566 198.142 195.956 199.96 195.696 200.869C195.437 201.648 196.085 202.687 197.123 203.077C198.161 203.466 199.069 204.635 199.069 205.673C199.069 206.712 198.291 208.011 197.383 208.53C196.345 209.222 196.129 209.006 196.734 207.881C197.426 206.842 196.777 206.193 194.788 205.933C192.453 205.673 191.934 204.894 191.934 201.518C191.934 199.311 191.674 197.753 191.285 198.013C190.896 198.272 189.858 197.753 188.82 196.844C187.263 195.546 187.133 195.675 187.912 197.883C188.82 200.09 188.69 200.22 187.133 198.792C186.096 197.753 183.371 197.363 179.219 197.883C174.549 198.402 172.732 199.181 171.695 201.389C170.267 204.245 170.267 204.245 172.603 202.168C174.938 200.09 175.457 200.09 182.593 202.168C186.744 203.336 189.988 205.154 189.988 205.933C189.988 206.842 189.339 207.232 188.561 206.582C187.782 206.063 186.614 206.582 185.966 207.621C185.317 208.66 183.76 209.699 182.593 209.958C181.295 210.218 178.441 210.607 176.365 210.737C174.16 210.997 171.695 210.997 170.786 210.737C170.008 210.478 169.23 209.699 169.23 208.92C169.23 208.14 170.397 207.361 171.824 206.972C173.251 206.582 174.419 205.544 174.289 204.635C174.289 203.336 174.16 203.336 173.641 204.635C173.381 205.544 172.214 206.063 171.176 205.673C170.138 205.284 168.97 205.933 168.581 206.972C168.192 208.011 166.765 208.79 165.208 208.53C163.781 208.4 161.575 207.232 160.407 205.933C158.332 203.726 158.332 203.596 160.797 203.726C162.224 203.726 164.17 204.375 165.078 205.284C166.375 206.582 166.635 206.582 166.635 205.414C166.635 204.505 165.467 203.466 164.04 203.077C162.613 202.687 161.445 201.908 161.445 201.129C161.445 200.35 160.018 199.83 158.202 199.83C156.385 199.83 154.958 199.311 154.958 198.532C154.958 197.753 157.294 197.493 161.056 198.013C164.559 198.402 168.581 198.402 170.138 198.013C172.084 197.493 172.862 196.584 172.473 195.286C172.084 194.247 171.435 193.598 170.786 193.987C170.267 194.247 167.154 193.728 163.651 192.689C160.278 191.65 157.553 190.482 157.553 190.092Z" fill="#FEA4E0"/>
<path d="M83.4727 192.04C85.0296 189.183 84.8998 188.534 82.824 187.106C81.3969 186.197 80.878 185.548 81.6564 185.418C82.3051 185.418 83.7322 186.327 84.5106 187.495C85.4188 188.534 85.9377 190.092 85.5485 190.741C85.1593 191.52 86.327 192.04 88.1433 192.04C90.4786 192.04 91.3867 192.689 91.3867 194.637C91.3867 196.065 90.9975 197.234 90.3488 197.234C89.8299 197.363 88.6622 196.454 87.7541 195.286C86.8459 194.117 85.4188 193.728 83.9917 194.377C82.0456 195.156 81.9159 194.896 83.4727 192.04Z" fill="#A6C3E9" fill-opacity="0.9"/>
<path d="M128.622 188.144C129.919 188.274 132.384 187.106 134.2 185.677C136.017 184.249 138.222 183.08 139.001 182.951C139.909 182.951 140.687 183.47 140.687 184.249C140.687 185.028 143.931 186.067 147.823 186.846C153.791 187.885 154.699 188.534 153.661 190.092C152.623 191.65 151.585 191.78 149.12 190.741C147.304 189.962 145.487 189.443 144.839 189.443C144.32 189.443 143.801 190.482 143.801 191.65C143.671 192.949 144.45 193.987 145.487 193.987C146.655 193.987 147.693 194.766 147.953 195.675C148.212 196.454 147.563 197.234 146.525 197.234C145.487 197.234 144.45 197.883 144.19 198.792C144.06 199.701 143.152 199.96 141.985 199.311C140.557 198.532 140.428 197.883 141.595 196.714C142.374 195.935 142.763 194.247 142.504 193.078C142.114 191.52 140.687 190.741 138.092 190.741C135.887 190.741 134.46 191.261 134.849 192.04C135.238 192.819 134.979 193.598 134.2 193.987C133.422 194.377 131.476 193.598 129.659 192.429C127.973 191.131 126.416 189.703 126.416 189.183C126.416 188.534 127.454 188.144 128.622 188.144Z" fill="#FEA4E0"/>
<path d="M18.9929 199.441C18.8632 199.311 19.7713 195.286 20.939 190.482C22.2363 185.677 23.404 181.912 23.404 182.172C23.5337 182.431 22.6256 186.456 21.4579 191.261C20.2903 195.935 19.2524 199.701 18.9929 199.441Z" fill="#A6C3E9" fill-opacity="0.9"/>
<path d="M224.628 184.768C223.979 184.119 225.406 182.951 227.871 182.042C230.206 181.263 233.709 180.484 239.288 180.354L226.963 222.813C220.217 246.315 214.378 266.181 213.989 266.96C213.47 268.258 212.562 268.258 210.746 267.349C209.319 266.57 207.243 264.493 205.945 262.415C203.999 259.039 203.999 258.39 207.243 247.224C209.059 240.731 211.135 233.59 211.913 231.253C213.211 227.487 213.081 226.968 210.097 225.41C207.113 223.981 206.594 224.111 204.908 226.708C203.87 228.396 201.794 229.695 200.367 229.695C198.94 229.695 197.772 228.786 197.772 227.747C197.772 226.448 198.637 226.016 200.367 226.448C201.794 226.838 202.961 226.578 202.961 225.799C202.961 225.02 202.183 224.371 201.145 224.111C199.588 223.981 199.588 223.462 200.756 221.644C202.183 219.567 202.572 219.567 207.502 221.904C210.875 223.592 213.211 223.981 213.989 223.202C214.854 222.423 214.638 221.341 213.341 219.956C211.913 218.528 211.913 217.879 213.081 218.009C213.859 218.009 215.157 216.84 215.935 215.412C216.973 213.334 216.584 212.166 214.378 209.828C212.692 208.14 210.486 205.544 209.448 204.115C208.41 202.557 206.983 201.648 206.205 201.908C205.426 202.168 204.908 201.259 204.908 199.96C204.908 198.532 205.167 197.104 205.556 196.714C205.945 196.325 208.8 198.142 212.043 200.609C215.287 203.077 218.271 205.154 218.919 205.024C219.438 205.024 217.103 202.557 207.892 193.987L211.654 191.001C213.6 189.313 216.843 187.106 218.919 186.067C220.865 185.158 223.201 184.639 224.109 185.158C225.017 185.548 225.276 185.418 224.628 184.768Z" fill="#F8F9FB"/>
<path d="M260.046 182.301C259.657 182.561 254.986 182.042 249.667 181.133C244.348 180.094 241.494 179.315 243.44 179.185C245.515 179.055 250.186 179.704 253.819 180.484C257.581 181.133 260.435 182.042 260.046 182.301Z" fill="#FDC69F" fill-opacity="0.3"/>
<path d="M234.358 198.142C234.099 198.013 235.266 193.598 236.953 188.404C238.51 183.08 239.937 179.055 240.067 179.445C240.067 179.834 238.899 184.249 237.472 189.313C235.915 194.247 234.618 198.272 234.358 198.142Z" fill="#A6C3E9" fill-opacity="0.9"/>
<path d="M31.4477 202.687C33.783 194.377 36.6373 184.509 37.5454 180.873L39.3618 174.251L42.7349 177.367C45.0702 179.575 46.4973 179.964 47.9245 179.055C49.3516 178.146 50.0003 178.276 50.5192 179.315C50.7787 180.224 52.3356 181.392 53.7627 181.912C55.4493 182.561 56.6169 182.431 56.8764 181.263C57.2656 180.484 57.5251 180.743 57.5251 181.912C57.6548 183.34 58.6927 184.249 60.2496 184.249C61.6767 184.249 62.8443 183.47 62.9741 182.561C62.9741 181.263 63.1038 181.263 63.6228 182.561C63.8822 183.47 64.9202 184.249 65.6986 184.249C66.6067 184.249 68.1636 185.418 68.942 186.846C70.2394 188.794 71.4071 189.313 74.1316 188.664C76.2074 188.144 78.4129 187.235 79.0616 186.716C79.84 186.067 81.3969 186.327 82.824 187.235C84.8998 188.664 85.0296 189.183 83.4727 192.04C81.9158 194.896 82.0456 195.156 83.9916 194.247C85.4188 193.728 86.8459 194.117 87.7541 195.286C88.6622 196.454 89.8299 197.363 90.3488 197.233C90.9975 197.233 91.3867 195.935 91.257 191.391L93.5923 194.507C95.7978 197.233 96.0573 197.363 97.8736 195.416C98.9115 194.247 100.209 193.208 100.728 193.338C101.377 193.338 101.506 194.766 101.117 196.584C100.728 198.402 101.117 200.09 101.766 200.48C102.414 200.869 103.452 200.09 103.971 198.792C104.361 197.623 104.62 195.805 104.62 194.896C104.49 194.117 104.879 193.338 105.658 193.338C106.436 193.338 106.955 194.507 106.955 195.935C106.955 197.363 107.474 198.792 108.253 199.181C109.031 199.571 109.939 199.441 110.458 199.051C111.107 198.662 110.588 197.883 109.55 197.233C107.993 196.325 108.512 195.805 111.885 195.026C114.221 194.507 116.167 193.468 116.167 192.689C116.167 191.91 117.334 192.689 118.632 194.247C120.578 196.454 121.875 196.974 123.432 196.065C124.729 195.546 126.675 195.286 127.713 195.675C129.4 196.325 129.4 196.065 127.713 194.117C126.675 192.949 126.157 191.91 126.675 192.04C127.324 192.04 129.011 193.858 130.568 196.195C133.422 200.22 133.422 200.35 130.957 199.441C129.27 198.792 127.973 199.051 127.454 200.09C126.935 200.999 126.546 202.947 126.546 204.375C126.546 206.712 126.675 206.712 127.454 204.764C128.362 202.557 128.751 202.687 134.071 205.414C139.39 208.14 139.649 208.53 138.871 212.815C138.482 215.282 138.092 220.476 138.092 224.111C138.092 230.863 137.963 231.123 121.875 245.276L75.1695 232.032C49.4813 224.76 28.2043 218.658 27.8151 218.398C27.4258 218.138 29.1124 211.127 31.4477 202.687Z" fill="#23C3F2"/>
<path d="M70.8881 175.03C70.3692 174.251 70.8881 173.082 71.926 172.433C72.9639 171.784 74.6505 171.265 75.5587 171.265C76.3371 171.265 77.1155 172.433 77.1155 173.862C77.1155 175.29 77.7642 176.199 78.4129 175.809C79.0616 175.42 79.4508 174.641 79.0616 173.862C78.6724 173.082 79.0616 172.303 79.7103 171.914C80.4887 171.524 81.0077 173.212 81.0077 175.809C81.0077 179.445 80.359 180.743 77.7642 181.912C74.7802 183.47 74.1316 183.21 70.8881 179.964C68.0339 177.108 67.7744 176.458 69.7205 176.458C71.0178 176.458 71.5368 175.939 70.8881 175.03Z" fill="#23C3F2"/>
<path d="M41.697 169.577C41.9565 169.057 42.216 168.278 42.216 167.889C42.3457 167.499 42.9944 167.369 43.7728 167.629C44.4215 167.759 45.1999 169.057 45.4594 170.226C45.8486 171.914 45.1999 172.563 43.3836 172.563C41.6538 172.563 41.0051 173.212 41.4375 174.511C41.8268 175.55 42.9944 176.458 44.0323 176.458C45.1999 176.458 45.5892 175.809 45.0702 174.77C44.5513 173.991 45.8486 174.381 47.9244 175.679C50.13 177.108 52.9842 179.315 54.4114 180.613C57.0061 182.951 57.0061 182.951 54.0221 182.042C52.4653 181.393 50.7787 180.224 50.5192 179.315C50.0003 178.276 49.3516 178.146 47.9244 179.055C46.4973 179.964 45.1999 179.575 42.7349 177.108C40.7889 175.16 39.8807 173.212 40.3996 172.174C40.9186 171.395 41.5673 170.226 41.697 169.577Z" fill="#A6C3E9" fill-opacity="0.9"/>
<path d="M372.01 178.406C370.843 176.199 369.156 172.563 368.118 170.356V170.226C367.21 168.019 366.821 166.071 367.34 166.071C367.729 166.071 369.545 169.317 371.232 173.212C372.918 177.108 374.216 180.743 374.216 181.263C374.086 181.912 373.178 180.484 372.01 178.406Z" fill="#FDC69F" fill-opacity="0.3"/>
<path d="M48.3137 168.148C48.184 166.98 50.2598 165.551 53.7627 164.383C57.0061 163.214 59.8604 162.305 60.1199 162.305C60.3793 162.176 59.4712 163.474 58.1738 165.032C56.7467 166.72 56.4872 167.369 57.6548 166.59C58.6927 165.811 60.7686 164.772 62.1957 164.253C64.6607 163.344 64.6607 163.344 62.5849 165.941C60.8983 167.889 60.6388 168.798 61.9362 169.187C62.9741 169.447 62.3254 170.745 60.2496 172.953C58.4333 174.9 56.6169 176.069 56.098 175.809C55.4493 175.42 55.3196 173.991 55.7088 172.563C56.098 171.135 55.7088 169.966 55.0601 169.966C54.4114 169.966 53.8924 169.317 54.1519 168.538C54.2816 167.759 53.5032 166.72 52.4653 166.331C51.0382 165.811 50.7787 166.201 51.5571 167.759C52.2058 169.317 51.8166 169.966 50.5192 169.966C49.4813 169.966 48.4434 169.187 48.3137 168.148Z" fill="#23C3F2"/>
<path d="M24.5716 171.265C25.0906 168.798 25.9987 165.422 26.6474 163.864V163.734C27.2961 162.176 27.9448 160.877 28.2043 160.877C28.4637 160.877 27.9448 163.993 26.9069 167.629C25.869 171.394 24.7013 174.77 24.3121 175.16C23.9229 175.55 24.0526 173.732 24.5716 171.265Z" fill="#FDC69F" fill-opacity="0.3"/>
<path d="M57.2656 162.176C60.7685 163.474 60.7685 163.344 58.3035 161.396C55.8385 159.449 55.8385 159.449 59.6009 160.358C61.8064 160.877 64.4012 161.396 65.6986 161.396C67.1257 161.526 67.3852 162.046 66.6067 163.084C65.958 163.993 65.0499 164.513 64.5309 164.253C63.8822 163.864 61.8064 164.513 59.6009 165.681C55.9682 167.499 55.8385 167.499 57.6548 165.551C59.3414 163.604 59.3414 163.344 57.6548 163.474C56.6169 163.604 54.5411 164.123 53.114 164.643C50.7787 165.551 50.7787 165.681 52.7248 166.46C54.0221 166.98 54.8006 167.889 54.4113 168.668C54.0221 169.447 54.4113 169.966 55.06 169.966C55.7087 169.966 56.3574 170.745 56.3574 171.524C56.3574 172.433 55.06 173.991 53.5032 175.03C50.6489 176.848 50.5192 176.848 51.5571 174.121C52.3355 171.654 52.2058 171.394 49.8705 172.563C48.4434 173.342 46.8865 173.862 46.3676 173.862C45.7189 173.991 46.2378 172.953 47.2758 171.784C48.4434 170.486 48.5731 169.836 47.665 170.356C46.4973 171.005 46.2378 170.615 46.8865 168.927C47.4055 167.629 47.9244 167.369 48.1839 168.278C48.4434 169.187 49.4813 169.966 50.5192 169.966C52.0761 169.966 52.2058 169.447 51.1679 167.369C50.2597 165.422 50.3895 164.253 51.8166 162.825C53.3734 161.267 54.5411 161.137 57.2656 162.176Z" fill="#A6C3E9" fill-opacity="0.9"/>
<path d="M41.4375 163.864C41.8267 162.955 42.0862 161.656 42.0862 160.877C42.0862 160.098 42.3457 159.579 42.7349 159.579C43.1241 159.579 43.1241 160.747 42.7349 162.176C42.2159 164.383 42.6051 164.643 45.3296 164.123C48.0541 163.604 48.3136 163.734 46.8865 165.292C46.1081 166.201 44.2917 166.59 42.9944 166.201C41.697 165.811 41.0483 164.643 41.4375 163.864Z" fill="#A6C3E9" fill-opacity="0.9"/>
<path d="M73.2234 160.747C71.926 160.747 72.1422 160.358 73.8721 159.579C75.2992 158.929 76.8561 158.41 77.5047 158.41C78.0237 158.28 78.4129 158.8 78.4129 159.579C78.4129 160.358 80.4887 160.747 82.9537 160.617C85.4188 160.358 87.4946 160.747 87.4946 161.526C87.3648 162.305 88.6622 161.786 90.2191 160.617C91.7759 159.319 94.3707 158.28 95.7978 158.41C97.7439 158.54 97.4844 158.8 94.6302 159.579C92.4246 160.228 88.792 162.825 86.5864 165.292C84.2511 167.889 82.3051 170.486 82.3051 171.265C82.3051 172.044 81.6564 172.433 80.7482 172.303C79.84 172.044 79.1913 172.563 79.0616 173.472C79.0616 174.251 78.5426 175.42 78.0237 176.069C77.5047 176.588 77.1155 175.809 77.1155 174.251C77.1155 172.563 76.3371 171.265 75.5587 171.265C74.6505 171.265 72.9639 171.784 71.926 172.433C70.4989 173.212 70.3691 174.121 71.2773 175.29C72.1855 176.588 72.0557 176.848 70.8881 176.069C70.1097 175.55 69.0718 175.55 68.6826 176.069C68.4231 176.718 69.5907 178.536 71.4071 180.354C73.0936 182.172 74.5208 184.379 74.5208 185.288C74.5208 186.197 75.5587 186.586 77.375 186.197C79.1913 185.807 79.84 186.067 79.0616 186.716C78.4129 187.365 76.2074 188.144 74.2613 188.664C71.4071 189.313 70.2394 188.794 69.0718 186.846C68.1636 185.418 66.6067 184.249 65.8283 184.249C64.9201 184.249 64.1417 183.47 64.012 182.691C64.012 181.393 63.8822 181.393 63.3633 182.691C63.1038 183.47 61.6767 184.249 60.2496 184.249C58.5197 184.249 57.6548 183.383 57.6548 181.652C57.6548 180.224 58.563 179.055 59.6009 179.055C60.6388 179.055 61.2875 179.575 60.8983 180.354C60.4658 181.219 61.1145 181.219 62.8443 180.354C65.0499 179.185 65.8283 179.705 68.0339 183.6C69.461 186.067 71.2773 187.885 71.926 187.495C72.5747 187.106 73.2234 186.067 73.2234 185.288C73.2234 184.379 71.5368 182.042 66.0878 176.458L69.7205 173.212C71.6665 171.395 72.8342 169.707 72.3152 169.317C71.6665 168.927 73.2234 169.057 75.5587 169.577C78.6724 170.356 79.7103 170.226 79.7103 169.057C79.7103 168.148 78.6724 166.85 77.5047 166.071C75.4289 165.032 75.4289 164.643 77.1155 163.344C78.6724 162.305 78.1534 162.176 75.1695 162.695C72.3152 163.344 71.7963 163.214 73.2234 162.176C74.91 161.007 74.91 160.877 73.2234 160.747Z" fill="#A6C3E9" fill-opacity="0.9"/>
<path d="M87.754 163.863C89.3109 162.305 93.0733 160.228 95.9275 159.189C98.7818 158.15 101.247 157.241 101.247 157.112C101.377 157.112 101.117 158.02 100.728 159.319C100.209 160.488 98.3926 163.084 96.4465 165.162C94.5004 167.11 92.2949 168.668 91.5164 168.668C90.738 168.668 90.0893 168.018 89.9596 167.239C89.9596 166.201 89.3109 166.201 88.0135 167.369C86.9756 168.278 86.0674 169.966 86.1972 171.135C86.1972 172.303 87.754 174.511 89.4406 176.199C91.257 177.757 92.6841 179.575 92.6841 180.354C92.6841 181.133 91.7759 181.392 90.738 181.003C89.7001 180.613 88.5325 180.873 88.1432 181.652C87.754 182.431 88.4027 182.951 89.4406 182.951C90.4785 182.951 91.3867 184.119 91.3867 185.547C91.3867 186.976 92.2949 188.404 93.3328 188.794C94.3707 189.183 96.706 189.443 98.5223 189.443C100.339 189.443 101.766 189.962 101.766 190.741C101.766 191.52 100.209 192.04 98.2628 192.04C95.5383 192.04 95.1491 192.429 96.5762 193.208C98.0033 193.987 98.1331 194.507 96.9654 195.156C96.0573 195.545 95.0194 195.026 94.6302 193.987C94.2409 192.689 92.2949 192.04 89.4406 192.04C86.8459 192.04 85.1593 191.52 85.5485 190.741C85.9377 189.962 85.4187 188.534 84.6403 187.365C83.4727 185.937 81.7861 185.547 78.8021 186.067C75.5587 186.716 74.5208 186.327 74.5208 184.898C74.5208 183.86 75.2992 182.951 76.0776 182.951C76.9858 183.08 78.8021 182.042 80.0995 180.743C81.2671 179.445 82.0456 177.497 81.5266 176.458C81.1374 175.42 81.6563 172.823 82.6943 170.615C83.7322 168.538 86.0674 165.422 87.754 163.863Z" fill="#F8F9FB"/>
<path d="M27.815 166.72C27.4258 166.331 28.0745 163.344 29.1124 160.228C30.1503 156.982 31.1882 154.515 31.1882 154.774C31.318 155.164 30.799 158.02 29.8908 161.396C29.1124 164.643 28.2043 166.98 27.815 166.72Z" fill="#A6C3E9" fill-opacity="0.9"/>
<path d="M364.875 162.825C364.096 161.397 362.539 158.28 361.631 156.073V155.943C360.723 153.736 360.204 151.788 360.593 151.788C360.982 151.788 362.41 154.255 363.837 157.241C365.264 160.358 366.431 163.344 366.431 164.123C366.431 164.772 365.653 164.253 364.875 162.825Z" fill="#FDC69F" fill-opacity="0.3"/>
<path d="M73.6126 153.086C71.5368 154.774 71.4071 154.774 72.8342 152.957C73.7424 151.788 75.1695 151.009 76.2074 151.009C77.6345 151.139 77.894 151.788 76.9858 153.346C76.3371 154.645 74.6505 156.203 73.2234 156.982C71.7963 157.761 70.2394 158.021 69.5907 157.631C69.0718 157.241 67.9041 157.761 66.996 158.67C66.0878 159.449 65.3094 159.838 65.4391 159.449C65.4391 159.059 66.7365 157.631 68.2934 156.203C69.8502 154.904 70.6286 154.515 70.2394 155.294C69.7205 156.203 69.5907 156.982 69.98 156.982C70.3692 156.982 71.7963 156.462 73.2234 155.683C74.6505 154.904 75.8182 153.606 75.8182 152.697C75.9479 151.528 75.2992 151.658 73.6126 153.086Z" fill="#A6C3E9" fill-opacity="0.9"/>
<path d="M346.971 145.815C340.614 146.205 338.797 146.075 341.781 145.426C344.246 144.776 349.047 144.257 352.549 144.127C357.609 143.997 358.647 144.387 358.647 146.335C358.647 147.893 358.388 148.023 357.609 146.854C356.961 145.555 354.236 145.296 346.971 145.815Z" fill="#FDC69F" fill-opacity="0.3"/>
<path d="M313.239 148.412C312.201 147.893 307.79 144.906 303.509 141.79C299.227 138.674 296.243 136.207 296.762 136.207C297.281 136.207 300.395 138.154 303.768 140.362C307.141 142.699 311.163 145.815 312.59 147.114C314.017 148.412 314.277 149.061 313.239 148.412Z" fill="#FDC69F" fill-opacity="0.3"/>
<path d="M31.9666 147.503C31.7071 147.373 32.6153 143.608 33.9127 139.063C35.2101 134.649 36.248 131.143 36.3777 131.402C36.5075 131.792 35.5993 135.557 34.4316 139.842C33.264 144.257 32.2261 147.633 31.9666 147.503Z" fill="#FDC69F" fill-opacity="0.3"/>
<path d="M123.691 161.396C126.286 157.891 132.773 148.672 138.092 141.011L147.693 127.247L150.677 130.753C152.234 132.701 153.531 135.168 153.531 136.207C153.402 137.245 153.402 139.712 153.531 141.79C153.661 143.997 154.439 145.296 155.607 145.296C156.904 145.296 157.423 146.335 157.164 148.931C156.904 150.879 157.553 153.216 158.461 154.125C159.369 154.904 160.148 157.631 160.148 159.968C160.148 162.176 161.316 166.071 162.743 168.408C164.689 171.524 166.505 172.693 169.878 173.212C172.905 173.645 175.111 173.212 176.495 171.914C177.533 170.875 178.7 169.966 179.09 169.966C179.349 169.966 181.036 170.745 182.852 171.654C184.668 172.433 186.095 174.121 186.095 175.16C186.095 176.199 189.079 180.354 192.712 184.249C196.215 188.144 199.977 192.299 201.015 193.338C201.924 194.377 202.832 196.195 203.091 197.233C203.351 198.272 202.832 200.48 201.924 202.168C200.626 204.505 199.848 204.764 197.772 203.726C196.345 203.076 195.437 201.648 195.696 200.869C195.956 199.96 195.566 198.142 195.047 196.974C194.399 195.675 193.361 194.637 192.582 194.637C191.804 194.637 190.247 193.728 189.079 192.559C186.874 190.482 186.614 190.611 185.577 193.468C185.058 195.156 184.279 195.805 184.02 195.026C183.76 194.117 182.074 193.338 180.257 193.338C178.441 193.338 176.754 192.429 176.365 191.391C175.976 190.352 174.808 189.443 173.77 189.443C172.732 189.443 172.084 190.092 172.473 190.741C172.862 191.52 172.603 192.04 171.824 192.04C171.046 192.04 169.749 191.261 168.97 190.222C167.673 188.794 166.894 188.664 165.727 189.832C164.818 190.741 163.262 191.001 162.094 190.482C160.926 189.832 160.537 188.664 161.056 187.235C161.964 185.028 161.834 185.028 159.759 187.235C158.591 188.404 157.553 189.703 157.553 190.092C157.553 190.482 160.278 191.65 163.781 192.689C167.154 193.728 170.267 194.247 170.916 193.987C171.435 193.598 172.084 194.247 172.473 195.286C172.862 196.584 172.084 197.493 170.267 198.013C168.581 198.402 164.559 198.402 161.186 198.013C157.294 197.493 154.958 197.753 154.958 198.532C154.958 199.311 156.385 199.83 158.202 199.83C160.018 199.83 161.445 200.48 161.445 201.129C161.445 201.908 162.613 202.687 164.04 203.076C165.467 203.466 166.635 204.505 166.635 205.414C166.635 206.582 166.375 206.582 165.078 205.284C164.17 204.375 162.224 203.726 160.797 203.726C158.332 203.596 158.332 203.726 160.407 205.933C161.575 207.232 163.781 208.4 165.208 208.66C166.765 208.79 168.192 208.011 168.581 206.972C168.97 205.933 170.138 205.284 171.176 205.673C172.214 206.063 173.381 205.544 173.641 204.764C174.16 203.466 174.289 203.466 174.289 204.764C174.419 205.544 173.251 206.582 171.824 206.972C170.397 207.361 169.23 208.27 169.23 208.919C169.23 209.699 170.008 210.478 170.916 210.737C171.695 210.997 174.16 210.997 176.365 210.737C178.571 210.607 181.295 210.218 182.593 209.958C183.76 209.699 185.317 208.66 185.966 207.621C186.614 206.582 187.782 206.063 188.561 206.712C189.339 207.232 189.988 206.842 189.988 206.063C189.988 205.154 186.744 203.336 182.593 202.168C175.457 200.09 174.938 200.09 172.603 202.168C170.267 204.245 170.267 204.245 171.695 201.518C172.732 199.181 174.549 198.402 179.349 197.883C183.371 197.363 186.095 197.753 187.133 198.792C188.69 200.22 188.82 200.09 187.912 197.883C187.133 195.675 187.263 195.546 188.82 196.844C189.858 197.753 190.896 198.272 191.285 198.013C191.674 197.753 191.934 199.311 191.934 201.518C191.934 204.505 192.582 205.673 194.658 206.193C196.475 206.712 197.253 207.837 196.993 209.569C196.867 210.964 195.997 214.589 195.231 217.782L195.177 218.009C194.269 221.255 193.88 228.266 194.269 233.59C194.658 241.121 195.696 245.146 198.81 251.508C202.053 257.871 202.702 260.338 202.053 263.584C201.145 267.22 200.626 267.479 197.123 266.83C194.918 266.311 177.403 261.506 158.202 256.053C139.001 250.6 122.913 245.925 122.524 245.665C122.135 245.406 125.508 241.77 137.833 230.344L138.611 217.749C139.001 210.737 139.001 204.894 138.352 204.764C137.833 204.505 135.238 201.778 132.643 198.532C129.919 195.286 127.713 192.17 127.713 191.391C127.713 190.741 128.751 191.131 130.308 192.429C131.735 193.598 133.422 194.377 134.2 193.987C134.979 193.598 135.238 192.819 134.849 192.04C134.46 191.261 135.887 190.741 138.092 190.741C140.947 190.741 142.114 191.52 142.633 193.338C143.022 194.766 142.504 196.325 141.725 196.714C140.428 197.363 140.428 197.883 141.855 199.051C143.152 200.09 143.671 200.09 144.06 198.921C144.32 198.013 145.487 197.233 146.525 197.233C147.563 197.233 148.212 196.454 147.953 195.675C147.693 194.766 146.655 193.987 145.487 193.987C144.45 193.987 143.671 192.949 143.801 191.65C143.801 190.482 144.32 189.443 144.969 189.443C145.487 189.443 147.304 190.092 149.12 190.741L149.12 190.741C151.585 191.78 152.623 191.65 153.661 190.092C154.699 188.534 153.791 187.885 147.823 186.846C143.931 186.197 140.687 185.028 140.687 184.249C140.687 183.6 139.909 182.951 139.13 182.951C138.222 182.951 136.536 183.86 135.498 184.898C134.46 185.937 131.606 187.365 129.27 188.144C125.767 189.313 124.729 189.053 122.783 186.846C121.616 185.288 120.967 184.119 121.616 184.249C122.135 184.249 120.708 182.301 118.632 180.094C116.426 177.757 114.74 175.03 114.74 174.251C114.74 173.342 115.259 172.563 116.037 172.563C116.815 172.563 117.724 171.524 118.242 170.356C118.761 169.057 121.226 165.032 123.691 161.396Z" fill="#727DC6"/>
<path d="M188.82 212.425C186.485 209.828 186.485 209.439 188.431 208.66C189.598 208.14 191.026 207.751 191.544 207.751C192.193 207.621 192.842 208.66 193.231 209.828C193.62 211.127 193.361 212.945 192.582 213.724C191.544 215.022 190.766 214.762 188.82 212.425Z" fill="#FEA4E0"/>
<path d="M147.174 176.458C147.952 174.9 150.028 173.732 152.623 173.472C154.958 173.212 157.423 172.953 158.202 172.823C158.98 172.693 161.575 173.082 164.04 173.602C166.505 174.251 170.138 176.069 172.084 177.887C174.679 180.094 175.327 181.522 174.419 182.561C173.554 183.686 173.554 184.465 174.419 184.898C175.197 185.288 176.365 184.509 177.014 183.21C178.311 181.133 178.441 181.133 178.052 183.47C177.792 184.898 176.884 186.197 175.976 186.456C175.197 186.716 173.381 185.807 172.214 184.509C170.786 183.08 167.802 182.172 162.872 182.042C158.85 181.912 153.531 181.392 151.066 181.003C148.601 180.484 146.396 179.964 146.136 179.575C146.006 179.315 146.396 177.887 147.174 176.458Z" fill="#FEA4E0"/>
<path d="M34.5614 143.608C34.302 143.478 35.4696 138.544 37.1562 132.571C38.8428 126.598 40.1402 122.054 40.2699 122.443C40.3996 122.833 39.232 127.767 37.6751 133.48C36.248 139.193 34.8209 143.738 34.5614 143.608Z" fill="#A6C3E9" fill-opacity="0.9"/>
<path d="M127.713 118.418C130.957 116.86 134.46 114.653 135.498 113.484C137.314 111.277 137.573 111.406 138.741 113.614C139.52 114.912 141.595 117.509 143.671 119.327C145.617 121.145 147.174 123.872 147.174 125.559C147.174 127.118 142.114 135.557 135.757 144.257C129.53 153.086 123.432 161.786 122.135 163.734C120.967 165.811 118.502 167.889 116.686 168.668C114.091 169.707 113.572 170.615 114.35 172.953C114.74 174.511 117.075 178.536 119.54 182.042C121.875 185.418 123.821 188.404 123.821 188.794C123.821 189.183 122.524 189.183 120.837 188.924C119.28 188.534 117.464 188.794 116.686 189.313C115.907 189.832 114.091 190.741 112.404 191.261C110.847 191.65 109.161 191.391 108.512 190.611C107.993 189.832 106.566 189.573 105.269 189.962C104.101 190.352 103.063 190.222 103.063 189.443C103.063 188.664 100.728 188.144 97.8736 188.144C93.5923 188.144 92.6841 187.755 92.6841 185.548C92.6841 184.119 93.722 182.691 94.8896 182.301C96.9655 181.652 96.9655 181.393 94.3707 179.315C92.8138 178.146 91.5165 176.329 91.3867 175.55C91.3867 174.641 90.4785 174.121 89.4406 174.511C88.4027 174.9 87.2351 174.381 87.1054 173.602C86.8459 172.693 86.8459 170.875 87.1054 169.707C87.2351 168.408 88.1433 167.369 88.792 167.369C89.4406 167.369 90.0893 167.889 90.0893 168.668C90.0893 169.447 91.1272 169.577 92.2949 169.057C93.5923 168.538 95.9275 166.72 97.6141 164.902C99.3007 163.084 101.117 160.488 101.895 159.319C102.933 157.242 102.544 157.112 97.4844 157.761C93.3328 158.28 90.738 159.838 86.7161 163.864C82.1753 168.408 81.1374 169.057 79.9698 167.369C79.1048 166.071 79.1048 164.772 79.9698 163.474C80.8779 162.046 81.3969 161.916 81.7861 163.214C82.1753 164.383 83.0835 164.383 84.8998 163.474C86.3269 162.695 87.4946 161.786 87.4946 161.267C87.4946 160.617 85.4188 160.358 82.9537 160.617C80.4887 160.747 78.4129 160.358 78.4129 159.579C78.4129 158.8 76.9858 158.54 75.1695 158.929C73.3531 159.319 71.926 159.059 71.926 158.28C71.926 157.501 72.8342 156.722 73.8721 156.333C74.91 155.943 76.4668 154.515 77.1155 153.086C78.0237 151.139 78.0237 150.49 76.7263 150.49C75.9479 150.49 72.5747 152.827 69.3312 155.683C64.9201 159.838 62.7146 160.877 60.2496 160.488C58.4332 160.098 55.579 160.617 53.7627 161.526C51.9463 162.435 48.5731 163.474 42.0862 164.772L43.5134 159.189C44.4215 156.203 45.7189 152.957 46.4973 152.048C47.2758 151.139 51.1679 149.061 55.0601 147.633C58.9522 146.205 66.3473 144.517 71.2773 144.127C79.1913 143.218 81.3969 142.439 88.1433 137.505C92.4246 134.389 97.4844 131.792 99.3007 131.792C101.117 131.662 103.452 130.883 104.49 129.974C105.528 129.195 107.215 128.676 108.253 129.065C109.291 129.455 112.793 127.897 116.037 125.43C119.28 122.963 124.47 119.846 127.713 118.418Z" fill="#23C3F2"/>
<path d="M104.101 182.172C103.971 180.743 104.62 178.925 105.528 178.146C106.696 176.978 107.604 177.108 109.031 178.536C110.069 179.575 111.366 180.094 112.145 179.704C113.01 179.272 113.01 179.921 112.145 181.652C111.366 183.08 110.588 184.249 110.199 184.249C109.81 184.249 109.939 183.21 110.458 181.912C110.847 180.613 110.718 180.094 110.069 180.613C109.42 181.263 108.123 180.873 107.085 179.964C106.047 179.185 105.528 178.925 105.917 179.704C106.436 180.354 106.307 181.912 105.528 182.951C104.62 184.509 104.361 184.379 104.101 182.172Z" fill="#A6C3E9" fill-opacity="0.9"/>
<path d="M90.738 177.367C89.1812 175.549 89.0514 174.77 90.3488 173.212C91.257 172.174 93.0733 171.394 94.241 171.265C95.5383 171.265 96.3168 172.044 96.0573 172.823C95.7978 173.732 94.6302 174.381 93.4625 174.121C92.2949 173.991 91.3867 174.641 91.3867 175.42C91.5165 176.329 92.8138 178.146 94.3707 179.315C96.9655 181.392 96.9655 181.652 94.8896 182.301C93.722 182.691 92.6841 184.249 92.5544 185.807C92.4246 188.664 92.4246 188.664 91.5165 185.547C90.9975 183.73 89.8299 182.431 89.0514 182.561C88.1433 182.821 87.7541 182.301 88.1433 181.652C88.5325 180.873 89.7001 180.613 90.738 181.003C91.7759 181.392 92.6841 181.263 92.6841 180.613C92.6841 180.094 91.7759 178.666 90.738 177.367Z" fill="#A6C3E9" fill-opacity="0.9"/>
<path d="M118.632 141.141C117.464 141.271 117.205 140.881 117.853 140.102C118.502 139.323 119.799 138.804 120.967 139.063C122.005 139.323 123.043 141.011 123.302 142.959C123.692 145.945 123.562 146.335 122.005 144.906C120.967 144.127 120.318 142.699 120.318 142.05C120.448 141.271 119.67 140.881 118.632 141.141Z" fill="#A6C3E9" fill-opacity="0.9"/>
<path d="M106.436 142.699C107.993 142.699 109.939 141.79 110.977 140.751C112.015 139.712 113.053 138.933 113.442 138.804C113.831 138.804 113.961 139.583 113.831 140.492C113.702 141.271 111.885 142.829 109.939 143.738C107.344 144.906 105.917 145.036 105.009 143.997C104.101 143.088 104.62 142.699 106.436 142.699Z" fill="#F8F9FB"/>
<path d="M104.231 138.154C105.788 138.025 107.604 137.505 107.993 136.986C108.382 136.596 109.42 136.726 110.069 137.375C110.847 138.025 112.275 138.414 113.053 138.025C113.961 137.765 114.999 138.025 115.388 138.804C115.778 139.583 115.259 140.492 114.48 141.141C113.356 141.747 113.14 141.53 113.831 140.492C114.35 139.583 114.221 138.804 113.442 138.804C112.664 138.804 112.145 139.193 112.145 139.842C112.145 140.362 110.458 140.621 108.512 140.362C105.398 140.102 105.398 140.232 107.604 141.271C109.81 142.309 109.939 142.569 107.864 142.569C106.696 142.699 105.398 142.18 105.009 141.4C104.62 140.621 103.193 140.362 101.766 140.751C100.339 141.141 98.1332 140.881 96.8358 140.102C94.8897 139.063 95.0194 138.804 97.8737 138.674C99.69 138.544 102.544 138.284 104.231 138.154Z" fill="#A6C3E9" fill-opacity="0.9"/>
<path d="M292.351 118.678C291.054 112.965 290.016 107.381 290.016 106.343C290.145 105.304 291.183 108.55 292.481 113.484C293.778 118.418 294.816 124.001 294.816 125.819C294.816 127.637 293.778 124.391 292.351 118.678Z" fill="#FDC69F" fill-opacity="0.3"/>
<path d="M219.179 107.641L222.292 100.5C224.887 94.7864 226.055 93.3581 228.52 93.3581C230.206 93.3581 231.763 94.0073 232.153 94.6565C232.542 95.3057 235.007 96.8639 237.602 97.9026C240.326 99.0712 243.829 100.11 245.516 100.24C247.072 100.37 248.37 100.5 248.37 100.5C248.37 100.5 247.462 103.616 246.424 107.251C245.386 111.017 244.088 114.003 243.44 113.744C242.921 113.484 239.807 112.056 236.304 110.498C232.931 108.939 227.741 107.641 219.179 107.641Z" fill="#727DC6"/>
<path d="M228.909 93.358C227.482 93.358 226.185 92.579 226.055 91.6701C225.925 90.2418 227.352 89.9821 231.634 90.3716C234.747 90.6313 240.067 91.4104 243.44 92.0596C246.943 92.8387 250.186 93.0984 250.965 92.7088C251.613 92.3193 260.046 92.7088 269.387 93.4879C278.858 94.267 286.772 95.046 287.032 95.1759C287.161 95.1759 289.367 104.655 291.832 116.081C294.297 127.637 297.022 137.245 297.93 137.765C298.838 138.154 302.86 141.011 306.752 143.867C310.644 146.854 314.796 149.191 315.834 149.191C316.871 149.191 326.342 148.152 336.851 146.984C347.36 145.685 356.182 144.906 356.442 145.296C356.831 145.685 362.669 158.021 382 199.83L374.475 206.712C370.453 210.607 363.577 216.84 351.512 227.617L348.268 251.119L373.827 284.878L359.555 305.004C351.641 316.041 343.598 327.208 338.019 334.219L319.207 327.987C308.698 324.611 299.227 321.884 297.93 321.884C296.632 321.884 295.075 322.403 294.427 323.182C293.648 323.832 289.626 325.909 277.561 330.843L261.473 369.277L257.192 369.018C254.857 368.888 241.494 367.849 227.612 366.551C207.502 364.863 201.924 363.954 200.756 362.266C199.848 361.097 197.512 351.878 191.934 323.053L183.112 316.56C175.846 311.237 173.381 310.198 167.932 309.809C164.429 309.679 161.316 309.938 161.186 310.328C160.926 310.847 157.034 311.626 143.931 312.925L139.52 299.551C137.055 292.15 134.589 285.138 133.941 283.84C133.033 281.762 132.384 281.892 126.416 284.878C122.783 286.696 119.67 287.995 119.41 287.735C119.151 287.605 116.167 281.502 112.923 274.101C109.68 266.83 106.955 260.468 106.955 259.818C106.955 259.299 109.81 256.183 113.183 252.677C116.815 248.912 120.448 246.574 122.135 246.574C123.821 246.574 140.428 250.989 159.11 256.313C177.922 261.636 194.918 266.441 197.123 266.83C200.626 267.479 201.145 267.22 202.961 259.559L209.059 265.532C212.562 268.778 218.4 272.933 222.033 274.621C225.795 276.309 232.282 278.386 236.304 279.165C241.753 280.204 246.035 280.204 251.613 279.165C255.895 278.386 262.511 276.309 266.144 274.491C269.906 272.673 275.874 268.518 279.247 265.012C282.621 261.636 287.032 255.663 288.978 251.768C291.443 246.704 292.74 241.77 293.389 234.888C293.778 229.435 293.519 222.034 292.61 218.009C291.832 213.854 289.108 207.491 285.994 202.687C283.14 198.272 278.08 192.559 274.577 190.092C271.204 187.495 265.236 184.119 261.344 182.691C256.154 180.613 251.354 179.964 243.829 179.964C236.564 179.964 231.374 180.743 226.314 182.691C222.422 184.249 216.584 187.495 213.341 189.962C210.097 192.429 206.983 194.117 206.335 193.598C205.686 193.078 205.556 193.468 205.945 194.247C206.464 195.156 205.945 196.714 204.908 197.493C203.221 198.921 202.832 198.792 202.832 197.234C202.832 196.195 202.053 194.377 201.015 193.338C199.977 192.299 196.215 188.144 192.712 184.249C189.079 180.354 186.096 176.199 186.096 175.16C186.096 174.121 184.668 172.433 182.852 171.524C181.036 170.745 179.349 169.966 179.09 169.966C178.7 169.966 177.533 170.875 176.495 171.914C175.111 173.212 172.905 173.645 169.878 173.212C166.505 172.693 164.689 171.524 162.743 168.278C161.316 166.071 160.148 162.176 160.148 159.838C160.148 157.631 159.369 154.904 158.461 153.995C157.553 153.216 156.904 150.879 157.164 148.802C157.423 146.335 156.904 145.296 155.607 145.296C154.439 145.296 153.661 143.997 153.531 141.66C153.402 139.712 153.402 137.375 153.531 136.466C153.531 135.687 152.493 133.35 151.066 131.273C149.509 129.325 148.342 127.377 148.471 126.728C148.471 126.209 149.25 125.819 150.028 125.819C150.936 125.819 159.759 128.416 169.489 131.662C179.349 134.908 188.431 137.505 189.598 137.375C190.896 137.375 196.215 135.168 211.005 127.767L219.179 107.641H224.628C227.741 107.641 232.931 108.939 236.304 110.497C239.807 112.056 242.921 113.484 243.44 113.744C244.088 114.003 245.386 111.017 246.424 107.251C247.462 103.616 248.37 100.499 248.37 100.499C248.37 100.499 247.072 100.37 245.516 100.24C243.829 100.11 240.326 99.0712 237.602 97.9026C235.007 96.8638 232.542 95.3057 232.153 94.6565C231.763 93.8774 230.336 93.358 228.909 93.358Z" fill="#FEA4E0"/>
<path d="M209.838 171.265C208.54 171.265 202.832 168.927 197.123 166.201C191.415 163.344 187.263 161.007 188.042 161.007C188.82 160.877 194.01 161.786 199.718 162.825C205.426 163.993 211.784 165.941 213.989 167.239C216.584 168.798 219.698 169.447 223.33 169.187C228.52 168.668 228.909 168.798 228.131 171.654C227.612 173.212 227.222 174.641 227.093 174.9C227.093 175.16 223.59 174.381 219.438 173.342C215.416 172.174 211.005 171.265 209.838 171.265Z" fill="#727DC6"/>
<path d="M219.179 135.298C222.811 135.687 227.612 135.168 230.206 134.259C232.671 133.35 235.785 132.571 236.953 132.441C238.25 132.441 239.288 132.441 239.288 132.701C239.288 132.831 238.38 136.077 235.396 146.594L232.412 143.997C230.855 142.439 228.131 140.881 226.314 140.492C224.498 140.102 222.292 139.193 221.384 138.674C220.606 138.024 219.438 137.765 218.79 138.154C218.271 138.414 216.714 137.765 215.287 136.726C212.822 134.908 213.081 134.778 219.179 135.298Z" fill="#727DC6"/>
<path d="M168.581 95.955C168.97 94.5267 168.321 92.4492 167.154 91.4104C165.208 89.5926 165.467 89.4627 169.748 89.4627C172.343 89.4627 174.679 90.112 175.068 90.7612C175.457 91.5402 174.549 91.6701 172.732 91.2806C170.657 90.6313 170.267 90.7612 171.176 91.9298C171.954 92.8387 175.846 93.6178 179.868 93.7476C184.02 93.8774 186.744 94.1371 186.095 94.3968C185.317 94.5267 185.187 95.6953 185.706 96.8639C186.614 98.8115 186.485 98.9414 183.89 97.1236C181.425 95.6953 180.257 95.5654 176.754 96.8639C174.419 97.7728 171.435 98.5518 170.138 98.5518C168.581 98.5518 168.062 97.7728 168.581 95.955Z" fill="#A6C3E9" fill-opacity="0.9"/>
<path d="M128.362 91.6701C120.708 91.7999 120.708 91.7999 126.416 90.7612C129.659 90.2418 133.162 89.7224 134.071 89.7224C135.108 89.5926 137.833 90.3716 143.931 93.3581L140.038 92.4492C137.833 91.9298 132.643 91.6701 128.362 91.6701Z" fill="#A6C3E9" fill-opacity="0.9"/>
<path d="M235.785 89.3329C233.45 88.6836 231.504 87.515 231.504 86.8658C231.504 86.2166 231.763 85.5674 232.153 85.5674C232.542 85.5674 236.693 86.4763 241.494 87.6449C246.164 88.8135 250.056 90.2418 249.927 90.891C249.797 91.5402 247.462 91.6701 244.867 91.2805C242.142 90.891 237.991 89.9821 235.785 89.3329Z" fill="#23C3F2"/>
<path d="M205.556 89.8522C202.313 88.2941 196.475 86.736 192.582 86.4763C185.577 86.0867 185.577 86.0867 194.269 85.8271C200.626 85.5674 204.389 86.2166 208.54 88.1643C211.654 89.7224 216.584 90.7611 220.087 90.7611C224.498 90.7611 226.185 91.2805 225.795 92.3193C225.536 93.2282 224.498 93.7476 223.59 93.4879C222.552 93.0983 219.438 92.8386 216.584 92.7088C213.73 92.7088 208.8 91.4104 205.556 89.8522Z" fill="#A6C3E9" fill-opacity="0.9"/>
<path d="M186.355 88.2942C183.371 87.5151 180.906 86.6062 180.776 86.3465C180.776 85.957 185.317 86.0868 190.896 86.4763C197.902 86.9957 202.832 88.1643 206.854 90.3717C210.746 92.4492 213.859 93.2282 216.195 92.7089C218.271 92.3193 220.995 92.7089 222.422 93.3581C224.887 94.6565 224.887 94.9162 222.941 99.5906C221.773 102.188 220.346 105.174 219.698 106.083C219.049 106.992 217.622 107.251 216.324 106.732C215.157 106.083 213.73 104.395 213.081 102.837C212.562 101.019 209.448 98.6817 205.816 96.9937C201.015 94.7864 196.734 94.1372 186.096 93.8775C178.441 93.6178 171.954 92.8387 171.176 92.0596C170.267 91.0209 172.084 90.891 177.663 91.4104C181.944 91.9298 186.874 91.6701 188.69 91.0209C191.804 89.8523 191.674 89.7224 186.355 88.2942Z" fill="#23C3F2"/>
<path d="M95.6681 88.6837C90.2191 87.9046 89.8299 87.6449 92.6841 86.736C94.5004 86.2166 96.3168 85.8271 96.706 85.6973C97.2249 85.5674 97.2249 86.2166 96.706 87.1256C96.187 88.2942 97.7439 88.424 103.063 87.9046C109.031 87.1256 109.55 87.2554 106.047 88.2942C103.582 89.0732 99.171 89.3329 95.6681 88.6837Z" fill="#A6C3E9" fill-opacity="0.9"/>
<path d="M180.517 87.9046C178.571 86.6062 176.884 85.0481 176.754 84.3988C176.625 83.8795 178.052 83.6198 179.868 84.0093C182.074 84.3988 182.722 85.0481 181.814 85.6973C180.776 86.2167 182.463 87.2554 186.096 88.2942C191.026 89.5926 191.545 89.9821 189.339 90.891C187.912 91.4104 184.668 91.8 182.203 91.8C178.441 91.8 178.181 91.6701 184.02 90.112L180.517 87.9046Z" fill="#A6C3E9" fill-opacity="0.9"/>
<path d="M266.533 91.0208C266.533 89.8522 267.182 86.8658 268.09 84.5286C268.998 82.1914 269.777 80.5034 269.777 80.7631C269.777 81.0228 269.387 83.2302 268.739 85.6972C268.09 88.1642 267.96 90.891 268.349 91.67C268.739 92.579 268.609 93.358 267.83 93.358C267.052 93.358 266.533 92.3193 266.533 91.0208Z" fill="#FDC69F" fill-opacity="0.3"/>
<path d="M213.34 82.9705C210.875 82.9705 208.151 82.4511 207.243 81.9318C206.464 81.4124 208.8 81.0229 212.432 81.1527C216.195 81.2825 222.682 82.0616 226.963 82.9705C231.244 83.8794 233.969 84.7883 233.061 85.048C232.282 85.3077 231.504 86.0868 231.504 86.8658C231.504 87.5151 233.061 88.6837 235.007 89.4627C238.38 90.6313 238.25 90.6313 233.45 90.3716C230.466 90.112 226.055 88.424 223.071 86.4763C219.957 84.269 216.065 82.9705 213.34 82.9705Z" fill="#A6C3E9" fill-opacity="0.9"/>
<path d="M265.884 87.2554C267.701 82.0616 267.701 81.5422 265.625 80.3736H265.495C264.328 79.7244 263.809 79.205 264.587 79.0752C265.365 79.0752 266.533 79.5946 267.312 80.1139C268.479 80.7632 268.479 82.581 267.312 87.2554C266.533 90.6313 265.495 93.3581 264.847 93.3581C264.328 93.3581 263.938 93.2282 263.938 93.0984C263.938 92.8387 264.717 90.2418 265.884 87.2554Z" fill="#A6C3E9" fill-opacity="0.9"/>
<path d="M42.0863 115.951C41.6971 115.691 44.0323 106.602 47.2758 95.9549C50.5192 85.3077 53.114 76.738 53.2437 76.9977C53.3735 77.2574 51.0382 86.2166 48.0542 96.9937C45.0702 107.771 42.4755 116.34 42.0863 115.951Z" fill="#A6C3E9" fill-opacity="0.9"/>
<path d="M261.992 78.9454C261.214 78.9454 257.192 77.9066 252.911 76.6082C248.629 75.1799 246.294 74.1411 247.721 74.1411C249.148 74.1411 253.17 75.1799 256.803 76.4783C260.306 77.7768 262.771 78.9454 261.992 78.9454Z" fill="#A6C3E9" fill-opacity="0.9"/>
<path d="M199.459 77.9066C193.88 75.8291 188.431 73.8815 187.393 73.4919C186.225 73.1024 186.096 72.7129 187.133 72.7129C187.912 72.583 194.918 74.4008 202.572 76.4783C210.357 78.6857 216.843 80.7632 217.233 81.1527C217.622 81.4124 215.935 81.6721 213.6 81.6721C211.394 81.6721 204.908 79.9841 199.459 77.9066Z" fill="#23C3F2"/>
<path d="M48.7029 88.1642C48.5732 87.1255 49.6111 83.1003 50.9084 79.205C52.0761 75.4395 53.2437 72.8426 53.3735 73.362C53.6329 74.0112 52.595 78.0364 51.1679 82.3213C49.8705 86.6061 48.7029 89.203 48.7029 88.1642Z" fill="#FDC69F" fill-opacity="0.3"/>
<path d="M145.877 77.2573C154.829 75.9589 166.246 74.1411 171.176 73.2322C176.106 72.3232 180.387 71.5442 180.646 71.4143C180.776 71.4143 181.944 71.9337 183.112 72.5829C184.409 73.362 190.377 75.6992 196.475 77.9066C202.572 80.2438 210.097 82.4511 213.34 82.8406C216.584 83.36 220.736 84.7883 222.682 85.9569C224.757 87.1255 226.314 88.8135 226.314 89.4627C226.314 90.1119 223.59 90.7611 220.087 90.7611C216.584 90.7611 211.654 89.7224 208.54 88.1643C204.648 86.3464 200.237 85.5674 194.139 85.5674C189.339 85.5674 183.501 85.048 181.295 84.2689C178.441 83.4033 177.014 83.4033 177.014 84.2689C177.014 84.9181 178.571 86.736 184.149 90.891L175.068 90.1119C170.138 89.7224 163.391 88.5538 160.148 87.515C156.904 86.6061 149.899 84.7883 144.579 83.4899C139.26 82.3213 133.681 80.893 132.254 80.3736C130.568 79.8542 135.627 78.6856 145.877 77.2573Z" fill="#F8F9FB"/>
<path d="M188.69 71.5442C188.69 71.0248 194.658 69.7264 201.924 68.5578C209.319 67.3892 215.546 66.3504 215.935 66.3504C216.324 66.2206 227.741 69.3368 241.234 73.362C254.727 77.2573 266.274 80.7631 266.922 81.1527C267.441 81.4124 266.922 84.2689 263.938 93.358L257.841 92.4491C254.338 92.0596 250.835 90.891 250.056 89.8522C249.148 88.9433 246.424 87.7747 244.218 87.3852C241.883 86.9957 237.083 85.8271 233.45 84.7883C229.947 83.7495 220.217 81.0228 212.043 78.5558C203.87 76.0887 195.177 73.7515 192.972 73.362C190.636 72.9725 188.69 72.1934 188.69 71.5442Z" fill="#F8F9FB"/>
<path d="M68.0339 74.9202C68.0339 74.0113 68.6826 71.0248 69.3313 68.4279C70.1097 65.7012 71.0179 63.4939 71.2773 63.4939C71.6665 63.4939 74.6505 64.9222 78.0237 66.6101C81.5266 68.428 87.4946 70.5055 91.3867 71.4144C95.2789 72.3233 99.4305 73.7516 100.468 74.6605C101.506 75.4395 104.361 77.1275 106.566 78.2961C109.161 79.5946 114.091 80.3736 118.891 80.3736C123.432 80.3736 131.476 81.2825 136.795 82.3213C142.114 83.4899 151.196 85.8271 156.904 87.5151C162.613 89.203 167.673 91.5402 168.192 92.7088C168.84 93.7476 168.97 95.046 168.711 95.6953C168.321 96.2146 163.521 95.8251 157.942 94.9162C152.364 94.0073 145.228 92.579 141.985 91.7999C138.741 90.891 133.292 90.3716 129.659 90.6313C126.157 90.7612 119.67 89.9821 115.388 88.9434C110.588 87.7748 105.398 87.2554 101.766 87.7748C98.1331 88.2941 96.3168 88.1643 96.8357 87.3852C97.2249 86.736 95.1491 86.2166 91.6462 86.2166C88.273 86.0868 83.343 85.6972 80.7482 85.1779C77.375 84.5286 75.5587 83.4899 75.1695 81.6721C74.7803 80.2438 73.0937 78.426 71.2773 77.7767C69.461 77.1275 68.0339 75.6992 68.0339 74.9202Z" fill="#23C3F2"/>
<path d="M262.641 59.3389C260.176 59.3389 260.435 59.0792 263.938 58.3001C266.403 57.7807 270.296 57.3912 272.371 57.2614C275.615 57.2614 275.355 57.521 271.074 58.43C268.22 58.9493 264.457 59.4687 262.641 59.3389Z" fill="#0E2730" fill-opacity="0.3"/>
<path d="M80.359 60.897C79.9698 60.2478 78.4129 59.0792 76.8561 58.43C75.1695 57.6509 74.6505 57.1315 75.8182 57.1315C76.8561 57.0017 80.0995 58.43 88.1433 63.364L82.6943 63.4939C79.5806 63.4939 77.1155 64.1431 77.1155 64.7923C77.1155 65.5714 77.7642 66.0908 78.6724 66.0908C79.4508 66.0908 79.84 66.3505 79.5806 66.74C79.3211 67.1295 77.1155 66.4803 74.91 65.1819C72.5747 63.8834 70.6286 62.4551 70.6286 61.9358C70.6286 61.2865 72.9639 61.1567 75.8182 61.5462C79.0616 61.9358 80.7482 61.6761 80.359 60.897Z" fill="#A6C3E9" fill-opacity="0.9"/>
<path d="M72.1855 60.2477C72.0557 59.8582 72.1855 59.0791 72.445 58.4299C72.8342 57.7807 74.2613 57.6508 75.9479 58.0404C77.5047 58.5597 79.4508 59.7283 80.2292 60.6373C81.3969 61.9357 80.7482 62.0655 77.1155 61.5462C74.6505 61.1566 72.445 60.5074 72.1855 60.2477Z" fill="#23C3F2"/>
<path d="M59.2117 56.6121C58.9522 56.4823 60.5091 50.6393 62.4551 43.6277C64.4012 36.746 66.0878 31.1627 66.2175 31.4223C66.3473 31.8119 64.7904 37.6549 62.9741 44.4068C61.1578 51.2885 59.4712 56.742 59.2117 56.6121Z" fill="#A6C3E9" fill-opacity="0.9"/>
<path d="M89.4407 28.3061C88.0136 28.1762 83.9917 27.1375 80.359 25.7092C75.0397 23.7615 74.7803 23.372 78.4129 24.0212C80.878 24.5406 85.0296 25.7092 87.4946 26.6181C90.2191 27.6568 90.9975 28.3061 89.4407 28.3061Z" fill="#FDC69F" fill-opacity="0.3"/>
<path d="M54.5411 75.1799C62.0659 48.4319 68.5528 25.7092 68.942 24.6704C69.3312 23.7615 70.4989 23.372 71.7963 23.7615C72.9639 24.2809 79.4508 26.2285 86.1972 28.0464C92.9436 29.8642 98.652 31.4223 98.9115 31.5522C99.0413 31.5522 97.0952 35.1878 94.6301 39.4727C90.9975 45.5753 90.0893 48.6916 90.0893 53.7555C90.0893 57.7807 91.1272 62.0656 92.6841 65.052C94.1112 67.7787 95.2788 70.2458 95.2788 70.6353C95.2788 71.0248 94.3707 71.2845 93.3328 71.2845C92.2949 71.2845 88.1432 70.1159 84.2511 68.6876C80.359 67.2593 77.1155 65.4415 77.1155 64.7923C77.1155 64.1431 79.5805 63.4939 88.1432 63.364L82.9537 60.2477C80.0995 58.4299 76.5966 57.0016 75.1694 57.0016C73.0936 57.0016 71.926 58.8195 69.5907 65.7012C68.0339 70.6353 66.7365 75.1799 66.7365 75.8291C66.7365 76.4783 68.4231 77.517 70.6286 78.0364C73.6126 78.8155 74.391 79.7244 74.1315 81.9318C73.8721 84.3988 74.91 84.9182 83.6024 86.6062C88.9217 87.6449 97.7439 88.5538 103.063 88.6837C108.382 88.8135 115.388 89.5926 118.632 90.6313C121.875 91.5402 126.805 92.0596 129.659 91.6701C132.514 91.2805 136.276 91.5402 138.092 92.3193C139.909 92.9685 145.098 94.0073 149.769 94.6565C154.439 95.3057 161.056 96.4743 164.689 97.2534C169.619 98.2921 172.343 98.2921 176.106 96.9937C180.257 95.5654 181.555 95.5654 183.89 97.1235C186.485 98.9414 186.614 98.8115 185.706 96.8639C185.101 95.3923 185.447 94.4401 186.744 94.0073C187.782 93.6177 192.323 94.1371 196.734 95.046C201.275 96.0848 206.205 97.5131 207.762 98.2921C209.448 99.201 211.005 101.279 211.394 103.096C211.827 105.26 213.124 106.559 215.287 106.992C217.103 107.381 218.53 108.03 218.53 108.55C218.53 109.199 216.843 113.744 214.768 118.678C211.005 127.637 210.875 127.767 201.405 132.571C196.215 135.168 190.896 137.375 189.598 137.375C188.431 137.505 179.09 134.778 168.84 131.532C158.721 128.286 149.639 125.43 148.731 125.04C147.952 124.78 147.174 123.612 147.174 122.573C147.174 121.534 145.747 119.716 143.931 118.678C142.114 117.639 140.428 115.561 140.038 114.133C139.649 112.705 138.611 111.536 137.703 111.536C136.925 111.536 135.238 112.445 134.2 113.354C133.162 114.393 129.27 116.73 125.767 118.418C122.135 120.236 117.464 123.222 115.388 125.04C113.183 126.858 109.939 128.416 107.863 128.416C105.917 128.416 104.101 128.935 103.712 129.714C103.323 130.494 102.025 130.753 100.728 130.364C99.5602 129.974 95.4086 131.662 91.3867 134.259C87.4946 136.856 83.9916 139.453 83.6024 140.232C83.2132 140.881 78.5426 142.05 73.2234 142.699C67.9041 143.478 61.4172 144.647 58.9522 145.426C56.4872 146.335 52.3355 148.023 49.8705 149.191C46.3676 150.879 44.9405 152.827 43.5134 157.112C42.6052 160.228 41.5673 163.344 41.1781 164.123C40.9186 164.902 41.697 165.811 42.9944 166.201C44.2918 166.59 46.1081 166.201 46.8865 165.292C47.7947 164.253 49.3516 163.474 50.13 163.474C51.1679 163.344 50.7787 164.513 49.2218 166.071C47.7947 167.499 47.0163 169.057 47.5352 169.707C48.1839 170.226 47.7947 171.395 46.8865 172.433C45.5892 173.991 45.8486 174.121 48.1839 173.342C50.5192 172.693 51.1679 173.082 51.1679 174.9C51.0382 176.848 51.2976 176.848 53.114 175.16C54.9303 173.472 55.1898 173.472 55.06 175.55C55.06 176.718 55.4493 177.757 55.9682 177.757C56.6169 177.627 59.2117 175.29 61.8064 172.563C64.7904 169.317 66.0878 167.239 65.0499 166.85C64.012 166.59 64.2715 165.551 68.6825 160.617L66.0878 161.656C63.7525 162.565 63.6228 162.435 65.4391 160.358C66.477 159.059 69.7204 156.073 72.4449 153.866C76.856 150.36 77.375 150.23 76.0776 152.827C75.1694 154.385 73.3531 155.943 71.926 156.333C69.3312 156.982 69.461 156.982 72.1855 159.579C73.8721 161.007 76.0776 162.305 77.1155 162.176C78.8021 162.176 78.8021 162.305 77.1155 163.474C75.4289 164.643 75.4289 165.032 77.375 166.071C78.6724 166.85 79.7103 168.148 79.7103 169.057C79.7103 170.096 78.6724 170.356 75.8181 169.707C73.3531 169.057 72.1855 169.187 72.5747 169.966C72.9639 170.745 72.3152 171.524 71.2773 171.914C70.2394 172.303 69.5907 173.472 69.9799 174.511C70.4124 175.809 69.9799 176.242 68.6825 175.809C67.6446 175.42 66.7365 175.55 66.7365 176.199C66.7365 176.718 68.1636 178.536 69.9799 180.354C71.7963 182.172 73.2234 184.379 73.2234 185.288C73.2234 186.067 72.5747 187.106 71.926 187.495C71.1476 187.885 69.5907 186.197 68.2933 183.989C66.477 180.743 64.9201 179.705 62.0659 179.445C59.9901 179.315 57.5251 179.834 56.6169 180.484C55.7087 181.263 54.4114 181.003 53.3735 179.964C52.595 179.055 50.3895 177.367 48.5731 176.069C46.3676 174.641 44.8107 174.381 43.6431 175.16C42.6052 176.069 41.8268 175.809 41.4375 174.511C41.0051 173.212 41.6538 172.563 43.3836 172.563C44.8107 172.563 46.2379 172.044 46.6271 171.265C47.0163 170.486 46.3676 169.187 45.3297 168.408C44.0323 167.239 42.8647 167.11 42.216 168.019C41.697 168.798 40.0104 172.823 38.4536 177.108C37.0265 181.393 33.6533 192.429 31.0585 201.778C28.4637 211.127 26.5177 218.788 26.7771 218.918C27.0366 219.047 48.1839 225.15 120.578 245.925L113.702 252.417C109.939 256.053 106.826 259.299 106.955 259.948C106.955 260.468 109.55 266.7 112.793 273.842C116.037 280.983 118.632 287.216 118.632 287.865C118.632 288.384 116.556 289.813 113.831 291.241C109.291 293.448 108.512 293.448 102.414 291.63C98.7818 290.462 81.9158 285.658 64.7904 280.983C47.665 276.179 26.6474 270.206 18.0847 267.869C9.52198 265.402 2.38639 263.194 2.12691 263.065C1.86744 262.935 4.4622 253.196 7.70565 241.381C10.9491 229.565 15.6197 212.945 18.0847 204.375C20.5497 195.805 26.5177 174.251 31.5775 156.333C36.6372 138.544 46.8865 101.928 54.5411 75.1799Z" fill="#F8F9FB"/>
<path d="M57.6548 110.627C59.0819 105.693 60.1198 101.408 60.1198 100.889C59.9901 100.499 61.6767 100.889 63.8822 101.928C65.9581 103.096 67.7744 105.044 67.9041 106.472C67.9041 107.771 68.5528 110.108 69.3312 111.536C70.1097 113.094 71.926 114.133 74.1316 114.133C77.7642 114.263 77.7642 114.263 73.2234 116.47C70.3692 117.899 68.8123 119.587 68.942 121.015C69.2015 122.313 68.4231 123.222 66.996 123.222C65.8283 123.222 62.5849 122.443 55.0601 119.327L57.6548 110.627Z" fill="#23C3F2"/>
<path d="M61.9362 96.8638C61.6767 96.734 61.9362 94.6565 62.3254 92.4491C62.7146 90.1119 63.6228 88.1643 64.2715 88.1643C64.9202 88.1643 68.1636 88.6837 71.5368 89.4627C75.8182 90.3716 78.0237 91.5402 78.4129 93.0984C78.9319 95.3057 78.0237 95.6952 70.6286 96.3445C65.9581 96.734 62.0659 96.9937 61.9362 96.8638Z" fill="#23C3F2"/>
<path d="M208.151 12.5949C205.686 12.5949 205.945 12.3352 209.448 11.5561C211.913 11.0368 215.676 10.6472 217.881 10.5174C221.125 10.5174 220.865 10.7771 216.584 11.686C213.73 12.2054 209.967 12.7247 208.151 12.5949Z" fill="#0E2730" fill-opacity="0.3"/>
<path d="M249.019 8.95924C258.36 7.53096 270.815 5.45345 276.912 4.54454C283.01 3.50578 290.664 2.72672 294.038 2.59687C297.93 2.46703 302.211 3.50578 305.455 5.06391C308.309 6.4922 312.201 9.86815 314.277 12.465C316.742 15.841 317.909 19.2169 318.299 23.7615C318.558 27.3971 318.428 31.9417 317.909 33.8894C317.52 35.9669 315.185 39.6025 312.979 42.3292C310.644 44.9261 306.882 47.7827 304.806 48.5618C302.73 49.4707 293.259 51.4183 284.048 52.8466C274.836 54.4048 254.078 57.6509 237.991 60.1179C221.903 62.5849 196.864 66.4803 182.203 68.6876C167.543 70.895 147.174 74.1411 136.795 75.8291C124.989 77.7767 116.296 78.5558 113.442 77.9066C110.977 77.3872 106.696 75.6992 104.101 74.1411C101.117 72.4531 98.0034 69.0772 96.4465 65.8311C94.6302 62.3253 93.5923 57.7807 93.5923 53.7555C93.5923 50.1199 94.5005 45.5753 95.5384 43.368C96.706 41.1606 99.69 37.525 102.285 35.1878C104.879 32.9804 108.253 30.7731 109.81 30.5134C111.496 30.2537 120.318 28.6956 129.659 27.2673C139.001 25.7092 157.942 22.8526 171.824 20.6452C185.706 18.5677 205.037 15.7111 214.638 14.2829C224.239 12.7247 239.677 10.3875 249.019 8.95924Z" fill="#F8F9FB"/>
<path d="M197.642 52.4571C196.864 51.8079 196.604 50.3796 196.994 49.6005C197.512 48.6916 198.421 47.9125 199.069 47.9125C199.848 47.9125 200.756 48.6916 201.145 49.6005C201.534 50.3796 201.275 51.8079 200.496 52.4571C199.545 53.3227 198.594 53.3227 197.642 52.4571Z" fill="#727DC6"/>
<path d="M181.165 38.0444C182.074 38.3041 183.76 38.0444 184.798 37.3952C185.836 36.746 187.263 36.2266 188.042 36.2266C188.82 36.0967 190.117 36.8758 191.026 37.7847C191.804 38.6936 192.972 41.8099 193.361 44.6665C194.01 48.6916 193.62 50.3796 191.804 52.1974C190.377 53.6257 188.431 54.2749 187.004 53.8854C185.187 53.2362 184.798 53.8854 184.798 57.0017C184.798 59.0792 184.409 61.1567 183.76 61.4164C183.241 61.8059 182.074 57.9106 181.165 52.9765C180.387 48.0424 179.609 42.589 179.609 40.7711C179.609 38.6936 180.257 37.7847 181.165 38.0444Z" fill="#141515"/>
<path d="M184.02 47.6529C183.501 45.9649 183.501 43.6277 184.02 42.4591C184.409 41.1606 185.577 40.1219 186.744 40.1219C187.912 40.1219 188.95 41.68 189.339 44.0172C189.728 46.2246 189.728 48.5618 189.339 49.211C188.95 49.8602 187.782 50.5094 186.744 50.5094C185.706 50.5094 184.409 49.211 184.02 47.6529Z" fill="#F8F9FB"/>
<path d="M158.98 44.6664C158.332 44.0172 158.072 41.8099 158.461 39.8622C158.85 37.7847 159.629 36.2265 160.278 36.2265C160.926 36.2265 161.445 37.1355 161.445 38.1742C161.445 39.213 162.483 40.3816 163.781 40.9009C165.727 41.4203 165.727 41.68 164.04 42.7188C162.613 43.6277 162.353 45.056 163.002 48.8214C163.521 51.5482 164.559 53.8854 165.337 54.1451C165.986 54.2749 166.635 55.054 166.635 55.7032C166.635 56.3524 165.727 57.0016 164.689 57.0016C163.651 57.0016 162.224 55.833 161.445 54.4048C160.667 52.9765 160.148 50.5094 160.148 48.9513C160.148 47.2633 159.629 45.3156 158.98 44.6664Z" fill="#141515"/>
<path d="M140.817 46.6141C140.168 41.9397 140.038 37.6548 140.428 37.0056C140.947 36.4862 141.725 36.7459 142.244 37.6548C142.763 38.6936 143.282 40.9009 143.282 42.7188C143.282 45.3156 143.541 45.5753 144.839 44.4067C145.747 43.4978 147.693 42.7188 149.38 42.7188C151.066 42.7188 152.883 43.7575 153.531 45.056C154.18 46.2246 154.958 49.7304 155.477 52.8466C155.996 56.0927 155.737 58.3001 154.958 58.3001C154.31 58.3001 153.272 56.7419 152.883 54.7943C152.493 52.7168 151.585 49.8602 150.936 48.3021C150.288 46.4842 148.861 45.4455 147.563 45.7052C145.617 45.9649 145.228 47.3932 145.228 52.7168C145.228 56.3524 144.839 59.8582 144.32 60.5074C143.801 61.0268 143.022 60.1179 142.763 58.3001C142.374 56.4823 141.466 51.2885 140.817 46.6141Z" fill="#141515"/>
<path d="M169.23 43.368C168.581 42.9784 168.062 41.0308 168.321 38.8234C168.451 36.7459 169.359 34.9281 170.267 34.9281C171.046 34.9281 171.824 35.837 171.824 36.8758C171.824 37.9145 172.473 38.8234 173.122 38.8234C173.9 38.8234 174.16 41.0308 173.641 44.4067C172.992 48.4319 173.251 50.3796 174.938 52.1974C176.106 53.366 177.014 54.6644 177.014 55.054C177.014 55.4435 175.846 55.7032 174.419 55.7032C172.992 55.7032 171.565 54.7943 171.176 53.7555C170.786 52.7168 170.527 50.1199 170.527 47.9125C170.527 45.7052 170.008 43.7575 169.23 43.368Z" fill="#141515"/>
<path d="M105.139 38.8234C106.436 37.7847 109.55 36.2265 112.145 35.3176C114.61 34.5386 118.113 34.149 119.929 34.5386C121.745 34.9281 124.729 36.0967 126.675 37.0056C128.751 38.0444 131.476 41.1606 132.903 44.0172C134.33 46.8738 135.498 50.3796 135.498 51.8079C135.498 53.2361 134.589 56.6121 133.552 59.3388C132.514 61.9357 129.659 65.4415 127.324 66.9996C124.556 68.9906 121.226 69.9861 117.334 69.9861C113.702 69.9861 109.81 68.9473 107.344 67.3892C105.009 65.9609 102.155 62.7148 101.117 60.2477C100.079 57.7807 99.171 54.0152 99.171 51.8079C99.171 49.6005 99.9494 46.3544 100.987 44.4067C101.895 42.3292 103.842 39.8622 105.139 38.8234Z" fill="#23C3F2"/>
<path d="M112.794 62.1954C112.404 61.5462 112.404 60.2478 112.794 59.5986C113.312 58.9493 114.091 58.3001 114.74 58.3001C115.518 58.3001 116.556 59.4687 117.334 60.897C118.372 63.1043 118.243 63.4939 116.037 63.4939C114.61 63.4939 113.183 62.8447 112.794 62.1954Z" fill="#F8F9FB"/>
<path d="M120.189 56.2226C120.448 56.0927 121.745 55.4435 123.043 54.6645C124.989 53.6257 125.767 53.7556 126.416 55.4435C126.935 56.6121 126.675 58.43 125.897 59.3389C125.119 60.2478 123.692 61.0268 122.783 60.897C122.005 60.897 120.967 59.8582 120.578 58.5598C120.189 57.3912 120.059 56.3524 120.189 56.2226L120.189 56.2226Z" fill="#F8F9FB"/>
<path d="M107.474 52.4571C106.955 50.7691 107.085 48.9513 107.604 48.5618C108.253 48.1723 109.42 47.9126 110.458 47.9126C111.366 47.9126 112.404 48.8215 112.794 49.8602C113.183 50.899 113.442 52.7168 113.442 53.7556C113.442 54.7943 112.275 55.7032 110.847 55.7032C109.161 55.7032 107.993 54.5346 107.474 52.4571Z" fill="#F8F9FB"/>
<path d="M116.686 49.211C116.296 47.6529 116.945 45.8351 118.372 44.6665H118.243C120.318 42.9785 120.837 43.1083 122.913 45.7052C125.248 48.4319 125.248 48.5618 122.913 50.2498C121.616 51.1587 119.799 51.8079 118.891 51.8079C118.113 51.8079 117.075 50.6393 116.686 49.211Z" fill="#F8F9FB"/>
<path d="M244.348 35.4475C244.348 33.6297 244.867 31.0328 245.645 29.6045C246.553 28.3061 247.462 27.1375 247.851 27.1375C248.11 27.1375 248.11 30.2537 247.721 34.0192C247.202 37.6549 246.683 41.8099 246.294 43.1083C246.034 44.2769 245.386 45.3157 244.737 45.3157C244.218 45.3157 242.402 42.8486 237.472 34.2789L236.434 40.5114C235.915 43.8874 234.877 46.6141 234.099 46.6141C233.32 46.6141 231.115 43.1083 228.909 38.8235C225.925 32.7208 225.406 31.0328 226.963 31.0328C228.001 31.0328 229.687 33.1103 230.466 35.5773C231.374 38.0444 232.542 40.1219 233.061 40.1219C233.709 40.1219 234.358 37.7847 234.488 34.9281C234.877 31.1626 235.526 29.7344 237.083 29.7344C238.38 29.7344 239.937 31.5522 240.845 34.2789C241.753 36.7459 242.921 38.8235 243.44 38.8235C244.088 38.8235 244.478 37.2653 244.348 35.4475Z" fill="#141515"/>
<path d="M269.387 34.2789C270.036 33.8894 270.425 31.2925 270.425 28.4359C270.425 25.1898 271.074 23.2421 272.112 23.2421C273.02 23.2421 273.539 24.2809 273.409 25.5793C273.279 26.7479 272.761 30.6433 272.112 34.1491C271.593 37.525 270.685 40.6413 270.036 40.901C269.517 41.1607 267.83 38.9533 263.419 30.3836L261.733 36.6161C260.825 39.9921 259.657 42.7188 259.008 42.7188C258.489 42.7188 256.543 39.4727 254.467 35.5773C252.521 31.682 250.965 28.1762 250.965 27.7867C250.965 27.3972 251.483 27.1375 252.262 27.1375C253.04 27.1375 254.727 29.3448 258.489 36.8758L259.398 32.9805C259.916 30.903 260.565 28.3061 260.825 27.527C261.084 26.6181 261.992 25.839 262.641 25.839C263.419 25.839 264.976 27.9165 266.144 30.3836C267.441 32.8506 268.868 34.5386 269.387 34.2789Z" fill="#141515"/>
<path d="M205.816 42.3292C207.113 35.0579 208.41 27.7867 208.8 26.2286V26.0987C209.189 24.5406 210.097 23.2421 210.746 23.2421C211.524 23.2421 212.043 23.6317 211.913 24.151C211.913 24.8003 210.616 31.8119 209.059 39.9921C207.502 48.1722 205.686 55.054 204.908 55.1838C204.129 55.4435 204.518 50.3796 205.816 42.3293L205.816 42.3292Z" fill="#141515"/>
<path d="M217.752 39.6025C219.308 31.8119 221.125 24.151 221.773 22.8526C222.422 21.5542 223.071 20.7751 223.33 21.1646C223.59 21.684 222.422 28.8254 220.995 37.2653C219.438 45.7052 217.622 53.2362 217.103 53.8854C216.454 54.5346 215.806 54.9242 215.546 54.5346C215.157 54.1451 216.195 47.3932 217.752 39.6025Z" fill="#141515"/>
<path d="M294.816 28.5658C294.946 26.7479 295.465 24.0212 295.724 22.3332V22.4631C296.113 20.7751 296.892 19.4767 297.67 19.4767C298.319 19.4767 298.578 21.9437 298.189 24.9301C297.8 28.0464 297.281 32.0716 296.892 34.0192C296.632 36.0967 295.984 37.6549 295.335 37.6549C294.816 37.6549 293 35.1878 288.07 26.6181L287.032 32.7208C286.513 36.2266 285.475 38.9533 284.696 38.9533C283.918 38.9533 281.583 35.4475 279.507 31.1626C276.523 25.06 276.004 23.372 277.561 23.372C278.728 23.372 280.026 25.3196 280.804 27.9165C281.583 30.3836 282.621 32.4611 283.399 32.4611C284.177 32.4611 285.086 30.2537 285.475 27.527C285.864 24.9301 286.383 22.2034 286.513 21.684C286.513 21.0348 288.459 23.1123 290.535 26.2286C294.167 31.4223 294.427 31.682 294.816 28.5658Z" fill="#141515"/>
<path d="M258.749 4.80425C256.284 4.80425 256.543 4.54457 260.046 3.7655C262.511 3.24612 266.274 2.85659 268.479 2.72675C271.723 2.72675 271.463 2.98643 267.182 3.89534C264.328 4.41472 260.565 4.9341 258.749 4.80425Z" fill="#0E2730" fill-opacity="0.3"/>
<path d="M313.239 8.18017C310.774 5.97282 307.53 3.50578 306.103 2.72671C304.676 1.94765 304.287 1.16858 305.195 1.16858C305.974 1.16858 309.217 3.63562 312.331 6.62204C315.574 9.86815 315.963 10.5174 313.239 8.18017Z" fill="#0E2730" fill-opacity="0.3"/>
<path d="M255.505 5.58331C267.571 3.76549 280.156 1.81782 283.399 1.1686C286.643 0.649222 291.573 0.129844 294.427 0C297.281 0 301.952 1.03875 304.806 2.3372C307.66 3.63564 312.201 7.14144 314.925 9.99801C317.909 13.374 319.985 17.2693 320.504 20.3856C321.023 22.9824 321.023 27.7867 320.634 31.0328C320.115 34.5386 318.299 38.9533 316.093 42.0696C314.017 44.9261 309.736 48.5618 306.622 50.1199C303.249 51.8079 295.076 53.7556 286.643 55.054C278.729 56.0927 259.527 59.0792 243.829 61.5462C228.131 64.0133 203.351 67.7787 188.69 69.9861C174.03 72.1934 161.186 73.8814 160.148 73.6217C159.11 73.362 189.988 68.2981 228.909 62.4551C267.831 56.4823 301.692 50.899 304.157 49.8602C306.622 48.8215 310.255 46.3544 312.201 44.2769C314.147 42.3292 316.612 38.5638 317.65 35.9669C318.818 33.2401 319.726 28.8254 319.726 26.2286C319.726 23.5018 318.428 18.6976 316.871 15.4515C315.055 12.0755 311.552 8.05035 308.309 5.71315C303.249 2.3372 301.562 1.81782 294.038 1.94766C289.237 2.07751 274.188 3.89533 260.695 6.10268C247.202 8.31004 222.682 12.0755 206.205 14.6724C189.728 17.2693 161.445 21.5542 143.282 24.4107C125.119 27.1375 108.512 30.2537 106.307 31.4223C104.101 32.4611 100.858 35.058 98.9115 37.1355C96.9654 39.0831 94.7599 42.3293 94.1112 44.4068C93.3328 46.3544 92.6841 50.5094 92.6841 53.7556C92.6841 57.0017 93.4625 61.5462 94.5004 63.8834C95.4086 66.0908 98.2628 69.8562 100.598 72.1934C103.063 74.4008 107.604 76.9977 110.847 77.9066C115.648 79.205 119.151 79.0752 130.568 77.3872C138.352 76.0888 145.617 75.1799 146.915 75.3097C148.082 75.4396 143.541 76.4783 136.795 77.7767C130.049 79.0752 121.616 80.2438 117.983 80.2438C113.658 80.3304 109.55 79.4214 105.658 77.5171C102.285 75.6992 98.2628 72.1934 95.9275 68.9473C92.4246 63.8834 92.0354 62.1954 92.0354 53.7556C92.0354 45.3157 92.4246 43.6277 95.9275 38.5638C98.1331 35.5773 101.895 31.9417 104.361 30.7731C106.826 29.4747 113.831 27.6568 119.929 26.4882C126.027 25.4495 140.557 23.1123 152.364 21.4243C164.17 19.6065 187.133 16.1007 203.61 13.5038C220.087 11.0368 243.44 7.40113 255.505 5.58331Z" fill="#141515"/>
</svg>
