<svg width="60" height="85" viewBox="0 0 60 85" fill="none" xmlns="http://www.w3.org/2000/svg">
<path d="M0.96517 1.23378C1.24759 0.841213 1.68063 0.467339 1.90657 0.373871C2.1325 0.280402 2.96093 0.205627 3.73288 0.205627C4.50482 0.205627 6.46293 0.31779 8.0633 0.467339C9.66368 0.616889 12.3372 0.859907 13.9941 1.02815C15.651 1.1777 18.3245 1.43941 19.9249 1.60766C21.5253 1.75721 24.067 2.00022 25.5733 2.14977C27.0795 2.29932 29.7907 2.54234 31.5982 2.71058C33.4057 2.86013 35.7027 3.08446 36.6818 3.17793C37.6608 3.2714 40.2026 3.53311 42.3301 3.73874C44.4577 3.92567 47.5831 4.22477 49.2965 4.39302C51.0098 4.56126 53.1185 4.76689 54.0035 4.86036C54.8884 4.97252 55.9804 5.0473 56.4511 5.0473C57.0347 5.0473 57.5054 5.17815 57.995 5.51464C58.3904 5.77635 58.9175 6.31847 59.1811 6.72973C59.52 7.27185 59.6895 7.85135 59.7648 8.84212C59.8213 9.57117 59.7836 26.489 59.6707 46.3978C59.5012 74.6627 59.4071 82.7383 59.2188 83.0935C59.1058 83.3552 58.8799 83.5609 58.7481 83.5609C58.6351 83.5609 58.5222 83.673 58.5222 83.8039C58.5222 83.916 58.2397 84.2151 57.9008 84.4582C57.5808 84.6825 56.9218 84.9255 56.4511 84.9816C55.9804 85.0377 54.8884 84.9629 54.0035 84.7946C53.1185 84.6451 51.8947 84.3834 51.2734 84.2525C50.6521 84.103 48.9199 83.7104 47.4137 83.3739C45.9074 83.0374 44.6083 82.701 44.4953 82.6075C44.3824 82.514 44.1 82.4392 43.8364 82.4392C43.5728 82.4392 42.8573 82.3084 42.236 82.1588C41.6147 82.0093 40.6733 81.7663 40.1649 81.6167C39.6377 81.4672 38.7152 81.2428 38.0939 81.1494C37.4725 81.0372 36.4558 80.8316 35.8345 80.682C35.2132 80.5325 34.1588 80.2895 33.481 80.1399C32.8032 79.9904 29.5083 79.2239 26.1381 78.4575C22.7679 77.6723 18.7387 76.7377 17.1948 76.3825C15.6321 76.0086 13.7682 75.5787 13.0527 75.4291C12.3372 75.2609 11.3958 75.0178 10.9816 74.8683C10.5674 74.7374 9.6825 74.5318 9.0047 74.4196C8.32689 74.3075 7.27253 74.1019 6.65121 73.9523C6.02988 73.8214 4.93786 73.5597 4.20357 73.3915C3.4128 73.2232 2.58437 72.8868 2.1325 72.569C1.71829 72.2699 1.11579 71.6717 0.249709 70.4379L0.212053 56.3054C0.174397 48.5102 0.230881 33.1066 0.437988 1.92545L0.96517 1.23378Z" fill="#B137FE"/>
<path d="M5.05068 0.243018C3.75156 0.186937 2.65954 0.0934685 2.60305 0.0560811C2.54657 0.0186937 3.43148 0 4.57999 0C5.72849 0.0186937 6.82051 0.0934685 7.02762 0.186937C7.25355 0.280406 6.42512 0.299099 5.05068 0.243018Z" fill="#9E27FF" fill-opacity="0.2"/>
<path d="M12.676 0.897298C12.3559 0.897298 11.6969 0.841217 11.1698 0.747748C10.3978 0.635586 10.3413 0.616892 10.8873 0.598199C11.2451 0.598199 11.9229 0.65428 12.3936 0.729055C13.0149 0.841217 13.0902 0.897298 12.676 0.897298Z" fill="#9E27FF" fill-opacity="0.2"/>
<path d="M18.4185 1.45811C18.0608 1.4768 17.4206 1.40203 17.0064 1.32725C16.3474 1.1777 16.3286 1.15901 16.8181 1.15901C17.1382 1.15901 17.7595 1.21509 18.2302 1.28987C19.021 1.43942 19.0398 1.45811 18.4185 1.45811Z" fill="#9E27FF" fill-opacity="0.2"/>
<path d="M24.2552 2.01892C23.8974 2.01892 23.2196 1.96284 22.7489 1.88806C21.9582 1.73851 21.9582 1.71982 22.5607 1.71982C22.9184 1.71982 23.5962 1.7759 24.0669 1.85068C24.8577 2.00023 24.8577 2.01892 24.2552 2.01892Z" fill="#9E27FF" fill-opacity="0.2"/>
<path d="M30.0918 2.57973C29.7341 2.57973 29.0563 2.52365 28.5856 2.44888C27.7948 2.29933 27.7948 2.28063 28.3973 2.28063C28.7551 2.28063 29.4329 2.33671 29.9036 2.41149C30.6943 2.56104 30.6943 2.57973 30.0918 2.57973Z" fill="#9E27FF" fill-opacity="0.2"/>
<path d="M0.004798 50.0057C-0.0140299 39.1072 0.0236259 24.0962 0.0989377 16.6374C0.193077 8.30001 0.268389 5.29032 0.287217 8.78604C0.324873 11.9266 0.268389 26.9376 0.0236259 69.821L0.004798 50.0057Z" fill="#9E27FF" fill-opacity="0.2"/>
<path d="M59.9718 17.4786C59.9529 19.0115 59.9153 17.7964 59.9153 14.768C59.9153 11.7396 59.9529 10.4685 59.9718 11.964C60.0094 13.4595 60.0094 15.927 59.9718 17.4786Z" fill="#9E27FF" fill-opacity="0.2"/>
<path d="M59.7835 48.0428C59.7647 51.389 59.7458 48.6971 59.7458 42.0608C59.7458 35.4246 59.7647 32.6953 59.7835 35.9854C59.8211 39.2755 59.8211 44.6967 59.7835 48.0428Z" fill="#9E27FF" fill-opacity="0.2"/>
<path d="M59.5952 78.7005C59.5764 80.8129 59.5575 79.1678 59.5575 75.0552C59.5575 70.9426 59.5764 69.2228 59.5952 71.223C59.6329 73.2233 59.6329 76.5881 59.5952 78.7005Z" fill="#9E27FF" fill-opacity="0.2"/>
<path d="M4.39195 15.1419C4.52375 14.8802 4.90031 14.4316 5.25804 14.1325C5.86053 13.6277 5.93584 13.609 7.31028 13.7025C8.08223 13.7773 9.8144 13.9455 11.17 14.0951C12.5256 14.2446 14.7097 14.5063 16.0653 14.6559C17.4209 14.8054 19.6991 15.0671 21.1488 15.2354C22.5986 15.3849 24.8391 15.6466 26.1382 15.7962C27.4373 15.9271 29.6779 16.1888 31.1276 16.357C32.5774 16.5253 34.8179 16.7683 36.117 16.9178C37.4161 17.0674 39.5625 17.3104 40.9181 17.4599C42.2738 17.6282 44.5519 17.8712 46.0017 18.0394C47.4514 18.2077 49.6543 18.4507 50.8969 18.5816C52.1396 18.7124 53.4199 18.9554 53.7211 19.105C54.0224 19.2732 54.4178 19.5536 54.5872 19.7406C54.7567 19.9462 55.0391 20.3762 55.2085 20.7126C55.4721 21.2361 55.5098 22.339 55.491 29.9473C55.491 34.7142 55.378 47.3886 55.2462 58.1374C55.0391 76.8872 55.0014 77.7098 54.6625 78.4014C54.4554 78.8127 54.0412 79.3174 53.7588 79.523C53.2316 79.9156 53.2128 79.9156 51.4994 79.5978C50.5392 79.4109 49.2213 79.1492 48.5434 78.9996C47.8656 78.8501 46.7171 78.607 46.0017 78.4575C45.2862 78.308 43.3658 77.9154 41.7654 77.5789C40.165 77.2424 38.3387 76.8685 37.7174 76.7377C37.0961 76.5881 35.9476 76.3638 35.1756 76.1956C34.4037 76.046 32.5774 75.6534 31.1276 75.3543C29.6779 75.0366 27.3055 74.5318 25.8558 74.2327C24.406 73.9149 22.4103 73.485 21.4312 73.2793C20.4522 73.0737 19.266 72.812 18.7953 72.7185C18.3246 72.6251 17.1385 72.382 16.1594 72.1577C15.1804 71.9521 13.7306 71.6343 12.9587 71.4847C12.1867 71.3165 10.4545 70.9613 9.09894 70.6622C7.74332 70.3818 6.38771 70.0266 6.08647 69.8584C5.76639 69.7088 5.35218 69.3724 5.12624 69.1293C4.91913 68.905 4.58023 68.4377 4.37312 68.1386C4.01539 67.5965 4.01539 67.0356 4.09071 41.5935C4.14719 21.4417 4.20367 15.4971 4.39195 15.1419Z" fill="#444D90"/>
<path d="M29.5651 48.9401L30.2994 48.1924L31.0337 47.4446L32.314 47.5381C33.0106 47.5942 34.2533 47.7624 35.0817 47.9307C35.9101 48.0802 37.3034 48.3419 38.1883 48.5102C39.0732 48.6784 40.5041 48.9401 41.389 49.0897C42.274 49.2579 43.366 49.4449 43.8555 49.5009C44.3262 49.5757 45.0605 49.8561 45.4935 50.1365C45.9642 50.4543 46.4538 50.9964 46.6797 51.4451C47.0939 52.2302 47.0939 52.305 46.868 56.3615C46.755 58.6235 46.6609 61.3154 46.6609 62.3435C46.6609 63.8016 46.5667 64.3811 46.3031 64.9606C46.0584 65.4467 45.7006 65.8206 45.2676 66.0262C44.891 66.2131 44.458 66.3627 44.3074 66.3627C44.1567 66.3627 41.3702 65.7832 38.1506 65.0728C34.9122 64.3624 32.0127 63.7269 31.6927 63.6708C31.3914 63.6147 30.9019 63.3343 30.6383 63.0539C30.3747 62.7548 30.017 62.3248 29.8287 62.0631C29.5651 61.6519 29.5274 60.8854 29.5651 48.9401Z" fill="#FDA572"/>
<path d="M12.7321 28.0966C12.8638 27.8536 13.1839 27.5358 13.4852 27.3863C13.8617 27.1619 14.3889 27.1245 15.4998 27.1806C16.3282 27.218 19.0018 27.5545 21.4306 27.9097C23.8594 28.2836 26.0811 28.6574 26.3823 28.7696C26.6647 28.8818 27.0789 29.2556 27.3049 29.5734C27.5308 29.9099 27.7567 30.5081 27.8132 30.9007C27.8885 31.4241 27.8509 31.6671 27.6438 31.7793C27.4367 31.9101 27.3237 32.4896 27.2296 34.0599C27.1542 35.2189 27.0978 37.6491 27.0978 39.4437C27.0978 42.2851 27.0601 42.7525 26.7777 42.9955C26.5141 43.2198 25.9493 43.2759 24.0853 43.2572C22.7862 43.2385 20.9975 43.089 20.1126 42.9207C19.2277 42.7525 18.1357 42.5469 17.665 42.4347C17.1943 42.3412 16.1399 42.2664 15.3115 42.2478C14.163 42.2478 13.7111 42.1543 13.4287 41.9113C13.2028 41.743 12.9392 41.4626 12.8074 41.3131C12.6756 41.1635 12.5061 40.7336 12.4308 40.3784C12.3367 40.0232 12.3178 37.2005 12.3932 34.116C12.4685 30.3586 12.5814 28.377 12.7321 28.0966Z" fill="#B1E7D5"/>
<path d="M26.6647 43.4629C26.6459 43.2947 26.7777 42.9582 26.966 42.7151C27.1543 42.4534 27.3802 42.2478 27.4555 42.2478C27.5496 42.2478 27.5685 42.4721 27.512 42.7712C27.4743 43.0516 27.3237 43.3881 27.2107 43.519C27.0789 43.6498 26.9283 43.762 26.8342 43.7433C26.7589 43.7433 26.6836 43.6124 26.6647 43.4629Z" fill="#27A18D"/>
<path d="M13.9371 44.6219C13.8053 44.491 13.7111 44.3228 13.7299 44.2293C13.7488 44.1359 14.1065 44.1172 14.5395 44.1733C14.9726 44.2293 16.0646 44.4163 17.006 44.5845C17.9286 44.7715 19.3407 45.0145 20.1126 45.1453C20.8846 45.2762 22.3343 45.5192 23.3134 45.6874C24.2924 45.8557 25.4033 46.1548 25.761 46.323C26.1187 46.4913 26.6082 46.9399 26.853 47.2951C27.3049 47.9494 27.3049 47.9681 27.1919 51.9685C27.1354 54.1744 27.0225 56.9971 26.9472 58.2309C26.8342 60.362 26.8154 60.4929 26.307 60.9789C25.9869 61.2967 25.5915 61.5023 25.2526 61.5023C24.9702 61.5023 22.8615 61.1284 20.5833 60.6611C18.3051 60.1938 16.0458 59.7264 15.5374 59.6329C15.0479 59.5208 14.6525 59.3712 14.6525 59.2591C14.6525 59.1469 15.0667 59.0721 15.5939 59.0721C16.347 59.0721 16.6859 58.96 17.2884 58.5113C17.7026 58.2122 18.1733 57.9505 18.324 57.9505C18.4746 57.9505 18.7947 57.7636 19.0206 57.5206C19.2654 57.2775 19.9996 56.642 20.6775 56.1185C21.3553 55.5951 21.9766 55.1652 22.0895 55.1465C22.1837 55.1465 22.6167 54.9782 23.0309 54.7726C23.4452 54.567 23.8405 54.2305 23.9159 54.0248C24.01 53.8192 24.3866 53.464 24.7631 53.221C25.1585 52.978 25.648 52.5854 25.8551 52.3237C26.1564 51.9685 26.2882 51.4638 26.4011 50.0057C26.5141 48.5102 26.4953 48.0242 26.2693 47.5755C26.1187 47.2577 25.8551 46.9586 25.6857 46.8651C25.5162 46.7904 25.1208 46.7343 24.8196 46.7343C24.4995 46.7343 24.2171 46.8091 24.1606 46.9212C24.1041 47.0334 23.7841 47.1082 23.4452 47.1082C23.1251 47.0895 22.7109 47.2203 22.5602 47.3886C22.4096 47.5381 22.0895 47.7064 21.8448 47.7624C21.6188 47.8185 21.3364 48.0242 21.2423 48.2298C21.1293 48.4354 20.941 48.6037 20.8092 48.6037C20.6963 48.6037 20.3197 48.8467 20.0185 49.1645C19.6984 49.4823 19.2842 49.7253 19.0582 49.7253C18.8511 49.7253 18.6064 49.8188 18.4934 49.9122C18.3993 50.0244 18.1169 50.2113 17.8533 50.3609C17.5897 50.5104 17.119 50.7534 16.8177 50.903C16.4976 51.0338 15.7634 51.5199 15.142 51.9872C14.5395 52.4359 13.7676 52.9967 13.4475 53.2397C13.1274 53.464 12.6756 53.651 12.4308 53.651C12.0354 53.651 12.0166 53.5762 12.0166 50.5665L12.8074 50.4543C13.4475 50.3796 13.8053 50.1552 14.5019 49.4823C15.142 48.8467 15.5374 48.6037 15.914 48.6037C16.2341 48.6037 16.6106 48.4354 16.9119 48.1176C17.1755 47.8559 17.5708 47.5568 17.7968 47.4633C18.0415 47.3699 18.2863 47.1082 18.3428 46.8838C18.4181 46.6408 18.4181 46.3043 18.3428 46.1361C18.2863 45.9492 17.9474 45.6874 17.6085 45.5379C17.2884 45.407 16.3659 45.1827 15.5939 45.0706C14.822 44.9397 14.0688 44.7341 13.9371 44.6219Z" fill="#27A18D"/>
<path d="M27.1166 37.537C27.2107 34.8264 27.3237 32.4336 27.3802 32.2093V32.1906C27.4367 31.9662 27.5685 31.7793 27.6626 31.7793C27.7568 31.7793 27.8321 33.0505 27.8321 34.6207C27.8321 36.191 27.7756 38.5464 27.6814 39.855C27.5873 41.7243 27.4932 42.2665 27.2672 42.3599C27.0225 42.4534 27.0036 41.8739 27.1166 37.537Z" fill="#51AFAA"/>
<path d="M15.688 42.7899C14.9726 42.6777 14.276 42.5282 14.1818 42.4347C14.0688 42.3225 14.5584 42.2665 15.4056 42.2665C16.1776 42.2852 17.1943 42.3599 17.665 42.4534C18.1357 42.5656 19.2277 42.7712 20.1126 42.9394C20.9975 43.1077 22.8238 43.2572 24.2171 43.2759C26.6082 43.2946 26.7212 43.3133 26.6647 43.6685C26.6271 43.9302 26.4011 44.0798 25.8551 44.1919C25.2903 44.3228 24.123 44.1919 21.054 43.6685C18.8323 43.2946 16.4035 42.9021 15.688 42.7899Z" fill="#51AFAA"/>
<path d="M12.2614 46.4912C12.412 45.5753 12.6003 45.0705 12.9203 44.7714C13.1651 44.5284 13.4099 44.3228 13.4852 44.3228C13.5605 44.3228 13.7488 44.4536 13.8994 44.6032C14.05 44.7527 14.822 44.9584 15.5939 45.0892C16.3659 45.2014 17.2884 45.4257 17.6273 45.5566C17.9474 45.7061 18.2863 45.9678 18.3428 46.1361C18.4181 46.323 18.4181 46.6595 18.3428 46.8838C18.2863 47.1268 18.0415 47.3885 17.8156 47.482C17.5708 47.5755 17.1755 47.8746 16.9119 48.1363C16.6106 48.4541 16.2341 48.6223 15.914 48.6223C15.5374 48.6223 15.142 48.8653 14.5019 49.5009C13.8053 50.1739 13.4475 50.3982 12.0166 50.5852V49.1831C12.0354 48.4167 12.1296 47.2016 12.2614 46.4912Z" fill="#51AFAA"/>
<path d="M23.4452 47.1268C23.7841 47.1268 24.1041 47.0334 24.1606 46.9399C24.2359 46.8277 24.5183 46.753 24.8196 46.753C25.1397 46.753 25.5162 46.809 25.6857 46.8838C25.8551 46.9773 26.1187 47.2764 26.2693 47.5942C26.4953 48.0428 26.5141 48.5289 26.4011 50.0244C26.2882 51.4825 26.1564 51.9872 25.8551 52.3424C25.648 52.6041 25.1585 52.9967 24.7819 53.2397C24.3866 53.4827 24.01 53.8379 23.9347 54.0435C23.8405 54.2491 23.4452 54.5856 23.0309 54.7912C22.6167 54.9969 22.1837 55.1651 22.0895 55.1651C21.9954 55.1838 21.3553 55.6138 20.6775 56.1372C19.9996 56.6606 19.2654 57.2962 19.0394 57.5392C18.7947 57.7822 18.4746 57.9692 18.324 57.9692C18.1733 57.9692 17.7215 58.2122 17.3449 58.5113C16.7612 58.9413 16.3659 59.0534 15.2174 59.1469C14.0688 59.2404 13.7111 59.203 13.2969 58.9413C13.0145 58.773 12.6003 58.3617 12.3932 58.0626C12.0731 57.5953 12.0166 57.2027 12.0166 55.5764C12.0166 53.7257 12.0354 53.6696 12.4496 53.6696C12.6756 53.6696 13.1274 53.4827 13.4475 53.2584C13.7676 53.0153 14.5207 52.4732 15.1044 52.0246C15.688 51.5759 16.4412 51.0899 16.7801 50.9403C17.1001 50.7721 17.5897 50.5291 17.8533 50.3795C18.1169 50.23 18.3993 50.043 18.5122 49.9309C18.6064 49.8374 18.8511 49.7439 19.0771 49.7439C19.2842 49.7439 19.6984 49.5009 19.9808 49.1831C20.2821 48.884 20.6398 48.6223 20.7904 48.6223C20.941 48.6223 21.1481 48.4541 21.2423 48.2485C21.3364 48.0428 21.6377 47.8185 21.8824 47.7624C22.1272 47.7063 22.4284 47.5381 22.5791 47.3885C22.7109 47.239 23.1063 47.1268 23.4452 47.1268Z" fill="#51AFAA"/>
<path d="M30.5063 30.4708C30.7134 30.209 31.2029 29.9099 31.5795 29.7791C31.956 29.6482 32.2949 29.5548 32.3514 29.5361C32.4079 29.5361 32.9162 29.6108 33.4811 29.723C34.0459 29.8352 37.096 30.3399 40.2591 30.8446C44.4201 31.5176 46.1334 31.8728 46.4724 32.1158C46.7359 32.3214 47.0748 32.714 47.2255 33.0131C47.4514 33.4244 47.4891 34.1347 47.4514 36.0789C47.4326 37.4622 47.3573 40.4345 47.1313 46.7717L45.6251 48.0989L44.1189 48.0055C43.2904 47.9307 42.2737 47.7998 41.8595 47.6877C41.4453 47.5755 40.4286 47.3699 39.6002 47.2203C38.7717 47.0708 37.1149 46.7717 35.9287 46.5473C34.7426 46.3417 33.2175 46.0426 32.5397 45.8931C31.6548 45.6874 31.1652 45.4631 30.1862 44.4723L30.1485 37.7052C30.0921 31.0316 30.1109 30.9381 30.5063 30.4708Z" fill="#E56EFF"/>
</svg>
