<svg width="114" height="100" viewBox="0 0 114 100" fill="none" xmlns="http://www.w3.org/2000/svg">
<path fill-rule="evenodd" clip-rule="evenodd" d="M77.8459 9.28367C77.95 9.36161 78.4185 10.8683 78.861 12.6609C79.3035 14.4534 80.8913 20.5842 82.4009 26.2995C83.8846 32.0147 85.3943 37.7559 85.7587 39.0289C86.097 40.3018 87.1642 44.4583 88.1012 48.2512C89.0383 52.044 89.8712 55.5511 90.1835 57.0059L89.2205 56.3304C88.6999 55.9667 85.9669 53.9664 83.1818 51.8881C80.3707 49.8099 77.5596 47.7316 75.7376 46.4327L76.7006 46.2768C77.2473 46.1989 77.8459 46.069 78.0281 45.9651C78.2884 45.8092 78.2363 45.2637 77.7158 43.3153C77.3514 41.9644 76.7787 39.8602 76.4924 38.6392C76.1801 37.4182 75.8417 36.3531 75.7636 36.2492C75.6855 36.1453 74.7225 36.3011 73.6553 36.5609C72.5881 36.8467 71.625 37.0805 71.4949 37.0805C71.3908 37.0805 71.1045 36.1972 70.8442 35.1061C70.6099 34.015 70.2715 33.0538 70.1414 33.0019C69.9852 32.924 68.892 33.1058 67.6687 33.3916C66.159 33.7293 65.4562 34.015 65.4823 34.2489C65.4823 34.4567 65.5864 34.9243 65.6645 35.314C65.8467 35.9894 65.7686 36.0673 64.6754 36.431C63.7644 36.7428 63.478 36.7428 63.4 36.483C63.3479 36.3271 63.1136 35.6517 62.9314 35.0022C62.7232 34.3528 62.4629 33.8592 62.3328 33.8592C62.1766 33.8852 58.9751 34.6385 55.1749 35.5218C51.3747 36.4051 48.1471 37.2364 48.017 37.3663C47.8434 37.5221 47.8695 38.059 48.095 38.9769C48.3553 40.068 48.3553 40.3538 48.095 40.5096C47.9128 40.6135 47.2361 40.7954 46.6114 40.8993C45.9867 41.0032 45.4401 41.1591 45.3881 41.237C45.362 41.315 45.4401 42.1982 45.5963 43.1854C45.7525 44.1726 45.9607 45.0818 46.0388 45.1857C46.1169 45.2896 46.8196 45.2117 47.5484 45.0039C48.6416 44.6921 48.954 44.6921 49.0321 44.9259C49.0841 45.1078 49.2403 45.8352 49.3444 46.5366C49.4746 47.212 49.6307 47.8355 49.7088 47.8615C49.7869 47.9135 51.1144 47.7056 52.7021 47.4199C54.2639 47.1341 55.6434 46.8224 55.7475 46.7185C55.8516 46.6405 55.7215 45.8092 55.4612 44.874C55.2009 43.9388 54.8365 43.1594 54.6283 43.1075C54.42 43.0555 53.8214 43.1334 52.3117 43.5751L52.0254 42.1982C51.8692 41.4708 51.8172 40.6915 51.8952 40.5096C51.9733 40.3538 52.3117 40.1979 52.624 40.1979C53.0926 40.1979 53.3008 40.4057 53.5351 41.237C53.7173 41.8085 53.8995 42.2762 53.9255 42.2762C53.9775 42.2762 54.9406 41.9904 56.0859 41.6787C57.6997 41.211 58.1942 40.9772 58.2723 40.5876C58.3243 40.3018 58.4805 39.9901 58.6627 39.8862C58.8189 39.7822 59.1573 39.6783 59.3915 39.6783C59.782 39.6783 59.9642 40.1719 60.4066 42.1982C60.719 43.6011 61.0313 44.848 61.1354 44.9519C61.2135 45.0818 62.1506 44.9259 63.1657 44.6402C65.0398 44.0946 65.0658 44.0946 64.9877 43.2633C64.9356 42.5619 65.0398 42.432 65.7165 42.2502C66.2631 42.0943 66.5494 42.1463 66.6796 42.3541C66.7577 42.5359 66.9919 43.3153 67.1481 44.0946C67.3043 44.874 67.3563 45.6014 67.2262 45.6793C67.1221 45.7573 65.5603 46.1469 63.7644 46.5366C61.9684 46.9263 60.4847 47.264 60.4327 47.29C60.3806 47.316 60.5368 47.8095 60.771 48.3811C60.9793 48.9526 61.1355 49.4462 61.1094 49.4462C61.0574 49.4722 60.5888 49.5501 60.0422 49.654C59.1573 49.8099 59.0792 49.7579 58.923 49.0825C58.8449 48.6928 58.7148 48.1992 58.6107 47.9654C58.4545 47.6017 58.1942 47.6277 56.0078 48.0953C54.1597 48.511 53.6392 48.7188 53.7173 49.0305C53.7953 49.2384 53.8995 49.7579 54.0036 50.1995C54.1597 50.9529 54.1077 51.0049 51.7911 51.6284L52.2076 53.3689C52.4418 54.3561 52.7021 55.2134 52.8062 55.3433C52.8843 55.4472 54.7063 55.1095 56.8667 54.6159C59.0011 54.0963 60.9272 53.6287 61.0834 53.5508C61.2916 53.4988 61.5519 53.8885 61.7341 54.6159C61.9684 55.4732 62.1766 55.7589 62.4629 55.681C62.6711 55.603 63.7123 55.3173 64.7274 55.0315C65.7686 54.7198 66.6275 54.46 66.6275 54.408C66.6275 54.3821 66.3933 53.7066 66.1069 52.9273C65.8206 52.1479 65.5864 51.3426 65.5864 51.1607C65.5864 51.0049 66.4193 50.6152 67.4604 50.3035C68.5016 50.0177 69.6729 49.654 70.0633 49.5241C70.662 49.3423 70.7661 49.3682 70.662 49.68C70.5839 49.9398 72.1196 51.3166 75.5294 54.0443C78.2884 56.2265 81.2297 58.5386 82.0626 59.1881C83.2599 60.1233 83.4681 60.3571 83.1037 60.5129C82.8434 60.6169 82.5051 60.6948 82.3749 60.7208C82.2187 60.7208 79.772 58.8503 71.7031 52.3298L71.1826 53.0052C70.8962 53.3689 70.1674 54.3561 69.5688 55.1874C68.9701 56.0187 68.4235 56.876 68.3194 57.0838C68.1892 57.3696 69.5948 58.4866 73.7073 61.3962C76.7527 63.5524 80.0844 65.8905 81.0735 66.5919C82.0886 67.2933 83.2078 68.0726 84.1969 68.7481L81.3858 72.9306C79.5291 75.7016 78.488 77.0265 78.2624 76.9053C78.1062 76.8014 74.4882 74.2815 70.2715 71.268C66.0549 68.2545 62.515 65.6826 62.4109 65.5268C62.3067 65.3969 62.3848 65.0332 62.541 64.7734C62.8273 64.3058 62.8013 64.2798 61.9423 64.4097C61.4478 64.4617 57.0489 65.189 52.1816 66.0204C47.3142 66.8257 41.9783 67.7089 37.3452 68.4623L36.304 67.631C35.7314 67.1894 34.6121 66.5659 33.8313 66.2542C32.8422 65.8385 31.8531 65.6567 30.6297 65.6567C29.6407 65.6567 28.8858 65.5527 28.8858 65.3969C28.8858 65.241 28.7036 63.0069 28.4954 60.3831C28.2872 57.7852 28.0529 54.9536 27.9748 54.0963C27.8967 53.239 27.7406 50.3035 27.6104 47.6017C27.4542 44.9 27.272 40.1459 27.1679 37.0805C27.0898 34.015 26.9597 31.2613 26.9076 30.9756C26.8556 30.6898 26.7254 28.3518 26.6213 25.7799C26.5172 23.2081 26.4131 20.9999 26.4131 20.844C26.4131 20.7141 27.22 20.4544 28.2351 20.2465C29.2242 20.0647 32.3997 19.3892 35.2629 18.7658C38.126 18.1423 42.1605 17.259 44.2428 16.8434C46.3251 16.4017 51.3486 15.3106 55.4352 14.3754C59.5217 13.4662 64.9096 12.2192 67.4084 11.6217C69.9071 11.0242 73.2388 10.2189 74.8005 9.82922C76.3883 9.43954 77.7418 9.20574 77.8459 9.28367V9.28367ZM72.1456 42.0164C72.484 42.0164 72.7182 42.406 73.0306 43.4971C73.4471 44.9259 73.421 45.0558 72.9785 45.8612C72.6922 46.3288 72.4319 46.6925 72.3538 46.6925C72.2758 46.6925 71.9634 45.7313 71.6511 44.5623C71.2346 42.9516 71.1565 42.3541 71.3908 42.2242C71.573 42.1203 71.9114 42.0164 72.1456 42.0164V42.0164Z" fill="#FDFDFE"/>
<path d="M27.2457 39.4185C27.1937 39.9121 27.1416 39.4445 27.1416 38.3794C27.1416 37.3143 27.1937 36.8986 27.2457 37.4702C27.2978 38.0417 27.2978 38.925 27.2457 39.4185Z" fill="#BBB2DB"/>
<path d="M72.6919 46.3288C72.9522 46.017 73.2125 45.5754 73.2906 45.3416C73.3687 45.0818 73.4988 44.874 73.5769 44.874C73.655 44.874 74.0975 45.1598 74.54 45.5234C74.9825 45.8871 75.6332 46.1989 75.9976 46.1989C76.5182 46.2249 76.5442 46.2508 76.1277 46.3548C75.6852 46.4327 75.7893 46.5886 76.7784 47.238C77.4292 47.6537 80.2403 49.706 83.0253 51.7583C85.8104 53.8365 89.1161 56.2525 90.3654 57.1617C91.6409 58.045 92.656 58.8503 92.656 58.9802C92.656 59.0841 92.1354 60.2532 91.5107 61.5781C90.886 62.877 90.2093 64.2019 89.975 64.4876C89.6106 64.9812 89.5065 64.9293 86.6694 62.799C85.0816 61.5781 83.65 60.6169 83.5199 60.6688C83.3897 60.6948 83.3117 60.6169 83.3377 60.487C83.3897 60.3571 82.765 59.7596 81.9842 59.1361C81.2033 58.5126 78.2881 56.2265 70.5315 50.0697L71.3645 48.459C71.833 47.5757 72.4316 46.6145 72.6919 46.3288Z" fill="#BBB2DB"/>
<path d="M69.4644 55.3952C70.1671 54.408 70.948 53.3169 71.1823 52.9792C71.4165 52.6675 71.6508 52.4077 71.7028 52.4077C71.7809 52.4077 73.4468 53.7066 75.3989 55.3173C77.3771 56.902 80.6047 59.5777 82.5829 61.2144C84.561 62.877 86.1488 64.2798 86.1488 64.3577C86.1488 64.4357 85.5762 65.3709 83.6761 68.4623L82.1924 67.3712C81.3595 66.7997 77.8977 64.3577 74.4358 61.9677C71.0001 59.5518 68.1889 57.5254 68.1889 57.4215C68.1629 57.2916 68.7616 56.4084 69.4644 55.3952Z" fill="#BBB2DB"/>
<path d="M59.183 70.9303C59.1309 70.7484 59.8077 69.5274 60.6927 68.2545C61.5776 66.9816 62.4106 65.9164 62.5667 65.9164C62.7229 65.9164 65.482 67.8129 68.7095 70.1249C71.9371 72.437 75.3469 74.879 78.0799 76.8273L77.4292 77.8665C77.0127 78.5419 76.6743 78.8277 76.4661 78.7238C76.2405 78.5852 76.1971 78.6285 76.3359 78.8537C76.4401 79.0355 76.1017 79.7369 74.4358 82.023L72.2755 80.5422C71.1042 79.7109 68.6054 77.9184 66.7574 76.5416C64.9093 75.1647 62.4366 73.4242 61.3174 72.6448C60.1981 71.8655 59.209 71.0861 59.183 70.9303Z" fill="#BBB2DB"/>
<path d="M82.6609 71.294C82.6609 71.1121 82.8692 70.6705 83.1295 70.2808V70.2548C83.3897 69.8652 83.6761 69.5534 83.7541 69.5534C83.8583 69.5534 84.3007 69.8652 84.7172 70.2288C85.1337 70.5925 85.3419 70.8263 85.1597 70.7484C85.0035 70.6705 84.8474 70.6965 84.8474 70.8523C84.8474 71.0082 85.0296 71.0602 85.2378 70.9822C85.472 70.9043 87.0338 71.8655 88.9339 73.2423C90.7559 74.5672 92.7861 76.074 93.4629 76.5676C94.1136 77.0611 95.5972 78.1782 96.7165 79.0095C97.8617 79.8668 99.6317 81.2177 100.673 81.997C101.714 82.8024 102.625 83.6077 102.677 83.7636C102.755 83.9454 102.963 84.0753 103.12 84.0233C103.302 83.9974 103.432 84.1273 103.38 84.2831C103.354 84.465 103.562 84.6208 103.848 84.6208C104.135 84.6208 104.421 84.8027 104.499 85.0105C104.577 85.2183 104.811 85.4002 105.02 85.4002C105.228 85.4002 105.592 85.686 105.801 86.0497C106.009 86.4133 106.399 86.6991 106.633 86.6991C107.024 86.6991 107.05 86.7511 106.712 86.9589C106.399 87.1667 106.477 87.2187 107.024 87.2187C107.492 87.2187 107.753 87.3486 107.753 87.6084C107.753 87.8162 107.831 87.9461 107.935 87.8941C108.065 87.8162 109.21 88.5696 110.486 89.5308C111.761 90.4919 113.089 91.687 113.427 92.1805C113.843 92.804 114 93.4275 114 94.2848C114 94.9862 113.843 95.8435 113.635 96.2332C113.427 96.6488 112.984 97.2203 112.646 97.5061C112.334 97.8178 111.657 98.2595 111.188 98.4933C110.746 98.7271 110.095 98.9089 109.757 98.9089C109.445 98.9089 108.664 98.6491 108.013 98.3374C107.362 97.9997 106.659 97.584 106.451 97.4282C106.243 97.2463 105.436 96.5969 104.655 95.9994C103.874 95.3759 102.755 94.5186 102.13 94.1029C101.506 93.6873 99.6577 92.3104 98.0179 91.0375C96.005 89.5308 95.0593 88.6648 95.1808 88.4397C95.3109 88.2318 95.389 88.2578 95.4411 88.5696C95.4931 88.8293 95.6233 88.9852 95.7794 88.9073C95.9356 88.8293 95.9096 88.6215 95.7013 88.3877C95.4931 88.1019 95.2849 88.076 95.0506 88.2578C94.8164 88.4397 93.2807 87.4265 89.3243 84.413C86.357 82.1529 82.8692 79.5031 81.5417 78.49C80.2142 77.5028 79.121 76.6195 79.095 76.4896C79.069 76.3857 79.3553 75.8402 79.7197 75.2686C80.1882 74.5932 80.5266 74.3074 80.7348 74.4373C80.9604 74.5586 81.0038 74.5153 80.865 74.3074C80.7608 74.0996 81.0472 73.4242 81.5157 72.6708C81.9842 71.9694 82.4267 71.4239 82.5048 71.4758C82.5829 71.5278 82.6349 71.4498 82.6609 71.294Z" fill="#BBB2DB"/>
<path d="M54.3417 73.0605C54.3156 72.9825 54.7841 72.3591 55.4088 71.6577L56.5281 70.3587L57.6213 71.19C58.1939 71.6577 58.9487 72.2552 59.2611 72.5669C59.7036 72.9826 59.7556 73.1644 59.5214 73.4761C59.2611 73.8139 59.2611 73.8139 59.6515 73.5281C59.9899 73.3203 60.2502 73.2943 60.5105 73.4761C60.7187 73.632 60.8228 73.8658 60.7187 74.0477C60.5799 74.2728 60.6233 74.3161 60.8488 74.1776C61.031 74.0736 62.0462 74.6452 63.4257 75.7103C64.7011 76.6455 65.9244 77.5288 66.1587 77.6587C66.419 77.7885 66.5491 78.0223 66.445 78.2042C66.3149 78.464 66.2628 78.464 66.1847 78.2042C66.1327 78.0483 65.9765 77.8925 65.8464 77.8925C65.6902 77.8925 65.5861 77.9704 65.5861 78.0743C65.5861 78.2042 65.8203 78.438 66.1066 78.5939C66.393 78.7757 66.5752 78.8277 66.4971 78.6718C66.419 78.5159 66.4711 78.3601 66.6272 78.2821C66.7574 78.2042 67.1999 78.3601 67.5643 78.5939C68.0588 78.9576 68.1369 79.1134 67.8766 79.2693C67.6163 79.4512 67.6423 79.4771 67.9287 79.3732C68.1629 79.2953 69.5424 80.0746 71.2083 81.2177C72.796 82.3088 74.4879 83.5298 75.8674 84.5689L73.8372 86.9589C71.859 89.2969 71.833 89.3229 71.1823 88.9332C70.8179 88.7254 70.5315 88.4397 70.5315 88.2838C70.5315 88.1279 70.3754 88.024 70.1932 88.024C70.037 88.024 69.4904 87.6863 68.9958 87.2966C68.5273 86.9069 67.8506 86.3354 67.5122 85.9977C67.1738 85.686 66.6793 85.3742 66.419 85.2963C66.1847 85.2443 65.6121 84.8546 65.1956 84.465C64.7792 84.0493 64.2065 83.6337 63.9463 83.5298C63.712 83.4258 63.5558 83.1661 63.6339 82.9582C63.712 82.7504 63.9463 82.5686 64.1545 82.5686C64.3627 82.5686 64.597 82.4646 64.6751 82.3088C64.7532 82.1529 64.4148 82.1789 63.9202 82.3607C63.4257 82.5426 63.0873 82.8024 63.1914 82.9582C63.2695 83.1141 62.9832 82.9323 62.5407 82.5686C62.0982 82.2049 60.9009 81.3216 59.8858 80.6202C58.8707 79.8928 58.0377 79.2433 58.0377 79.1134C58.0377 79.0095 57.8816 78.9316 57.6994 78.9316C57.5432 78.9316 56.7623 78.49 56.0075 77.9444C55.0444 77.269 54.7321 76.9313 54.9663 76.7754C55.1919 76.6195 55.1485 76.5935 54.8362 76.6974C54.5759 76.8014 54.0553 76.5676 52.5717 75.4245L53.4827 74.3074C53.9772 73.7099 54.3677 73.1384 54.3417 73.0605Z" fill="#BBB2DB"/>
<path d="M49.3181 94.5446C49.0058 94.5446 49.0838 94.2588 49.6044 93.2197L50.3072 91.8948L61.89 92.0506C68.241 92.1546 74.9825 92.2065 80.2923 92.1805L81.6458 94.2069C82.687 95.7915 82.9212 96.3111 82.687 96.5969C82.4267 96.8826 82.4787 96.9346 82.8431 96.7787C83.1555 96.6748 83.4158 96.8307 83.6761 97.2723C84.0144 97.8438 84.0144 97.9477 83.6761 98.0516C83.4678 98.1296 83.1034 98.1815 82.8952 98.1815C82.6609 98.1815 82.5828 98.0516 82.687 97.8438C82.8171 97.61 82.7911 97.61 82.5048 97.8178C82.2445 97.9997 79.6937 98.1815 75.3469 98.2854C71.6247 98.3634 63.686 98.5193 57.6733 98.6232C49.9949 98.779 46.7933 98.7531 46.8714 98.5452C46.9222 98.3931 47.37 97.5228 47.8514 96.5871L47.8865 96.5189C48.5893 95.168 48.9016 94.8044 49.266 94.9342C49.5003 95.0122 49.7085 94.9342 49.7085 94.8044C49.7085 94.6485 49.5263 94.5446 49.3181 94.5446Z" fill="#BBB2DB"/>
<path fill-rule="evenodd" clip-rule="evenodd" d="M83.1042 1.51616C83.4686 1.49018 83.5988 1.85388 83.8851 3.49051C84.0673 4.60758 84.1193 5.5428 84.0152 5.56878C83.8851 5.62074 83.9892 5.82856 84.1974 6.03639C84.4056 6.24422 84.5879 6.68585 84.6139 6.99759C84.6139 7.33531 84.6659 7.77694 84.718 7.98477C84.7701 8.19259 85.2386 10.2449 85.7591 12.531C86.2797 14.8171 86.6441 16.8434 86.566 17.0252C86.4619 17.1811 86.488 17.337 86.5921 17.337C86.7222 17.337 86.9565 18.0124 87.1387 18.8177C87.3209 19.649 87.7894 21.5455 88.1278 23.0522C88.4922 24.5589 88.7264 25.9358 88.6483 26.0917C88.5442 26.2735 88.5963 26.4554 88.7004 26.4813C88.8305 26.5333 89.2991 28.2998 89.7676 30.456C90.2361 32.5863 90.8348 35.34 91.095 36.5609C91.3814 37.7819 92.1362 41.1591 92.8129 44.0947C93.4637 47.0302 94.5048 51.5245 95.1295 54.0963C95.7542 56.6682 96.6131 60.3571 97.0556 62.2795C97.4981 64.2019 97.8365 65.8125 97.7844 65.8385C97.7584 65.8645 96.1446 66.2022 94.2185 66.5659C92.2924 66.9296 90.5484 67.1894 90.3662 67.1115C90.2101 67.0335 90.1059 67.0335 90.158 67.1374C90.2361 67.2673 89.7155 67.4232 89.0648 67.5531C88.3881 67.657 86.9304 67.8908 85.8372 68.0727C84.718 68.2285 83.807 68.3584 83.807 68.3065C83.807 68.2805 84.0152 67.8908 84.2495 67.4752C84.5098 67.0335 84.8221 66.7737 84.9523 66.8777C85.0824 67.0075 85.1084 66.9296 85.0303 66.7478C84.9262 66.5919 85.0824 66.1503 85.3687 65.7866C85.655 65.4229 85.9413 64.8254 85.9934 64.4097C86.0455 64.02 85.9153 63.2407 85.3427 61.63L86.0715 62.2795C86.4619 62.6432 86.9044 63.0329 87.0606 63.1628C87.2168 63.2667 87.0606 63.2407 86.1496 62.7991L86.7222 63.8901C87.0085 64.5136 87.3209 64.8513 87.3729 64.6695C87.399 64.5136 87.2948 64.1759 87.1126 63.9421C86.8524 63.5784 86.8784 63.5264 87.451 63.6304C87.8154 63.6823 88.0757 63.8642 88.0236 64.046C87.9976 64.2019 88.2058 64.3578 88.4922 64.3578C88.8045 64.3578 88.9607 64.4876 88.8826 64.6695C88.8045 64.9033 88.9867 65.0072 89.4032 65.0072C89.7676 65.0072 90.0539 64.8513 90.0539 64.6695C90.0539 64.5136 90.2881 63.9421 90.5745 63.4485C90.9128 62.851 91.1992 62.6172 91.4074 62.7211C91.6416 62.877 91.6937 62.825 91.5115 62.5393C91.3727 62.2795 91.5462 61.604 92.0321 60.513C92.4485 59.6297 92.7349 58.8503 92.6568 58.8244C92.5787 58.7724 92.0581 58.3827 91.4855 57.9411C90.5224 57.2137 90.3923 56.9799 89.8457 54.7198C89.5073 53.3689 88.4922 49.2903 87.5551 45.6534C86.6441 42.0164 85.1345 36.0933 84.1974 32.5343C83.2604 28.9493 82.037 24.3511 81.4904 22.2729C80.9178 20.1946 79.9808 16.5057 79.3821 14.0897C78.7574 11.6737 78.1848 9.46553 78.0546 9.20575C77.8985 8.89401 77.9245 8.76412 78.1327 8.76412C78.3149 8.76412 78.419 8.71216 78.3409 8.63422C78.2629 8.55629 77.8464 8.6602 77.4299 8.86803C77.0135 9.07586 76.4669 9.17977 76.2586 9.07586C75.9723 8.94596 75.9203 8.99792 76.1285 9.28368C76.3367 9.56944 76.2847 9.59542 75.7901 9.46553C75.4778 9.36162 75.0613 9.3876 74.8791 9.51749C74.7229 9.64738 73.1092 10.115 71.3132 10.5306C69.5172 10.9723 66.9404 11.5698 65.5869 11.8815C64.2334 12.1933 62.958 12.3751 62.7757 12.2972C62.6196 12.2192 62.5155 12.2452 62.5935 12.4011C62.6716 12.557 61.8387 12.8427 60.6934 13.1025C59.6002 13.3363 58.3248 13.5441 57.8563 13.5441C57.4138 13.5701 57.0755 13.6221 57.1275 13.7C57.1796 13.7779 55.9042 14.1157 54.3164 14.4793C52.7026 14.843 51.219 15.1288 51.0108 15.1288C50.8025 15.1288 50.5683 15.1808 50.4902 15.2587C50.4121 15.3366 48.0174 15.9082 45.1543 16.5057C42.2911 17.1291 37.5539 18.1423 34.6126 18.7658C31.6714 19.3893 28.6 20.0387 27.7671 20.1946C26.3875 20.4284 26.2834 20.5063 26.2834 21.1558C26.2834 21.5714 26.4136 23.9355 26.5437 26.4294C26.6739 28.9233 26.8561 32.898 26.9341 35.262C27.0383 37.626 27.1424 40.042 27.1424 40.6655C27.1684 41.315 27.0383 41.9125 26.8561 42.0943C26.6739 42.2762 26.5177 42.51 26.5177 42.6658C26.5177 42.8217 26.6999 42.7438 26.9341 42.536C27.2986 42.1723 27.3506 42.3801 27.3506 44.7441C27.3506 46.1729 27.4027 47.9914 27.4547 48.7708C27.5328 49.5501 27.7671 52.7195 28.0013 55.7849C28.2096 58.8503 28.4698 62.3314 28.7562 65.6567L27.715 65.9424C27.1424 66.0983 26.2053 66.488 25.6327 66.8257C25.0601 67.1634 24.2272 67.7869 23.8107 68.2285C23.2381 68.8 22.9778 68.9559 22.8476 68.7221C22.7435 68.5403 22.6394 67.5011 22.6394 66.436C22.6134 64.9812 22.7175 64.3837 23.0298 64.098C23.2641 63.8901 23.4463 63.6304 23.4203 63.5005C23.4203 63.3966 23.212 63.3966 22.9517 63.4745C22.5613 63.6044 22.4832 63.3446 22.301 61.4482C22.1969 60.2532 22.0407 58.9283 21.9887 58.5126C21.9366 58.097 21.8065 56.9279 21.7284 55.9148C21.6243 54.9276 21.5202 53.6287 21.4421 53.0572C21.39 52.4857 21.2859 51.6024 21.2339 51.1088C21.1558 50.6152 20.9996 48.9786 20.8955 47.4718C20.7914 45.9651 20.6872 43.8349 20.6872 42.7438C20.6872 41.6267 20.6092 40.7175 20.479 40.7175C20.3749 40.7175 20.2708 40.042 20.2187 39.2107C20.1927 38.1456 20.2708 37.626 20.5571 37.3922C20.8955 37.1325 20.8955 37.1065 20.479 37.2104C20.1146 37.3143 20.0365 37.1584 20.0105 36.3531C20.0105 35.8335 19.9584 34.9763 19.9064 34.4827C19.8804 33.9891 19.7762 32.3005 19.6721 30.7158C19.568 29.1311 19.4639 27.1568 19.3858 26.2995C19.3338 25.4422 19.1776 23.1042 19.0735 21.1038C18.9693 19.1035 18.8913 17.2331 18.8652 16.9473C18.8652 16.5316 19.1516 16.3498 20.1667 16.116C20.8955 15.9341 24.3313 15.1028 27.8452 14.2455C31.359 13.4142 36.2785 12.2192 38.7772 11.6217C42.6555 10.6865 43.4104 10.5826 43.8528 10.8684C44.2953 11.1541 44.3474 11.1541 44.2172 10.8164C44.0871 10.5306 44.4255 10.3748 45.779 10.063C46.716 9.85521 47.6791 9.67336 47.8873 9.64738C48.0955 9.64738 48.7462 9.46553 49.3189 9.30966C49.8915 9.12781 50.6463 9.04988 51.0108 9.15379C51.3752 9.2577 51.5574 9.23173 51.4532 9.10183C51.3231 8.99792 51.7916 8.76412 52.4944 8.58227C53.3013 8.37444 53.8479 8.34846 54.0041 8.53031C54.1602 8.6602 54.3685 8.76412 54.5246 8.76412C54.6808 8.76412 54.6027 8.6602 54.3945 8.53031C54.1082 8.34846 54.2643 8.21857 55.0452 8.01074C55.6178 7.88085 57.2056 7.49118 58.5591 7.20542C59.9126 6.89368 62.1511 6.37411 63.5046 6.03639C64.8581 5.69867 66.7321 5.23106 67.6692 5.02324C68.6062 4.78943 69.5953 4.5816 69.8816 4.52965C70.1679 4.47769 70.5844 4.3478 70.7926 4.26986C71.0008 4.19193 71.4694 4.06204 71.8338 4.01008C72.1982 3.93215 73.0051 3.72432 73.6558 3.56845C74.3065 3.41258 74.9832 3.36062 75.1394 3.43856C75.3216 3.51649 75.4778 3.43856 75.4778 3.30867C75.4778 3.1528 75.8162 3.0229 76.2586 2.97095C76.6751 2.94497 77.0395 2.99693 77.0395 3.10084C77.0395 3.23073 77.1436 3.30867 77.2998 3.30867C77.456 3.30867 77.508 3.17877 77.4299 3.04888C77.3519 2.89301 77.508 2.73714 77.7423 2.68519C78.0026 2.63323 78.8615 2.4254 79.6424 2.26953C80.4232 2.11366 81.2301 2.03573 81.3863 2.11366C81.5685 2.1916 81.6987 2.16562 81.6726 2.03573C81.6206 1.90584 81.8288 1.72399 82.1151 1.67203C82.4014 1.5941 82.8439 1.54214 83.0782 1.51616H83.1042ZM83.4426 60.5909C83.5988 60.6169 83.9371 60.7468 84.1974 60.8767C84.4577 61.0065 84.8481 61.4222 85.0303 61.8119C85.2386 62.2275 85.3947 62.7211 85.3947 62.9289C85.3947 63.1368 85.2906 63.3186 85.1345 63.3186C84.9783 63.3186 84.8742 63.1368 84.8742 62.9289C84.8742 62.7211 84.718 62.5652 84.5358 62.5912C84.3796 62.6432 84.2495 62.4873 84.3015 62.2795C84.3536 62.0717 84.3015 61.9677 84.1714 62.0717C84.0673 62.1756 83.7549 62.1496 83.4946 62.0197C83.2344 61.8638 83.1302 61.63 83.2344 61.4222C83.3732 61.2144 83.3298 61.1711 83.1042 61.2923C82.922 61.4222 82.6878 61.3443 82.5316 61.1105C82.3233 60.8247 82.3754 60.6948 82.7138 60.6429C82.9741 60.5909 83.2864 60.5649 83.4426 60.5909V60.5909ZM62.2552 64.3837C62.3333 64.3578 62.3593 64.7474 62.3333 65.1891C62.2812 65.7346 61.7346 66.7997 60.7455 68.1766C59.9126 69.3716 59.1578 70.2548 59.0276 70.2029C58.9235 70.1249 58.8454 70.1769 58.8454 70.3328C58.8454 70.4886 59.1838 70.9563 59.6263 71.3719C60.1468 71.8915 60.277 72.1513 60.0167 72.1513C59.8085 72.1513 59.6263 71.9954 59.6002 71.8135C59.6002 71.5538 59.5742 71.5538 59.4701 71.8135C59.418 71.9954 59.2619 72.1513 59.1057 72.1513C58.9495 72.1513 58.8194 71.8915 58.7673 71.5797C58.7413 71.268 58.5331 70.9822 58.3248 70.9303C58.1166 70.8783 58.0906 70.9043 58.2467 70.9822C58.4289 71.0602 58.5851 71.294 58.5851 71.5018C58.5851 71.7876 58.2988 71.6577 56.633 70.3328L55.5137 71.6317C54.9151 72.3591 54.3164 72.9306 54.1602 72.9306C54.0041 72.9306 53.952 72.8267 54.0301 72.6708C54.1082 72.515 53.8219 72.5929 53.3794 72.8007C52.9369 73.0085 52.3642 73.1904 52.0779 73.1904C51.7916 73.1904 51.6094 73.0865 51.6875 72.9306C51.7656 72.7747 51.6354 72.7228 51.4272 72.8007C51.219 72.8786 51.0888 73.0345 51.1669 73.1904C51.245 73.3463 50.9847 73.4762 50.5683 73.4762C50.1778 73.5021 49.5271 73.5801 49.0846 73.658C48.6421 73.7359 47.8092 73.7879 47.2106 73.8139C46.6119 73.8398 46.1954 73.8918 46.2735 73.9697C46.3256 74.0477 45.4666 74.2555 44.3474 74.4114C43.2282 74.5932 41.6925 74.827 39.5841 75.1388L39.5321 74.0996C39.5321 73.5281 39.506 72.8786 39.48 72.6708C39.454 72.463 39.1937 71.6836 38.8553 70.9822C38.543 70.2548 38.2827 69.6054 38.2827 69.4755C38.2827 69.3716 38.1786 69.2936 38.0224 69.2936C37.8662 69.2936 37.8142 69.1897 37.8923 69.0339C37.9703 68.878 37.8662 68.7221 37.684 68.6702C37.4758 68.6009 37.5018 68.5576 37.7621 68.5403C37.9703 68.5143 38.3087 68.6442 38.4649 68.826C38.7252 69.1118 38.9074 69.0598 39.3499 68.6442C39.6622 68.3584 40.4951 68.0467 41.25 67.9428C42.0048 67.8389 42.7076 67.8648 42.8898 67.9947C43.1154 68.1679 43.2629 68.1419 43.3323 67.9168C43.3843 67.7349 43.7487 67.631 44.1912 67.709C44.5816 67.7609 44.9721 67.683 45.0502 67.5271C45.1283 67.3712 46.0653 67.1894 47.1325 67.0855C48.1996 66.9816 49.3449 66.9296 49.6573 66.9296C49.9956 66.9556 50.2039 66.8777 50.1518 66.7478C50.0997 66.6438 50.4121 66.5919 50.8806 66.6438C51.3231 66.6698 51.9218 66.7737 52.7287 67.0075L52.2081 66.5919C51.7135 66.2022 51.7135 66.2022 52.4684 66.2022C52.9109 66.2282 53.4314 66.1762 53.6397 66.1243C53.8479 66.0723 54.2643 65.9424 54.5507 65.8645C54.837 65.7866 55.3836 65.6307 55.8 65.5528C56.3206 65.4488 56.5028 65.5008 56.5028 65.7866C56.5028 65.9944 56.7371 66.1762 57.0234 66.1762C57.3097 66.1762 57.4919 66.0723 57.4138 65.9165C57.3357 65.7606 57.1275 65.7346 56.9713 65.8385C56.7458 65.9771 56.7024 65.9338 56.8412 65.7086C56.9453 65.5528 57.2056 65.4488 57.4138 65.5268C57.6221 65.6047 57.8043 65.5528 57.8043 65.3969C57.8043 65.241 58.0906 65.1891 58.455 65.267C58.8194 65.3449 59.1057 65.293 59.1057 65.1371C59.1057 64.9812 59.3139 64.9293 59.5742 65.0072C59.8085 65.0851 60.1729 65.0332 60.3551 64.8773C60.5112 64.7474 60.7455 64.6695 60.8496 64.7215C60.9798 64.7734 61.2921 64.7215 61.5784 64.5916C61.8647 64.4876 62.1771 64.3837 62.2552 64.3837V64.3837Z" fill="#46A0C5"/>
<path fill-rule="evenodd" clip-rule="evenodd" d="M70.1155 32.9499C70.2457 32.9239 70.5059 33.7812 70.7142 34.8204C70.8964 35.8335 71.1567 36.8207 71.2608 36.9766C71.3909 37.1844 72.0156 37.1064 73.4472 36.7168C74.5664 36.431 75.5295 36.2232 75.5815 36.3011C75.6596 36.3791 76.2583 38.3794 76.909 40.7954C77.5597 43.1854 78.0803 45.3156 78.0803 45.5234C78.0803 45.7313 77.82 45.9651 77.5077 46.043C77.1693 46.1209 76.5706 46.1729 76.1282 46.1729C75.6857 46.1729 74.9569 45.8871 74.4363 45.5234C73.7335 45.0039 73.4212 44.5103 73.1088 43.3672C72.7184 41.9644 72.6663 41.8865 71.9375 41.9644C71.5211 42.0164 71.1306 42.1203 71.0525 42.1982C70.9745 42.2502 71.2087 43.3932 72.1718 47.0821L71.5992 48.1213C71.0525 49.1344 70.9484 49.1864 68.3195 49.8878C66.8099 50.2775 65.5344 50.6931 65.4564 50.849C65.3783 51.0049 65.5605 51.7842 65.8468 52.6155C66.1331 53.4208 66.3674 54.1482 66.3674 54.2262C66.3674 54.3041 65.5344 54.6158 64.4933 54.9536C63.4521 55.2653 62.437 55.5251 62.2809 55.5251C62.0726 55.5251 61.8904 55.0835 61.8123 54.486C61.7342 53.9144 61.5781 53.4468 61.4219 53.4468C61.2918 53.4468 59.4437 53.8625 57.3354 54.3561C55.201 54.8497 53.327 55.2653 53.1708 55.2653C52.9886 55.2653 52.7283 54.8237 52.5982 54.3041C52.468 53.7586 52.2858 52.9792 52.1817 52.5376C52.0255 51.7842 52.0776 51.7323 54.3941 51.1088L54.0818 50.0696C53.8475 49.3682 53.8215 48.9526 54.0037 48.7967C54.1599 48.6668 55.149 48.381 56.2162 48.1472C57.2833 47.9134 58.2464 47.7316 58.3765 47.7316C58.4807 47.7316 58.6368 48.2252 58.767 48.7967C58.8711 49.3942 59.0012 49.9138 59.0793 49.9657C59.1574 50.0177 59.6519 49.9397 60.1986 49.8099C61.0054 49.576 61.1356 49.4721 61.0315 48.9785C60.9534 48.6408 60.8232 48.1472 60.7452 47.8615C60.615 47.3939 60.7972 47.29 62.2548 47.0042C63.1658 46.8223 64.6495 46.4846 65.5865 46.2508C66.5235 46.043 67.3565 45.7832 67.4606 45.6793C67.5387 45.6014 67.4606 44.7441 67.2523 43.7829C66.966 42.406 66.7838 42.0164 66.4455 42.0164C66.1852 42.0164 65.7167 42.1203 65.3783 42.2242C64.8837 42.3801 64.7796 42.5619 64.8577 43.1854C64.9358 43.9388 64.8837 43.9907 63.1138 44.5363C62.1247 44.848 61.2918 45.0818 61.2657 45.0558C61.2397 45.0298 60.9794 43.8868 60.641 42.5359C60.3027 41.185 59.9383 39.9121 59.8342 39.7562C59.678 39.5224 59.3656 39.4965 58.8971 39.6263C58.4286 39.7562 58.1163 40.068 58.0382 40.4577C57.9341 40.9772 57.5957 41.1591 56.086 41.5487C55.0969 41.7825 54.2119 42.0164 54.1339 42.0164C54.0558 42.0164 53.8475 41.5487 53.6914 40.9772C53.379 39.99 53.3009 39.9381 52.5201 40.094C52.0516 40.1979 51.6351 40.2758 51.583 40.3018C51.531 40.3018 51.6611 41.0292 51.8433 41.8865C52.1557 43.1334 52.3118 43.4452 52.7283 43.4192C52.9886 43.4192 53.5872 43.3153 54.0037 43.2114C54.7846 43.0295 54.7846 43.0555 55.3051 44.7181C55.5915 45.6533 55.7737 46.4846 55.6956 46.5366C55.6175 46.6145 54.3941 46.9003 52.9626 47.212C51.531 47.4978 50.2035 47.7316 50.0473 47.7316C49.8391 47.7316 49.5788 47.0562 49.3966 46.1729C49.1624 45.0818 48.9281 44.6142 48.6678 44.6142C48.4596 44.6142 47.8089 44.7441 47.2362 44.8999C46.6636 45.0298 46.1691 45.1338 46.143 45.0818C46.091 45.0298 45.9348 44.1985 45.7526 43.2373C45.4663 41.7046 45.4663 41.4448 45.8046 41.237C46.0129 41.1071 46.6896 40.9512 47.3143 40.8733C48.2253 40.7434 48.4075 40.6135 48.4075 40.1459C48.4075 39.8082 48.2774 39.0808 48.1472 38.5093C48.0171 37.9378 47.939 37.4442 47.965 37.4182C47.9911 37.3922 51.2707 36.6129 55.2531 35.6776C59.2095 34.7424 62.4891 33.9631 62.5411 33.9631C62.5672 33.9631 62.7494 34.5866 62.9316 35.3919C63.1138 36.1972 63.3741 36.8207 63.5823 36.8207C63.7385 36.8207 64.3371 36.6648 64.8837 36.483C65.8989 36.1712 65.8989 36.1712 65.5865 33.9631L67.7469 33.4695C68.9182 33.2097 69.9854 32.9759 70.1155 32.9499V32.9499ZM15.2729 66.7997C15.4811 66.9556 15.5853 67.2413 15.5072 67.3972C15.4291 67.579 15.5072 67.8128 15.6894 67.9168C15.9236 68.0726 15.9236 68.0207 15.7414 67.7349C15.5592 67.4491 15.5592 67.3972 15.8195 67.5531C15.9757 67.657 16.1319 67.9168 16.1319 68.1246C16.1319 68.3324 16.21 68.4883 16.3401 68.4363C16.4442 68.4103 16.5483 68.4623 16.6004 68.5662C16.6264 68.6961 16.9388 69.0598 17.3032 69.4235C17.6676 69.7872 18.084 70.073 18.2142 70.073C18.3703 70.073 18.8128 70.3847 19.2033 70.7744C19.6197 71.19 20.2444 71.7096 20.6348 71.9434C21.1294 72.2811 21.2856 72.5669 21.2075 72.9306C21.1034 73.3982 20.8431 73.2683 19.0991 71.8135C18.0059 70.9302 16.5223 69.5274 15.8455 68.6961C14.5962 67.2413 14.5701 67.2153 14.1277 67.7089C13.8674 67.9947 12.67 68.826 11.4467 69.5274C10.2233 70.2548 9.1041 70.9302 8.94793 71.0342C8.81778 71.164 8.45338 71.3978 8.16707 71.5537C7.90678 71.7356 6.18888 72.8007 1.06122 75.9181L2.05031 77.3469C2.59691 78.1262 2.98734 78.9316 2.93529 79.0874C2.88323 79.2953 3.01337 79.3732 3.24763 79.2953C3.45586 79.2173 3.63806 79.2433 3.63806 79.3472C3.63806 79.4771 4.00247 79.9447 4.47098 80.4123C5.17376 81.1397 5.25185 81.3216 4.9395 81.5034C4.70524 81.6333 4.41893 81.6333 4.23672 81.4774C4.05452 81.3476 3.95041 81.1397 4.02849 80.9839C4.10658 80.828 4.05452 80.7241 3.89835 80.7241C3.76821 80.7241 3.69012 80.5422 3.76821 80.3344C3.84629 80.1266 3.79424 79.9447 3.63806 79.9447C3.50792 79.9447 3.35175 80.1006 3.29969 80.2565C3.27366 80.4383 2.8572 79.9967 2.41471 79.2953C1.97222 78.5679 1.34753 77.7625 1.03519 77.4768C0.74887 77.191 0.488583 76.8013 0.514611 76.6195C0.514611 76.4636 0.358439 76.2558 0.202266 76.2038C-0.0580213 76.1259 -0.0580213 75.996 0.150209 75.6323C0.306381 75.3466 0.800928 74.9309 1.26945 74.6711C1.92016 74.3074 2.15442 74.2814 2.4928 74.5412C2.83117 74.827 2.88323 74.801 2.75308 74.4113C2.64897 74.0996 2.80514 73.8658 3.37777 73.58C3.82026 73.3722 4.15864 73.2683 4.15864 73.3722C4.13261 73.5021 4.44495 73.2683 4.83539 72.8526C5.22582 72.463 5.64228 72.1512 5.74639 72.1512C5.87654 72.1512 6.293 71.9174 6.70946 71.6057C7.09989 71.2939 8.40133 70.4367 9.62468 69.6573C11.1083 68.7221 12.0193 68.3064 12.3577 68.4103C12.7742 68.5143 12.8002 68.4883 12.4878 68.3064C12.1495 68.0986 12.2015 67.9947 12.6961 67.7609C13.0084 67.605 13.3988 67.5271 13.529 67.605C13.6852 67.6829 13.7632 67.579 13.7372 67.3972C13.7112 67.1894 13.9715 66.9036 14.3099 66.7737C14.7263 66.5919 15.0387 66.5919 15.2729 66.7997V66.7997ZM13.3468 70.073C13.4509 70.073 13.555 70.2028 13.6071 70.3327C13.6331 70.4886 14.2578 70.6705 14.9606 70.7484C16.1058 70.8783 16.4702 71.0861 18.084 72.5929C19.0991 73.5281 20.1663 74.4373 20.5047 74.6451C20.817 74.853 21.0773 75.2426 21.0773 75.5284C21.0773 75.9441 20.9732 75.996 20.6348 75.8142C20.3746 75.6843 19.5937 75.0348 18.8649 74.3594C18.1621 73.7099 17.5374 73.1904 17.5114 73.1904C17.4593 73.1904 17.121 72.8267 16.7305 72.385C16.288 71.9174 15.6894 71.5797 15.2209 71.5277C14.8044 71.4758 14.1537 71.2939 13.7893 71.1121C13.2166 70.8523 13.0084 70.8783 12.1755 71.3459C11.6289 71.6576 11.0563 71.8655 10.8741 71.8135C10.7179 71.7875 11.1604 71.3719 11.8631 70.9302C12.5659 70.4626 13.2166 70.073 13.3468 70.073V70.073ZM21.5719 78.6458C21.676 78.6458 21.8061 78.7237 21.9103 78.8277C22.0144 78.9316 21.4938 79.555 20.765 80.2045C20.0362 80.854 19.0731 81.8411 18.6306 82.3867C18.1881 82.9322 17.8758 83.3219 17.9018 83.244C17.9278 83.1401 17.8758 82.8543 17.7717 82.5945C17.6415 82.2828 17.6676 82.2048 17.9018 82.3347C18.084 82.4646 18.3443 82.3607 18.5525 82.1529C18.8128 81.8152 18.8128 81.7372 18.5525 81.7632C18.3703 81.7632 18.2662 81.6593 18.3443 81.5034C18.4224 81.3476 18.6567 81.2696 18.8909 81.2956C19.1512 81.3476 19.3855 81.1917 19.4635 80.9839C19.5677 80.6981 19.5156 80.6461 19.2553 80.802C19.0471 80.9319 19.4375 80.4903 20.1403 79.8408C20.8691 79.1913 21.4938 78.6458 21.5719 78.6458ZM36.6165 81.2436C36.9288 81.2436 37.5275 81.3995 37.944 81.6073C38.3344 81.7892 39.0632 82.0749 39.5577 82.2308C40.0523 82.3867 40.8852 82.5685 41.3798 82.6465C41.8743 82.7244 42.473 82.9842 42.6812 83.192C42.9675 83.4778 42.9675 83.6077 42.7593 83.5817C42.5771 83.5817 42.4469 83.6596 42.4469 83.7635C42.473 83.8934 42.4469 84.0233 42.4209 84.1013C42.3949 84.1792 42.3428 84.413 42.3168 84.6208C42.2647 84.8286 42.0825 85.4002 41.8743 85.8678C41.6661 86.3094 41.4318 86.6991 41.3277 86.6991C41.1976 86.6991 41.1455 86.803 41.1976 86.9069C41.2236 87.0108 40.6249 88.1279 39.8961 89.3749C38.7769 91.1933 38.4385 91.609 38.0741 91.4531C37.6837 91.2973 37.6576 91.3492 37.944 91.7129C38.1001 91.9467 38.1782 92.1805 38.0741 92.2065C37.944 92.2585 37.5275 92.804 37.085 93.4275C36.6686 94.051 35.7315 95.22 35.0287 96.0253C34.326 96.8306 33.6492 97.4541 33.5191 97.4022C33.415 97.3762 33.3629 97.4281 33.415 97.5321C33.467 97.6619 33.1026 98.2594 31.619 100L30.3956 99.4545C29.6928 99.1687 29.1983 98.805 29.2764 98.6491C29.3545 98.4933 29.2243 98.3374 29.0161 98.2594C28.7298 98.1555 28.6777 98.2335 28.8339 98.5452C28.9901 98.9349 28.964 98.9349 28.2352 98.5452C27.8188 98.3114 27.2982 98.1296 27.142 98.1296C26.9598 98.1296 26.8037 98.0256 26.8037 97.8698C26.8037 97.7139 26.5954 97.61 26.3612 97.61C26.1009 97.61 25.0858 97.1684 24.0706 96.6228C23.0815 96.1032 22.2486 95.5057 22.2486 95.2979C22.2486 95.0901 22.0925 94.8823 21.9363 94.8303C21.7541 94.7783 21.5979 94.8563 21.5979 95.0122C21.5979 95.168 21.0513 94.9342 20.3746 94.5186C19.6718 94.0769 18.8649 93.5054 18.5525 93.2196C18.2142 92.9079 17.9278 92.7261 17.9018 92.804C17.8498 92.8819 17.5895 92.7001 17.3032 92.4143C16.9561 92.0679 16.8693 91.8082 17.0429 91.635C17.2251 91.4531 17.6155 91.609 18.2142 92.0506C18.7087 92.4143 20.0362 93.2456 21.1554 93.9211C22.2747 94.5965 23.1857 95.22 23.1596 95.3239C23.1596 95.4538 23.3418 95.5317 23.5501 95.5317C23.7583 95.5317 24.8775 96.0253 26.0228 96.6228C27.1681 97.2463 28.1051 97.8178 28.1051 97.9217C28.1051 98.0516 28.2352 98.0776 28.3654 97.9997C28.5216 97.9217 29.0942 98.0776 29.6668 98.3114C30.2395 98.5712 30.6559 98.831 30.6039 98.9089C30.5518 98.9868 30.8902 99.0128 31.3847 98.9609C31.9747 98.9262 32.2263 98.7963 32.1396 98.5712C32.0615 98.4153 32.4259 97.7918 32.9464 97.2203C33.467 96.6488 34.0136 96.2072 34.1698 96.2591C34.352 96.3111 34.4041 96.2591 34.2999 96.1292C34.1698 96.0253 34.4041 95.5057 34.7945 95.0122C35.1589 94.5186 35.6795 93.9211 35.8877 93.6613C36.122 93.4275 36.6946 92.6741 37.1631 91.9727C37.6316 91.2973 38.4385 90.0763 38.9591 89.2969C39.4536 88.5176 40.3386 86.9849 40.8852 85.9197C41.4578 84.8546 41.9003 83.9194 41.9003 83.8415C41.9003 83.7635 41.3017 83.5557 40.5468 83.3479C39.792 83.1401 38.3865 82.6724 37.3974 82.3087C36.4343 81.9451 35.7315 81.5554 35.8096 81.4255C35.9137 81.3216 36.2781 81.2436 36.6165 81.2436V81.2436ZM5.27787 81.7632C5.43405 81.7632 5.90256 82.0749 6.31902 82.4646C6.70946 82.8803 6.94371 83.2959 6.8396 83.4258C6.70946 83.5557 6.81357 83.5817 7.09989 83.5038C7.41223 83.3739 7.85472 83.6596 8.71367 84.6208C9.36439 85.3222 10.0151 85.9197 10.1453 85.9197C10.3014 85.9197 10.4316 85.9977 10.4836 86.1276C10.5097 86.2315 11.1604 86.855 11.9152 87.4784C12.6961 88.1279 13.2166 88.7774 13.1386 88.9592C13.0605 89.1411 13.1386 89.3489 13.2687 89.4268C13.4249 89.5047 13.555 89.4268 13.6071 89.245C13.6331 89.0371 13.8934 89.0891 14.3879 89.3749C14.7784 89.6346 15.0907 89.9983 15.0907 90.2062C15.0907 90.44 15.377 90.6218 15.8195 90.6478C16.3141 90.6998 16.5223 90.8816 16.5483 91.2453C16.5483 91.7129 16.3922 91.6609 14.9866 90.8037C14.1016 90.2581 12.4618 89.0631 11.3165 88.1019C10.1713 87.1667 8.27118 85.4261 7.07386 84.2571C5.90256 83.1141 4.91347 82.0749 4.9395 81.9451C4.9395 81.8411 5.09567 81.7632 5.27787 81.7632V81.7632ZM35.237 82.6205C35.7055 82.7764 36.122 82.9842 36.148 83.1141C36.148 83.218 36.3562 83.3219 36.5644 83.3219C36.7727 83.3219 37.0069 83.5817 37.085 83.8934C37.1371 84.2311 37.1371 84.5429 37.059 84.6208C36.9809 84.6988 36.7987 84.5429 36.6686 84.2831C36.5384 84.0493 35.7836 83.6336 34.9767 83.3739C33.8054 83.0102 33.6232 82.8803 33.9355 82.6465C34.2219 82.4127 34.5863 82.4127 35.237 82.6205V82.6205ZM25.8146 82.5426C25.9447 82.5426 26.0749 82.6465 26.1529 82.8023C26.231 82.9582 26.179 83.0621 26.0228 83.0621C25.8927 83.0621 25.8406 83.2699 25.9187 83.5038C26.0488 83.8934 26.0228 83.8934 25.8146 83.5817C25.6324 83.2959 25.5282 83.2699 25.3981 83.5038C25.32 83.6856 25.294 84.0233 25.3721 84.2311C25.4762 84.5169 25.3721 84.5689 25.0597 84.439C24.7214 84.3091 24.6433 84.3351 24.7994 84.5689C24.9036 84.7507 24.8255 84.9326 24.5912 85.0105C24.383 85.0884 24.2268 85.0625 24.2789 84.9326C24.3049 84.8286 24.6172 84.2571 24.9816 83.6336C25.32 83.0361 25.7104 82.5426 25.8146 82.5426ZM17.0949 84.8806C17.121 84.8806 17.0429 85.0884 16.9127 85.3222C16.7826 85.582 16.7305 85.8678 16.7826 85.9717C16.8607 86.1016 16.8346 86.3354 16.7305 86.4913C16.6264 86.6731 16.5744 87.1147 16.6264 87.4784C16.6524 87.8421 16.8867 88.3357 17.121 88.5955C17.4593 88.9592 17.8758 89.0631 18.7347 89.0112C19.3855 88.9592 20.1403 88.7514 20.4006 88.5176C20.6609 88.3097 21.2595 87.8162 21.702 87.4265C22.1445 87.0368 22.6651 86.7251 22.8473 86.6991C23.0035 86.6991 23.1336 86.9069 23.0815 87.1407C23.0295 87.4005 22.8473 87.5824 22.6911 87.5304C22.5089 87.5044 22.3007 87.6603 22.1966 87.8941C22.0664 88.1539 21.4417 88.6215 20.765 88.9332C20.0622 89.2709 19.5156 89.5047 19.5156 89.4268C19.5156 89.3489 19.3594 89.3749 19.2033 89.4788C19.0211 89.5827 18.5786 89.6346 18.2142 89.5827C17.8498 89.5307 17.3552 89.4008 17.121 89.2709C16.8607 89.1411 16.6524 88.8553 16.6524 88.6475C16.6524 88.4396 16.4963 88.2318 16.3401 88.1799C16.1319 88.1279 16.0017 87.6083 16.0017 86.829C16.0017 85.8938 16.1319 85.4781 16.5223 85.2183C16.8086 85.0365 17.0429 84.8806 17.0949 84.8806V84.8806ZM38.5426 85.4002C38.9331 85.608 38.9851 85.7639 38.7769 86.1016C38.6467 86.3614 38.3604 86.777 38.1262 87.0108C37.9179 87.2706 37.6316 87.4265 37.4754 87.3485C37.3193 87.2706 37.2672 87.4525 37.3713 87.7902C37.4754 88.2058 37.3193 88.5695 36.8247 89.0371C36.4603 89.4008 36.174 89.5307 36.174 89.3489C36.174 89.193 36.5905 88.1539 37.111 87.0888C37.944 85.3742 38.1001 85.1923 38.5426 85.4002Z" fill="#74737A"/>
<path d="M98.5385 4.97127C99.2673 4.26985 100.022 3.25669 100.204 2.71115C100.413 2.1656 100.595 1.77593 100.595 1.82789C100.595 1.87984 100.465 2.45137 100.282 3.07485C100.074 3.69833 99.944 4.52963 99.944 4.91931C99.944 5.33496 100.1 6.03638 100.282 6.47801C100.491 6.94562 100.985 7.62106 101.402 7.95877C102.052 8.47834 102.078 8.55628 101.558 8.40041C101.245 8.32247 100.595 8.34845 100.126 8.50432C99.6837 8.63421 98.9809 9.07584 98.6165 9.46552C98.2261 9.88117 97.7316 10.5306 97.4973 10.9723C97.1329 11.6477 97.0808 11.6737 97.237 11.1022C97.3411 10.7385 97.3932 9.98508 97.3932 9.41356C97.3672 8.84204 97.1329 8.08867 96.8726 7.72497C96.5863 7.36127 95.9616 6.84171 94.556 6.03638L95.8835 6.14029C97.185 6.2442 97.237 6.21823 98.5385 4.97127Z" fill="#F29DC6"/>
<path d="M7.54192 36.8207C7.54192 36.2492 7.30766 35.1061 7.02135 34.2748C6.60489 33.0019 6.57886 32.898 6.96929 33.4435C7.20355 33.7812 7.77618 34.4827 8.19264 34.9503C8.63513 35.4179 9.38996 35.9374 9.88451 36.0933C10.3791 36.2492 11.0818 36.3011 11.4462 36.2492C11.8106 36.1712 12.3312 36.0154 12.6175 35.9115C13.008 35.7816 12.9559 35.8335 12.4874 36.1972C12.123 36.457 11.7065 36.8467 11.5243 37.0805C11.3681 37.2883 11.1339 37.8858 11.0558 38.3794C10.9517 38.9769 11.0558 39.8082 11.8367 42.1463L10.6654 40.9253C9.57217 39.7822 9.41599 39.6783 8.19264 39.6783C7.48986 39.6783 6.55283 39.8602 6.11034 40.068C5.69388 40.2758 5.30345 40.4057 5.27742 40.3278C5.22536 40.2498 5.58977 39.9641 6.05828 39.7043C6.50077 39.4185 7.04738 38.899 7.22958 38.5353C7.38575 38.1716 7.54192 37.3922 7.54192 36.8207Z" fill="#F29DC6"/>
<path d="M25.6319 66.9296C26.3347 66.5399 27.4019 66.0983 27.9745 65.9424C28.5471 65.8125 29.9006 65.7086 30.9678 65.7346C32.4254 65.7866 33.2844 65.9684 34.3515 66.462C35.1324 66.8257 36.2516 67.5791 36.7982 68.1506C37.3709 68.6961 38.1257 69.8132 38.4901 70.5925C39.0627 71.7875 39.1669 72.385 39.1669 74.3594C39.1669 76.3857 39.0627 76.8793 38.4641 78.1263C38.0737 78.9056 37.2407 80.0487 36.6421 80.6721C36.0174 81.2956 34.8721 82.1269 34.0913 82.4906C32.8158 83.1141 32.3473 83.192 29.9267 83.192C27.6621 83.192 26.9854 83.0881 26.0223 82.6205C25.3716 82.3088 24.2784 81.5034 23.6017 80.802C22.9249 80.1266 22.092 79.0355 21.7797 78.386C21.3372 77.4508 21.207 76.7494 21.207 74.7491C21.207 72.7228 21.3111 72.0733 21.7797 71.1121C22.092 70.4626 22.7948 69.4235 23.3414 68.8C23.888 68.1766 24.9031 67.3452 25.6319 66.9296Z" fill="#F29DC6"/>
<path d="M4.73149 82.1529C4.26297 81.7113 3.9246 81.3216 3.95062 81.2696C4.00268 81.2177 4.13283 81.2956 4.289 81.4515C4.44517 81.6333 4.70546 81.6333 4.93972 81.5034C5.22603 81.3216 5.59044 81.5294 6.31924 82.2308C6.83982 82.7504 7.28231 83.27 7.28231 83.3739C7.28231 83.5038 7.15216 83.5817 6.96996 83.5817C6.81379 83.5817 6.76173 83.5038 6.83982 83.3739C6.94393 83.27 6.76173 82.8803 6.42336 82.4646C6.08498 82.075 5.61646 81.7632 5.38221 81.7632C5.12192 81.7632 4.93972 81.8412 4.93972 81.9451C4.93972 82.075 5.06986 82.3347 5.25206 82.5426C5.43426 82.7504 5.2 82.5685 4.73149 82.1529Z" fill="#8A8279" fill-opacity="0.8"/>
<path d="M16.6006 84.6988C16.4965 84.5949 16.6527 84.0493 16.939 83.5038C17.2253 82.9582 17.5897 82.5945 17.7459 82.6725C17.876 82.7764 18.0062 83.0621 17.9801 83.3479C17.9541 83.6077 17.824 83.8415 17.6938 83.8415C17.5637 83.8415 17.5116 83.9974 17.6418 84.1532C17.7459 84.3611 17.7198 84.413 17.5637 84.3091C17.4335 84.2052 17.1212 84.2312 16.9129 84.387C16.6006 84.5689 16.6266 84.6208 17.0431 84.6468C17.3294 84.6468 17.4075 84.6988 17.2513 84.7767C17.0691 84.8287 16.965 85.0625 17.0431 85.2703C17.1212 85.4781 17.0431 85.7119 16.9129 85.7899C16.7568 85.8678 16.7307 85.7379 16.8349 85.4521C16.991 85.1144 16.939 85.0625 16.5746 85.1924C16.3143 85.3223 16.1321 85.2963 16.1321 85.1404C16.1321 84.9845 16.2883 84.8806 16.4705 84.8806C16.6266 84.8806 16.7047 84.8027 16.6006 84.6988Z" fill="#8A8279" fill-opacity="0.8"/>
<path d="M25.1901 83.4518C25.2942 83.5038 25.6066 83.3999 25.8929 83.192C26.1792 82.9582 26.4395 82.8024 26.4395 82.8024C26.4655 82.8024 26.4395 82.9842 26.3874 83.192C26.3354 83.4258 26.1532 83.5038 25.971 83.3739C25.7454 83.2526 25.6933 83.3219 25.8148 83.5817C25.9189 83.8155 25.7367 84.3611 25.3723 84.8806C24.9038 85.582 24.6175 85.7639 24.0969 85.7119C23.5243 85.66 23.4722 85.608 23.7585 85.2963C23.9147 85.0884 24.1229 84.9326 24.201 84.9326C24.2791 84.9326 24.4873 84.9326 24.6695 84.9066C24.8257 84.9066 24.9298 84.7507 24.8517 84.6208C24.7736 84.465 24.5914 84.439 24.4353 84.5429C24.2531 84.6208 24.201 84.5689 24.3051 84.413C24.4092 84.1792 24.6175 84.1792 24.9819 84.3611C25.4243 84.5949 25.4764 84.5429 25.3723 84.1013C25.2942 83.8155 25.138 83.6596 25.0339 83.7636C24.9298 83.8415 24.8517 83.7895 24.9038 83.6337C24.9558 83.4518 25.0599 83.3739 25.1901 83.4518Z" fill="#8A8279" fill-opacity="0.8"/>
<path d="M37.0592 83.9194C36.9811 83.6077 36.7208 83.2959 36.4866 83.244C36.0701 83.1401 36.0701 83.1141 36.4866 83.0881C36.7989 83.0621 37.1373 83.4518 37.4757 84.1532C37.736 84.7767 37.8921 85.4262 37.788 85.608C37.6579 85.8678 37.4757 85.8158 37.0852 85.4002C36.7208 85.0105 36.6427 84.8027 36.877 84.6728C37.0592 84.5689 37.1373 84.2312 37.0592 83.9194Z" fill="#8A8279" fill-opacity="0.8"/>
<path d="M22.9516 86.7511C22.7174 86.7251 22.7174 86.5952 22.9256 86.3094C23.1338 86.0237 23.342 85.9977 23.7065 86.1795C23.9667 86.3354 24.1489 86.5432 24.0709 86.6991C23.9928 86.829 23.7845 86.881 23.6284 86.777C23.4028 86.6385 23.3594 86.6818 23.4982 86.9069C23.6023 87.0888 23.316 87.4785 22.7174 87.972C22.1708 88.3617 21.3378 88.9073 20.8953 89.1411C20.4268 89.3749 19.9843 89.5307 19.9063 89.4788C19.8282 89.4528 20.2707 89.193 20.8433 88.9073C21.4419 88.6215 22.0146 88.1799 22.1447 87.9201C22.2749 87.6863 22.5091 87.5304 22.6393 87.6083C22.7694 87.6863 22.9776 87.5304 23.0818 87.2706C23.1859 87.0108 23.1338 86.803 22.9516 86.7511Z" fill="#8A8279" fill-opacity="0.8"/>
<path d="M16.3924 88.7774C16.1061 88.4137 15.8978 87.9461 15.8978 87.7382C15.9152 87.4785 15.9586 87.4958 16.028 87.7902C16.08 88.05 16.2622 88.2578 16.3924 88.2578C16.4629 88.2578 16.5334 88.2196 16.5833 88.164L16.5746 88.1279C16.5819 88.1348 16.5892 88.1416 16.5964 88.1483C16.6309 88.1041 16.6527 88.0511 16.6527 87.998C16.6527 87.8421 16.9129 87.998 17.2513 88.3098C17.5897 88.6475 17.824 88.9592 17.7719 89.0372C17.7203 89.1144 17.4384 88.9363 16.5964 88.1483C16.5922 88.1537 16.5878 88.1589 16.5833 88.164L16.8869 89.4268L16.3924 88.7774Z" fill="#8A8279" fill-opacity="0.8"/>
<path d="M16.2102 91.4272C16.3663 91.4791 16.5225 91.2973 16.5225 91.0635C16.5225 90.6738 16.5746 90.6478 17.1212 91.0375C17.4335 91.2453 17.7198 91.4791 17.6938 91.5311C17.6938 91.583 17.5637 91.583 17.4335 91.5051C17.3034 91.4272 17.1212 91.4791 17.0431 91.635C16.965 91.7649 17.0691 92.1026 17.2513 92.3624C17.4075 92.6222 17.3034 92.5702 16.991 92.2325C16.6527 91.8948 16.3403 91.6869 16.2622 91.7649C16.1841 91.8428 16.08 91.7649 16.0019 91.635C15.9239 91.4791 16.028 91.4012 16.2102 91.4272Z" fill="#8A8279" fill-opacity="0.8"/>
<path d="M33.4672 97.4022C33.6234 97.4282 34.0659 97.0904 34.4563 96.6228C34.8468 96.1812 35.2372 95.7915 35.2892 95.7915C35.3673 95.7915 34.9509 96.3371 34.4043 97.0125C33.8316 97.7139 33.1549 98.4413 32.8946 98.6491C32.5823 98.8829 32.6083 98.805 32.9987 98.3894C33.3111 98.0257 33.4933 97.636 33.3892 97.5321C33.259 97.4022 33.3111 97.3502 33.4672 97.4022Z" fill="#8A8279" fill-opacity="0.8"/>
<path d="M28.704 98.6751C28.5999 98.3894 28.5999 98.1036 28.73 98.0257C28.8601 97.9477 29.0423 97.8698 29.1465 97.8698C29.2245 97.8698 29.7712 98.0776 30.3438 98.3374C31.1507 98.7271 31.2808 98.857 30.8904 98.9869C30.6301 99.0908 30.5 99.0648 30.578 98.9089C30.6561 98.7531 30.526 98.6232 30.3178 98.5712C30.1095 98.5452 29.7712 98.5192 29.589 98.5192C29.4328 98.5192 29.3026 98.6751 29.3287 98.831C29.3807 99.0128 29.2766 99.1687 29.1465 99.1687C28.9903 99.1687 28.8081 98.9349 28.704 98.6751Z" fill="#8A8279" fill-opacity="0.8"/>
<path d="M21.9886 16.6355C21.9886 16.2458 21.8845 15.8302 21.7283 15.7263C21.5722 15.5964 21.5982 15.5184 21.8064 15.5184C21.9626 15.5184 22.1708 15.6743 22.2229 15.8562C22.2749 16.012 22.4051 16.5835 22.5092 17.0771C22.6393 17.8045 22.6133 17.9344 22.327 17.6746C22.1448 17.5188 21.9886 17.0512 21.9886 16.6355Z" fill="#459FC5" fill-opacity="0.9"/>
<path d="M85.5508 63.5264C85.4988 63.3446 85.3166 62.773 85.1344 62.2794C84.8741 61.5001 84.9001 61.4222 85.2125 61.7599C85.3947 61.9677 85.681 62.5392 85.8632 63.0068C86.0454 63.5264 86.0454 63.8381 85.8892 63.8381C85.733 63.8381 85.5769 63.6823 85.5508 63.5264Z" fill="#459FC5" fill-opacity="0.9"/>
<path d="M87.3728 64.6954C87.3208 64.8513 87.0084 64.5136 86.6701 63.9161L86.0714 62.799L86.8002 63.1367C87.1906 63.2926 87.3728 63.4744 87.2167 63.5264C87.0345 63.5524 87.0084 63.7082 87.1906 63.968C87.3468 64.1759 87.3989 64.5136 87.3728 64.6954Z" fill="#459FC5" fill-opacity="0.9"/>
<path d="M22.353 64.5915C22.2749 63.8122 22.353 63.6043 22.7434 63.5524C23.0037 63.5004 23.3161 63.4744 23.3942 63.5264C23.4723 63.5524 23.3681 63.7862 23.1339 64.046C22.8996 64.3057 22.6393 64.7474 22.5612 65.0331C22.4745 65.3622 22.4051 65.215 22.353 64.5915Z" fill="#459FC5" fill-opacity="0.9"/>
<path d="M105.229 86.1795C105.463 86.0236 105.593 85.7898 105.515 85.608C105.411 85.4521 105.827 85.6859 106.452 86.1795C107.051 86.6471 107.519 87.0887 107.519 87.1407C107.493 87.1927 107.233 87.2186 106.921 87.2186C106.426 87.2186 106.4 87.1667 106.712 86.9588C107.051 86.751 107.025 86.6991 106.66 86.6991C106.4 86.6991 106.088 86.4912 105.958 86.2315C105.801 85.9197 105.697 85.8678 105.567 86.1016C105.489 86.2834 105.255 86.4393 105.099 86.4393C104.916 86.4393 104.968 86.3094 105.229 86.1795Z" fill="#BEAFDA" fill-opacity="0.9"/>
<path d="M51.8698 91.9467C50.8547 91.9986 50.0738 91.9467 50.1258 91.8168C50.2039 91.7129 51.4533 91.6609 52.9109 91.6869C54.3685 91.7129 55.1494 91.7648 54.6549 91.7908C54.1603 91.8428 52.9109 91.9207 51.8698 91.9467Z" fill="#BEAFDA" fill-opacity="0.9"/>
<path d="M71.4955 92.1545C69.7515 92.1545 68.2679 92.0766 68.1898 91.9986C68.1117 91.9467 69.6214 91.8947 71.5475 91.8947C73.4736 91.8947 74.9573 91.9727 74.8532 92.0506C74.7491 92.1285 73.2394 92.1805 71.4955 92.1545Z" fill="#BEAFDA" fill-opacity="0.9"/>
<path d="M76.9094 98.3114C76.2067 98.3633 75.0874 98.3633 74.4367 98.3114C73.786 98.2594 74.3847 98.2334 75.7381 98.2334C77.0916 98.2334 77.6382 98.2594 76.9094 98.3114Z" fill="#BEAFDA" fill-opacity="0.9"/>
<path d="M48.486 98.8829C47.4449 98.8829 46.5859 98.8309 46.5859 98.7011C46.5859 98.5971 47.2106 98.5452 47.9394 98.5971C48.6943 98.6231 49.5532 98.7011 49.8395 98.753C50.1258 98.805 49.5012 98.8569 48.486 98.8829Z" fill="#BEAFDA" fill-opacity="0.9"/>
<path d="M66.2376 98.5712C65.3787 98.6231 64.0252 98.6231 63.2443 98.5712C62.4635 98.5192 63.1663 98.4932 64.8061 98.4932C66.4459 98.4932 67.0966 98.5192 66.2376 98.5712Z" fill="#BEAFDA" fill-opacity="0.9"/>
<path d="M100.465 2.60722C100.256 2.13961 100.335 1.77592 100.777 0.944609C101.089 0.347107 101.35 -0.0685464 101.376 0.00938858C101.376 0.0873236 101.272 0.554934 101.115 1.0745C100.985 1.56809 100.777 1.93179 100.673 1.85385C100.543 1.80189 100.517 2.06168 100.595 2.47733C100.725 3.12679 100.725 3.12679 100.465 2.60722Z" fill="#C7ABD6" fill-opacity="0.4"/>
<path d="M93.9054 6.01038C93.489 5.80256 93.1766 5.59473 93.1766 5.5168C93.1766 5.43886 93.3588 5.3869 93.5671 5.3869C93.7753 5.3869 93.9575 5.5168 93.9575 5.64669C93.9575 5.80256 94.1657 5.82854 94.426 5.72462C94.7384 5.59473 94.8165 5.62071 94.6863 5.85451C94.5301 6.08832 94.7123 6.14028 96.1699 5.90647L95.3891 6.14028C94.8165 6.32212 94.426 6.29615 93.9054 6.01038Z" fill="#C7ABD6" fill-opacity="0.4"/>
<path d="M101.714 8.6342C101.87 8.55626 101.948 8.37441 101.87 8.21854C101.74 8.01072 101.844 8.01072 102.183 8.19256C102.469 8.34843 102.911 8.63419 103.198 8.868C103.484 9.1018 103.562 9.28365 103.406 9.28365C103.224 9.28365 102.885 9.2317 102.677 9.15376C102.443 9.07583 102.365 8.89398 102.495 8.71213C102.625 8.5043 102.495 8.45235 102.026 8.58224C101.662 8.68615 101.532 8.71213 101.714 8.6342Z" fill="#C7ABD6" fill-opacity="0.4"/>
<path d="M30.8378 83.5037C30.2651 83.5557 29.3802 83.5557 28.8856 83.5037C28.3911 83.4518 28.8596 83.3998 29.9268 83.3998C30.9939 83.3998 31.4104 83.4518 30.8378 83.5037Z" fill="#C7ABD6" fill-opacity="0.4"/>
<path d="M66.367 91.8168C64.4409 91.8688 61.3955 91.8688 59.5995 91.8168C57.8036 91.7908 59.3913 91.7389 63.1134 91.7389C66.8355 91.7389 68.2932 91.7908 66.367 91.8168Z" fill="#C7ABD6" fill-opacity="0.4"/>
<path d="M79.2513 92.0766C78.3923 92.1286 77.0388 92.1286 76.2579 92.0766C75.4771 92.0246 76.1799 91.9987 77.8197 91.9987C79.4595 91.9987 80.1102 92.0246 79.2513 92.0766Z" fill="#C7ABD6" fill-opacity="0.4"/>
<path d="M47.4962 96.8306C47.4181 96.8306 47.7825 96.0253 48.277 95.0122C48.7716 93.999 49.2401 93.1937 49.2922 93.1937C49.3442 93.1937 49.0058 93.999 48.5113 95.0122C48.0167 96.0253 47.5743 96.8306 47.4962 96.8306Z" fill="#C7ABD6" fill-opacity="0.4"/>
<path d="M82.7651 98.3114C81.8281 98.3633 80.3705 98.3633 79.5115 98.3114C78.6526 98.2594 79.4074 98.2335 81.2034 98.2335C82.9994 98.2335 83.7022 98.2594 82.7651 98.3114Z" fill="#C7ABD6" fill-opacity="0.4"/>
<path d="M73.5249 98.5712C72.5098 98.6231 70.7659 98.6231 69.6206 98.5712C68.4754 98.5452 69.2822 98.4932 71.4426 98.4932C73.577 98.4932 74.5401 98.5452 73.5249 98.5712Z" fill="#C7ABD6" fill-opacity="0.4"/>
<path d="M61.1613 98.831C59.3653 98.8829 56.5021 98.8829 54.7842 98.831C53.0663 98.805 54.5239 98.753 58.0378 98.753C61.5517 98.753 62.9573 98.805 61.1613 98.831Z" fill="#C7ABD6" fill-opacity="0.4"/>
<path d="M19.1777 26.5593C19.1256 27.1308 19.0996 26.5333 19.0996 25.2604C19.0996 23.9874 19.1256 23.4938 19.1777 24.2212C19.2298 24.9226 19.2298 25.9877 19.1777 26.5593Z" fill="#459FC5" fill-opacity="0.4"/>
<path d="M19.438 30.9756C19.3859 31.5471 19.3339 31.1834 19.3339 30.1962C19.3339 29.2091 19.3859 28.7155 19.438 29.1571C19.49 29.5987 19.49 30.4041 19.438 30.9756Z" fill="#459FC5" fill-opacity="0.4"/>
<path d="M22.5614 68.7741C22.5094 69.2677 22.4573 68.8 22.4573 67.7349C22.4573 66.6698 22.5094 66.2542 22.5614 66.8257C22.6135 67.3972 22.6135 68.2805 22.5614 68.7741Z" fill="#459FC5" fill-opacity="0.4"/>
<path d="M5.53857 31.4951C5.35637 31.1314 5.2002 30.7937 5.2002 30.7158C5.2002 30.6378 5.30431 30.5859 5.46048 30.5859C5.61666 30.5859 5.72077 30.6898 5.72077 30.8457C5.72077 31.0015 5.72077 31.1834 5.69474 31.2873C5.69474 31.4172 5.77283 31.5471 5.90297 31.625C6.00709 31.7029 6.24135 31.9367 6.42355 32.1446C6.65781 32.4563 6.63178 32.5343 6.37149 32.5343C6.18929 32.5343 6.08517 32.4563 6.13723 32.3524C6.18929 32.2225 6.16326 32.1446 6.03312 32.1446C5.929 32.1446 5.69474 31.8588 5.53857 31.4951Z" fill="#6E6E76" fill-opacity="0.1"/>
<path d="M10.3539 71.8914C10.3279 71.6316 10.5361 71.268 10.8224 71.1381C11.0827 70.9822 11.369 70.8783 11.4471 70.8783C11.5252 70.8783 11.369 71.0082 11.1348 71.19C10.8745 71.3719 10.6923 71.6576 10.6662 71.8395C10.6662 71.9953 10.7183 72.1512 10.7964 72.1512C10.8745 72.1512 11.2909 71.9694 11.7074 71.7615C12.1238 71.5537 12.4882 71.4238 12.4882 71.5018C12.4882 71.5797 12.1238 71.8135 11.7074 72.0213C11.2909 72.2291 10.7964 72.411 10.6662 72.411C10.5361 72.411 10.3799 72.1772 10.3539 71.8914Z" fill="#6E6E76" fill-opacity="0.1"/>
<path d="M15.0911 71.8914C14.7267 71.8914 14.1541 71.6836 13.7897 71.4758C13.3732 71.216 13.3212 71.1381 13.6595 71.268C13.9459 71.3719 14.5185 71.5018 14.961 71.5537C15.4555 71.6057 16.1323 72.0473 17.8241 73.8398L16.783 72.8786C16.1843 72.3071 15.4816 71.8914 15.0911 71.8914Z" fill="#6E6E76" fill-opacity="0.1"/>
<path d="M30.7076 72.4629C30.994 70.8003 31.3584 69.1637 31.4885 68.852C31.6967 68.3324 31.8008 68.3064 32.5817 68.5662C33.0502 68.7221 33.4667 68.852 33.4927 68.8779C33.5187 68.9039 33.0763 71.242 32.5036 74.0996C31.931 76.9572 31.3844 79.3472 31.3323 79.4251C31.2542 79.5031 30.0309 79.1654 26.0225 77.8664L26.2827 77.0091C26.4389 76.5675 26.6211 76.1259 26.6732 76.048C26.7513 75.97 27.4801 76.1778 28.313 76.4896C29.1199 76.8013 29.8747 77.0091 29.9788 76.9312C30.109 76.8793 30.1871 76.5415 30.1871 76.1778C30.1871 75.8141 30.4213 74.1515 30.7076 72.4629Z" fill="#FDFDFE"/>
<path d="M64.7277 62.4873C65.6907 61.0065 66.7579 59.4219 67.0963 58.9542C67.747 58.1229 67.773 58.1229 68.4238 58.5386C68.7882 58.7724 71.391 60.5649 74.1761 62.5133C76.9612 64.4357 80.1107 66.6438 81.1258 67.3972C82.1669 68.1506 83.0259 68.9039 83.0259 69.0338C83.0259 69.1897 82.0368 70.8263 80.8135 72.6708C79.5901 74.5153 78.4709 76.048 78.3407 76.048C78.1845 76.048 76.2324 74.7231 73.9679 73.1124C71.7294 71.5018 68.3457 69.0858 66.4976 67.7349C64.6496 66.41 63.0879 65.267 63.0358 65.215C63.0098 65.189 63.7646 63.9421 64.7277 62.4873Z" fill="#BBB2DB"/>
<path d="M63.5046 16.9992C63.5827 16.9472 65.5088 16.4277 67.7993 15.8302C70.0899 15.2586 72.2242 14.7651 72.5366 14.7651C73.0051 14.7391 73.1873 14.9469 73.3955 15.7003C73.5257 16.2458 74.0462 18.3241 74.5148 20.3244C75.0093 22.3247 75.3477 24.0393 75.2436 24.1432C75.1655 24.2471 73.0311 24.8187 70.5324 25.3902C68.0336 25.9617 65.8732 26.4033 65.717 26.3514C65.5609 26.2994 64.9882 24.1952 64.4156 21.6753C63.843 19.1554 63.4265 17.0511 63.5046 16.9992Z" fill="#74737A"/>
<path d="M54.4466 18.9995C54.4986 18.9735 55.748 18.6618 57.2577 18.2981C58.7674 17.9344 60.0948 17.6486 60.225 17.6227C60.3551 17.5967 60.7456 18.9735 61.0839 20.6362C61.4483 22.3247 61.8648 24.2212 62.047 24.8706C62.2552 25.598 62.5155 26.0397 62.7498 26.0137C62.958 25.9877 63.3484 25.9357 63.6347 25.8838C64.0512 25.8058 64.2074 26.0137 64.5197 27.2087C64.728 27.988 64.9102 28.6635 64.9102 28.6894C64.9362 28.7414 66.5239 28.4037 68.4501 27.988C70.3762 27.5464 72.4064 27.1048 73.864 26.819L74.2805 28.6375C74.5148 29.6247 74.6709 30.456 74.6189 30.4819C74.5928 30.4819 72.1201 31.0535 69.1008 31.7289C66.0814 32.4043 63.4525 33.0018 63.2443 33.0798C62.958 33.1577 62.7498 32.872 62.2032 30.8456L59.7304 31.1574L59.3921 29.9624C59.1057 28.8453 59.0277 28.7674 58.3509 28.9232C57.9605 29.0012 57.2056 29.1571 55.696 29.5467L56.0864 30.8976C56.2946 31.651 56.3727 32.3524 56.2686 32.4303C56.1645 32.5083 55.2795 32.794 54.3164 33.0798C52.7547 33.5214 52.4944 33.5214 52.3122 33.1837C52.1821 32.9759 51.9218 31.9367 51.7396 30.8976C51.5053 29.5467 51.2971 29.0272 51.0108 29.0272C50.8026 29.0272 49.2148 29.3129 47.4969 29.6766C45.779 30.0143 44.3474 30.2741 44.3474 30.2481C44.3214 30.2222 43.983 28.7414 43.6186 26.9489C43.2542 25.1564 42.8378 23.26 42.6816 22.7144C42.5515 22.1949 42.4994 21.7013 42.6035 21.6493C42.7337 21.5714 43.6967 21.3376 44.7639 21.1038C45.8311 20.87 46.7941 20.766 46.8722 20.8959C46.9763 20.9999 47.2887 21.8831 47.601 22.8443C48.0435 24.2471 48.2518 24.6108 48.6682 24.6108C49.1107 24.6108 49.1628 24.481 48.9025 22.6625L50.5423 22.1949C51.4533 21.9351 52.3903 21.6753 52.6246 21.5974C52.989 21.5194 53.1452 21.7272 53.3013 22.4546C53.4835 23.3119 53.5876 23.4158 54.1343 23.3379C54.4987 23.2859 55.0192 23.234 55.3055 23.208C55.748 23.182 55.8261 23.3639 55.8782 24.2731C55.9302 24.8966 56.0343 25.3902 56.1385 25.3902C56.2686 25.3902 56.8152 25.2603 58.429 24.8187L58.2208 23.208C58.1166 22.3507 57.9605 21.5714 57.8824 21.4934C57.8043 21.4155 57.1276 21.4934 54.9411 21.8831L54.6548 20.4543C54.4987 19.675 54.3945 18.9995 54.4466 18.9995Z" fill="#74737A"/>
<path d="M31.7495 23.8575C33.2592 23.5457 35.4196 23.0781 36.5388 22.8443C37.6841 22.5845 38.6992 22.4546 38.8033 22.5326C38.9074 22.6105 39.1937 23.8315 39.428 25.2603C39.6623 26.6891 40.0787 28.8193 40.365 29.9884C40.6253 31.1834 40.7815 32.1446 40.6514 32.1446C40.5472 32.1446 38.2307 32.7421 35.5237 33.4435C31.8536 34.3787 30.5262 34.6385 30.396 34.4047C30.2919 34.2228 30.1878 33.8332 30.1878 33.4954C30.1878 33.1837 29.9015 31.0275 29.5371 28.6894C29.1727 26.3774 28.9124 24.455 28.9384 24.455C28.9905 24.429 30.2399 24.1692 31.7495 23.8575Z" fill="#74737A"/>
<path d="M47.3668 31.3652C48.0175 31.2093 48.8244 30.9755 49.1888 30.8456C49.5532 30.7158 50.0217 30.6118 50.2299 30.6118C50.4902 30.5859 50.7245 31.1574 51.0108 32.5083C51.219 33.5734 51.3492 34.5086 51.2711 34.5865C51.193 34.6645 50.4382 34.8983 49.5792 35.1061C48.7203 35.3399 47.8353 35.5217 47.6271 35.5217C47.3668 35.5217 47.0805 34.9762 46.7681 33.963C46.5339 33.1058 46.2996 32.2225 46.2736 32.0147C46.2215 31.7722 46.5859 31.5557 47.3668 31.3652Z" fill="#74737A"/>
<path d="M40.0267 33.8332L41.5363 33.2616C42.3953 32.9499 43.1761 32.6901 43.3323 32.6901C43.4885 32.6641 43.7748 33.2616 43.983 34.015C44.3735 35.3399 44.4255 35.3919 45.2324 35.3139C46.0393 35.262 46.0653 35.3139 46.2996 36.4829C46.4297 37.1844 46.6119 38.1456 46.8983 39.5484L43.3323 40.6135V41.6267C43.3583 42.1982 43.4364 43.549 43.7748 46.5625L41.5103 47.0821L41.6665 49.9397L39.6362 50.3034C38.517 50.5112 37.5539 50.6931 37.4758 50.6931C37.3978 50.6931 37.2156 50.1216 37.0594 49.4202C36.9032 48.6928 36.669 48.1472 36.5388 48.1732C36.4087 48.1992 35.8881 48.2771 35.3935 48.381C34.4896 48.5615 34.4826 48.5373 34.152 47.3948L34.1442 47.3679C33.988 46.7184 33.8318 45.965 33.8318 45.7053C33.8318 45.3675 34.2743 45.1597 35.836 44.796C36.9553 44.5362 38.0224 44.2245 38.2047 44.1466C38.4649 43.9907 38.4649 43.7309 38.2047 42.6918C38.0224 41.9904 37.7622 41.3669 37.606 41.3149C37.4498 41.263 36.8512 41.3409 36.2265 41.4968C35.3935 41.7046 35.1072 41.6786 35.0031 41.4188C34.925 41.263 34.7428 39.7822 34.2223 35.236L34.873 35.1061C35.2374 35.0282 35.9401 34.8463 36.4347 34.7164C36.9292 34.5865 37.606 34.4826 37.9183 34.4826C38.4129 34.4826 38.543 34.6645 38.6732 35.4438C38.7513 35.9894 38.8814 36.5089 38.9335 36.6128C38.9855 36.7427 39.402 36.6648 39.8445 36.4829C40.2609 36.3271 40.5733 36.0673 40.5212 35.9114C40.4431 35.7555 40.313 35.236 40.0267 33.8332Z" fill="#74737A"/>
<path d="M43.3063 50.771C43.2282 50.4073 43.5666 50.2515 45.3365 49.8358C46.5339 49.576 47.601 49.3422 47.7312 49.3162C47.8613 49.3162 48.0695 49.9657 48.1997 50.771C48.3298 51.6023 48.4079 52.2778 48.3559 52.3037C48.3038 52.3297 47.4969 52.5116 46.5078 52.7714C45.5448 53.0052 44.5296 53.187 44.2433 53.187C43.8529 53.187 43.6967 52.9532 43.5666 52.1998C43.4885 51.6803 43.3844 51.0308 43.3063 50.771Z" fill="#74737A"/>
<path d="M44.816 54.8237C44.868 54.8237 45.9612 54.5639 47.2366 54.2781C48.512 53.9923 49.7874 53.7326 50.0217 53.7326C50.3861 53.7066 50.5163 53.9923 50.6464 54.9276C50.7245 55.629 50.8026 56.3564 50.8286 56.5642C50.8807 56.824 50.1518 57.1617 48.4079 57.6553C47.0544 58.0709 45.8311 58.3567 45.6749 58.3047C45.5187 58.2268 45.2584 57.4475 45.0762 56.5382C44.894 55.629 44.7899 54.8496 44.816 54.8237Z" fill="#74737A"/>
<path d="M53.7438 56.6941L56.8673 56.0187C58.5852 55.629 60.1469 55.3172 60.3031 55.2913C60.4853 55.2653 60.6414 55.4731 60.6414 55.7069C60.6414 55.9667 60.7195 56.5902 60.9538 57.993L57.7783 58.9022L58.0386 59.9933C58.1947 60.6168 58.2728 61.1104 58.2468 61.1364C58.1947 61.1624 56.1645 61.604 53.7438 62.1495L53.5807 62.1859C51.1995 62.7169 49.0783 63.1898 48.7984 63.2406C48.3819 63.3445 48.1737 63.1107 47.6791 61.9677C47.3668 61.2143 47.1065 60.435 47.1065 60.2531C47.1065 60.0972 47.6531 59.8375 48.3298 59.7076C49.0326 59.5777 50.334 59.3179 51.2711 59.162C52.2081 59.0062 53.1712 58.8243 53.4054 58.7464C53.7698 58.6684 53.8479 58.4087 53.7438 56.6941Z" fill="#74737A"/>
<path d="M36.8251 56.3044C36.9292 56.2265 37.6841 56.0446 38.491 55.8888C39.2979 55.7069 40.2089 55.577 40.5212 55.551C41.0678 55.5251 41.1199 55.629 41.1199 57.0838V58.8243C41.1459 58.9542 40.339 59.162 39.3759 59.3439C37.9964 59.6037 37.5539 59.6037 37.4238 59.3439C37.3197 59.162 37.1114 58.4346 36.9553 57.7332C36.7731 57.0058 36.747 56.3823 36.8251 56.3044Z" fill="#74737A"/>
<path d="M4.49741 76.3597C4.54947 75.6583 4.7577 75.3725 5.69474 74.775C6.34546 74.3594 6.89206 74.0736 6.94412 74.1255C6.99617 74.1775 7.0222 74.3074 7.0222 74.4113C7.0222 74.5412 6.94412 74.6191 6.81397 74.6191C6.70986 74.6191 6.31943 74.9049 5.90297 75.2686C5.51253 75.6323 5.20019 76.1778 5.20019 76.4896C5.20019 76.8273 5.07005 77.3209 4.9399 77.6066C4.76638 77.953 4.76638 78.1262 4.9399 78.1262C5.07005 78.1262 5.20019 78.3081 5.20019 78.5159C5.20019 78.7237 5.35636 78.9056 5.51253 78.9056C5.69474 78.8796 6.00708 79.2433 6.16325 79.6849C6.34546 80.1006 6.60574 80.4123 6.76192 80.3344C6.89206 80.2564 7.07426 80.3084 7.15235 80.4643C7.23043 80.6201 7.07426 80.7241 6.81397 80.7241C6.57971 80.75 6.21531 80.5942 6.05914 80.4123C5.87694 80.2305 5.79885 79.9707 5.929 79.8408C6.03311 79.7109 5.95502 79.6849 5.77282 79.7628C5.59062 79.8668 5.17416 79.607 4.78373 79.0874C4.31521 78.5159 4.15904 78.1002 4.28918 77.7365C4.3933 77.4508 4.49741 76.8273 4.49741 76.3597Z" fill="#74737A"/>
<path d="M7.33455 81.8411C7.0222 81.6593 6.81397 81.3995 6.89206 81.2436C6.99617 81.0877 7.15235 80.9838 7.28249 80.9838C7.43866 80.9838 7.59484 81.1657 7.67292 81.3735C7.75101 81.5813 7.98527 81.7632 8.1935 81.7632C8.40173 81.7632 8.58393 81.8671 8.58393 82.023C8.58393 82.1529 9.36479 82.9322 10.3279 83.7375C11.3169 84.5169 12.0718 85.2962 12.0197 85.4261C11.9937 85.556 12.1499 85.6599 12.3581 85.6599C12.5663 85.6599 12.7485 85.7638 12.7485 85.9197C12.7485 86.0756 12.6965 86.1795 12.6184 86.1795C12.5403 86.1795 11.9937 85.8418 11.369 85.4261C10.7703 85.0105 9.75522 84.1272 9.1045 83.4258C8.45378 82.7504 7.67292 82.0489 7.33455 81.8411Z" fill="#74737A"/>
<path d="M20.8695 92.1285C20.5572 91.8688 20.2969 91.531 20.2969 91.3752C20.2969 91.2193 20.3489 91.1154 20.427 91.1154C20.5051 91.1154 20.7133 91.2453 20.8695 91.3752C21.0517 91.531 21.4421 91.8168 21.7284 91.9986C22.1709 92.2844 22.1709 92.3623 21.8586 92.4922C21.6504 92.5702 21.2079 92.4143 20.8695 92.1285Z" fill="#74737A"/>
<path d="M32.5304 95.0641C32.5304 94.9602 32.8427 94.4926 33.2071 94.0509C33.5976 93.5833 33.962 93.3235 33.988 93.4534C34.0401 93.6093 33.8578 94.1289 33.5715 94.6225C33.2852 95.1161 32.9208 95.4797 32.7907 95.4018C32.6345 95.3239 32.5304 95.194 32.5304 95.0641Z" fill="#74737A"/>
<path d="M25.6848 94.5705C25.3725 94.7004 25.2423 94.6225 25.2423 94.3627C25.2423 94.0509 25.5286 94.1029 26.6219 94.6484C27.3507 95.0381 28.0534 95.4797 28.1576 95.6356C28.2877 95.7915 28.3658 95.8175 28.3658 95.6616C28.3658 95.5057 28.4699 95.5577 28.574 95.7395C28.7042 96.0253 28.8864 96.0253 29.3288 95.8175C29.6672 95.6616 30.5001 95.5317 31.2289 95.5317C31.9317 95.5317 32.5824 95.6356 32.6605 95.7915C32.7386 95.9474 32.6605 96.1032 32.5304 96.1812C32.3742 96.2591 32.218 96.1552 32.166 95.9733C32.0879 95.7655 31.9838 95.7655 31.8276 95.9214C31.7235 96.0772 31.2029 96.2331 30.7084 96.2591C30.2138 96.3111 29.5891 96.4669 29.3288 96.5968C29.0946 96.7267 28.8603 96.7527 28.8083 96.6228C28.7822 96.5189 28.0795 96.1292 27.2465 95.7135C26.2575 95.2459 25.815 94.9082 25.9451 94.7004C26.1013 94.4666 26.0232 94.4406 25.6848 94.5705Z" fill="#74737A"/>
<path d="M21.1552 79.7889C21.5457 79.4511 21.7799 79.0874 21.6758 78.9835C21.5457 78.9056 21.6498 78.9056 21.858 79.0095C22.0923 79.1394 22.1443 79.2953 21.9882 79.3992C21.858 79.4771 21.3374 79.9188 20.8429 80.3344C20.3483 80.776 20.036 80.9579 20.1141 80.776C20.2182 80.6202 20.1401 80.4123 19.9839 80.3604C19.8017 80.2824 19.5675 80.3084 19.4634 80.4123C19.3593 80.5163 19.3853 80.776 19.5154 80.9839C19.6976 81.2696 19.6195 81.5294 19.2291 81.8931C18.9428 82.1789 18.7346 82.3088 18.7346 82.1529C18.7606 81.997 18.5784 82.049 18.3441 82.2048C18.1099 82.4127 17.9016 82.4387 17.8236 82.2828C17.7455 82.1269 17.8496 81.971 18.0318 81.8931C18.188 81.8152 18.4743 81.7632 18.6044 81.7892C18.7606 81.8152 18.9948 81.8152 19.125 81.8152C19.2812 81.7892 19.2031 81.6073 18.9948 81.3735C18.6565 81.0098 18.6825 80.88 19.3593 80.2565C19.7757 79.8668 20.036 79.7109 19.9319 79.8668C19.8538 80.0486 19.9319 80.2565 20.1141 80.3084C20.2703 80.3604 20.7388 80.1266 21.1552 79.7889Z" fill="#8A8279" fill-opacity="0.8"/>
<path d="M7.09971 81.1138C6.78736 81.2003 6.28414 80.88 5.59004 80.1526C5.01741 79.5551 4.78315 79.2433 5.06946 79.5031C5.35578 79.7369 5.66813 79.8928 5.79827 79.8148C5.90238 79.7369 5.92841 79.7629 5.85033 79.8668C5.77224 79.9967 5.87636 80.2305 6.05856 80.4123C6.21473 80.5942 6.60516 80.7501 6.89148 80.7241C7.17779 80.7241 7.64631 80.9579 7.93263 81.2436C8.24497 81.5554 8.32306 81.7892 8.14086 81.7632C7.95866 81.7632 7.75043 81.5814 7.67234 81.3735C7.59425 81.1397 7.35999 81.0358 7.09971 81.1138Z" fill="#8A8279" fill-opacity="0.8"/>
<path d="M12.2534 85.7119C11.889 85.8158 11.7068 85.7639 11.8109 85.634C11.915 85.5041 12.1753 85.4002 12.3575 85.4002C12.5657 85.4002 12.8521 85.608 12.9822 85.8418C13.1123 86.1016 13.3206 86.2834 13.4507 86.2315C13.5548 86.2055 13.685 86.3354 13.737 86.5692C13.7631 86.777 13.737 86.9589 13.659 86.9589C13.5809 86.9589 13.2946 86.829 13.0082 86.6991L13.0082 86.6991C12.6438 86.5172 12.5397 86.3094 12.6959 85.9977C12.8521 85.634 12.774 85.582 12.2534 85.7119Z" fill="#8A8279" fill-opacity="0.8"/>
<path d="M23.0293 93.7133C22.9512 93.5574 22.9772 93.2716 23.0553 93.0378C23.1855 92.7001 23.3417 92.7261 24.2527 93.2197C24.9034 93.5834 25.2938 93.973 25.2678 94.2848C25.2418 94.6744 25.3459 94.7004 25.7623 94.4926C26.1528 94.2848 26.2308 94.3108 26.0747 94.5446C25.9445 94.7784 26.0226 94.8043 26.335 94.6744C26.6733 94.5446 26.7774 94.5965 26.7254 94.8563C26.6994 95.0641 26.5692 95.3239 26.4391 95.4538C26.2829 95.5837 26.2829 95.5058 26.4391 95.2719C26.6213 95.0122 26.5692 94.9342 26.2829 95.0641C26.0747 95.1421 25.45 94.9862 24.9034 94.7264C24.3828 94.4406 23.9403 94.1029 23.9403 93.973C23.9403 93.8172 24.0965 93.7133 24.2527 93.7133C24.4349 93.7133 24.3568 93.5834 24.0705 93.4275C23.68 93.2197 23.4718 93.2197 23.2896 93.4794C23.1074 93.6873 23.1334 93.7392 23.3417 93.6093C23.5239 93.5314 23.68 93.5574 23.68 93.7133C23.68 93.8431 23.5499 93.973 23.4197 93.973C23.2896 93.973 23.1074 93.8431 23.0293 93.7133Z" fill="#8A8279" fill-opacity="0.8"/>
<path d="M30.9681 95.2979C32.0613 95.2719 32.1914 95.194 32.8682 94.1029C33.2846 93.4535 33.7271 92.9339 33.8573 92.9339C33.9874 92.9339 34.1696 93.1157 34.2737 93.3236C34.4039 93.5574 34.3518 93.8691 34.1696 94.051C33.9093 94.3108 33.8573 94.2328 34.0134 93.7133C34.1956 93.0638 34.1956 93.0638 33.6751 93.5834C33.3888 93.8691 33.0243 94.3108 32.8421 94.5446C32.6599 94.8303 32.6079 95.1421 32.7641 95.3239C32.9463 95.5837 32.686 95.6356 31.6448 95.5837C30.916 95.5317 30.1872 95.4538 30.0571 95.4018C29.9009 95.3499 30.3174 95.2979 30.9681 95.2979Z" fill="#8A8279" fill-opacity="0.8"/>
<path d="M72.692 8.66021C72.5879 8.55629 72.4578 8.0627 72.4057 7.56912C72.3797 7.07553 72.4578 6.68585 72.614 6.68585C72.7441 6.68585 72.8742 7.17944 72.8742 7.77694C72.8742 8.40042 72.7962 8.7901 72.692 8.66021Z" fill="#459FC5" fill-opacity="0.9"/>
<path d="M73.2907 7.90683C73.2126 7.59509 73.2386 7.17944 73.3167 6.99759C73.3688 6.84172 73.6031 6.68585 73.8113 6.68585C74.0716 6.68585 74.0976 6.78977 73.9154 7.07553C73.7592 7.28335 73.7072 7.64705 73.7852 7.85488C73.8633 8.0627 73.8113 8.29651 73.6551 8.37444C73.4989 8.45238 73.3428 8.24455 73.2907 7.90683Z" fill="#459FC5" fill-opacity="0.9"/>
<path d="M80.3705 7.72499C80.2404 7.72499 80.2404 7.51716 80.3445 7.25738C80.4746 6.89368 80.5788 6.99759 80.8911 7.72499C81.0733 8.21857 81.2034 8.91999 81.1254 9.28369C81.0473 9.80325 80.9952 9.72532 80.787 8.81608C80.6568 8.21857 80.4746 7.72499 80.3705 7.72499Z" fill="#459FC5" fill-opacity="0.9"/>
<path d="M51.8951 9.85521C51.9732 10.0371 52.0252 9.93314 52.0252 9.59543C52.0512 9.28369 52.2074 9.0239 52.4417 9.0239C52.6499 9.0239 52.8061 9.15379 52.78 9.30966C52.728 9.43956 52.5978 9.49151 52.4417 9.41358C52.3115 9.33564 52.2334 9.33564 52.2595 9.46553C52.3115 9.56945 52.5198 9.80325 52.78 9.95912C53.1705 10.2189 53.1444 10.2449 52.5718 10.2189C51.9732 10.1929 51.9211 10.2709 51.9211 11.4659C51.9211 12.1673 51.817 12.7908 51.6608 12.8427C51.5046 12.8947 51.4526 12.4271 51.5046 11.6737C51.6087 10.6605 51.5567 10.5047 51.2443 10.6865C50.932 10.8943 50.932 10.8684 51.2183 10.5047C51.3745 10.2709 51.4786 9.93314 51.4005 9.80325C51.3224 9.64738 51.3745 9.54347 51.5307 9.54347C51.6868 9.54347 51.843 9.69934 51.8951 9.85521Z" fill="#459FC5" fill-opacity="0.9"/>
<path d="M41.4836 13.6221C41.6918 13.3103 41.7959 12.8687 41.7178 12.6609C41.6137 12.3751 41.6397 12.3491 41.848 12.531C42.0041 12.6609 42.1863 13.3363 42.2124 14.0117C42.2644 14.6872 42.1863 15.2587 42.0302 15.2587C41.874 15.2847 41.6137 15.4406 41.4315 15.5964C41.1712 15.8302 41.0931 15.8302 41.1192 15.5704C41.1192 15.4146 41.3014 15.2067 41.5096 15.1288C41.7178 15.0509 41.9 14.7651 41.9 14.4794C41.9 14.133 41.7699 14.0031 41.5096 14.0897C41.1712 14.1936 41.1712 14.1416 41.4836 13.6221Z" fill="#459FC5" fill-opacity="0.9"/>
<path d="M34.612 14.3495C34.7681 14.4274 34.8723 14.1157 34.8723 13.6221C34.8723 13.0246 34.9503 12.8947 35.1065 13.1804C35.2367 13.3883 35.4709 13.4922 35.6271 13.3623C35.7833 13.2584 35.9655 13.2843 36.0435 13.4402C36.1216 13.5701 35.9915 13.752 35.7833 13.8299C35.549 13.9078 35.4449 14.1416 35.549 14.4014C35.6271 14.6612 35.6011 14.7911 35.4709 14.6872C35.3668 14.5573 35.1065 14.6092 34.9503 14.7391C34.7161 14.921 34.5599 14.869 34.4818 14.6092C34.4037 14.4014 34.4558 14.2715 34.612 14.3495Z" fill="#459FC5" fill-opacity="0.9"/>
<path d="M37.2148 15.2587C37.0587 15.2587 37.0326 15.0249 37.1107 14.7391C37.1888 14.4534 37.371 14.2196 37.5012 14.2196C37.6313 14.2196 37.7354 14.5053 37.7354 14.869C37.7354 15.2327 37.8395 15.5185 37.9957 15.5185C38.1519 15.5185 38.2039 15.6224 38.1259 15.7783C38.0478 15.9082 38.0998 16.0381 38.256 16.0381C38.4122 16.0381 38.3861 16.2459 38.2039 16.5576C38.0217 16.8434 37.7875 17.0772 37.6834 17.0772C37.5532 17.0772 37.4751 16.6615 37.4751 16.1679C37.4751 15.6744 37.371 15.2587 37.2148 15.2587Z" fill="#459FC5" fill-opacity="0.9"/>
<path d="M82.8953 15.5704C83.0515 15.6744 83.3899 15.5964 83.6762 15.3886C83.9625 15.1808 84.1968 14.9989 84.2228 14.9989C84.2228 14.9989 84.1968 15.2847 84.1447 15.6484C84.0926 16.0121 84.1707 16.4537 84.3009 16.6096C84.431 16.8174 84.431 17.1811 84.0666 17.9864L84.1187 17.4669C84.1447 17.1811 84.0406 16.6875 83.8584 16.3498C83.6762 16.0381 83.4419 15.8302 83.2857 15.9082C83.1296 15.9861 82.9474 15.8822 82.8433 15.7003C82.7131 15.5185 82.7391 15.4665 82.8953 15.5704Z" fill="#459FC5" fill-opacity="0.9"/>
<path d="M24.1224 21.0779C24.1744 20.4544 24.2005 19.675 24.2265 19.3373C24.2265 18.9736 24.2786 18.8957 24.3827 19.1555C24.5128 19.4932 24.5388 19.4932 24.7471 19.1555C24.9293 18.8177 24.9813 18.8437 24.9813 19.2074C24.9813 19.4672 24.9032 19.727 24.7731 19.7789C24.669 19.8309 24.5909 20.5323 24.5909 21.3376C24.5909 22.2902 24.5041 22.6798 24.3306 22.5067C24.1744 22.3508 24.0963 21.7273 24.1224 21.0779Z" fill="#459FC5" fill-opacity="0.9"/>
<path d="M84.431 22.8444C84.405 22.4547 84.3009 21.6754 84.1968 21.1298C84.0926 20.4284 84.1187 20.1686 84.3009 20.2725C84.457 20.3764 84.6913 21.0259 84.8475 21.7533C85.0036 22.4547 85.2379 23.0522 85.4201 23.0522C85.5763 23.0522 85.6283 23.1301 85.5242 23.2341C85.3941 23.3639 85.1338 23.4679 84.8995 23.4938C84.5872 23.5198 84.457 23.338 84.431 22.8444Z" fill="#459FC5" fill-opacity="0.9"/>
<path d="M22.1963 24.507C22.0921 23.9355 22.0921 23.3899 22.1963 23.26C22.3264 23.1561 22.4565 23.0522 22.5086 23.0522C22.5867 23.0522 22.6387 23.6757 22.6387 24.4031C22.6387 25.1564 22.5867 25.728 22.5086 25.65C22.4305 25.5721 22.2743 25.0525 22.1963 24.507Z" fill="#459FC5" fill-opacity="0.9"/>
<path d="M23.7319 30.9496C23.4977 31.0535 23.4196 30.8457 23.4456 30.1183C23.4717 29.5987 23.5237 29.4169 23.5758 29.7286C23.6278 30.0664 23.784 30.3261 23.9402 30.3261C24.0703 30.3261 24.2005 30.534 24.2005 30.7678C24.2265 31.0276 24.0443 31.4172 23.81 31.6251C23.5758 31.8329 23.3936 31.9108 23.3936 31.7549C23.4196 31.5991 23.5497 31.3393 23.7319 31.1315C23.9922 30.8457 23.9922 30.7937 23.7319 30.9496Z" fill="#459FC5" fill-opacity="0.9"/>
<path d="M24.1224 43.0555C24.3827 43.0555 24.4087 42.7698 24.2786 42.0164C24.1744 41.263 24.2005 40.9773 24.4608 40.9773C24.643 40.9773 24.7991 41.1591 24.8252 41.3929C24.8252 41.6267 24.8252 42.5619 24.7731 43.4712C24.7471 44.4843 24.6169 45.0818 24.4608 45.0039C24.3046 44.926 24.2525 44.6402 24.3306 44.3544C24.4087 44.0687 24.3046 43.653 24.1224 43.4452C23.8621 43.1075 23.8621 43.0295 24.1224 43.0555Z" fill="#459FC5" fill-opacity="0.9"/>
<path d="M24.3827 53.4469C24.3566 53.291 24.3827 52.6935 24.4347 52.07C24.5128 51.2127 24.5649 51.0828 24.7471 51.4985C24.8512 51.7842 24.9553 52.4077 24.9553 52.8494C24.9813 53.317 24.8512 53.7066 24.721 53.7066C24.5649 53.7066 24.4347 53.5767 24.3827 53.4469Z" fill="#459FC5" fill-opacity="0.9"/>
<path d="M23.3155 60.7727C23.2374 60.3311 23.2114 59.8375 23.2895 59.6817C23.3936 59.5258 23.5497 59.4219 23.6539 59.4219C23.784 59.4219 23.8361 59.6037 23.784 59.8116C23.7319 60.0194 23.6799 60.7208 23.6799 61.3702C23.6799 62.3574 23.6278 62.4873 23.3155 62.2016C23.1073 62.0197 23.0552 61.8379 23.2114 61.7599C23.3415 61.682 23.3936 61.2404 23.3155 60.7727Z" fill="#459FC5" fill-opacity="0.9"/>
<path d="M94.4521 62.7211C94.2959 62.1236 94.0877 61.4742 94.0096 61.2923C93.9315 61.1364 93.9575 60.9806 94.0356 60.9806C94.1397 60.9806 94.374 61.2923 94.5822 61.682C94.7644 62.0976 95.0247 62.825 95.1549 63.3186C95.285 63.9941 95.259 64.1759 95.0508 64.02C94.8685 63.9161 94.6083 63.3446 94.4521 62.7211Z" fill="#459FC5" fill-opacity="0.9"/>
<path d="M90.7039 64.7474C90.4957 64.8254 90.3135 64.7734 90.3135 64.6175C90.3135 64.4617 90.4957 64.3578 90.7039 64.3578C90.9122 64.3578 91.1464 64.4617 91.2245 64.6175C91.3026 64.7734 91.4588 64.8254 91.615 64.7474C91.7711 64.6695 91.8492 64.7734 91.8232 64.9293C91.7711 65.1111 91.9533 65.241 92.2136 65.1891C92.4479 65.1631 92.6561 65.241 92.6561 65.3969C92.6561 65.5528 92.4479 65.6567 92.2136 65.6567C91.9533 65.6567 91.5889 65.4229 91.4327 65.1371C91.2505 64.8513 90.9122 64.6695 90.7039 64.7474Z" fill="#459FC5" fill-opacity="0.9"/>
<path d="M52.5718 70.2029C52.4417 70.2808 52.3376 70.099 52.3636 69.8132C52.3896 69.5274 52.5198 69.2936 52.6239 69.2936C52.728 69.2936 52.9883 69.5794 53.1705 69.9431C53.3266 70.3068 53.5609 70.5926 53.691 70.5926C53.7952 70.5926 53.8732 70.6965 53.8732 70.8523C53.8732 71.0082 53.691 71.1121 53.4828 71.1121C53.2746 71.1121 53.0403 70.8783 52.9622 70.5926C52.8842 70.3068 52.728 70.1249 52.5718 70.2029Z" fill="#459FC5" fill-opacity="0.9"/>
<path d="M43.722 72.6708C43.5919 72.6708 43.4617 72.2812 43.4878 71.8135C43.4878 71.3719 43.5398 71.1381 43.6179 71.294C43.67 71.4758 43.9042 71.6317 44.1125 71.6317C44.3207 71.6317 44.555 71.7356 44.633 71.8915C44.7111 72.0473 44.581 72.0993 44.3728 72.0214C44.1385 71.9434 43.9823 72.0473 43.9823 72.2812C43.9823 72.489 43.8782 72.6708 43.722 72.6708Z" fill="#459FC5" fill-opacity="0.9"/>
<path d="M53.3529 74.6192C53.5091 74.6971 53.6132 74.6451 53.6132 74.4893C53.6132 74.3334 53.7173 74.2295 53.8735 74.2295C54.0297 74.2295 54.0817 74.4633 54.0036 74.7491C53.9255 75.0348 53.7694 75.2686 53.6132 75.2686C53.457 75.2686 53.3529 75.1647 53.3529 75.0088C53.3529 74.853 53.2488 74.801 53.0926 74.879C52.9365 74.9569 52.9365 75.1387 53.0666 75.3206C53.2228 75.5457 53.1881 75.6583 52.9625 75.6583C52.7803 75.6583 52.6501 75.5544 52.6762 75.3985C52.7022 75.2426 52.8063 74.9829 52.9104 74.827C53.0145 74.6451 53.1967 74.5412 53.3529 74.6192Z" fill="#BEAFDA" fill-opacity="0.9"/>
<path d="M59.73 76.9572C60.1725 76.8793 60.5629 76.7754 60.6149 76.6974C60.667 76.6195 60.7711 76.5675 60.8232 76.5675C60.8492 76.5675 60.9013 76.6195 60.9013 76.6974C60.9013 76.7754 60.5629 77.0092 60.1204 77.217C59.6779 77.4248 59.1313 77.6067 58.897 77.6067C58.6107 77.6067 58.5587 77.5287 58.7148 77.3729C58.845 77.217 59.2875 77.0611 59.73 76.9572Z" fill="#BEAFDA" fill-opacity="0.9"/>
<path d="M99.9444 85.9977C98.9293 86.0496 98.9032 86.0496 99.5019 85.608C99.8142 85.3482 100.101 85.1404 100.127 85.1404C100.179 85.1404 100.413 85.2183 100.647 85.2963C100.907 85.3742 101.09 85.556 101.038 85.6859C101.012 85.8158 100.517 85.9457 99.9444 85.9977Z" fill="#BEAFDA" fill-opacity="0.9"/>
<path d="M105.619 91.661C105.593 91.5311 106.009 91.3232 106.582 91.1674C107.154 91.0375 107.779 90.9076 107.935 90.8816C108.117 90.8556 108.352 91.0375 108.456 91.2713C108.586 91.4791 108.82 91.609 108.976 91.5311C109.159 91.4531 109.263 91.4791 109.185 91.635C109.107 91.7908 108.872 91.8948 108.664 91.8948C108.456 91.8948 108.222 91.6869 108.117 91.4531C108.013 91.0375 107.961 91.0375 107.753 91.3752C107.597 91.635 107.363 91.7129 106.998 91.583C106.686 91.4531 106.4 91.4791 106.321 91.635C106.243 91.7908 106.087 91.8948 105.931 91.8948C105.775 91.8948 105.645 91.7908 105.619 91.661Z" fill="#BEAFDA" fill-opacity="0.9"/>
<path d="M104.499 93.8172C104.213 93.6093 103.953 93.2456 103.927 92.9858C103.875 92.5702 103.901 92.5702 104.187 93.0118C104.369 93.2716 104.682 93.4015 104.942 93.3236C105.202 93.2456 105.489 93.3236 105.593 93.4794C105.723 93.6353 105.619 93.8691 105.41 93.973C105.176 94.1029 104.812 94.051 104.499 93.8172Z" fill="#BEAFDA" fill-opacity="0.9"/>
<path d="M109.341 94.2328C110.018 94.2328 110.694 94.0769 110.876 93.8691C111.137 93.5834 111.319 93.5834 111.579 93.8172C111.814 93.999 111.84 94.2068 111.657 94.4406C111.527 94.5965 111.241 94.7004 111.059 94.6225C110.903 94.5445 110.304 94.7264 109.757 95.0122C109.237 95.2979 108.794 95.4278 108.794 95.2719C108.794 95.1161 108.898 95.0122 109.054 95.0122C109.211 95.0122 109.341 94.8823 109.367 94.7264C109.393 94.5965 109.289 94.5186 109.159 94.5965C109.028 94.6485 108.742 94.6225 108.534 94.4666C108.248 94.3107 108.508 94.2328 109.341 94.2328Z" fill="#BEAFDA" fill-opacity="0.9"/>
<path d="M78.3405 96.0513C78.0542 95.6876 77.846 95.246 77.898 95.0381C77.9241 94.7524 78.0282 94.7524 78.3405 95.0122C78.5488 95.194 78.7049 95.5317 78.6529 95.7655C78.6268 96.1292 78.6529 96.1292 78.8351 95.7915C78.9652 95.5577 79.1214 95.5057 79.1995 95.6616C79.2776 95.8175 79.2255 96.1033 79.0954 96.3111C78.8871 96.6488 78.783 96.5968 78.3405 96.0513Z" fill="#BEAFDA" fill-opacity="0.9"/>
<path d="M6.94367 81.7632C5.85046 80.6981 4.93945 79.7888 4.93945 79.7629V79.7369C4.93945 79.7109 4.99151 79.6849 5.0696 79.6849C5.17371 79.6849 6.05869 80.5942 8.97391 83.7116L6.94367 81.7632Z" fill="#6E6E76" fill-opacity="0.1"/>
<path d="M10.6658 83.8674C10.5877 83.8674 9.7808 83.1141 8.84377 82.1789C7.90673 81.2436 7.25601 80.4903 7.36013 80.4903C7.49027 80.4903 8.29716 81.2436 9.18214 82.1789C10.0671 83.1141 10.7439 83.8674 10.6658 83.8674Z" fill="#6E6E76" fill-opacity="0.1"/>
<path d="M66.2371 18.3761C66.3152 18.2982 67.4605 18.0124 68.7619 17.7007C70.4017 17.337 71.1826 17.259 71.3388 17.4409C71.4429 17.5968 71.7552 18.8177 72.6142 22.5326L72.0415 22.7664C71.7032 22.8963 70.5058 23.1821 69.3606 23.4419C68.2153 23.6757 67.2002 23.7796 67.1221 23.6497C67.044 23.5458 66.7837 22.3248 66.5234 20.9739C66.2631 19.6231 66.133 18.454 66.2371 18.3761Z" fill="#FDFDFE"/>
<path d="M31.4887 26.3255C31.5668 26.2735 32.686 25.9878 33.9615 25.702C35.2369 25.4162 36.4862 25.1824 36.6945 25.2084C36.9548 25.2344 37.2151 25.9878 37.5274 27.7283C37.7877 29.0792 37.8918 30.2742 37.7877 30.3521C37.6836 30.43 36.4602 30.7418 35.0547 31.0535C33.6751 31.3653 32.4518 31.5731 32.3216 31.5211C32.2175 31.4692 31.9572 30.3002 31.749 28.9493C31.5408 27.5724 31.4106 26.4034 31.4887 26.3255Z" fill="#FDFDFE"/>
<path d="M67.2788 19.4672L68.4501 19.2074C69.1008 19.0775 69.8817 18.9476 70.194 18.9216C70.5324 18.9216 70.8447 18.9736 70.8968 19.0775C70.9488 19.2074 71.079 19.8569 71.3653 21.8832L70.0899 22.2469C69.4131 22.4287 68.6843 22.5326 68.4761 22.5066C68.2939 22.4547 67.9555 21.7533 67.2788 19.4672Z" fill="#74737A"/>
<path d="M32.9208 27.1827C33.077 27.1827 33.7537 27.0269 34.4826 26.819C35.2114 26.6372 35.8881 26.4553 36.0183 26.4553C36.1484 26.4294 36.2785 26.7411 36.3306 27.1308C36.3566 27.5464 36.4607 28.2998 36.695 29.8066L34.925 30.0923C33.962 30.2482 33.1551 30.3261 33.103 30.2742C33.077 30.2222 32.9729 29.5208 32.8427 28.6895C32.7386 27.7543 32.7647 27.2087 32.9208 27.1827Z" fill="#74737A"/>
</svg>
