<svg width="622" height="276" viewBox="0 0 622 276" fill="none" xmlns="http://www.w3.org/2000/svg">
<path d="M621.598 131.54C621.564 133.783 621.564 133.783 621.067 136.313C620.539 139.207 620.184 141.451 620.404 144.4C619.871 150.91 613.703 157.047 609.886 162.167C605.871 167.622 602.039 173.161 598.396 178.872C597.78 179.831 597.78 179.831 597.152 180.81C595.078 184.105 593.339 187.325 591.899 190.937C591.256 192.419 590.609 193.899 589.96 195.378C586.239 203.932 582.579 212.401 579.878 221.343C579.283 223.275 578.679 225.205 578.066 227.132C577.803 227.988 577.539 228.844 577.268 229.726C576.343 231.949 576.343 231.949 573.514 234.778C573.981 235.244 574.448 235.711 574.929 236.192C573.547 242.13 573.547 242.13 572.807 243.97C571.874 244.437 570.94 244.903 569.979 245.384C564.637 243.184 560.746 239.9 557.958 234.778C557.604 231.065 557.604 231.065 557.958 227.706C557.929 226.89 557.9 226.073 557.87 225.232C557.958 223.464 557.958 223.464 559.372 222.05C558.905 221.583 558.439 221.116 557.958 220.635C559.055 210.106 563.478 199.949 567.173 190.125C567.981 187.888 567.981 187.888 568.565 184.573C564.922 185.301 562.77 186.637 559.701 188.642C541.53 200.421 522.251 210.453 502.715 219.752C502.099 220.046 501.482 220.34 500.847 220.643C492.875 224.435 484.825 227.935 476.641 231.242C475.047 231.91 473.454 232.58 471.862 233.253C463.106 236.922 454.386 240.156 445.266 242.79C441.928 243.758 438.653 244.857 435.372 246.001C416.139 252.678 396.16 256.92 376.232 260.94C374.428 261.306 374.428 261.306 372.588 261.678C355.278 265.095 337.906 268.127 320.37 270.133C319.465 270.24 318.56 270.346 317.627 270.456C314.301 270.838 310.972 271.196 307.642 271.547C306.844 271.632 306.045 271.717 305.223 271.805C291.592 273.241 277.997 274.412 264.279 274.362C261.701 274.372 259.281 274.499 256.73 274.817C255.564 274.905 254.397 274.992 253.195 275.083C252.728 274.616 252.262 274.149 251.781 273.668C250.847 274.135 249.914 274.602 248.952 275.083C248.486 274.616 248.019 274.149 247.538 273.668C247.071 274.135 246.605 274.602 246.124 275.083C243.815 275.116 243.815 275.116 240.997 274.906C240.075 274.844 239.152 274.782 238.202 274.718C235.712 274.4 233.614 273.848 231.275 272.961C230.808 273.428 230.341 273.895 229.86 274.376C227.452 274.409 227.452 274.409 224.557 274.199C223.124 274.106 223.124 274.106 221.662 274.011C219.254 273.668 219.254 273.668 217.84 272.254C217.373 272.721 216.906 273.188 216.425 273.668C215.725 272.968 215.025 272.268 214.304 271.547C213.837 272.014 213.371 272.48 212.89 272.961C212.423 272.495 211.956 272.028 211.476 271.547C211.009 272.014 210.542 272.48 210.061 272.961C209.405 272.713 208.749 272.465 208.073 272.21C205.833 271.318 205.833 271.318 203.697 272.254C202.997 271.554 202.297 270.854 201.576 270.133C200.745 270.527 200.745 270.527 199.897 270.928C196.398 271.773 193.764 270.883 190.262 270.133C189.096 270.162 187.929 270.191 186.727 270.221C182.621 270.119 179.888 268.878 176.12 267.304C174.003 267.036 171.881 266.801 169.756 266.597C167.139 265.975 164.562 265.223 161.978 264.476C158.975 263.672 156.599 263.062 153.493 263.062C152.822 262.77 152.151 262.478 151.46 262.178C148.012 260.715 144.523 259.769 140.911 258.794C138.644 258.112 138.644 258.112 135.815 256.698C134.605 256.246 133.394 255.794 132.147 255.328C127.17 253.426 122.275 251.345 117.386 249.229C116.604 248.896 115.821 248.563 115.014 248.22C114.272 247.896 113.53 247.571 112.765 247.238C112.098 246.949 111.431 246.66 110.743 246.363C108.945 245.384 108.945 245.384 106.117 242.556C105.183 242.556 104.25 242.556 103.288 242.556C98.5204 239.566 98.5204 239.566 97.6314 236.899C96.9314 237.132 96.2314 237.366 95.5101 237.606C93.4358 236.327 93.4358 236.327 90.9581 234.468C87.6517 232.032 84.3416 229.634 80.926 227.353C80.2606 226.908 79.5953 226.463 78.9097 226.005C76.9943 224.754 76.9943 224.754 74.2969 223.464C73.8302 222.53 73.3635 221.597 72.8827 220.635C72.1827 220.869 71.4826 221.102 70.7614 221.343C37.6377 191.97 7.18554 159.445 3.19126 113.07C2.9463 110.362 2.63933 107.692 2.27976 104.999C2.17465 104.199 2.06954 103.399 1.96125 102.574C1.75159 100.992 1.53644 99.4097 1.31525 97.8286C0.600133 92.2573 0.600133 92.2573 2.17203 89.1135C1.95965 88.511 1.74727 87.9085 1.52845 87.2878C0.451763 83.911 0.829205 80.785 1.15557 77.3137C1.25495 76.2044 1.25495 76.2044 1.35634 75.0727C2.23037 66.2111 3.90607 57.521 5.70757 48.8085C5.93635 47.6408 6.16514 46.4732 6.40086 45.2702C8.29056 36.4733 11.0974 27.9958 13.9277 19.4635C14.3342 18.236 14.7407 17.0084 15.1596 15.7436C18.5908 5.56826 18.5908 5.56826 20.5568 2.84651C23.1025 1.76707 25.6195 1.33218 28.335 0.725192C32.5506 8.77322 32.0546 16.5541 30.1248 25.1756C30.0009 25.9741 29.8769 26.7726 29.7492 27.5952C30.2159 28.0619 30.6826 28.5286 31.1634 29.0095C30.6967 29.6512 30.23 30.2929 29.7492 30.954C28.0879 33.2038 28.0879 33.2038 28.335 36.0805C27.9418 41.0478 26.9224 45.6205 25.5949 50.3994C25.4136 51.0831 25.2322 51.7667 25.0453 52.471C24.1267 55.8222 23.072 58.5926 21.2639 61.5364C20.5039 64.1706 20.5039 64.1706 19.9823 66.9723C19.7881 67.9084 19.594 68.8445 19.3939 69.809C19.2695 70.9643 19.2695 70.9643 19.1426 72.143C19.6093 72.6097 20.076 73.0764 20.5568 73.5572C20.2232 74.0221 19.8896 74.4869 19.5459 74.9659C17.2157 79.4291 17.4276 84.8758 17.0213 89.8206C16.9247 90.9673 16.828 92.114 16.7285 93.2954C14.9992 118.189 26.9753 140.345 42.4771 159.117C52.4454 170.225 63.2221 181 75.3959 189.697C77.3118 191.071 79.1955 192.484 81.0835 193.895C109.887 215.011 143.831 228.671 178.949 234.778C179.597 234.894 180.245 235.01 180.912 235.13C213.733 241.013 248.571 244.161 281.869 241.338C284.772 241.104 287.673 240.996 290.583 240.876C298.161 240.486 305.64 239.555 313.161 238.595C315.341 238.323 317.523 238.071 319.707 237.827C350.192 234.397 380.318 228.206 410.173 221.254C411.128 221.033 412.083 220.812 413.068 220.585C419.959 218.959 426.729 217.023 433.507 214.979C434.401 214.717 435.296 214.455 436.217 214.185C478.16 201.875 518.023 183.783 555.837 161.946C555.275 161.967 554.713 161.988 554.134 162.01C527.987 162.995 527.987 162.995 524.017 162.653C523.55 162.186 523.083 161.719 522.603 161.238C522.136 161.705 521.669 162.172 521.188 162.653C516.452 162.453 511.752 161.802 507.046 161.238C506.076 161.135 505.107 161.031 504.107 160.924C498.472 160.25 493.577 159.512 489.766 154.919C487.627 150.726 487.636 146.054 487.247 141.439C492.115 140.311 496.271 139.904 501.301 140.202C502.601 140.279 503.901 140.355 505.24 140.434C508.857 140.709 512.455 141.054 516.062 141.439C541.812 144.143 570.1 143.228 594.728 134.368C595.194 134.835 595.661 135.302 596.142 135.783C596.998 135.154 596.998 135.154 597.871 134.512C600.726 132.743 603.475 131.719 606.66 130.656C607.737 130.288 608.815 129.92 609.925 129.54C615.183 128.173 617.628 127.57 621.598 131.54ZM572.1 179.623C570.686 182.452 570.686 182.452 570.686 182.452L572.1 179.623Z" fill="#8CC371"/>
</svg>
