<svg width="215" height="222" viewBox="0 0 215 222" fill="none" xmlns="http://www.w3.org/2000/svg">
<path d="M158.995 22.8283C161.302 21.2575 167.28 15.4981 172.419 9.94811C177.559 4.50283 182.173 0 182.698 0C183.117 0 183.537 0.628302 183.537 1.2566C183.537 1.98962 184.9 3.97925 186.683 5.75943C188.466 7.43491 189.829 9.52925 189.829 10.1575C189.829 10.8906 191.193 12.9849 192.976 14.6604C194.654 16.3358 196.122 18.7443 196.122 19.8962C196.122 21.0481 197.276 22.7236 198.744 23.5613C200.527 24.6085 201.471 26.284 201.89 29.0066C202.205 31.2057 203.149 33.7189 203.988 34.5566C204.932 35.3943 205.666 37.0698 205.666 38.2217C205.561 39.3736 206.19 41.9915 206.924 44.0858C207.554 46.1802 208.498 48.3792 209.022 48.7981C209.441 49.3217 209.756 50.5783 209.756 51.5208C209.756 52.5679 210.49 55.1858 211.539 57.2802C212.588 59.8981 213.007 62.4113 212.588 64.6104C212.063 67.2283 212.273 68.1708 213.427 68.5896C214.79 69.0085 215 72.3594 215 89.533C215 105.031 214.685 110.058 213.637 110.267C212.798 110.581 212.483 112.571 212.588 116.55C212.798 121.262 212.588 122.519 211.329 122.519C210.28 122.519 209.756 123.671 209.756 126.184C209.756 128.174 209.337 129.849 208.707 129.849C208.078 129.849 207.659 131.106 207.659 132.676C207.659 134.352 207.239 136.027 206.82 136.656C206.295 137.284 204.827 140.53 203.463 143.986C202.1 147.442 200.422 150.688 199.688 151.316C198.954 151.944 198.324 153.201 198.219 154.143C198.219 155.191 197.8 156.238 197.171 156.552C196.541 156.866 196.122 157.913 196.122 158.856C196.122 159.903 195.283 161.683 194.234 162.835C193.185 163.987 191.717 166.5 190.878 168.385C190.039 170.27 188.676 171.841 187.941 171.736C187.312 171.736 186.683 172.155 186.683 172.783C186.683 173.411 185.215 175.192 183.537 176.972C181.754 178.752 180.39 180.323 180.39 180.637C180.39 180.951 179.761 181.893 178.922 182.731C178.083 183.569 176.929 184.302 176.3 184.302C175.671 184.302 175.146 184.721 175.146 185.349C175.146 185.977 173.678 187.758 172 189.538C170.217 191.318 168.854 192.889 168.854 193.203C168.854 193.517 168.224 194.459 167.385 195.297C166.546 196.135 165.078 196.868 164.134 196.868C163.19 196.868 161.722 197.601 160.883 198.439C160.044 199.276 159.415 200.428 159.415 201.057C159.415 201.685 158.471 202.104 157.212 202.104C156.059 202.104 154.38 202.837 153.541 203.675C152.702 204.512 152.073 205.664 152.073 206.292C152.073 206.921 151.129 207.34 149.976 207.34C148.822 207.34 147.878 207.758 147.878 208.387C147.878 209.015 146.724 209.434 145.256 209.434C143.788 209.434 142.634 209.853 142.634 210.481C142.634 211.109 141.166 211.528 139.488 211.528C137.39 211.528 136.341 212.052 136.341 213.099C136.341 214.146 135.188 214.67 132.671 214.67C130.678 214.67 129 215.089 129 215.717C129 216.345 127.532 216.764 125.854 216.764C124.071 216.764 122.707 217.183 122.707 217.811C122.707 218.44 120.61 218.858 117.988 218.858C114.527 218.858 113.268 219.277 113.268 220.429C113.268 221.791 110.227 222 91.7683 222C74.0439 222 69.9537 221.686 68.6951 220.429C67.8561 219.592 66.0732 218.858 64.7098 218.858C63.4512 218.858 60.7244 218.335 58.7317 217.707C56.739 217.078 54.222 216.136 53.1732 215.612C52.2293 215.089 50.4463 214.67 49.2927 214.67C48.139 214.67 46.9854 214.251 46.6707 213.623C46.3561 212.994 44.5732 211.842 42.6854 211.005C40.9024 210.062 38.5951 209.329 37.7561 209.329C36.9171 209.329 34.6098 207.968 32.722 206.292C30.939 204.512 28.7366 203.151 28.0024 203.151C27.3732 203.151 24.8561 201.79 22.5488 200.009C20.2415 198.334 17.5146 196.868 16.4659 196.868C15.522 196.868 14.6829 196.24 14.6829 195.507C14.7878 194.878 13.739 193.308 12.4805 192.156C11.222 191.004 7.97073 187.339 0 178.019L3.88049 173.307C6.08293 170.689 8.28537 168.49 8.91463 168.49C9.43902 168.49 13.1098 171.422 16.8854 175.087C20.661 178.752 25.0659 182.731 26.5341 183.988C28.1073 185.349 29.7854 186.396 30.4146 186.396C30.939 186.396 31.5683 186.815 31.6732 187.234C31.8829 187.758 34.1902 189.433 36.9171 190.899C39.7488 192.47 42.6854 193.726 43.5244 193.726C44.3634 193.726 45.0976 194.145 45.0976 194.774C45.0976 195.402 46.3561 196.135 47.9293 196.449C49.6073 196.763 51.8098 197.392 52.9634 197.915C54.1171 198.334 56.9488 199.172 59.2561 199.8C61.5634 200.428 66.8073 201.475 70.7927 202.208C74.778 202.837 80.9659 203.151 84.4268 202.837C87.8878 202.418 93.3415 201.685 96.4878 201.161C99.6341 200.638 104.878 199.381 108.024 198.334C111.171 197.287 114.527 195.925 115.366 195.192C116.205 194.355 117.568 193.726 118.198 193.726C118.932 193.726 121.554 192.47 123.966 190.899C126.483 189.328 129.21 187.234 130.049 186.187C130.888 185.244 132.041 184.407 132.671 184.407C133.3 184.407 134.663 183.15 135.817 181.684C136.971 180.218 138.544 179.066 139.173 179.066C139.907 179.066 140.537 178.752 140.537 178.228C140.537 177.809 142.424 175.401 144.732 172.783C147.039 170.165 149.137 167.233 149.451 166.186C149.766 165.243 150.395 164.406 151.024 164.406C151.654 164.406 152.073 163.673 152.073 162.835C152.073 161.997 152.493 161.264 153.122 161.264C153.751 161.264 154.171 160.322 154.171 159.17C154.171 158.018 154.59 156.971 155.01 156.761C155.534 156.657 157.632 152.468 159.729 147.337C161.827 142.31 163.61 136.865 163.61 135.085C163.61 133.305 164.029 131.943 164.659 131.943C165.288 131.943 165.707 129.325 165.707 126.184C165.707 123.042 166.127 120.215 166.756 119.901C167.385 119.587 167.805 115.189 167.805 109.953C167.805 104.717 167.385 100.319 166.756 100.005C166.127 99.6906 165.707 96.1302 165.707 92.1509C165.707 87.9623 165.288 84.8208 164.659 84.8208C164.029 84.8208 163.61 83.4594 163.61 81.6792C163.61 79.8991 163.19 78.3283 162.561 78.0142C161.932 77.7 161.512 76.5481 161.512 75.3962C161.512 74.2443 160.254 70.3698 158.68 66.7047C157.107 63.1443 155.429 60.1075 155.01 59.8981C154.59 59.7934 154.171 58.7462 154.171 57.5943C154.171 56.4425 153.751 55.5 153.122 55.5C152.493 55.5 152.073 54.767 152.073 53.9292C152.073 53.0915 151.654 52.3585 151.024 52.3585C150.395 52.3585 149.976 51.7302 149.976 50.9972C149.976 50.3689 148.927 48.5887 147.668 47.1226C146.305 45.5519 144.627 43.3528 143.893 42.0962C142.739 40.0019 143.159 39.1642 148.822 32.6717C152.178 28.7972 156.793 24.3991 158.995 22.8283Z" fill="#8700FF"/>
<path d="M122.393 57.8038C130.049 50.1594 137.6 43.2481 139.278 42.4104H139.174C140.852 41.5726 142.425 40.9443 142.844 40.8396C143.369 40.8396 143.998 41.6773 144.417 42.6198C144.837 43.667 146.305 45.6566 147.669 47.1226C149.137 48.5887 150.186 50.2641 150.186 50.9971C150.081 51.7302 150.396 52.3585 151.025 52.3585C151.549 52.3585 152.074 53.0915 152.074 53.9292C152.074 54.767 152.493 55.5 153.122 55.5C153.647 55.5 154.171 56.4424 154.171 57.5943C154.171 58.7462 154.591 59.7934 155.01 59.8981C155.43 60.1075 157.108 63.1443 158.681 66.7047C160.254 70.3698 161.513 74.2443 161.513 75.3962C161.513 76.5481 161.932 77.7 162.561 78.0141C163.086 78.3283 163.61 79.899 163.61 81.6792C163.61 83.4594 164.03 84.8207 164.659 84.8207C165.288 84.8207 165.708 87.9622 165.708 92.1509C165.708 96.1302 166.127 99.6905 166.757 100.005C167.386 100.319 167.805 104.717 167.805 109.953C167.805 115.189 167.386 119.587 166.757 119.901C166.127 120.215 165.708 123.042 165.708 126.184C165.708 129.325 165.183 131.943 164.659 131.943C164.03 131.943 163.61 133.305 163.61 135.085C163.61 136.865 161.827 142.31 159.73 147.337C157.632 152.468 155.535 156.657 155.01 156.761C154.591 156.971 154.171 158.018 154.171 159.17C154.171 160.322 153.647 161.264 153.122 161.264C152.493 161.264 152.074 161.997 152.074 162.835C152.074 163.673 151.549 164.406 151.025 164.406C150.396 164.406 149.766 165.243 149.452 166.186C149.137 167.233 147.039 170.165 144.732 172.783C142.425 175.401 140.537 177.809 140.537 178.333C140.537 178.752 139.908 179.066 139.174 179.066C138.544 179.066 136.971 180.218 135.817 181.684C134.664 183.15 133.3 184.407 132.671 184.407C132.042 184.407 130.888 185.244 130.049 186.187C129.21 187.234 126.483 189.328 123.966 190.899C121.554 192.47 118.932 193.726 118.198 193.726C117.569 193.726 116.205 194.355 115.366 195.192C114.527 195.925 111.171 197.287 108.025 198.334C104.878 199.381 99.6345 200.638 96.4882 201.161C93.3419 201.685 87.8882 202.418 84.4272 202.837C80.9663 203.151 74.7785 202.837 70.7931 202.208C66.7028 201.475 61.5638 200.428 59.2565 199.8C56.9492 199.172 54.1175 198.334 52.9638 197.915C51.8102 197.391 49.6077 196.763 47.9297 196.449C46.3565 196.135 45.098 195.402 45.098 194.774C45.098 194.145 44.3638 193.726 43.5248 193.726C42.6858 193.726 39.7492 192.47 36.9175 190.899C34.1906 189.433 31.8833 187.758 31.6736 187.234C31.5687 186.815 30.9394 186.396 30.415 186.396C29.7858 186.396 28.1077 185.349 26.5345 183.988C25.0663 182.731 20.4516 178.438 8.91504 167.338L15.2077 161.788C18.6687 158.646 22.4443 155.191 23.598 154.039C24.7509 152.888 29.6744 148.076 34.6004 143.262L34.6102 143.253L55.5858 122.309C62.1931 115.503 67.9614 109.953 68.3809 109.953C68.9053 109.953 74.1492 105.136 80.1272 99.2717C86.2102 93.3028 92.1882 87.5434 93.4467 86.3915C94.7053 85.2396 98.6906 81.4698 102.152 77.9094C105.717 74.4541 114.84 65.3454 122.391 57.8063L122.393 57.8038Z" fill="#F473FF"/>
</svg>
