<svg width="226" height="200" viewBox="0 0 226 200" fill="none" xmlns="http://www.w3.org/2000/svg">
<path d="M98.0702 10.486C101.623 5.43759 104.693 1.00375 104.912 0.564751C105.132 0.125757 105.526 -0.0937408 105.746 0.0379576C105.965 0.169656 106.535 1.00375 106.974 1.88173C107.456 2.80362 114.737 14.9199 138.684 54.0343L137.5 59.5217C136.886 62.5508 135.57 68.4772 134.649 72.6916C133.728 76.9059 130.833 90.2952 128.246 102.412C125.614 114.572 123.289 124.493 123.026 124.493C122.763 124.493 122.325 124.317 122.018 124.142C121.623 123.922 122.982 116.986 127.719 94.9925C131.184 79.1448 133.904 66.0627 133.772 65.931C133.64 65.8432 130.877 65.0092 127.632 64.1312C124.386 63.2971 121.667 62.6386 121.623 62.6825C121.623 62.7703 118.246 69.9259 106.886 94.4218L105.263 131.078L110.526 138.98C113.421 143.326 115.921 146.882 116.14 146.882C116.316 146.882 116.711 145.652 117.018 144.16C117.325 142.623 117.807 140.648 118.026 139.77C118.333 138.409 118.596 138.146 119.298 138.321C119.781 138.453 120.175 138.892 120.132 139.331C120.132 139.726 119.605 142.492 117.763 150.745L110.088 159.174C105.877 163.783 102.281 167.427 102.149 167.207C101.974 167.032 98.2456 162.027 93.7719 156.101C89.3421 150.174 85.5702 145.17 85.4386 144.906C85.2632 144.643 82.2807 127.302 78.7281 106.275C75.2193 85.2907 71.6667 64.219 70.8772 59.5217C69.693 52.6295 69.5175 50.8296 69.9561 50.3028C70.2632 49.9516 72.9386 46.1763 75.8772 41.9619C78.8158 37.7476 81.3596 34.1478 81.5351 33.9283C81.6667 33.7527 82.1491 33.7088 82.5877 33.8405C82.9825 33.9722 83.3333 34.2795 83.3333 34.499C83.3333 34.7185 80.8772 38.45 77.8509 42.7521C74.8684 47.0104 72.3684 50.6101 72.3684 50.7418C72.3684 50.8735 74.8684 52.41 77.9386 54.2099C81.0088 56.0098 83.9912 57.7219 84.5614 58.073C85.5263 58.6437 85.5263 58.6437 93.4649 34.6307C97.807 21.3731 101.272 10.486 101.096 10.3543C100.965 10.2226 100.702 10.3543 100.526 10.6177C100.362 10.8234 98.8503 12.9555 97.0732 15.462L96.7105 15.9735C93.7281 20.1 93.0702 20.8024 92.4561 20.4512C92.0175 20.1878 91.6667 19.9244 91.6667 19.7927C91.6667 19.661 94.5614 15.4906 98.0702 10.486Z" fill="#010101"/>
<path d="M7.45614 31.8651C0.307018 31.8651 0 31.8212 0 30.9871C0 30.153 0.307018 30.1091 7.45614 30.1091C14.6053 30.1091 14.9123 30.153 14.9123 30.9871C14.9123 31.8212 14.6053 31.8651 7.45614 31.8651Z" fill="#010101"/>
<path d="M215.351 92.8853V91.7878V90.6903H225.439V92.8853H215.351Z" fill="#010101"/>
<path d="M69.7368 200V194.952V189.903H71.9298V200H69.7368Z" fill="#010101"/>
<path d="M92.6752 20.6706C93.1138 20.6706 94.8682 18.5634 97.0173 15.5344C99.0348 12.6809 100.789 10.3542 100.965 10.3542C101.184 10.3542 101.316 10.4859 101.316 10.7054C101.316 10.881 97.7629 21.7242 93.4208 34.8501C85.5261 58.6437 85.5261 58.6437 84.5611 58.073C83.991 57.7218 81.0085 56.0097 77.9383 54.2098C74.8682 52.4099 72.3682 50.8735 72.3682 50.7418C72.3682 50.6101 74.8682 47.0103 77.8506 42.7521C81.4033 37.7036 83.2454 34.6746 83.1138 34.1917C82.9822 33.6649 84.5173 31.1187 87.412 27.036C90.1313 23.2168 92.2366 20.6706 92.6752 20.6706Z" fill="#A77DF9"/>
<path d="M106.886 94.4218L114.254 78.5302V78.4863C118.333 69.7503 121.754 62.5947 121.886 62.5947C122.017 62.5947 124.736 63.2971 127.85 64.1751C130.964 65.0092 133.64 65.8433 133.771 65.9311C133.903 66.0628 131.184 79.1448 127.719 94.9925C122.982 116.898 121.622 123.922 122.017 124.142C122.456 124.405 122.368 125.503 121.578 129.19C121.052 131.78 120.35 134.897 120.043 136.126C119.736 137.399 119.254 138.277 118.947 138.19C118.64 138.146 118.245 138.848 118.026 139.726C117.807 140.648 117.324 142.623 117.017 144.16C116.71 145.653 116.315 146.882 116.14 146.882C115.921 146.882 113.421 143.326 105.263 131.078L106.886 94.4218Z" fill="white"/>
<path d="M20.9645 16.3686C20.9206 12.4176 21.0522 9.03738 21.2715 8.90568C21.4908 8.73009 22.0171 8.59839 22.4557 8.59839C23.2013 8.59839 23.2452 9.12518 23.2452 23.5242H21.0522L20.9645 16.3686Z" fill="#010101"/>
<path d="M37.061 31.8651C29.6925 31.8651 29.3855 31.8212 29.3855 30.9871C29.3855 30.153 29.6925 30.1091 37.061 30.1091C44.4294 30.1091 44.7364 30.153 44.7364 30.9871C44.7364 31.8212 44.4294 31.8651 37.061 31.8651Z" fill="#010101"/>
<path d="M21.1405 45.8595L21.1399 45.8251L21.0522 38.45H23.2452V53.3758L22.2802 53.288C21.2731 53.1566 21.2715 53.0688 21.1405 45.8595Z" fill="#010101"/>
<path d="M33.289 75.4573C33.289 73.9647 33.3767 72.4282 33.5083 72.077C33.6838 71.5941 34.6048 71.9014 37.5873 73.3501C39.6925 74.3598 46.3592 77.4327 63.3329 85.159L68.5522 118.128C71.4469 136.258 73.9031 151.886 74.2101 154.608L72.061 152.194C70.8767 150.877 61.2276 140.297 31.2276 107.636L32.2364 92.9293C32.8066 84.8079 33.289 76.9499 33.289 75.4573Z" fill="#010101"/>
<path d="M160.043 79.1009C167.675 75.8524 174.166 72.9989 174.517 72.7355C174.912 72.516 175.482 72.2965 175.833 72.2965C176.403 72.2965 176.491 74.6671 176.315 110.665L155.131 133.405C143.464 145.916 133.903 156.144 133.859 156.144C133.771 156.144 133.815 155.574 133.903 154.915C133.991 154.257 136.666 138.497 139.824 119.927C143.026 101.314 145.745 85.8614 145.921 85.5541C146.096 85.2468 152.456 82.3056 160.043 79.1009Z" fill="#010101"/>
<path d="M210 82.8763C209.956 80.2862 210.087 78.0034 210.263 77.8278C210.482 77.6961 211.008 77.5205 211.447 77.5205C212.193 77.5205 212.236 78.0034 212.236 87.6174H210.043L210 82.8763Z" fill="#010101"/>
<path d="M196.842 92.0952C196.798 91.6562 196.929 91.1733 197.105 90.9977C197.324 90.866 199.605 90.6904 206.973 90.6904V92.8854H201.929C197.368 92.8854 196.886 92.8415 196.842 92.0952Z" fill="#010101"/>
<path d="M210.043 106.055V101.007V95.9583H212.236V106.055H210.043Z" fill="#010101"/>
<path d="M69.6925 181.562L69.7364 176.514L69.7366 176.496C69.7803 171.553 69.7814 171.422 70.7452 171.553C71.6224 171.685 71.6662 171.948 71.8855 181.562H69.6925Z" fill="#010101"/>
<path d="M56.5346 186.83V185.733V184.635H66.6224V186.83H56.5346Z" fill="#010101"/>
<path d="M74.4732 186.04C74.4294 185.601 74.561 185.118 74.7364 184.943C74.9557 184.811 77.2364 184.635 84.6048 184.635V186.83H79.561C74.9995 186.83 74.5171 186.786 74.4732 186.04Z" fill="#010101"/>
<path d="M124.649 60.7069C124.737 60.5313 127.237 58.907 130.263 57.1072C133.289 55.3073 135.877 53.8586 136.052 53.8147C136.272 53.8147 136.403 54.0342 136.403 54.2537C136.403 54.4732 136.008 56.6243 135.482 58.9509C134.956 61.3215 134.473 63.3409 134.386 63.4726C134.254 63.6043 132.017 63.1214 129.386 62.3751C126.71 61.6288 124.605 60.8825 124.649 60.7069Z" fill="#A77DF9"/>
<path d="M74.3418 67.0723L79.8243 64.3945C82.8067 62.9019 85.4383 61.7166 85.6576 61.7166C85.8769 61.7166 90.219 69.0917 104.737 94.4217L103.903 111.762C103.465 121.288 103.114 129.497 103.114 129.98C103.114 130.507 102.105 131.692 100.57 132.922C99.1664 134.107 97.8944 135.029 97.719 135.029C97.4997 135.029 96.7979 134.546 96.0523 133.931C95.3067 133.317 94.6488 133.009 94.5172 133.273C94.3857 133.536 92.8944 132.614 91.2278 131.297C89.5611 129.98 88.2453 128.619 88.333 128.356C88.4646 128.049 87.4558 126.951 86.14 125.942C83.8155 124.098 83.7716 124.01 83.2892 120.849C83.026 119.137 80.8769 106.318 74.3418 67.0723Z" fill="#A77DF9"/>
<path d="M95.8768 34.06C100.614 19.9244 104.693 7.89595 104.956 7.32526C105.219 6.75457 105.482 6.35947 105.526 6.44727C105.57 6.53507 108.815 18.6952 112.675 33.4015C116.535 48.1079 119.736 60.4875 119.736 60.8387C119.736 61.1899 116.666 68.126 112.938 76.2035C109.166 84.281 105.964 91.0415 105.789 91.2171C105.614 91.3488 101.491 84.6322 96.6224 76.2913C91.754 67.9065 87.6312 60.7509 87.4996 60.3997C87.368 60.0485 91.1399 48.1957 95.8768 34.06Z" fill="white"/>
<path d="M85.789 135.819C85.1312 132 84.6926 128.576 84.7364 128.18C84.8241 127.566 85.0873 127.654 86.2715 128.619C87.2364 129.38 87.7627 129.585 87.8504 129.234C87.9382 128.883 89.2101 129.629 90.9645 131.078C92.7189 132.483 93.8154 133.712 93.6838 134.063C93.5083 134.37 94.0785 135.073 96.4908 136.785L96.4469 143.94C96.4469 147.847 96.2715 152.018 95.8329 155.354L91.7101 149.911C89.4733 146.926 87.4557 144.072 87.2364 143.589C87.061 143.106 86.4031 139.594 85.789 135.819Z" fill="white"/>
<path d="M49.0355 87.6173C44.2548 82.3055 40.2197 77.6521 40.0443 77.2571C39.825 76.862 43.7724 78.4423 49.7811 81.2519C55.3513 83.842 60.132 86.0369 60.439 86.1247C60.7022 86.2125 60.9654 86.432 60.9654 86.6076C60.9654 86.8271 60.2636 89.2416 59.3864 92.0073C58.5531 94.7729 57.8075 97.0996 57.7636 97.1435C57.7197 97.1874 53.7724 92.8853 49.0355 87.6173Z" fill="#A77DF9"/>
<path d="M149.255 86.0808C149.737 85.8174 154.299 83.842 159.386 81.647C164.43 79.452 168.729 77.7399 168.948 77.8277C169.123 77.8716 168.29 78.8374 167.106 79.9349C165.878 81.0324 165 82.1738 165.176 82.4372C165.307 82.7884 163.86 84.5005 161.886 86.3881C159.913 88.2758 158.114 89.7245 157.895 89.5928C157.632 89.4611 156.185 90.5147 154.606 91.8756C153.027 93.2804 151.623 94.3339 151.536 94.2022C151.448 94.0705 150.658 92.3146 149.825 90.2513C148.334 86.5198 148.334 86.5198 149.255 86.0808Z" fill="#A77DF9"/>
<path d="M50.4829 125.459C42.2811 116.503 35.5706 108.909 35.6145 108.645C35.6145 108.382 35.9215 108.294 36.2724 108.426C36.5794 108.557 37.939 108.689 39.2548 108.689C41.5355 108.689 41.7987 108.821 44.0794 110.884C45.3952 112.069 46.6232 112.991 46.8425 112.86C47.018 112.772 48.6846 114.22 50.6145 116.064C52.5004 117.908 53.9478 119.62 53.8162 119.883C53.6408 120.147 54.6496 121.42 55.9653 122.737C58.0268 124.756 59.1232 126.556 62.7636 133.843C65.132 138.585 67.018 142.623 66.8864 142.799C66.7548 143.018 66.3601 142.843 66.0531 142.492C65.7461 142.14 58.7285 134.458 50.4829 125.459Z" fill="#A77DF9"/>
<path d="M152.106 119.883L158.816 114.923L165.571 109.962L168.202 110.226C169.65 110.357 171.36 110.621 171.974 110.796C173.071 111.104 172.325 111.938 157.15 128.224C148.422 137.619 141.053 145.389 140.79 145.433C140.571 145.521 140.351 145.433 140.395 145.257C140.395 145.038 143.027 139.287 152.106 119.883Z" fill="#A77DF9"/>
<path d="M40.0877 92.9731C38.2455 84.9834 36.8859 78.3107 37.1052 78.179C37.3245 78.0473 37.8069 78.2668 38.2017 78.7058C38.5964 79.1448 42.4122 83.4469 46.7105 88.2758C51.0087 93.1048 55.1315 97.7142 57.2368 99.9531L57.7192 110.577C58.0262 116.415 58.1578 121.288 58.0701 121.42C57.9824 121.552 57.2806 121.025 56.5789 120.322C55.8333 119.532 55.0438 119.137 54.7368 119.313C54.3859 119.488 52.8508 118.303 50.6578 116.152C48.728 114.22 47.2806 112.508 47.4999 112.333C47.6754 112.157 46.842 111.016 43.421 107.592L40.0877 92.9731Z" fill="white"/>
<path d="M166.184 83.1396C166.579 83.1835 168.07 82.086 169.517 80.5934C170.921 79.1448 172.281 77.9595 172.456 77.9595C172.632 77.9595 172.807 78.2229 172.807 78.5302C172.807 78.7936 171.009 85.4663 168.816 93.3243C166.667 101.182 164.649 107.811 164.342 108.118C164.035 108.426 161.272 110.533 152.412 116.942L152.149 97.0557L155.482 93.895C157.281 92.139 158.684 90.5147 158.553 90.2513C158.421 89.9879 159.956 88.2758 161.886 86.4321C163.903 84.5005 165.789 83.0518 166.184 83.1396Z" fill="white"/>
<path d="M34.2543 94.6413C34.6929 88.4953 35.0438 83.1396 35.0438 82.7884C35.0877 82.3933 35.2192 82.3055 35.4385 82.5689C35.6578 82.8323 36.9298 88.1441 38.3333 94.4218C39.6929 100.699 40.7894 106.011 40.7894 106.275C40.7894 106.582 39.5175 106.582 37.1929 106.362C35.1754 106.143 33.5087 105.967 33.4648 105.923C33.4648 105.88 33.7719 100.787 34.2543 94.6413Z" fill="white"/>
<path d="M142.544 117.03C144.956 102.894 146.93 91.2171 146.93 91.0415C146.93 90.822 147.193 90.6903 147.456 90.6903C147.763 90.6903 148.465 91.9634 148.991 93.5438C149.956 96.2216 150 97.0557 150 119.225L144.474 131.21C141.403 137.751 138.728 143.326 138.509 143.589C138.289 143.853 138.158 143.809 138.158 143.37C138.158 143.018 140.132 131.166 142.544 117.03Z" fill="white"/>
</svg>
