<svg width="376" height="115" viewBox="0 0 376 115" fill="none" xmlns="http://www.w3.org/2000/svg">
<mask id="mask0_1555_580" style="mask-type:alpha" maskUnits="userSpaceOnUse" x="1" y="15" width="373" height="76">
<path d="M43.488 71.72L49.056 83.432C49.344 83.912 49.056 84.584 48.48 85.064C44.64 88.328 36.576 90.536 29.76 90.536C14.4 90.536 1.92 78.056 1.92 62.696C1.92 47.336 14.4 34.856 29.76 34.856C36.288 34.856 44.352 37.064 48.48 40.328C49.056 40.808 49.344 41.48 49.056 41.96L43.488 53.672C43.104 54.44 42.432 54.728 41.76 54.248C39.36 52.52 35.712 51.368 32.544 51.368C26.688 51.368 21.888 55.88 21.888 62.696C21.888 69.512 26.688 74.024 32.544 74.024C35.712 74.024 39.36 72.872 41.76 71.144C42.432 70.664 43.104 70.952 43.488 71.72ZM82.4858 36.2H84.9818C85.7498 36.2 86.3258 36.776 86.3258 37.544V50.024C86.3258 50.792 85.7498 51.368 84.9818 51.368H82.4858C78.8378 51.368 75.5738 53 74.3258 55.4V87.56C74.3258 88.328 73.6538 89 72.8858 89H55.9898C55.2218 89 54.5498 88.328 54.5498 87.56V37.544C54.5498 36.872 55.2218 36.2 55.9898 36.2H68.2778C69.0458 36.2 69.5258 36.872 69.8138 37.64L70.8698 40.808C73.7498 37.928 77.9738 36.2 82.4858 36.2ZM133.937 71.72L138.065 83.624C138.257 84.296 138.065 84.68 137.393 85.064C132.305 88.424 124.913 90.44 117.521 90.44C100.529 90.44 89.2013 79.304 89.2013 62.696C89.2013 45.992 100.337 34.856 117.041 34.856C132.977 34.856 142.385 45.128 142.385 62.6C142.385 64.04 142.289 65.48 142.001 66.92C141.905 67.688 141.425 68.072 140.561 68.072H109.745C109.745 68.072 109.745 74.12 117.809 74.12C122.705 74.12 128.177 72.968 132.497 70.952C133.169 70.664 133.745 71.048 133.937 71.72ZM109.649 57.992H123.281C123.281 53.768 120.689 50.984 116.849 50.984C112.529 50.984 109.649 53.768 109.649 57.992ZM156.665 53.96L151.097 42.152C150.809 41.48 151.001 40.808 151.577 40.328C156.761 37.064 165.113 34.856 172.409 34.856C187.001 34.856 196.697 44.168 196.697 58.184V87.56C196.697 88.424 196.121 89 195.257 89H183.449C182.585 89 181.817 88.424 181.625 87.56L180.953 84.68C177.785 88.328 172.217 90.44 165.593 90.44C153.881 90.44 146.105 83.72 146.201 73.736C146.297 63.752 153.305 57.032 163.769 57.032C168.857 57.032 173.753 58.952 176.921 61.928V58.184C176.921 54.056 173.945 51.368 169.529 51.368C165.785 51.368 161.273 52.616 158.105 54.44C157.529 54.728 156.953 54.536 156.665 53.96ZM172.313 70.28C169.529 70.28 167.609 71.624 167.609 73.736C167.609 75.848 169.529 77.192 172.313 77.192C175.097 77.192 177.017 75.848 177.017 73.736C177.017 71.624 175.097 70.28 172.313 70.28ZM227.708 36.2H234.908C235.772 36.2 236.348 36.776 236.348 37.544L235.292 46.856C235.196 47.624 234.62 48.296 233.852 48.296H227.708V87.56C227.708 88.328 227.036 89 226.268 89H209.372C208.604 89 207.932 88.328 207.932 87.56V48.296H202.46C201.788 48.296 201.116 47.72 201.116 46.952V37.64C201.116 36.776 201.788 36.2 202.46 36.2H207.932V25.736C207.932 25.064 208.604 24.488 209.372 24.392L226.268 22.76C227.036 22.664 227.708 23.432 227.708 24.104V36.2ZM250.721 15.08C257.057 15.08 261.281 19.016 261.281 24.968C261.281 30.632 257.057 34.472 250.721 34.472C244.385 34.472 240.161 30.632 240.161 24.968C240.161 19.016 244.385 15.08 250.721 15.08ZM242.369 36.2H259.265C260.033 36.2 260.705 36.872 260.705 37.544V87.56C260.705 88.328 260.033 89 259.265 89H242.369C241.601 89 240.929 88.328 240.929 87.56V37.544C240.929 36.872 241.601 36.2 242.369 36.2ZM302.204 36.2H320.348C321.212 36.2 321.596 36.872 321.404 37.544L304.412 87.656C304.124 88.328 303.26 89 302.492 89H283.1C282.332 89 281.564 88.328 281.372 87.656L264.284 37.544C263.995 36.872 264.476 36.2 265.244 36.2H283.292C284.156 36.2 284.828 36.776 285.116 37.544L292.796 65.288L300.476 37.544C300.668 36.68 301.532 36.2 302.204 36.2ZM365.219 71.72L369.347 83.624C369.539 84.296 369.347 84.68 368.675 85.064C363.587 88.424 356.195 90.44 348.803 90.44C331.811 90.44 320.483 79.304 320.483 62.696C320.483 45.992 331.619 34.856 348.323 34.856C364.259 34.856 373.667 45.128 373.667 62.6C373.667 64.04 373.571 65.48 373.283 66.92C373.187 67.688 372.707 68.072 371.843 68.072H341.027C341.027 68.072 341.027 74.12 349.091 74.12C353.987 74.12 359.459 72.968 363.779 70.952C364.451 70.664 365.027 71.048 365.219 71.72ZM340.931 57.992H354.563C354.563 53.768 351.971 50.984 348.131 50.984C343.811 50.984 340.931 53.768 340.931 57.992Z" fill="white"/>
</mask>
<g mask="url(#mask0_1555_580)">
<g clip-path="url(#clip0_1555_580)">
<rect width="1431" height="1024" transform="translate(-350 -309)" fill="white"/>
<g filter="url(#filter0_f_1555_580)">
<path d="M14.3205 91.9125L388.265 166.659C388.265 166.659 390.545 169.946 260.154 539.159C129.762 908.372 -153.617 793.93 -295.991 850.697C-438.365 907.464 -594.578 692.029 -578.497 503.146C-565.12 346.029 -330.491 126.6 -330.491 126.6C-185.482 61.1425 14.3205 91.9125 14.3205 91.9125Z" fill="url(#paint0_linear_1555_580)"/>
</g>
<g style="mix-blend-mode:multiply" filter="url(#filter1_f_1555_580)">
<path d="M232.701 261.148L481.972 -30.4212C481.972 -30.4212 485.543 -30.3707 685.022 326.553C884.5 683.476 653.722 867.107 620.566 1033.15C587.41 1199.2 349.809 1202.05 221.345 1065.46C114.486 951.839 77.921 596.91 77.921 596.91C106.156 422.857 232.701 261.148 232.701 261.148Z" fill="url(#paint1_linear_1555_580)"/>
</g>
<g filter="url(#filter2_f_1555_580)">
<path d="M398.547 409.977L265.462 50.2036C265.462 50.2036 267.247 47.1096 676.13 46.9077C1085.01 46.7058 1132.87 337.719 1261.69 447.606C1390.51 557.493 1277.19 766.344 1095.3 811.937C944.011 849.862 616.277 708.785 616.277 708.785C478.063 599.293 398.547 409.977 398.547 409.977Z" fill="url(#paint2_linear_1555_580)"/>
</g>
<g style="mix-blend-mode:plus-darker" filter="url(#filter3_f_1555_580)">
<path d="M868.897 218.383L489.887 159.224C489.887 159.224 488.056 156.158 687.181 -200.962C886.307 -558.083 1163.73 -458.016 1322.47 -516.939C1481.22 -575.861 1608.34 -375.106 1559.49 -194.071C1518.86 -43.4817 1235.93 173.918 1235.93 173.918C1072.96 241.231 868.897 218.383 868.897 218.383Z" fill="url(#paint3_linear_1555_580)"/>
</g>
<g style="mix-blend-mode:hard-light" filter="url(#filter4_f_1555_580)">
<path d="M845.32 -96.9904L792.952 387.442C792.952 387.442 789.042 390.577 306.092 246.911C-176.859 103.245 -63.8856 -267.556 -152.013 -446.552C-240.141 -625.548 15.3142 -839.685 256.642 -831.124C457.384 -824.003 762.231 -537.063 762.231 -537.063C861.676 -355.242 845.32 -96.9904 845.32 -96.9904Z" fill="url(#paint4_linear_1555_580)"/>
</g>
<g filter="url(#filter5_f_1555_580)">
<path d="M178.609 -165.691L341.549 203.675C341.549 203.675 340.142 207.751 -51.9084 333.55C-443.958 459.349 -518.418 142.211 -652.735 56.4735C-787.052 -29.2643 -698.891 -302.213 -528.966 -410.057C-387.618 -499.764 -59.5091 -439.547 -59.5091 -439.547C83.7731 -357.143 178.609 -165.691 178.609 -165.691Z" fill="url(#paint5_linear_1555_580)"/>
</g>
</g>
</g>
<defs>
<filter id="filter0_f_1555_580" x="-779.643" y="-115.313" width="1367.91" height="1175.26" filterUnits="userSpaceOnUse" color-interpolation-filters="sRGB">
<feFlood flood-opacity="0" result="BackgroundImageFix"/>
<feBlend mode="normal" in="SourceGraphic" in2="BackgroundImageFix" result="shape"/>
<feGaussianBlur stdDeviation="100" result="effect1_foregroundBlur_1555_580"/>
</filter>
<filter id="filter1_f_1555_580" x="-122.079" y="-230.421" width="1087.43" height="1593.6" filterUnits="userSpaceOnUse" color-interpolation-filters="sRGB">
<feFlood flood-opacity="0" result="BackgroundImageFix"/>
<feBlend mode="normal" in="SourceGraphic" in2="BackgroundImageFix" result="shape"/>
<feGaussianBlur stdDeviation="100" result="effect1_foregroundBlur_1555_580"/>
</filter>
<filter id="filter2_f_1555_580" x="65.4619" y="-153.092" width="1451.48" height="1171.5" filterUnits="userSpaceOnUse" color-interpolation-filters="sRGB">
<feFlood flood-opacity="0" result="BackgroundImageFix"/>
<feBlend mode="normal" in="SourceGraphic" in2="BackgroundImageFix" result="shape"/>
<feGaussianBlur stdDeviation="100" result="effect1_foregroundBlur_1555_580"/>
</filter>
<filter id="filter3_f_1555_580" x="289.887" y="-727.417" width="1480.2" height="1149.54" filterUnits="userSpaceOnUse" color-interpolation-filters="sRGB">
<feFlood flood-opacity="0" result="BackgroundImageFix"/>
<feBlend mode="normal" in="SourceGraphic" in2="BackgroundImageFix" result="shape"/>
<feGaussianBlur stdDeviation="100" result="effect1_foregroundBlur_1555_580"/>
</filter>
<filter id="filter4_f_1555_580" x="-369.809" y="-1031.37" width="1416.13" height="1618.82" filterUnits="userSpaceOnUse" color-interpolation-filters="sRGB">
<feFlood flood-opacity="0" result="BackgroundImageFix"/>
<feBlend mode="normal" in="SourceGraphic" in2="BackgroundImageFix" result="shape"/>
<feGaussianBlur stdDeviation="100" result="effect1_foregroundBlur_1555_580"/>
</filter>
<filter id="filter5_f_1555_580" x="-918.116" y="-659.326" width="1459.67" height="1222.01" filterUnits="userSpaceOnUse" color-interpolation-filters="sRGB">
<feFlood flood-opacity="0" result="BackgroundImageFix"/>
<feBlend mode="normal" in="SourceGraphic" in2="BackgroundImageFix" result="shape"/>
<feGaussianBlur stdDeviation="100" result="effect1_foregroundBlur_1555_580"/>
</filter>
<linearGradient id="paint0_linear_1555_580" x1="355.439" y1="119.339" x2="-524.558" y2="729.787" gradientUnits="userSpaceOnUse">
<stop stop-color="#A8D3F6"/>
<stop offset="1" stop-color="#8E5199"/>
</linearGradient>
<linearGradient id="paint1_linear_1555_580" x1="430.559" y1="-31.1471" x2="413.701" y2="1162.79" gradientUnits="userSpaceOnUse">
<stop stop-color="#F4A7E6"/>
<stop offset="1" stop-color="#E912F0"/>
</linearGradient>
<linearGradient id="paint2_linear_1555_580" x1="239.768" y1="94.7416" x2="1274.05" y2="691.423" gradientUnits="userSpaceOnUse">
<stop stop-color="#E9FAC4"/>
<stop offset="1" stop-color="#721A95"/>
</linearGradient>
<linearGradient id="paint3_linear_1555_580" x1="516.252" y1="203.369" x2="1541.39" y2="-408.891" gradientUnits="userSpaceOnUse">
<stop stop-color="#D3A7F4"/>
<stop offset="1" stop-color="#26C5E1"/>
</linearGradient>
<linearGradient id="paint4_linear_1555_580" x1="849.231" y1="342.313" x2="-24.6208" y2="-747.458" gradientUnits="userSpaceOnUse">
<stop stop-color="#BB6AE6"/>
<stop offset="1" stop-color="#444BA0"/>
</linearGradient>
<linearGradient id="paint5_linear_1555_580" x1="361.813" y1="144.999" x2="-688.533" y2="-217.746" gradientUnits="userSpaceOnUse">
<stop stop-color="#A7F4B4"/>
<stop offset="1" stop-color="#4497A0"/>
</linearGradient>
<clipPath id="clip0_1555_580">
<rect width="1431" height="1024" fill="white" transform="translate(-350 -309)"/>
</clipPath>
</defs>
</svg>
